<?xml version="1.0" encoding="UTF-8" standalone="no"?>
<!DOCTYPE svg PUBLIC "-//W3C//DTD SVG 1.1//EN"
 "http://www.w3.org/Graphics/SVG/1.1/DTD/svg11.dtd">
<!-- Generated by graphviz version 12.2.1 (0)
 -->
<!-- Title: lspserver::LSPServer Pages: 1 -->
<svg width="624pt" height="185pt"
 viewBox="0.00 0.00 624.00 184.75" xmlns="http://www.w3.org/2000/svg" xmlns:xlink="http://www.w3.org/1999/xlink">
<g id="graph0" class="graph" transform="scale(1 1) rotate(0) translate(4 180.75)">
<title>lspserver::LSPServer</title>
<!-- Node1 -->
<g id="Node000001" class="node">
<title>Node1</title>
<g id="a_Node000001"><a xlink:title=" ">
<polygon fill="#999999" stroke="#666666" points="300.5,-98.75 184.75,-98.75 184.75,-78 300.5,-78 300.5,-98.75"/>
<text text-anchor="middle" x="242.62" y="-85.25" font-family="Helvetica,sans-Serif" font-size="10.00">lspserver::LSPServer</text>
</a>
</g>
</g>
<!-- Node3 -->
<g id="Node000003" class="node">
<title>Node3</title>
<g id="a_Node000003"><a xlink:href="classnixd_1_1AttrSetClient.html" target="_top" xlink:title=" ">
<polygon fill="white" stroke="#666666" points="447.75,-176.75 342.5,-176.75 342.5,-156 447.75,-156 447.75,-176.75"/>
<text text-anchor="middle" x="395.12" y="-163.25" font-family="Helvetica,sans-Serif" font-size="10.00">nixd::AttrSetClient</text>
</a>
</g>
</g>
<!-- Node1&#45;&gt;Node3 -->
<g id="edge2_Node000001_Node000003" class="edge">
<title>Node1&#45;&gt;Node3</title>
<g id="a_edge2_Node000001_Node000003"><a xlink:title=" ">
<path fill="none" stroke="#63b8ff" d="M267.76,-105.55C286.02,-118.02 312.05,-134.68 336.5,-146.38 343.57,-149.76 351.37,-152.85 358.88,-155.55"/>
<polygon fill="#63b8ff" stroke="#63b8ff" points="269.93,-102.8 259.72,-99.98 265.94,-108.55 269.93,-102.8"/>
</a>
</g>
</g>
<!-- Node4 -->
<g id="Node000004" class="node">
<title>Node4</title>
<g id="a_Node000004"><a xlink:href="classnixd_1_1AttrSetProvider.html" target="_top" xlink:title="Main RPC class for attrset provider.">
<polygon fill="white" stroke="#666666" points="453.75,-137.75 336.5,-137.75 336.5,-117 453.75,-117 453.75,-137.75"/>
<text text-anchor="middle" x="395.12" y="-124.25" font-family="Helvetica,sans-Serif" font-size="10.00">nixd::AttrSetProvider</text>
</a>
</g>
</g>
<!-- Node1&#45;&gt;Node4 -->
<g id="edge3_Node000001_Node000004" class="edge">
<title>Node1&#45;&gt;Node4</title>
<g id="a_edge3_Node000001_Node000004"><a xlink:title=" ">
<path fill="none" stroke="#63b8ff" d="M296.6,-102.1C314.82,-106.82 334.95,-112.04 352.17,-116.5"/>
<polygon fill="#63b8ff" stroke="#63b8ff" points="297.57,-98.74 287.01,-99.62 295.82,-105.52 297.57,-98.74"/>
</a>
</g>
</g>
<!-- Node5 -->
<g id="Node000005" class="node">
<title>Node5</title>
<g id="a_Node000005"><a xlink:href="classnixd_1_1Controller.html" target="_top" xlink:title=" ">
<polygon fill="white" stroke="#666666" points="440.62,-98.75 349.62,-98.75 349.62,-78 440.62,-78 440.62,-98.75"/>
<text text-anchor="middle" x="395.12" y="-85.25" font-family="Helvetica,sans-Serif" font-size="10.00">nixd::Controller</text>
</a>
</g>
</g>
<!-- Node1&#45;&gt;Node5 -->
<g id="edge4_Node000001_Node000005" class="edge">
<title>Node1&#45;&gt;Node5</title>
<g id="a_edge4_Node000001_Node000005"><a xlink:title=" ">
<path fill="none" stroke="#63b8ff" d="M312.43,-88.38C325.06,-88.38 337.92,-88.38 349.6,-88.38"/>
<polygon fill="#63b8ff" stroke="#63b8ff" points="312.47,-84.88 302.47,-88.38 312.47,-91.88 312.47,-84.88"/>
</a>
</g>
</g>
<!-- Node6 -->
<g id="Node000006" class="node">
<title>Node6</title>
<g id="a_Node000006"><a xlink:href="classnixd_1_1EvalClient.html" target="_top" xlink:title=" ">
<polygon fill="white" stroke="#666666" points="441.38,-59.75 348.88,-59.75 348.88,-39 441.38,-39 441.38,-59.75"/>
<text text-anchor="middle" x="395.12" y="-46.25" font-family="Helvetica,sans-Serif" font-size="10.00">nixd::EvalClient</text>
</a>
</g>
</g>
<!-- Node1&#45;&gt;Node6 -->
<g id="edge5_Node000001_Node000006" class="edge">
<title>Node1&#45;&gt;Node6</title>
<g id="a_edge5_Node000001_Node000006"><a xlink:title=" ">
<path fill="none" stroke="#63b8ff" d="M296.6,-74.65C314.82,-69.93 334.95,-64.71 352.17,-60.25"/>
<polygon fill="#63b8ff" stroke="#63b8ff" points="295.82,-71.23 287.01,-77.13 297.57,-78.01 295.82,-71.23"/>
</a>
</g>
</g>
<!-- Node8 -->
<g id="Node000008" class="node">
<title>Node8</title>
<g id="a_Node000008"><a xlink:href="classnixd_1_1EvalProvider.html" target="_top" xlink:title=" ">
<polygon fill="white" stroke="#666666" points="447.38,-20.75 342.88,-20.75 342.88,0 447.38,0 447.38,-20.75"/>
<text text-anchor="middle" x="395.12" y="-7.25" font-family="Helvetica,sans-Serif" font-size="10.00">nixd::EvalProvider</text>
</a>
</g>
</g>
<!-- Node1&#45;&gt;Node8 -->
<g id="edge7_Node000001_Node000008" class="edge">
<title>Node1&#45;&gt;Node8</title>
<g id="a_edge7_Node000001_Node000008"><a xlink:title=" ">
<path fill="none" stroke="#63b8ff" d="M267.76,-71.2C286.02,-58.73 312.05,-42.07 336.5,-30.38 343.57,-26.99 351.37,-23.9 358.88,-21.2"/>
<polygon fill="#63b8ff" stroke="#63b8ff" points="265.94,-68.2 259.72,-76.77 269.93,-73.95 265.94,-68.2"/>
</a>
</g>
</g>
<!-- Node2 -->
<g id="Node000002" class="node">
<title>Node2</title>
<g id="a_Node000002"><a xlink:href="classlspserver_1_1MessageHandler.html" target="_top" xlink:title=" ">
<polygon fill="white" stroke="#666666" points="148.75,-98.75 0,-98.75 0,-78 148.75,-78 148.75,-98.75"/>
<text text-anchor="middle" x="74.38" y="-85.25" font-family="Helvetica,sans-Serif" font-size="10.00">lspserver::MessageHandler</text>
</a>
</g>
</g>
<!-- Node2&#45;&gt;Node1 -->
<g id="edge1_Node000001_Node000002" class="edge">
<title>Node2&#45;&gt;Node1</title>
<g id="a_edge1_Node000001_Node000002"><a xlink:title=" ">
<path fill="none" stroke="#63b8ff" d="M160.28,-88.38C168.43,-88.38 176.55,-88.38 184.34,-88.38"/>
<polygon fill="#63b8ff" stroke="#63b8ff" points="160.29,-84.88 150.29,-88.38 160.29,-91.88 160.29,-84.88"/>
</a>
</g>
</g>
<!-- Node7 -->
<g id="Node000007" class="node">
<title>Node7</title>
<g id="a_Node000007"><a xlink:href="classnixd_1_1OwnedEvalClient.html" target="_top" xlink:title=" ">
<polygon fill="white" stroke="#666666" points="616,-59.75 489.75,-59.75 489.75,-39 616,-39 616,-59.75"/>
<text text-anchor="middle" x="552.88" y="-46.25" font-family="Helvetica,sans-Serif" font-size="10.00">nixd::OwnedEvalClient</text>
</a>
</g>
</g>
<!-- Node6&#45;&gt;Node7 -->
<g id="edge6_Node000006_Node000007" class="edge">
<title>Node6&#45;&gt;Node7</title>
<g id="a_edge6_Node000006_Node000007"><a xlink:title=" ">
<path fill="none" stroke="#63b8ff" d="M453.09,-49.38C464.86,-49.38 477.32,-49.38 489.27,-49.38"/>
<polygon fill="#63b8ff" stroke="#63b8ff" points="453.11,-45.88 443.11,-49.38 453.11,-52.88 453.11,-45.88"/>
</a>
</g>
</g>
</g>
</svg>
