<?xml version="1.0" encoding="UTF-8" standalone="no"?>
<!DOCTYPE svg PUBLIC "-//W3C//DTD SVG 1.1//EN"
 "http://www.w3.org/Graphics/SVG/1.1/DTD/svg11.dtd">
<!-- Generated by graphviz version 12.2.1 (0)
 -->
<!-- Title: nixf::ExprIf Pages: 1 -->
<svg width="77pt" height="142pt"
 viewBox="0.00 0.00 76.50 142.25" xmlns="http://www.w3.org/2000/svg" xmlns:xlink="http://www.w3.org/1999/xlink">
<g id="graph0" class="graph" transform="scale(1 1) rotate(0) translate(4 138.25)">
<title>nixf::ExprIf</title>
<!-- Node1 -->
<g id="Node000001" class="node">
<title>Node1</title>
<g id="a_Node000001"><a xlink:title=" ">
<polygon fill="#999999" stroke="#666666" points="68.5,-20.75 0,-20.75 0,0 68.5,0 68.5,-20.75"/>
<text text-anchor="middle" x="34.25" y="-7.25" font-family="Helvetica,sans-Serif" font-size="10.00">nixf::ExprIf</text>
</a>
</g>
</g>
<!-- Node2 -->
<g id="Node000002" class="node">
<title>Node2</title>
<g id="a_Node000002"><a xlink:href="classnixf_1_1Expr.html" target="_top" xlink:title=" ">
<polygon fill="white" stroke="#666666" points="65.12,-77.5 3.38,-77.5 3.38,-56.75 65.12,-56.75 65.12,-77.5"/>
<text text-anchor="middle" x="34.25" y="-64" font-family="Helvetica,sans-Serif" font-size="10.00">nixf::Expr</text>
</a>
</g>
</g>
<!-- Node2&#45;&gt;Node1 -->
<g id="edge1_Node000001_Node000002" class="edge">
<title>Node2&#45;&gt;Node1</title>
<g id="a_edge1_Node000001_Node000002"><a xlink:title=" ">
<path fill="none" stroke="#63b8ff" d="M34.25,-44.88C34.25,-36.66 34.25,-27.68 34.25,-21.08"/>
<polygon fill="#63b8ff" stroke="#63b8ff" points="30.75,-44.82 34.25,-54.82 37.75,-44.82 30.75,-44.82"/>
</a>
</g>
</g>
<!-- Node3 -->
<g id="Node000003" class="node">
<title>Node3</title>
<g id="a_Node000003"><a xlink:href="classnixf_1_1Node.html" target="_top" xlink:title=" ">
<polygon fill="white" stroke="#666666" points="67,-134.25 1.5,-134.25 1.5,-113.5 67,-113.5 67,-134.25"/>
<text text-anchor="middle" x="34.25" y="-120.75" font-family="Helvetica,sans-Serif" font-size="10.00">nixf::Node</text>
</a>
</g>
</g>
<!-- Node3&#45;&gt;Node2 -->
<g id="edge2_Node000002_Node000003" class="edge">
<title>Node3&#45;&gt;Node2</title>
<g id="a_edge2_Node000002_Node000003"><a xlink:title=" ">
<path fill="none" stroke="#63b8ff" d="M34.25,-101.63C34.25,-93.41 34.25,-84.43 34.25,-77.83"/>
<polygon fill="#63b8ff" stroke="#63b8ff" points="30.75,-101.57 34.25,-111.57 37.75,-101.57 30.75,-101.57"/>
</a>
</g>
</g>
</g>
</svg>
