<?xml version="1.0" encoding="UTF-8" standalone="no"?>
<!DOCTYPE svg PUBLIC "-//W3C//DTD SVG 1.1//EN"
 "http://www.w3.org/Graphics/SVG/1.1/DTD/svg11.dtd">
<!-- Generated by graphviz version 12.2.1 (0)
 -->
<!-- Title: nixf::ExprOp Pages: 1 -->
<svg width="352pt" height="199pt"
 viewBox="0.00 0.00 351.75 199.00" xmlns="http://www.w3.org/2000/svg" xmlns:xlink="http://www.w3.org/1999/xlink">
<g id="graph0" class="graph" transform="scale(1 1) rotate(0) translate(4 195)">
<title>nixf::ExprOp</title>
<!-- Node1 -->
<g id="Node000001" class="node">
<title>Node1</title>
<g id="a_Node000001"><a xlink:title="Abstract class for binary operators and unary operators.">
<polygon fill="#999999" stroke="#666666" points="203.12,-77.5 127.88,-77.5 127.88,-56.75 203.12,-56.75 203.12,-77.5"/>
<text text-anchor="middle" x="165.5" y="-64" font-family="Helvetica,sans-Serif" font-size="10.00">nixf::ExprOp</text>
</a>
</g>
</g>
<!-- Node4 -->
<g id="Node000004" class="node">
<title>Node4</title>
<g id="a_Node000004"><a xlink:href="classnixf_1_1ExprBinOp.html" target="_top" xlink:title=" ">
<polygon fill="white" stroke="#666666" points="91,-20.75 0,-20.75 0,0 91,0 91,-20.75"/>
<text text-anchor="middle" x="45.5" y="-7.25" font-family="Helvetica,sans-Serif" font-size="10.00">nixf::ExprBinOp</text>
</a>
</g>
</g>
<!-- Node1&#45;&gt;Node4 -->
<g id="edge3_Node000001_Node000004" class="edge">
<title>Node1&#45;&gt;Node4</title>
<g id="a_edge3_Node000001_Node000004"><a xlink:title=" ">
<path fill="none" stroke="#63b8ff" d="M133.62,-51.58C112.47,-41.93 85.31,-29.54 66.77,-21.08"/>
<polygon fill="#63b8ff" stroke="#63b8ff" points="132.12,-54.74 142.67,-55.71 135.02,-48.37 132.12,-54.74"/>
</a>
</g>
</g>
<!-- Node5 -->
<g id="Node000005" class="node">
<title>Node5</title>
<g id="a_Node000005"><a xlink:href="classnixf_1_1ExprOpHasAttr.html" target="_top" xlink:title=" ">
<polygon fill="white" stroke="#666666" points="221.5,-20.75 109.5,-20.75 109.5,0 221.5,0 221.5,-20.75"/>
<text text-anchor="middle" x="165.5" y="-7.25" font-family="Helvetica,sans-Serif" font-size="10.00">nixf::ExprOpHasAttr</text>
</a>
</g>
</g>
<!-- Node1&#45;&gt;Node5 -->
<g id="edge4_Node000001_Node000005" class="edge">
<title>Node1&#45;&gt;Node5</title>
<g id="a_edge4_Node000001_Node000005"><a xlink:title=" ">
<path fill="none" stroke="#63b8ff" d="M165.5,-44.88C165.5,-36.66 165.5,-27.68 165.5,-21.08"/>
<polygon fill="#63b8ff" stroke="#63b8ff" points="162,-44.82 165.5,-54.82 169,-44.82 162,-44.82"/>
</a>
</g>
</g>
<!-- Node6 -->
<g id="Node000006" class="node">
<title>Node6</title>
<g id="a_Node000006"><a xlink:href="classnixf_1_1ExprUnaryOp.html" target="_top" xlink:title=" ">
<polygon fill="white" stroke="#666666" points="343.75,-20.75 239.25,-20.75 239.25,0 343.75,0 343.75,-20.75"/>
<text text-anchor="middle" x="291.5" y="-7.25" font-family="Helvetica,sans-Serif" font-size="10.00">nixf::ExprUnaryOp</text>
</a>
</g>
</g>
<!-- Node1&#45;&gt;Node6 -->
<g id="edge5_Node000001_Node000006" class="edge">
<title>Node1&#45;&gt;Node6</title>
<g id="a_edge5_Node000001_Node000006"><a xlink:title=" ">
<path fill="none" stroke="#63b8ff" d="M198.37,-51.84C220.65,-42.16 249.52,-29.62 269.17,-21.08"/>
<polygon fill="#63b8ff" stroke="#63b8ff" points="197.19,-48.54 189.41,-55.73 199.98,-54.96 197.19,-48.54"/>
</a>
</g>
</g>
<!-- Node2 -->
<g id="Node000002" class="node">
<title>Node2</title>
<g id="a_Node000002"><a xlink:href="classnixf_1_1Expr.html" target="_top" xlink:title=" ">
<polygon fill="white" stroke="#666666" points="196.38,-134.25 134.62,-134.25 134.62,-113.5 196.38,-113.5 196.38,-134.25"/>
<text text-anchor="middle" x="165.5" y="-120.75" font-family="Helvetica,sans-Serif" font-size="10.00">nixf::Expr</text>
</a>
</g>
</g>
<!-- Node2&#45;&gt;Node1 -->
<g id="edge1_Node000001_Node000002" class="edge">
<title>Node2&#45;&gt;Node1</title>
<g id="a_edge1_Node000001_Node000002"><a xlink:title=" ">
<path fill="none" stroke="#63b8ff" d="M165.5,-101.63C165.5,-93.41 165.5,-84.43 165.5,-77.83"/>
<polygon fill="#63b8ff" stroke="#63b8ff" points="162,-101.57 165.5,-111.57 169,-101.57 162,-101.57"/>
</a>
</g>
</g>
<!-- Node3 -->
<g id="Node000003" class="node">
<title>Node3</title>
<g id="a_Node000003"><a xlink:href="classnixf_1_1Node.html" target="_top" xlink:title=" ">
<polygon fill="white" stroke="#666666" points="198.25,-191 132.75,-191 132.75,-170.25 198.25,-170.25 198.25,-191"/>
<text text-anchor="middle" x="165.5" y="-177.5" font-family="Helvetica,sans-Serif" font-size="10.00">nixf::Node</text>
</a>
</g>
</g>
<!-- Node3&#45;&gt;Node2 -->
<g id="edge2_Node000002_Node000003" class="edge">
<title>Node3&#45;&gt;Node2</title>
<g id="a_edge2_Node000002_Node000003"><a xlink:title=" ">
<path fill="none" stroke="#63b8ff" d="M165.5,-158.38C165.5,-150.16 165.5,-141.18 165.5,-134.58"/>
<polygon fill="#63b8ff" stroke="#63b8ff" points="162,-158.32 165.5,-168.32 169,-158.32 162,-158.32"/>
</a>
</g>
</g>
</g>
</svg>
