<?xml version="1.0" encoding="UTF-8" standalone="no"?>
<!DOCTYPE svg PUBLIC "-//W3C//DTD SVG 1.1//EN"
 "http://www.w3.org/Graphics/SVG/1.1/DTD/svg11.dtd">
<!-- Generated by graphviz version 12.2.1 (0)
 -->
<!-- Title: nixd::OwnedEvalClient Pages: 1 -->
<svg width="320pt" height="220pt"
 viewBox="0.00 0.00 320.25 219.75" xmlns="http://www.w3.org/2000/svg" xmlns:xlink="http://www.w3.org/1999/xlink">
<g id="graph0" class="graph" transform="scale(1 1) rotate(0) translate(4 215.75)">
<title>nixd::OwnedEvalClient</title>
<!-- Node1 -->
<g id="Node000001" class="node">
<title>Node1</title>
<g id="a_Node000001"><a xlink:title=" ">
<polygon fill="#999999" stroke="#666666" points="219.5,-20.75 93.25,-20.75 93.25,0 219.5,0 219.5,-20.75"/>
<text text-anchor="middle" x="156.38" y="-7.25" font-family="Helvetica,sans-Serif" font-size="10.00">nixd::OwnedEvalClient</text>
</a>
</g>
</g>
<!-- Node2 -->
<g id="Node000002" class="node">
<title>Node2</title>
<g id="a_Node000002"><a xlink:href="classnixd_1_1EvalClient.html" target="_top" xlink:title=" ">
<polygon fill="white" stroke="#666666" points="202.62,-78.5 110.12,-78.5 110.12,-57.75 202.62,-57.75 202.62,-78.5"/>
<text text-anchor="middle" x="156.38" y="-65" font-family="Helvetica,sans-Serif" font-size="10.00">nixd::EvalClient</text>
</a>
</g>
</g>
<!-- Node2&#45;&gt;Node1 -->
<g id="edge1_Node000001_Node000002" class="edge">
<title>Node2&#45;&gt;Node1</title>
<g id="a_edge1_Node000001_Node000002"><a xlink:title=" ">
<path fill="none" stroke="#63b8ff" d="M156.38,-46.18C156.38,-37.52 156.38,-27.9 156.38,-20.97"/>
<polygon fill="#63b8ff" stroke="#63b8ff" points="152.88,-45.9 156.38,-55.9 159.88,-45.9 152.88,-45.9"/>
</a>
</g>
</g>
<!-- Node3 -->
<g id="Node000003" class="node">
<title>Node3</title>
<g id="a_Node000003"><a xlink:href="classlspserver_1_1LSPServer.html" target="_top" xlink:title=" ">
<polygon fill="white" stroke="#666666" points="214.25,-136.25 98.5,-136.25 98.5,-115.5 214.25,-115.5 214.25,-136.25"/>
<text text-anchor="middle" x="156.38" y="-122.75" font-family="Helvetica,sans-Serif" font-size="10.00">lspserver::LSPServer</text>
</a>
</g>
</g>
<!-- Node3&#45;&gt;Node2 -->
<g id="edge2_Node000002_Node000003" class="edge">
<title>Node3&#45;&gt;Node2</title>
<g id="a_edge2_Node000002_Node000003"><a xlink:title=" ">
<path fill="none" stroke="#63b8ff" d="M156.38,-103.93C156.38,-95.27 156.38,-85.65 156.38,-78.72"/>
<polygon fill="#63b8ff" stroke="#63b8ff" points="152.88,-103.65 156.38,-113.65 159.88,-103.65 152.88,-103.65"/>
</a>
</g>
</g>
<!-- Node4 -->
<g id="Node000004" class="node">
<title>Node4</title>
<g id="a_Node000004"><a xlink:href="classlspserver_1_1MessageHandler.html" target="_top" xlink:title=" ">
<polygon fill="white" stroke="#666666" points="148.75,-211.75 0,-211.75 0,-191 148.75,-191 148.75,-211.75"/>
<text text-anchor="middle" x="74.38" y="-198.25" font-family="Helvetica,sans-Serif" font-size="10.00">lspserver::MessageHandler</text>
</a>
</g>
</g>
<!-- Node4&#45;&gt;Node3 -->
<g id="edge3_Node000003_Node000004" class="edge">
<title>Node4&#45;&gt;Node3</title>
<g id="a_edge3_Node000003_Node000004"><a xlink:title=" ">
<path fill="none" stroke="#63b8ff" d="M93.29,-183.42C109.43,-168.95 132.08,-148.65 145.39,-136.72"/>
<polygon fill="#63b8ff" stroke="#63b8ff" points="91.33,-180.48 86.22,-189.76 96,-185.69 91.33,-180.48"/>
</a>
</g>
</g>
<!-- Node5 -->
<g id="Node000005" class="node">
<title>Node5</title>
<g id="a_Node000005"><a xlink:href="structlspserver_1_1HandlerRegistry.html" target="_top" xlink:title=" ">
<polygon fill="white" stroke="#666666" points="312.25,-211.75 166.5,-211.75 166.5,-191 312.25,-191 312.25,-211.75"/>
<text text-anchor="middle" x="239.38" y="-198.25" font-family="Helvetica,sans-Serif" font-size="10.00">lspserver::HandlerRegistry</text>
</a>
</g>
</g>
<!-- Node5&#45;&gt;Node3 -->
<g id="edge4_Node000003_Node000005" class="edge">
<title>Node5&#45;&gt;Node3</title>
<g id="a_edge4_Node000003_Node000005"><a xlink:title=" ">
<path fill="none" stroke="#9a32cd" stroke-dasharray="5,2" d="M220.23,-183.42C203.89,-168.95 180.97,-148.65 167.49,-136.72"/>
<polygon fill="#9a32cd" stroke="#9a32cd" points="217.58,-185.75 227.39,-189.76 222.22,-180.51 217.58,-185.75"/>
</a>
</g>
<text text-anchor="start" x="210.75" y="-160.5" font-family="Helvetica,sans-Serif" font-size="10.00" fill="grey">Registry</text>
</g>
</g>
</svg>
