<?xml version="1.0" encoding="UTF-8" standalone="no"?>
<!DOCTYPE svg PUBLIC "-//W3C//DTD SVG 1.1//EN"
 "http://www.w3.org/Graphics/SVG/1.1/DTD/svg11.dtd">
<!-- Generated by graphviz version 12.2.1 (0)
 -->
<!-- Title: nixf::PartialDiagnostic Pages: 1 -->
<svg width="182pt" height="86pt"
 viewBox="0.00 0.00 181.50 85.50" xmlns="http://www.w3.org/2000/svg" xmlns:xlink="http://www.w3.org/1999/xlink">
<g id="graph0" class="graph" transform="scale(1 1) rotate(0) translate(4 81.5)">
<title>nixf::PartialDiagnostic</title>
<!-- Node1 -->
<g id="Node000001" class="node">
<title>Node1</title>
<g id="a_Node000001"><a xlink:title=" ">
<polygon fill="#999999" stroke="#666666" points="155.12,-77.5 32.62,-77.5 32.62,-56.75 155.12,-56.75 155.12,-77.5"/>
<text text-anchor="middle" x="93.88" y="-64" font-family="Helvetica,sans-Serif" font-size="10.00">nixf::PartialDiagnostic</text>
</a>
</g>
</g>
<!-- Node2 -->
<g id="Node000002" class="node">
<title>Node2</title>
<g id="a_Node000002"><a xlink:href="classnixf_1_1Diagnostic.html" target="_top" xlink:title=" ">
<polygon fill="white" stroke="#666666" points="91.75,-20.75 0,-20.75 0,0 91.75,0 91.75,-20.75"/>
<text text-anchor="middle" x="45.88" y="-7.25" font-family="Helvetica,sans-Serif" font-size="10.00">nixf::Diagnostic</text>
</a>
</g>
</g>
<!-- Node1&#45;&gt;Node2 -->
<g id="edge1_Node000001_Node000002" class="edge">
<title>Node1&#45;&gt;Node2</title>
<g id="a_edge1_Node000001_Node000002"><a xlink:title=" ">
<path fill="none" stroke="#63b8ff" d="M77.76,-47.74C69.93,-38.81 60.85,-28.45 54.38,-21.08"/>
<polygon fill="#63b8ff" stroke="#63b8ff" points="75.07,-49.99 84.3,-55.2 80.34,-45.37 75.07,-49.99"/>
</a>
</g>
</g>
<!-- Node3 -->
<g id="Node000003" class="node">
<title>Node3</title>
<g id="a_Node000003"><a xlink:href="classnixf_1_1Note.html" target="_top" xlink:title=" ">
<polygon fill="white" stroke="#666666" points="173.5,-20.75 110.25,-20.75 110.25,0 173.5,0 173.5,-20.75"/>
<text text-anchor="middle" x="141.88" y="-7.25" font-family="Helvetica,sans-Serif" font-size="10.00">nixf::Note</text>
</a>
</g>
</g>
<!-- Node1&#45;&gt;Node3 -->
<g id="edge2_Node000001_Node000003" class="edge">
<title>Node1&#45;&gt;Node3</title>
<g id="a_edge2_Node000001_Node000003"><a xlink:title=" ">
<path fill="none" stroke="#63b8ff" d="M109.99,-47.74C117.82,-38.81 126.9,-28.45 133.37,-21.08"/>
<polygon fill="#63b8ff" stroke="#63b8ff" points="107.41,-45.37 103.45,-55.2 112.68,-49.99 107.41,-45.37"/>
</a>
</g>
</g>
</g>
</svg>
