<?xml version="1.0" encoding="UTF-8" standalone="no"?>
<!DOCTYPE svg PUBLIC "-//W3C//DTD SVG 1.1//EN"
 "http://www.w3.org/Graphics/SVG/1.1/DTD/svg11.dtd">
<!-- Generated by graphviz version 12.2.1 (0)
 -->
<!-- Title: nixf::ExprSPath Pages: 1 -->
<svg width="97pt" height="142pt"
 viewBox="0.00 0.00 96.75 142.25" xmlns="http://www.w3.org/2000/svg" xmlns:xlink="http://www.w3.org/1999/xlink">
<g id="graph0" class="graph" transform="scale(1 1) rotate(0) translate(4 138.25)">
<title>nixf::ExprSPath</title>
<!-- Node1 -->
<g id="Node000001" class="node">
<title>Node1</title>
<g id="a_Node000001"><a xlink:title=" ">
<polygon fill="#999999" stroke="#666666" points="88.75,-20.75 0,-20.75 0,0 88.75,0 88.75,-20.75"/>
<text text-anchor="middle" x="44.38" y="-7.25" font-family="Helvetica,sans-Serif" font-size="10.00">nixf::ExprSPath</text>
</a>
</g>
</g>
<!-- Node2 -->
<g id="Node000002" class="node">
<title>Node2</title>
<g id="a_Node000002"><a xlink:href="classnixf_1_1Expr.html" target="_top" xlink:title=" ">
<polygon fill="white" stroke="#666666" points="75.25,-77.5 13.5,-77.5 13.5,-56.75 75.25,-56.75 75.25,-77.5"/>
<text text-anchor="middle" x="44.38" y="-64" font-family="Helvetica,sans-Serif" font-size="10.00">nixf::Expr</text>
</a>
</g>
</g>
<!-- Node2&#45;&gt;Node1 -->
<g id="edge1_Node000001_Node000002" class="edge">
<title>Node2&#45;&gt;Node1</title>
<g id="a_edge1_Node000001_Node000002"><a xlink:title=" ">
<path fill="none" stroke="#63b8ff" d="M44.38,-44.88C44.38,-36.66 44.38,-27.68 44.38,-21.08"/>
<polygon fill="#63b8ff" stroke="#63b8ff" points="40.88,-44.82 44.38,-54.82 47.88,-44.82 40.88,-44.82"/>
</a>
</g>
</g>
<!-- Node3 -->
<g id="Node000003" class="node">
<title>Node3</title>
<g id="a_Node000003"><a xlink:href="classnixf_1_1Node.html" target="_top" xlink:title=" ">
<polygon fill="white" stroke="#666666" points="77.12,-134.25 11.62,-134.25 11.62,-113.5 77.12,-113.5 77.12,-134.25"/>
<text text-anchor="middle" x="44.38" y="-120.75" font-family="Helvetica,sans-Serif" font-size="10.00">nixf::Node</text>
</a>
</g>
</g>
<!-- Node3&#45;&gt;Node2 -->
<g id="edge2_Node000002_Node000003" class="edge">
<title>Node3&#45;&gt;Node2</title>
<g id="a_edge2_Node000002_Node000003"><a xlink:title=" ">
<path fill="none" stroke="#63b8ff" d="M44.38,-101.63C44.38,-93.41 44.38,-84.43 44.38,-77.83"/>
<polygon fill="#63b8ff" stroke="#63b8ff" points="40.88,-101.57 44.38,-111.57 47.88,-101.57 40.88,-101.57"/>
</a>
</g>
</g>
</g>
</svg>
