<?xml version="1.0" encoding="UTF-8" standalone="no"?>
<!DOCTYPE svg PUBLIC "-//W3C//DTD SVG 1.1//EN"
 "http://www.w3.org/Graphics/SVG/1.1/DTD/svg11.dtd">
<!-- Generated by graphviz version 10.0.1 (0)
 -->
<!-- Title: nixf::Expr Pages: 1 -->
<svg width="456pt" height="614pt"
 viewBox="0.00 0.00 456.00 613.75" xmlns="http://www.w3.org/2000/svg" xmlns:xlink="http://www.w3.org/1999/xlink">
<g id="graph0" class="graph" transform="scale(1 1) rotate(0) translate(4 609.75)">
<title>nixf::Expr</title>
<!-- Node1 -->
<g id="Node000001" class="node">
<title>Node1</title>
<g id="a_Node000001"><a xlink:title=" ">
<polygon fill="#999999" stroke="#666666" points="163.25,-312.75 101.5,-312.75 101.5,-292 163.25,-292 163.25,-312.75"/>
<text text-anchor="middle" x="132.38" y="-299.25" font-family="Helvetica,sans-Serif" font-size="10.00">nixf::Expr</text>
</a>
</g>
</g>
<!-- Node3 -->
<g id="Node000003" class="node">
<title>Node3</title>
<g id="a_Node000003"><a xlink:href="classnixf_1_1ExprAssert.html" target="_top" xlink:title=" ">
<polygon fill="white" stroke="#666666" points="295.88,-605.75 203.38,-605.75 203.38,-585 295.88,-585 295.88,-605.75"/>
<text text-anchor="middle" x="249.62" y="-592.25" font-family="Helvetica,sans-Serif" font-size="10.00">nixf::ExprAssert</text>
</a>
</g>
</g>
<!-- Node1&#45;&gt;Node3 -->
<g id="edge2_Node000001_Node000003" class="edge">
<title>Node1&#45;&gt;Node3</title>
<g id="a_edge2_Node000001_Node000003"><a xlink:title=" ">
<path fill="none" stroke="#63b8ff" d="M136.09,-324.47C143.6,-382.46 166.33,-537.18 199.25,-575.38 202.51,-579.16 206.59,-582.23 211,-584.74"/>
<polygon fill="#63b8ff" stroke="#63b8ff" points="139.56,-324.05 134.83,-314.57 132.62,-324.93 139.56,-324.05"/>
</a>
</g>
</g>
<!-- Node4 -->
<g id="Node000004" class="node">
<title>Node4</title>
<g id="a_Node000004"><a xlink:href="classnixf_1_1ExprAttrs.html" target="_top" xlink:title=" ">
<polygon fill="white" stroke="#666666" points="292.12,-566.75 207.12,-566.75 207.12,-546 292.12,-546 292.12,-566.75"/>
<text text-anchor="middle" x="249.62" y="-553.25" font-family="Helvetica,sans-Serif" font-size="10.00">nixf::ExprAttrs</text>
</a>
</g>
</g>
<!-- Node1&#45;&gt;Node4 -->
<g id="edge3_Node000001_Node000004" class="edge">
<title>Node1&#45;&gt;Node4</title>
<g id="a_edge3_Node000001_Node000004"><a xlink:title=" ">
<path fill="none" stroke="#63b8ff" d="M133.43,-324.37C134.72,-369.72 143.92,-474.57 199.25,-536.38 202.58,-540.1 206.7,-543.14 211.14,-545.62"/>
<polygon fill="#63b8ff" stroke="#63b8ff" points="136.93,-324.46 133.27,-314.52 129.93,-324.57 136.93,-324.46"/>
</a>
</g>
</g>
<!-- Node5 -->
<g id="Node000005" class="node">
<title>Node5</title>
<g id="a_Node000005"><a xlink:href="classnixf_1_1ExprCall.html" target="_top" xlink:title="A call/apply to some function.">
<polygon fill="white" stroke="#666666" points="289.88,-527.75 209.38,-527.75 209.38,-507 289.88,-507 289.88,-527.75"/>
<text text-anchor="middle" x="249.62" y="-514.25" font-family="Helvetica,sans-Serif" font-size="10.00">nixf::ExprCall</text>
</a>
</g>
</g>
<!-- Node1&#45;&gt;Node5 -->
<g id="edge4_Node000001_Node000005" class="edge">
<title>Node1&#45;&gt;Node5</title>
<g id="a_edge4_Node000001_Node000005"><a xlink:title=" ">
<path fill="none" stroke="#63b8ff" d="M134.94,-324.48C138.89,-364.14 152.58,-447.87 199.25,-497.38 202.8,-501.14 207.16,-504.22 211.81,-506.73"/>
<polygon fill="#63b8ff" stroke="#63b8ff" points="138.45,-324.42 134.1,-314.75 131.48,-325.02 138.45,-324.42"/>
</a>
</g>
</g>
<!-- Node6 -->
<g id="Node000006" class="node">
<title>Node6</title>
<g id="a_Node000006"><a xlink:href="classnixf_1_1ExprFloat.html" target="_top" xlink:title=" ">
<polygon fill="white" stroke="#666666" points="292.88,-488.75 206.38,-488.75 206.38,-468 292.88,-468 292.88,-488.75"/>
<text text-anchor="middle" x="249.62" y="-475.25" font-family="Helvetica,sans-Serif" font-size="10.00">nixf::ExprFloat</text>
</a>
</g>
</g>
<!-- Node1&#45;&gt;Node6 -->
<g id="edge5_Node000001_Node000006" class="edge">
<title>Node1&#45;&gt;Node6</title>
<g id="a_edge5_Node000001_Node000006"><a xlink:title=" ">
<path fill="none" stroke="#63b8ff" d="M137.08,-324.17C143.8,-357.36 161,-420.68 199.25,-458.38 203,-462.08 207.54,-465.12 212.31,-467.62"/>
<polygon fill="#63b8ff" stroke="#63b8ff" points="140.55,-323.71 135.27,-314.53 133.67,-325 140.55,-323.71"/>
</a>
</g>
</g>
<!-- Node7 -->
<g id="Node000007" class="node">
<title>Node7</title>
<g id="a_Node000007"><a xlink:href="classnixf_1_1ExprIf.html" target="_top" xlink:title=" ">
<polygon fill="white" stroke="#666666" points="283.88,-449.75 215.38,-449.75 215.38,-429 283.88,-429 283.88,-449.75"/>
<text text-anchor="middle" x="249.62" y="-436.25" font-family="Helvetica,sans-Serif" font-size="10.00">nixf::ExprIf</text>
</a>
</g>
</g>
<!-- Node1&#45;&gt;Node7 -->
<g id="edge6_Node000001_Node000007" class="edge">
<title>Node1&#45;&gt;Node7</title>
<g id="a_edge6_Node000001_Node000007"><a xlink:title=" ">
<path fill="none" stroke="#63b8ff" d="M140.45,-323.83C150,-349.72 169.33,-393.06 199.25,-419.38 203.83,-423.41 209.34,-426.69 214.98,-429.34"/>
<polygon fill="#63b8ff" stroke="#63b8ff" points="143.76,-322.69 137.15,-314.4 137.15,-325 143.76,-322.69"/>
</a>
</g>
</g>
<!-- Node8 -->
<g id="Node000008" class="node">
<title>Node8</title>
<g id="a_Node000008"><a xlink:href="classnixf_1_1ExprInt.html" target="_top" xlink:title=" ">
<polygon fill="white" stroke="#666666" points="286.88,-410.75 212.38,-410.75 212.38,-390 286.88,-390 286.88,-410.75"/>
<text text-anchor="middle" x="249.62" y="-397.25" font-family="Helvetica,sans-Serif" font-size="10.00">nixf::ExprInt</text>
</a>
</g>
</g>
<!-- Node1&#45;&gt;Node8 -->
<g id="edge7_Node000001_Node000008" class="edge">
<title>Node1&#45;&gt;Node8</title>
<g id="a_edge7_Node000001_Node000008"><a xlink:title=" ">
<path fill="none" stroke="#63b8ff" d="M146.13,-322.37C158.06,-339.71 177.3,-364.46 199.25,-380.38 204.19,-383.96 209.87,-387.02 215.57,-389.6"/>
<polygon fill="#63b8ff" stroke="#63b8ff" points="149.28,-320.79 140.82,-314.4 143.45,-324.67 149.28,-320.79"/>
</a>
</g>
</g>
<!-- Node9 -->
<g id="Node000009" class="node">
<title>Node9</title>
<g id="a_Node000009"><a xlink:href="classnixf_1_1ExprLambda.html" target="_top" xlink:title=" ">
<polygon fill="white" stroke="#666666" points="300,-371.75 199.25,-371.75 199.25,-351 300,-351 300,-371.75"/>
<text text-anchor="middle" x="249.62" y="-358.25" font-family="Helvetica,sans-Serif" font-size="10.00">nixf::ExprLambda</text>
</a>
</g>
</g>
<!-- Node1&#45;&gt;Node9 -->
<g id="edge8_Node000001_Node000009" class="edge">
<title>Node1&#45;&gt;Node9</title>
<g id="a_edge8_Node000001_Node000009"><a xlink:title=" ">
<path fill="none" stroke="#63b8ff" d="M159.75,-319.21C171.6,-326.46 185.89,-334.76 199.25,-341.38 205.8,-344.62 213.01,-347.76 219.84,-350.56"/>
<polygon fill="#63b8ff" stroke="#63b8ff" points="161.68,-316.29 151.33,-313.99 157.98,-322.24 161.68,-316.29"/>
</a>
</g>
</g>
<!-- Node10 -->
<g id="Node000010" class="node">
<title>Node10</title>
<g id="a_Node000010"><a xlink:href="classnixf_1_1ExprLet.html" target="_top" xlink:title=" ">
<polygon fill="white" stroke="#666666" points="288,-332.75 211.25,-332.75 211.25,-312 288,-312 288,-332.75"/>
<text text-anchor="middle" x="249.62" y="-319.25" font-family="Helvetica,sans-Serif" font-size="10.00">nixf::ExprLet</text>
</a>
</g>
</g>
<!-- Node1&#45;&gt;Node10 -->
<g id="edge9_Node000001_Node000010" class="edge">
<title>Node1&#45;&gt;Node10</title>
<g id="a_edge9_Node000001_Node000010"><a xlink:title=" ">
<path fill="none" stroke="#63b8ff" d="M174.68,-309.54C186.57,-311.61 199.48,-313.85 211.13,-315.87"/>
<polygon fill="#63b8ff" stroke="#63b8ff" points="175.6,-306.15 165.15,-307.89 174.4,-313.05 175.6,-306.15"/>
</a>
</g>
</g>
<!-- Node11 -->
<g id="Node000011" class="node">
<title>Node11</title>
<g id="a_Node000011"><a xlink:href="classnixf_1_1ExprList.html" target="_top" xlink:title=" ">
<polygon fill="white" stroke="#666666" points="289.12,-293.75 210.12,-293.75 210.12,-273 289.12,-273 289.12,-293.75"/>
<text text-anchor="middle" x="249.62" y="-280.25" font-family="Helvetica,sans-Serif" font-size="10.00">nixf::ExprList</text>
</a>
</g>
</g>
<!-- Node1&#45;&gt;Node11 -->
<g id="edge10_Node000001_Node000011" class="edge">
<title>Node1&#45;&gt;Node11</title>
<g id="a_edge10_Node000001_Node000011"><a xlink:title=" ">
<path fill="none" stroke="#63b8ff" d="M174.72,-295.56C186.17,-293.67 198.56,-291.63 209.86,-289.77"/>
<polygon fill="#63b8ff" stroke="#63b8ff" points="174.45,-292.06 165.15,-297.14 175.59,-298.96 174.45,-292.06"/>
</a>
</g>
</g>
<!-- Node12 -->
<g id="Node000012" class="node">
<title>Node12</title>
<g id="a_Node000012"><a xlink:href="classnixf_1_1ExprOp.html" target="_top" xlink:title="Abstract class for binary operators and unary operators.">
<polygon fill="white" stroke="#666666" points="287.25,-254.75 212,-254.75 212,-234 287.25,-234 287.25,-254.75"/>
<text text-anchor="middle" x="249.62" y="-241.25" font-family="Helvetica,sans-Serif" font-size="10.00">nixf::ExprOp</text>
</a>
</g>
</g>
<!-- Node1&#45;&gt;Node12 -->
<g id="edge11_Node000001_Node000012" class="edge">
<title>Node1&#45;&gt;Node12</title>
<g id="a_edge11_Node000001_Node000012"><a xlink:title=" ">
<path fill="none" stroke="#63b8ff" d="M160.29,-285.72C172.05,-278.74 186.13,-270.78 199.25,-264.38 205.82,-261.17 213.03,-258.04 219.87,-255.24"/>
<polygon fill="#63b8ff" stroke="#63b8ff" points="158.69,-282.6 151.93,-290.76 162.3,-288.6 158.69,-282.6"/>
</a>
</g>
</g>
<!-- Node16 -->
<g id="Node000016" class="node">
<title>Node16</title>
<g id="a_Node000016"><a xlink:href="classnixf_1_1ExprParen.html" target="_top" xlink:title=" ">
<polygon fill="white" stroke="#666666" points="294,-215.75 205.25,-215.75 205.25,-195 294,-195 294,-215.75"/>
<text text-anchor="middle" x="249.62" y="-202.25" font-family="Helvetica,sans-Serif" font-size="10.00">nixf::ExprParen</text>
</a>
</g>
</g>
<!-- Node1&#45;&gt;Node16 -->
<g id="edge15_Node000001_Node000016" class="edge">
<title>Node1&#45;&gt;Node16</title>
<g id="a_edge15_Node000001_Node000016"><a xlink:title=" ">
<path fill="none" stroke="#63b8ff" d="M146.18,-282.64C158.15,-265.53 177.41,-241.1 199.25,-225.38 204.2,-221.81 209.89,-218.75 215.59,-216.18"/>
<polygon fill="#63b8ff" stroke="#63b8ff" points="143.57,-280.25 140.86,-290.5 149.37,-284.18 143.57,-280.25"/>
</a>
</g>
</g>
<!-- Node17 -->
<g id="Node000017" class="node">
<title>Node17</title>
<g id="a_Node000017"><a xlink:href="classnixf_1_1ExprPath.html" target="_top" xlink:title=" ">
<polygon fill="white" stroke="#666666" points="291,-176.75 208.25,-176.75 208.25,-156 291,-156 291,-176.75"/>
<text text-anchor="middle" x="249.62" y="-163.25" font-family="Helvetica,sans-Serif" font-size="10.00">nixf::ExprPath</text>
</a>
</g>
</g>
<!-- Node1&#45;&gt;Node17 -->
<g id="edge16_Node000001_Node000017" class="edge">
<title>Node1&#45;&gt;Node17</title>
<g id="a_edge16_Node000001_Node000017"><a xlink:title=" ">
<path fill="none" stroke="#63b8ff" d="M140.65,-280.71C150.29,-255 169.63,-212.33 199.25,-186.38 203.42,-182.72 208.35,-179.68 213.45,-177.16"/>
<polygon fill="#63b8ff" stroke="#63b8ff" points="137.36,-279.5 137.3,-290.1 143.96,-281.85 137.36,-279.5"/>
</a>
</g>
</g>
<!-- Node18 -->
<g id="Node000018" class="node">
<title>Node18</title>
<g id="a_Node000018"><a xlink:href="classnixf_1_1ExprSelect.html" target="_top" xlink:title=" ">
<polygon fill="white" stroke="#666666" points="295.5,-137.75 203.75,-137.75 203.75,-117 295.5,-117 295.5,-137.75"/>
<text text-anchor="middle" x="249.62" y="-124.25" font-family="Helvetica,sans-Serif" font-size="10.00">nixf::ExprSelect</text>
</a>
</g>
</g>
<!-- Node1&#45;&gt;Node18 -->
<g id="edge17_Node000001_Node000018" class="edge">
<title>Node1&#45;&gt;Node18</title>
<g id="a_edge17_Node000001_Node000018"><a xlink:title=" ">
<path fill="none" stroke="#63b8ff" d="M137.12,-280.72C143.89,-247.74 161.16,-184.82 199.25,-147.38 203.01,-143.68 207.54,-140.64 212.32,-138.14"/>
<polygon fill="#63b8ff" stroke="#63b8ff" points="133.73,-279.81 135.3,-290.29 140.61,-281.12 133.73,-279.81"/>
</a>
</g>
</g>
<!-- Node19 -->
<g id="Node000019" class="node">
<title>Node19</title>
<g id="a_Node000019"><a xlink:href="classnixf_1_1ExprString.html" target="_top" xlink:title=" ">
<polygon fill="white" stroke="#666666" points="294.75,-98.75 204.5,-98.75 204.5,-78 294.75,-78 294.75,-98.75"/>
<text text-anchor="middle" x="249.62" y="-85.25" font-family="Helvetica,sans-Serif" font-size="10.00">nixf::ExprString</text>
</a>
</g>
</g>
<!-- Node1&#45;&gt;Node19 -->
<g id="edge18_Node000001_Node000019" class="edge">
<title>Node1&#45;&gt;Node19</title>
<g id="a_edge18_Node000001_Node000019"><a xlink:title=" ">
<path fill="none" stroke="#63b8ff" d="M135,-280.13C139.04,-240.56 152.86,-157.51 199.25,-108.38 202.81,-104.61 207.17,-101.53 211.81,-99.03"/>
<polygon fill="#63b8ff" stroke="#63b8ff" points="131.52,-279.78 134.12,-290.05 138.49,-280.4 131.52,-279.78"/>
</a>
</g>
</g>
<!-- Node20 -->
<g id="Node000020" class="node">
<title>Node20</title>
<g id="a_Node000020"><a xlink:href="classnixf_1_1ExprVar.html" target="_top" xlink:title=" ">
<polygon fill="white" stroke="#666666" points="288.38,-59.75 210.88,-59.75 210.88,-39 288.38,-39 288.38,-59.75"/>
<text text-anchor="middle" x="249.62" y="-46.25" font-family="Helvetica,sans-Serif" font-size="10.00">nixf::ExprVar</text>
</a>
</g>
</g>
<!-- Node1&#45;&gt;Node20 -->
<g id="edge19_Node000001_Node000020" class="edge">
<title>Node1&#45;&gt;Node20</title>
<g id="a_edge19_Node000001_Node000020"><a xlink:title=" ">
<path fill="none" stroke="#63b8ff" d="M133.47,-280.16C134.85,-234.83 144.23,-130.76 199.25,-69.38 202.58,-65.66 206.71,-62.62 211.14,-60.13"/>
<polygon fill="#63b8ff" stroke="#63b8ff" points="129.97,-279.96 133.29,-290.03 136.97,-280.09 129.97,-279.96"/>
</a>
</g>
</g>
<!-- Node21 -->
<g id="Node000021" class="node">
<title>Node21</title>
<g id="a_Node000021"><a xlink:href="classnixf_1_1ExprWith.html" target="_top" xlink:title=" ">
<polygon fill="white" stroke="#666666" points="291.75,-20.75 207.5,-20.75 207.5,0 291.75,0 291.75,-20.75"/>
<text text-anchor="middle" x="249.62" y="-7.25" font-family="Helvetica,sans-Serif" font-size="10.00">nixf::ExprWith</text>
</a>
</g>
</g>
<!-- Node1&#45;&gt;Node21 -->
<g id="edge20_Node000001_Node000021" class="edge">
<title>Node1&#45;&gt;Node21</title>
<g id="a_edge20_Node000001_Node000021"><a xlink:title=" ">
<path fill="none" stroke="#63b8ff" d="M136.1,-280.36C143.64,-222.58 166.43,-68.43 199.25,-30.38 202.51,-26.59 206.59,-23.52 211.01,-21.02"/>
<polygon fill="#63b8ff" stroke="#63b8ff" points="132.63,-279.86 134.84,-290.22 139.58,-280.74 132.63,-279.86"/>
</a>
</g>
</g>
<!-- Node2 -->
<g id="Node000002" class="node">
<title>Node2</title>
<g id="a_Node000002"><a xlink:href="classnixf_1_1Node.html" target="_top" xlink:title=" ">
<polygon fill="white" stroke="#666666" points="65.5,-312.75 0,-312.75 0,-292 65.5,-292 65.5,-312.75"/>
<text text-anchor="middle" x="32.75" y="-299.25" font-family="Helvetica,sans-Serif" font-size="10.00">nixf::Node</text>
</a>
</g>
</g>
<!-- Node2&#45;&gt;Node1 -->
<g id="edge1_Node000001_Node000002" class="edge">
<title>Node2&#45;&gt;Node1</title>
<g id="a_edge1_Node000001_Node000002"><a xlink:title=" ">
<path fill="none" stroke="#63b8ff" d="M77.47,-302.38C85.48,-302.38 93.66,-302.38 101.16,-302.38"/>
<polygon fill="#63b8ff" stroke="#63b8ff" points="77.5,-298.88 67.5,-302.38 77.5,-305.88 77.5,-298.88"/>
</a>
</g>
</g>
<!-- Node13 -->
<g id="Node000013" class="node">
<title>Node13</title>
<g id="a_Node000013"><a xlink:href="classnixf_1_1ExprBinOp.html" target="_top" xlink:title=" ">
<polygon fill="white" stroke="#666666" points="437.5,-293.75 346.5,-293.75 346.5,-273 437.5,-273 437.5,-293.75"/>
<text text-anchor="middle" x="392" y="-280.25" font-family="Helvetica,sans-Serif" font-size="10.00">nixf::ExprBinOp</text>
</a>
</g>
</g>
<!-- Node12&#45;&gt;Node13 -->
<g id="edge12_Node000012_Node000013" class="edge">
<title>Node12&#45;&gt;Node13</title>
<g id="a_edge12_Node000012_Node000013"><a xlink:title=" ">
<path fill="none" stroke="#63b8ff" d="M298.59,-257.7C315.97,-262.53 335.38,-267.92 351.91,-272.51"/>
<polygon fill="#63b8ff" stroke="#63b8ff" points="299.54,-254.33 288.97,-255.03 297.66,-261.08 299.54,-254.33"/>
</a>
</g>
</g>
<!-- Node14 -->
<g id="Node000014" class="node">
<title>Node14</title>
<g id="a_Node000014"><a xlink:href="classnixf_1_1ExprOpHasAttr.html" target="_top" xlink:title=" ">
<polygon fill="white" stroke="#666666" points="448,-254.75 336,-254.75 336,-234 448,-234 448,-254.75"/>
<text text-anchor="middle" x="392" y="-241.25" font-family="Helvetica,sans-Serif" font-size="10.00">nixf::ExprOpHasAttr</text>
</a>
</g>
</g>
<!-- Node12&#45;&gt;Node14 -->
<g id="edge13_Node000012_Node000014" class="edge">
<title>Node12&#45;&gt;Node14</title>
<g id="a_edge13_Node000012_Node000014"><a xlink:title=" ">
<path fill="none" stroke="#63b8ff" d="M298.95,-244.38C310.76,-244.38 323.49,-244.38 335.6,-244.38"/>
<polygon fill="#63b8ff" stroke="#63b8ff" points="299.02,-240.88 289.02,-244.38 299.02,-247.88 299.02,-240.88"/>
</a>
</g>
</g>
<!-- Node15 -->
<g id="Node000015" class="node">
<title>Node15</title>
<g id="a_Node000015"><a xlink:href="classnixf_1_1ExprUnaryOp.html" target="_top" xlink:title=" ">
<polygon fill="white" stroke="#666666" points="444.25,-215.75 339.75,-215.75 339.75,-195 444.25,-195 444.25,-215.75"/>
<text text-anchor="middle" x="392" y="-202.25" font-family="Helvetica,sans-Serif" font-size="10.00">nixf::ExprUnaryOp</text>
</a>
</g>
</g>
<!-- Node12&#45;&gt;Node15 -->
<g id="edge14_Node000012_Node000015" class="edge">
<title>Node12&#45;&gt;Node15</title>
<g id="a_edge14_Node000012_Node000015"><a xlink:title=" ">
<path fill="none" stroke="#63b8ff" d="M298.59,-231.05C315.97,-226.22 335.38,-220.83 351.91,-216.24"/>
<polygon fill="#63b8ff" stroke="#63b8ff" points="297.66,-227.67 288.97,-233.72 299.54,-234.42 297.66,-227.67"/>
</a>
</g>
</g>
</g>
</svg>
