<?xml version="1.0" encoding="UTF-8" standalone="no"?>
<!DOCTYPE svg PUBLIC "-//W3C//DTD SVG 1.1//EN"
 "http://www.w3.org/Graphics/SVG/1.1/DTD/svg11.dtd">
<!-- Generated by graphviz version 12.2.1 (0)
 -->
<!-- Title: nixf::Expr Pages: 1 -->
<svg width="456pt" height="653pt"
 viewBox="0.00 0.00 456.00 652.75" xmlns="http://www.w3.org/2000/svg" xmlns:xlink="http://www.w3.org/1999/xlink">
<g id="graph0" class="graph" transform="scale(1 1) rotate(0) translate(4 648.75)">
<title>nixf::Expr</title>
<!-- Node1 -->
<g id="Node000001" class="node">
<title>Node1</title>
<g id="a_Node000001"><a xlink:title=" ">
<polygon fill="#999999" stroke="#666666" points="163.25,-332.75 101.5,-332.75 101.5,-312 163.25,-312 163.25,-332.75"/>
<text text-anchor="middle" x="132.38" y="-319.25" font-family="Helvetica,sans-Serif" font-size="10.00">nixf::Expr</text>
</a>
</g>
</g>
<!-- Node3 -->
<g id="Node000003" class="node">
<title>Node3</title>
<g id="a_Node000003"><a xlink:href="classnixf_1_1ExprAssert.html" target="_top" xlink:title=" ">
<polygon fill="white" stroke="#666666" points="295.88,-644.75 203.38,-644.75 203.38,-624 295.88,-624 295.88,-644.75"/>
<text text-anchor="middle" x="249.62" y="-631.25" font-family="Helvetica,sans-Serif" font-size="10.00">nixf::ExprAssert</text>
</a>
</g>
</g>
<!-- Node1&#45;&gt;Node3 -->
<g id="edge2_Node000001_Node000003" class="edge">
<title>Node1&#45;&gt;Node3</title>
<g id="a_edge2_Node000001_Node000003"><a xlink:title=" ">
<path fill="none" stroke="#63b8ff" d="M135.7,-344.4C142.51,-405.1 164.16,-573.04 199.25,-614.38 202.48,-618.18 206.55,-621.27 210.95,-623.78"/>
<polygon fill="#63b8ff" stroke="#63b8ff" points="139.2,-344.22 134.64,-334.66 132.24,-344.98 139.2,-344.22"/>
</a>
</g>
</g>
<!-- Node4 -->
<g id="Node000004" class="node">
<title>Node4</title>
<g id="a_Node000004"><a xlink:href="classnixf_1_1ExprAttrs.html" target="_top" xlink:title=" ">
<polygon fill="white" stroke="#666666" points="292.12,-605.75 207.12,-605.75 207.12,-585 292.12,-585 292.12,-605.75"/>
<text text-anchor="middle" x="249.62" y="-592.25" font-family="Helvetica,sans-Serif" font-size="10.00">nixf::ExprAttrs</text>
</a>
</g>
</g>
<!-- Node1&#45;&gt;Node4 -->
<g id="edge3_Node000001_Node000004" class="edge">
<title>Node1&#45;&gt;Node4</title>
<g id="a_edge3_Node000001_Node000004"><a xlink:title=" ">
<path fill="none" stroke="#63b8ff" d="M132.86,-344.48C132.93,-392.53 139.74,-507.57 199.25,-575.38 202.54,-579.13 206.65,-582.19 211.07,-584.68"/>
<polygon fill="#63b8ff" stroke="#63b8ff" points="136.36,-344.6 132.96,-334.56 129.36,-344.52 136.36,-344.6"/>
</a>
</g>
</g>
<!-- Node5 -->
<g id="Node000005" class="node">
<title>Node5</title>
<g id="a_Node000005"><a xlink:href="classnixf_1_1ExprCall.html" target="_top" xlink:title="A call/apply to some function.">
<polygon fill="white" stroke="#666666" points="289.88,-566.75 209.38,-566.75 209.38,-546 289.88,-546 289.88,-566.75"/>
<text text-anchor="middle" x="249.62" y="-553.25" font-family="Helvetica,sans-Serif" font-size="10.00">nixf::ExprCall</text>
</a>
</g>
</g>
<!-- Node1&#45;&gt;Node5 -->
<g id="edge4_Node000001_Node000005" class="edge">
<title>Node1&#45;&gt;Node5</title>
<g id="a_edge4_Node000001_Node000005"><a xlink:title=" ">
<path fill="none" stroke="#63b8ff" d="M134.13,-344.21C136.73,-386.62 148.29,-480.82 199.25,-536.38 202.63,-540.06 206.77,-543.07 211.22,-545.54"/>
<polygon fill="#63b8ff" stroke="#63b8ff" points="137.63,-344.14 133.65,-334.33 130.64,-344.49 137.63,-344.14"/>
</a>
</g>
</g>
<!-- Node6 -->
<g id="Node000006" class="node">
<title>Node6</title>
<g id="a_Node000006"><a xlink:href="classnixf_1_1ExprFloat.html" target="_top" xlink:title=" ">
<polygon fill="white" stroke="#666666" points="292.88,-527.75 206.38,-527.75 206.38,-507 292.88,-507 292.88,-527.75"/>
<text text-anchor="middle" x="249.62" y="-514.25" font-family="Helvetica,sans-Serif" font-size="10.00">nixf::ExprFloat</text>
</a>
</g>
</g>
<!-- Node1&#45;&gt;Node6 -->
<g id="edge5_Node000001_Node000006" class="edge">
<title>Node1&#45;&gt;Node6</title>
<g id="a_edge5_Node000001_Node000006"><a xlink:title=" ">
<path fill="none" stroke="#63b8ff" d="M135.92,-344.22C141.26,-380.61 156.87,-453.93 199.25,-497.38 202.87,-501.08 207.26,-504.12 211.93,-506.62"/>
<polygon fill="#63b8ff" stroke="#63b8ff" points="139.41,-343.95 134.63,-334.49 132.47,-344.87 139.41,-343.95"/>
</a>
</g>
</g>
<!-- Node7 -->
<g id="Node000007" class="node">
<title>Node7</title>
<g id="a_Node000007"><a xlink:href="classnixf_1_1ExprIf.html" target="_top" xlink:title=" ">
<polygon fill="white" stroke="#666666" points="283.88,-488.75 215.38,-488.75 215.38,-468 283.88,-468 283.88,-488.75"/>
<text text-anchor="middle" x="249.62" y="-475.25" font-family="Helvetica,sans-Serif" font-size="10.00">nixf::ExprIf</text>
</a>
</g>
</g>
<!-- Node1&#45;&gt;Node7 -->
<g id="edge6_Node000001_Node000007" class="edge">
<title>Node1&#45;&gt;Node7</title>
<g id="a_edge6_Node000001_Node000007"><a xlink:title=" ">
<path fill="none" stroke="#63b8ff" d="M138.56,-343.9C146.72,-373.46 165.24,-426.55 199.25,-458.38 203.77,-462.61 209.31,-466 215.02,-468.69"/>
<polygon fill="#63b8ff" stroke="#63b8ff" points="142.05,-343.41 136.15,-334.61 135.28,-345.17 142.05,-343.41"/>
</a>
</g>
</g>
<!-- Node8 -->
<g id="Node000008" class="node">
<title>Node8</title>
<g id="a_Node000008"><a xlink:href="classnixf_1_1ExprInt.html" target="_top" xlink:title=" ">
<polygon fill="white" stroke="#666666" points="286.88,-449.75 212.38,-449.75 212.38,-429 286.88,-429 286.88,-449.75"/>
<text text-anchor="middle" x="249.62" y="-436.25" font-family="Helvetica,sans-Serif" font-size="10.00">nixf::ExprInt</text>
</a>
</g>
</g>
<!-- Node1&#45;&gt;Node8 -->
<g id="edge7_Node000001_Node000008" class="edge">
<title>Node1&#45;&gt;Node8</title>
<g id="a_edge7_Node000001_Node000008"><a xlink:title=" ">
<path fill="none" stroke="#63b8ff" d="M142.99,-343.36C153.88,-365.04 173.5,-398.57 199.25,-419.38 203.71,-422.98 208.91,-426.01 214.22,-428.53"/>
<polygon fill="#63b8ff" stroke="#63b8ff" points="146.26,-342.09 138.77,-334.6 139.96,-345.13 146.26,-342.09"/>
</a>
</g>
</g>
<!-- Node9 -->
<g id="Node000009" class="node">
<title>Node9</title>
<g id="a_Node000009"><a xlink:href="classnixf_1_1ExprLambda.html" target="_top" xlink:title=" ">
<polygon fill="white" stroke="#666666" points="300,-410.75 199.25,-410.75 199.25,-390 300,-390 300,-410.75"/>
<text text-anchor="middle" x="249.62" y="-397.25" font-family="Helvetica,sans-Serif" font-size="10.00">nixf::ExprLambda</text>
</a>
</g>
</g>
<!-- Node1&#45;&gt;Node9 -->
<g id="edge8_Node000001_Node000009" class="edge">
<title>Node1&#45;&gt;Node9</title>
<g id="a_edge8_Node000001_Node000009"><a xlink:title=" ">
<path fill="none" stroke="#63b8ff" d="M151.02,-340.91C163.58,-353.3 181.34,-369.31 199.25,-380.38 204.84,-383.83 211.12,-386.9 217.29,-389.54"/>
<polygon fill="#63b8ff" stroke="#63b8ff" points="153.8,-338.74 144.29,-334.08 148.82,-343.66 153.8,-338.74"/>
</a>
</g>
</g>
<!-- Node10 -->
<g id="Node000010" class="node">
<title>Node10</title>
<g id="a_Node000010"><a xlink:href="classnixf_1_1ExprLet.html" target="_top" xlink:title=" ">
<polygon fill="white" stroke="#666666" points="288,-371.75 211.25,-371.75 211.25,-351 288,-351 288,-371.75"/>
<text text-anchor="middle" x="249.62" y="-358.25" font-family="Helvetica,sans-Serif" font-size="10.00">nixf::ExprLet</text>
</a>
</g>
</g>
<!-- Node1&#45;&gt;Node10 -->
<g id="edge9_Node000001_Node000010" class="edge">
<title>Node1&#45;&gt;Node10</title>
<g id="a_edge9_Node000001_Node000010"><a xlink:title=" ">
<path fill="none" stroke="#63b8ff" d="M174.39,-336.25C188.23,-340.94 203.48,-346.1 216.53,-350.51"/>
<polygon fill="#63b8ff" stroke="#63b8ff" points="175.68,-333 165.09,-333.11 173.44,-339.63 175.68,-333"/>
</a>
</g>
</g>
<!-- Node11 -->
<g id="Node000011" class="node">
<title>Node11</title>
<g id="a_Node000011"><a xlink:href="classnixf_1_1ExprList.html" target="_top" xlink:title=" ">
<polygon fill="white" stroke="#666666" points="289.12,-332.75 210.12,-332.75 210.12,-312 289.12,-312 289.12,-332.75"/>
<text text-anchor="middle" x="249.62" y="-319.25" font-family="Helvetica,sans-Serif" font-size="10.00">nixf::ExprList</text>
</a>
</g>
</g>
<!-- Node1&#45;&gt;Node11 -->
<g id="edge10_Node000001_Node000011" class="edge">
<title>Node1&#45;&gt;Node11</title>
<g id="a_edge10_Node000001_Node000011"><a xlink:title=" ">
<path fill="none" stroke="#63b8ff" d="M175.08,-322.38C186.43,-322.38 198.68,-322.38 209.86,-322.38"/>
<polygon fill="#63b8ff" stroke="#63b8ff" points="175.17,-318.88 165.17,-322.38 175.17,-325.88 175.17,-318.88"/>
</a>
</g>
</g>
<!-- Node12 -->
<g id="Node000012" class="node">
<title>Node12</title>
<g id="a_Node000012"><a xlink:href="classnixf_1_1ExprOp.html" target="_top" xlink:title="Abstract class for binary operators and unary operators.">
<polygon fill="white" stroke="#666666" points="287.25,-293.75 212,-293.75 212,-273 287.25,-273 287.25,-293.75"/>
<text text-anchor="middle" x="249.62" y="-280.25" font-family="Helvetica,sans-Serif" font-size="10.00">nixf::ExprOp</text>
</a>
</g>
</g>
<!-- Node1&#45;&gt;Node12 -->
<g id="edge11_Node000001_Node000012" class="edge">
<title>Node1&#45;&gt;Node12</title>
<g id="a_edge11_Node000001_Node000012"><a xlink:title=" ">
<path fill="none" stroke="#63b8ff" d="M174.39,-308.5C188.23,-303.81 203.48,-298.65 216.53,-294.24"/>
<polygon fill="#63b8ff" stroke="#63b8ff" points="173.44,-305.12 165.09,-311.64 175.68,-311.75 173.44,-305.12"/>
</a>
</g>
</g>
<!-- Node16 -->
<g id="Node000016" class="node">
<title>Node16</title>
<g id="a_Node000016"><a xlink:href="classnixf_1_1ExprParen.html" target="_top" xlink:title=" ">
<polygon fill="white" stroke="#666666" points="294,-254.75 205.25,-254.75 205.25,-234 294,-234 294,-254.75"/>
<text text-anchor="middle" x="249.62" y="-241.25" font-family="Helvetica,sans-Serif" font-size="10.00">nixf::ExprParen</text>
</a>
</g>
</g>
<!-- Node1&#45;&gt;Node16 -->
<g id="edge15_Node000001_Node000016" class="edge">
<title>Node1&#45;&gt;Node16</title>
<g id="a_edge15_Node000001_Node000016"><a xlink:title=" ">
<path fill="none" stroke="#63b8ff" d="M151.02,-303.84C163.58,-291.45 181.34,-275.44 199.25,-264.38 204.84,-260.92 211.12,-257.85 217.29,-255.21"/>
<polygon fill="#63b8ff" stroke="#63b8ff" points="148.82,-301.09 144.29,-310.67 153.8,-306.01 148.82,-301.09"/>
</a>
</g>
</g>
<!-- Node17 -->
<g id="Node000017" class="node">
<title>Node17</title>
<g id="a_Node000017"><a xlink:href="classnixf_1_1ExprPath.html" target="_top" xlink:title=" ">
<polygon fill="white" stroke="#666666" points="291,-215.75 208.25,-215.75 208.25,-195 291,-195 291,-215.75"/>
<text text-anchor="middle" x="249.62" y="-202.25" font-family="Helvetica,sans-Serif" font-size="10.00">nixf::ExprPath</text>
</a>
</g>
</g>
<!-- Node1&#45;&gt;Node17 -->
<g id="edge16_Node000001_Node000017" class="edge">
<title>Node1&#45;&gt;Node17</title>
<g id="a_edge16_Node000001_Node000017"><a xlink:title=" ">
<path fill="none" stroke="#63b8ff" d="M142.99,-301.39C153.88,-279.71 173.5,-246.18 199.25,-225.38 203.71,-221.77 208.91,-218.74 214.22,-216.22"/>
<polygon fill="#63b8ff" stroke="#63b8ff" points="139.96,-299.62 138.77,-310.15 146.26,-302.66 139.96,-299.62"/>
</a>
</g>
</g>
<!-- Node18 -->
<g id="Node000018" class="node">
<title>Node18</title>
<g id="a_Node000018"><a xlink:href="classnixf_1_1ExprSPath.html" target="_top" xlink:title=" ">
<polygon fill="white" stroke="#666666" points="294,-176.75 205.25,-176.75 205.25,-156 294,-156 294,-176.75"/>
<text text-anchor="middle" x="249.62" y="-163.25" font-family="Helvetica,sans-Serif" font-size="10.00">nixf::ExprSPath</text>
</a>
</g>
</g>
<!-- Node1&#45;&gt;Node18 -->
<g id="edge17_Node000001_Node000018" class="edge">
<title>Node1&#45;&gt;Node18</title>
<g id="a_edge17_Node000001_Node000018"><a xlink:title=" ">
<path fill="none" stroke="#63b8ff" d="M138.56,-300.85C146.72,-271.29 165.24,-218.2 199.25,-186.38 203.17,-182.71 207.84,-179.68 212.73,-177.18"/>
<polygon fill="#63b8ff" stroke="#63b8ff" points="135.28,-299.58 136.15,-310.14 142.05,-301.34 135.28,-299.58"/>
</a>
</g>
</g>
<!-- Node19 -->
<g id="Node000019" class="node">
<title>Node19</title>
<g id="a_Node000019"><a xlink:href="classnixf_1_1ExprSelect.html" target="_top" xlink:title=" ">
<polygon fill="white" stroke="#666666" points="295.5,-137.75 203.75,-137.75 203.75,-117 295.5,-117 295.5,-137.75"/>
<text text-anchor="middle" x="249.62" y="-124.25" font-family="Helvetica,sans-Serif" font-size="10.00">nixf::ExprSelect</text>
</a>
</g>
</g>
<!-- Node1&#45;&gt;Node19 -->
<g id="edge18_Node000001_Node000019" class="edge">
<title>Node1&#45;&gt;Node19</title>
<g id="a_edge18_Node000001_Node000019"><a xlink:title=" ">
<path fill="none" stroke="#63b8ff" d="M135.92,-300.53C141.26,-264.14 156.87,-190.82 199.25,-147.38 202.87,-143.67 207.26,-140.63 211.93,-138.13"/>
<polygon fill="#63b8ff" stroke="#63b8ff" points="132.47,-299.88 134.63,-310.26 139.41,-300.8 132.47,-299.88"/>
</a>
</g>
</g>
<!-- Node20 -->
<g id="Node000020" class="node">
<title>Node20</title>
<g id="a_Node000020"><a xlink:href="classnixf_1_1ExprString.html" target="_top" xlink:title=" ">
<polygon fill="white" stroke="#666666" points="294.75,-98.75 204.5,-98.75 204.5,-78 294.75,-78 294.75,-98.75"/>
<text text-anchor="middle" x="249.62" y="-85.25" font-family="Helvetica,sans-Serif" font-size="10.00">nixf::ExprString</text>
</a>
</g>
</g>
<!-- Node1&#45;&gt;Node20 -->
<g id="edge19_Node000001_Node000020" class="edge">
<title>Node1&#45;&gt;Node20</title>
<g id="a_edge19_Node000001_Node000020"><a xlink:title=" ">
<path fill="none" stroke="#63b8ff" d="M134.13,-300.54C136.73,-258.13 148.29,-163.93 199.25,-108.38 202.63,-104.69 206.77,-101.68 211.22,-99.21"/>
<polygon fill="#63b8ff" stroke="#63b8ff" points="130.64,-300.26 133.65,-310.42 137.63,-300.61 130.64,-300.26"/>
</a>
</g>
</g>
<!-- Node21 -->
<g id="Node000021" class="node">
<title>Node21</title>
<g id="a_Node000021"><a xlink:href="classnixf_1_1ExprVar.html" target="_top" xlink:title=" ">
<polygon fill="white" stroke="#666666" points="288.38,-59.75 210.88,-59.75 210.88,-39 288.38,-39 288.38,-59.75"/>
<text text-anchor="middle" x="249.62" y="-46.25" font-family="Helvetica,sans-Serif" font-size="10.00">nixf::ExprVar</text>
</a>
</g>
</g>
<!-- Node1&#45;&gt;Node21 -->
<g id="edge20_Node000001_Node000021" class="edge">
<title>Node1&#45;&gt;Node21</title>
<g id="a_edge20_Node000001_Node000021"><a xlink:title=" ">
<path fill="none" stroke="#63b8ff" d="M132.86,-300.27C132.93,-252.22 139.74,-137.18 199.25,-69.38 202.54,-65.62 206.65,-62.56 211.07,-60.07"/>
<polygon fill="#63b8ff" stroke="#63b8ff" points="129.36,-300.23 132.96,-310.19 136.36,-300.15 129.36,-300.23"/>
</a>
</g>
</g>
<!-- Node22 -->
<g id="Node000022" class="node">
<title>Node22</title>
<g id="a_Node000022"><a xlink:href="classnixf_1_1ExprWith.html" target="_top" xlink:title=" ">
<polygon fill="white" stroke="#666666" points="291.75,-20.75 207.5,-20.75 207.5,0 291.75,0 291.75,-20.75"/>
<text text-anchor="middle" x="249.62" y="-7.25" font-family="Helvetica,sans-Serif" font-size="10.00">nixf::ExprWith</text>
</a>
</g>
</g>
<!-- Node1&#45;&gt;Node22 -->
<g id="edge21_Node000001_Node000022" class="edge">
<title>Node1&#45;&gt;Node22</title>
<g id="a_edge21_Node000001_Node000022"><a xlink:title=" ">
<path fill="none" stroke="#63b8ff" d="M135.7,-300.35C142.51,-239.65 164.16,-71.71 199.25,-30.38 202.48,-26.57 206.55,-23.48 210.95,-20.97"/>
<polygon fill="#63b8ff" stroke="#63b8ff" points="132.24,-299.77 134.64,-310.09 139.2,-300.53 132.24,-299.77"/>
</a>
</g>
</g>
<!-- Node2 -->
<g id="Node000002" class="node">
<title>Node2</title>
<g id="a_Node000002"><a xlink:href="classnixf_1_1Node.html" target="_top" xlink:title=" ">
<polygon fill="white" stroke="#666666" points="65.5,-332.75 0,-332.75 0,-312 65.5,-312 65.5,-332.75"/>
<text text-anchor="middle" x="32.75" y="-319.25" font-family="Helvetica,sans-Serif" font-size="10.00">nixf::Node</text>
</a>
</g>
</g>
<!-- Node2&#45;&gt;Node1 -->
<g id="edge1_Node000001_Node000002" class="edge">
<title>Node2&#45;&gt;Node1</title>
<g id="a_edge1_Node000001_Node000002"><a xlink:title=" ">
<path fill="none" stroke="#63b8ff" d="M77.47,-322.38C85.48,-322.38 93.66,-322.38 101.16,-322.38"/>
<polygon fill="#63b8ff" stroke="#63b8ff" points="77.5,-318.88 67.5,-322.38 77.5,-325.88 77.5,-318.88"/>
</a>
</g>
</g>
<!-- Node13 -->
<g id="Node000013" class="node">
<title>Node13</title>
<g id="a_Node000013"><a xlink:href="classnixf_1_1ExprBinOp.html" target="_top" xlink:title=" ">
<polygon fill="white" stroke="#666666" points="437.5,-332.75 346.5,-332.75 346.5,-312 437.5,-312 437.5,-332.75"/>
<text text-anchor="middle" x="392" y="-319.25" font-family="Helvetica,sans-Serif" font-size="10.00">nixf::ExprBinOp</text>
</a>
</g>
</g>
<!-- Node12&#45;&gt;Node13 -->
<g id="edge12_Node000012_Node000013" class="edge">
<title>Node12&#45;&gt;Node13</title>
<g id="a_edge12_Node000012_Node000013"><a xlink:title=" ">
<path fill="none" stroke="#63b8ff" d="M298.59,-296.7C315.97,-301.53 335.38,-306.92 351.91,-311.51"/>
<polygon fill="#63b8ff" stroke="#63b8ff" points="299.54,-293.33 288.97,-294.03 297.66,-300.08 299.54,-293.33"/>
</a>
</g>
</g>
<!-- Node14 -->
<g id="Node000014" class="node">
<title>Node14</title>
<g id="a_Node000014"><a xlink:href="classnixf_1_1ExprOpHasAttr.html" target="_top" xlink:title=" ">
<polygon fill="white" stroke="#666666" points="448,-293.75 336,-293.75 336,-273 448,-273 448,-293.75"/>
<text text-anchor="middle" x="392" y="-280.25" font-family="Helvetica,sans-Serif" font-size="10.00">nixf::ExprOpHasAttr</text>
</a>
</g>
</g>
<!-- Node12&#45;&gt;Node14 -->
<g id="edge13_Node000012_Node000014" class="edge">
<title>Node12&#45;&gt;Node14</title>
<g id="a_edge13_Node000012_Node000014"><a xlink:title=" ">
<path fill="none" stroke="#63b8ff" d="M298.95,-283.38C310.76,-283.38 323.49,-283.38 335.6,-283.38"/>
<polygon fill="#63b8ff" stroke="#63b8ff" points="299.02,-279.88 289.02,-283.38 299.02,-286.88 299.02,-279.88"/>
</a>
</g>
</g>
<!-- Node15 -->
<g id="Node000015" class="node">
<title>Node15</title>
<g id="a_Node000015"><a xlink:href="classnixf_1_1ExprUnaryOp.html" target="_top" xlink:title=" ">
<polygon fill="white" stroke="#666666" points="444.25,-254.75 339.75,-254.75 339.75,-234 444.25,-234 444.25,-254.75"/>
<text text-anchor="middle" x="392" y="-241.25" font-family="Helvetica,sans-Serif" font-size="10.00">nixf::ExprUnaryOp</text>
</a>
</g>
</g>
<!-- Node12&#45;&gt;Node15 -->
<g id="edge14_Node000012_Node000015" class="edge">
<title>Node12&#45;&gt;Node15</title>
<g id="a_edge14_Node000012_Node000015"><a xlink:title=" ">
<path fill="none" stroke="#63b8ff" d="M298.59,-270.05C315.97,-265.22 335.38,-259.83 351.91,-255.24"/>
<polygon fill="#63b8ff" stroke="#63b8ff" points="297.66,-266.67 288.97,-272.72 299.54,-273.42 297.66,-266.67"/>
</a>
</g>
</g>
</g>
</svg>
