<?xml version="1.0" encoding="UTF-8" standalone="no"?>
<!DOCTYPE svg PUBLIC "-//W3C//DTD SVG 1.1//EN"
 "http://www.w3.org/Graphics/SVG/1.1/DTD/svg11.dtd">
<!-- Generated by graphviz version 12.2.1 (0)
 -->
<!-- Title: nixd::LLVMErrorException Pages: 1 -->
<svg width="322pt" height="142pt"
 viewBox="0.00 0.00 321.62 142.25" xmlns="http://www.w3.org/2000/svg" xmlns:xlink="http://www.w3.org/1999/xlink">
<g id="graph0" class="graph" transform="scale(1 1) rotate(0) translate(4 138.25)">
<title>nixd::LLVMErrorException</title>
<!-- Node1 -->
<g id="Node000001" class="node">
<title>Node1</title>
<g id="a_Node000001"><a xlink:title=" ">
<polygon fill="#999999" stroke="#666666" points="223.5,-77.5 83.75,-77.5 83.75,-56.75 223.5,-56.75 223.5,-77.5"/>
<text text-anchor="middle" x="153.62" y="-64" font-family="Helvetica,sans-Serif" font-size="10.00">nixd::LLVMErrorException</text>
</a>
</g>
</g>
<!-- Node3 -->
<g id="Node000003" class="node">
<title>Node3</title>
<g id="a_Node000003"><a xlink:href="classnixd_1_1JSONParseException.html" target="_top" xlink:title=" ">
<polygon fill="white" stroke="#666666" points="141.25,-20.75 0,-20.75 0,0 141.25,0 141.25,-20.75"/>
<text text-anchor="middle" x="70.62" y="-7.25" font-family="Helvetica,sans-Serif" font-size="10.00">nixd::JSONParseException</text>
</a>
</g>
</g>
<!-- Node1&#45;&gt;Node3 -->
<g id="edge2_Node000001_Node000003" class="edge">
<title>Node1&#45;&gt;Node3</title>
<g id="a_edge2_Node000001_Node000003"><a xlink:title=" ">
<path fill="none" stroke="#63b8ff" d="M129.53,-50.23C115.24,-40.8 97.57,-29.15 85.34,-21.08"/>
<polygon fill="#63b8ff" stroke="#63b8ff" points="127.25,-52.92 137.52,-55.5 131.1,-47.08 127.25,-52.92"/>
</a>
</g>
</g>
<!-- Node4 -->
<g id="Node000004" class="node">
<title>Node4</title>
<g id="a_Node000004"><a xlink:href="classnixd_1_1JSONSchemaException.html" target="_top" xlink:title=" ">
<polygon fill="white" stroke="#666666" points="313.62,-20.75 159.62,-20.75 159.62,0 313.62,0 313.62,-20.75"/>
<text text-anchor="middle" x="236.62" y="-7.25" font-family="Helvetica,sans-Serif" font-size="10.00">nixd::JSONSchemaException</text>
</a>
</g>
</g>
<!-- Node1&#45;&gt;Node4 -->
<g id="edge3_Node000001_Node000004" class="edge">
<title>Node1&#45;&gt;Node4</title>
<g id="a_edge3_Node000001_Node000004"><a xlink:title=" ">
<path fill="none" stroke="#63b8ff" d="M177.72,-50.23C192.01,-40.8 209.68,-29.15 221.91,-21.08"/>
<polygon fill="#63b8ff" stroke="#63b8ff" points="176.15,-47.08 169.73,-55.5 180,-52.92 176.15,-47.08"/>
</a>
</g>
</g>
<!-- Node2 -->
<g id="Node000002" class="node">
<title>Node2</title>
<g id="a_Node000002"><a xlink:title=" ">
<polygon fill="white" stroke="#666666" points="196.12,-134.25 111.12,-134.25 111.12,-113.5 196.12,-113.5 196.12,-134.25"/>
<text text-anchor="middle" x="153.62" y="-120.75" font-family="Helvetica,sans-Serif" font-size="10.00">std::exception</text>
</a>
</g>
</g>
<!-- Node2&#45;&gt;Node1 -->
<g id="edge1_Node000001_Node000002" class="edge">
<title>Node2&#45;&gt;Node1</title>
<g id="a_edge1_Node000001_Node000002"><a xlink:title=" ">
<path fill="none" stroke="#63b8ff" d="M153.62,-101.63C153.62,-93.41 153.62,-84.43 153.62,-77.83"/>
<polygon fill="#63b8ff" stroke="#63b8ff" points="150.13,-101.57 153.63,-111.57 157.13,-101.57 150.13,-101.57"/>
</a>
</g>
</g>
</g>
</svg>
