<?xml version="1.0" encoding="UTF-8" standalone="no"?>
<!DOCTYPE svg PUBLIC "-//W3C//DTD SVG 1.1//EN"
 "http://www.w3.org/Graphics/SVG/1.1/DTD/svg11.dtd">
<!-- Generated by graphviz version 12.1.2 (0)
 -->
<!-- Title: diagnostic.Diagnostic Pages: 1 -->
<svg width="141pt" height="98pt"
 viewBox="0.00 0.00 140.56 98.25" xmlns="http://www.w3.org/2000/svg" xmlns:xlink="http://www.w3.org/1999/xlink">
<g id="graph0" class="graph" transform="scale(1 1) rotate(0) translate(4 94.25)">
<title>diagnostic.Diagnostic</title>
<!-- Node1 -->
<g id="Node000001" class="node">
<title>Node1</title>
<g id="a_Node000001"><a xlink:title=" ">
<polygon fill="#999999" stroke="#666666" points="128.5,-20.75 7.5,-20.75 7.5,0 128.5,0 128.5,-20.75"/>
<text text-anchor="middle" x="68" y="-7.25" font-family="Helvetica,sans-Serif" font-size="10.00">diagnostic.Diagnostic</text>
</a>
</g>
</g>
<!-- Node2 -->
<g id="Node000002" class="node">
<title>Node2</title>
<g id="a_Node000002"><a xlink:title=" ">
<polygon fill="white" stroke="#666666" points="64,-90.25 0,-90.25 0,-69.5 64,-69.5 64,-90.25"/>
<text text-anchor="middle" x="32" y="-76.75" font-family="Helvetica,sans-Serif" font-size="10.00">TypedDict</text>
</a>
</g>
</g>
<!-- Node2&#45;&gt;Node1 -->
<g id="edge1_Node000001_Node000002" class="edge">
<title>Node2&#45;&gt;Node1</title>
<g id="a_edge1_Node000001_Node000002"><a xlink:title=" ">
<path fill="none" stroke="#63b8ff" d="M42.48,-59.22C49.18,-46.67 57.56,-30.95 62.85,-21.03"/>
<polygon fill="#63b8ff" stroke="#63b8ff" points="39.49,-57.4 37.87,-67.87 45.66,-60.69 39.49,-57.4"/>
</a>
</g>
</g>
<!-- Node3 -->
<g id="Node000003" class="node">
<title>Node3</title>
<g id="a_Node000003"><a xlink:title=" ">
<polygon fill="white" stroke="#666666" points="128.38,-90.25 81.62,-90.25 81.62,-69.5 128.38,-69.5 128.38,-90.25"/>
<text text-anchor="middle" x="105" y="-76.75" font-family="Helvetica,sans-Serif" font-size="10.00">Literal</text>
</a>
</g>
</g>
<!-- Node3&#45;&gt;Node1 -->
<g id="edge2_Node000001_Node000003" class="edge">
<title>Node3&#45;&gt;Node1</title>
<g id="a_edge2_Node000001_Node000003"><a xlink:title=" ">
<path fill="none" stroke="#9a32cd" stroke-dasharray="5,2" d="M94.22,-59.22C87.34,-46.67 78.73,-30.95 73.29,-21.03"/>
<polygon fill="#9a32cd" stroke="#9a32cd" points="91.1,-60.79 98.97,-67.88 97.23,-57.43 91.1,-60.79"/>
</a>
</g>
<text text-anchor="middle" x="111.19" y="-42" font-family="Helvetica,sans-Serif" font-size="10.00" fill="grey"> severity</text>
</g>
</g>
</svg>
