<?xml version="1.0" encoding="UTF-8" standalone="no"?>
<!DOCTYPE svg PUBLIC "-//W3C//DTD SVG 1.1//EN"
 "http://www.w3.org/Graphics/SVG/1.1/DTD/svg11.dtd">
<!-- Generated by graphviz version 10.0.1 (0)
 -->
<!-- Title: lspserver::LSPServer Pages: 1 -->
<svg width="333pt" height="199pt"
 viewBox="0.00 0.00 332.75 199.00" xmlns="http://www.w3.org/2000/svg" xmlns:xlink="http://www.w3.org/1999/xlink">
<g id="graph0" class="graph" transform="scale(1 1) rotate(0) translate(4 195)">
<title>lspserver::LSPServer</title>
<!-- Node1 -->
<g id="Node000001" class="node">
<title>Node1</title>
<g id="a_Node000001"><a xlink:title=" ">
<polygon fill="#999999" stroke="#666666" points="213.38,-134.25 97.62,-134.25 97.62,-113.5 213.38,-113.5 213.38,-134.25"/>
<text text-anchor="middle" x="155.5" y="-120.75" font-family="Helvetica,sans-Serif" font-size="10.00">lspserver::LSPServer</text>
</a>
</g>
</g>
<!-- Node3 -->
<g id="Node000003" class="node">
<title>Node3</title>
<g id="a_Node000003"><a xlink:href="classnixd_1_1Controller.html" target="_top" xlink:title=" ">
<polygon fill="white" stroke="#666666" points="91,-77.5 0,-77.5 0,-56.75 91,-56.75 91,-77.5"/>
<text text-anchor="middle" x="45.5" y="-64" font-family="Helvetica,sans-Serif" font-size="10.00">nixd::Controller</text>
</a>
</g>
</g>
<!-- Node1&#45;&gt;Node3 -->
<g id="edge2_Node000001_Node000003" class="edge">
<title>Node1&#45;&gt;Node3</title>
<g id="a_edge2_Node000001_Node000003"><a xlink:title=" ">
<path fill="none" stroke="#63b8ff" d="M125.74,-108.06C106.44,-98.45 81.84,-86.21 65,-77.83"/>
<polygon fill="#63b8ff" stroke="#63b8ff" points="123.97,-111.09 134.48,-112.41 127.09,-104.82 123.97,-111.09"/>
</a>
</g>
</g>
<!-- Node4 -->
<g id="Node000004" class="node">
<title>Node4</title>
<g id="a_Node000004"><a xlink:href="classnixd_1_1EvalClient.html" target="_top" xlink:title=" ">
<polygon fill="white" stroke="#666666" points="201.75,-77.5 109.25,-77.5 109.25,-56.75 201.75,-56.75 201.75,-77.5"/>
<text text-anchor="middle" x="155.5" y="-64" font-family="Helvetica,sans-Serif" font-size="10.00">nixd::EvalClient</text>
</a>
</g>
</g>
<!-- Node1&#45;&gt;Node4 -->
<g id="edge3_Node000001_Node000004" class="edge">
<title>Node1&#45;&gt;Node4</title>
<g id="a_edge3_Node000001_Node000004"><a xlink:title=" ">
<path fill="none" stroke="#63b8ff" d="M155.5,-101.63C155.5,-93.41 155.5,-84.43 155.5,-77.83"/>
<polygon fill="#63b8ff" stroke="#63b8ff" points="152,-101.57 155.5,-111.57 159,-101.57 152,-101.57"/>
</a>
</g>
</g>
<!-- Node6 -->
<g id="Node000006" class="node">
<title>Node6</title>
<g id="a_Node000006"><a xlink:href="classnixd_1_1EvalProvider.html" target="_top" xlink:title=" ">
<polygon fill="white" stroke="#666666" points="324.75,-77.5 220.25,-77.5 220.25,-56.75 324.75,-56.75 324.75,-77.5"/>
<text text-anchor="middle" x="272.5" y="-64" font-family="Helvetica,sans-Serif" font-size="10.00">nixd::EvalProvider</text>
</a>
</g>
</g>
<!-- Node1&#45;&gt;Node6 -->
<g id="edge5_Node000001_Node000006" class="edge">
<title>Node1&#45;&gt;Node6</title>
<g id="a_edge5_Node000001_Node000006"><a xlink:title=" ">
<path fill="none" stroke="#63b8ff" d="M186.59,-108.33C207.2,-98.68 233.68,-86.29 251.76,-77.83"/>
<polygon fill="#63b8ff" stroke="#63b8ff" points="185.36,-105.04 177.79,-112.45 188.33,-111.38 185.36,-105.04"/>
</a>
</g>
</g>
<!-- Node2 -->
<g id="Node000002" class="node">
<title>Node2</title>
<g id="a_Node000002"><a xlink:href="classlspserver_1_1MessageHandler.html" target="_top" xlink:title=" ">
<polygon fill="white" stroke="#666666" points="229.88,-191 81.12,-191 81.12,-170.25 229.88,-170.25 229.88,-191"/>
<text text-anchor="middle" x="155.5" y="-177.5" font-family="Helvetica,sans-Serif" font-size="10.00">lspserver::MessageHandler</text>
</a>
</g>
</g>
<!-- Node2&#45;&gt;Node1 -->
<g id="edge1_Node000001_Node000002" class="edge">
<title>Node2&#45;&gt;Node1</title>
<g id="a_edge1_Node000001_Node000002"><a xlink:title=" ">
<path fill="none" stroke="#63b8ff" d="M155.5,-158.38C155.5,-150.16 155.5,-141.18 155.5,-134.58"/>
<polygon fill="#63b8ff" stroke="#63b8ff" points="152,-158.32 155.5,-168.32 159,-158.32 152,-158.32"/>
</a>
</g>
</g>
<!-- Node5 -->
<g id="Node000005" class="node">
<title>Node5</title>
<g id="a_Node000005"><a xlink:href="classnixd_1_1OwnedEvalClient.html" target="_top" xlink:title=" ">
<polygon fill="white" stroke="#666666" points="218.62,-20.75 92.38,-20.75 92.38,0 218.62,0 218.62,-20.75"/>
<text text-anchor="middle" x="155.5" y="-7.25" font-family="Helvetica,sans-Serif" font-size="10.00">nixd::OwnedEvalClient</text>
</a>
</g>
</g>
<!-- Node4&#45;&gt;Node5 -->
<g id="edge4_Node000004_Node000005" class="edge">
<title>Node4&#45;&gt;Node5</title>
<g id="a_edge4_Node000004_Node000005"><a xlink:title=" ">
<path fill="none" stroke="#63b8ff" d="M155.5,-44.88C155.5,-36.66 155.5,-27.68 155.5,-21.08"/>
<polygon fill="#63b8ff" stroke="#63b8ff" points="152,-44.82 155.5,-54.82 159,-44.82 152,-44.82"/>
</a>
</g>
</g>
</g>
</svg>
