<?xml version="1.0" encoding="UTF-8" standalone="no"?>
<!DOCTYPE svg PUBLIC "-//W3C//DTD SVG 1.1//EN"
 "http://www.w3.org/Graphics/SVG/1.1/DTD/svg11.dtd">
<!-- Generated by graphviz version 12.2.1 (0)
 -->
<!-- Title: nixf::ExprBinOp Pages: 1 -->
<svg width="99pt" height="199pt"
 viewBox="0.00 0.00 99.00 199.00" xmlns="http://www.w3.org/2000/svg" xmlns:xlink="http://www.w3.org/1999/xlink">
<g id="graph0" class="graph" transform="scale(1 1) rotate(0) translate(4 195)">
<title>nixf::ExprBinOp</title>
<!-- Node1 -->
<g id="Node000001" class="node">
<title>Node1</title>
<g id="a_Node000001"><a xlink:title=" ">
<polygon fill="#999999" stroke="#666666" points="91,-20.75 0,-20.75 0,0 91,0 91,-20.75"/>
<text text-anchor="middle" x="45.5" y="-7.25" font-family="Helvetica,sans-Serif" font-size="10.00">nixf::ExprBinOp</text>
</a>
</g>
</g>
<!-- Node2 -->
<g id="Node000002" class="node">
<title>Node2</title>
<g id="a_Node000002"><a xlink:href="classnixf_1_1ExprOp.html" target="_top" xlink:title="Abstract class for binary operators and unary operators.">
<polygon fill="white" stroke="#666666" points="83.12,-77.5 7.88,-77.5 7.88,-56.75 83.12,-56.75 83.12,-77.5"/>
<text text-anchor="middle" x="45.5" y="-64" font-family="Helvetica,sans-Serif" font-size="10.00">nixf::ExprOp</text>
</a>
</g>
</g>
<!-- Node2&#45;&gt;Node1 -->
<g id="edge1_Node000001_Node000002" class="edge">
<title>Node2&#45;&gt;Node1</title>
<g id="a_edge1_Node000001_Node000002"><a xlink:title=" ">
<path fill="none" stroke="#63b8ff" d="M45.5,-44.88C45.5,-36.66 45.5,-27.68 45.5,-21.08"/>
<polygon fill="#63b8ff" stroke="#63b8ff" points="42,-44.82 45.5,-54.82 49,-44.82 42,-44.82"/>
</a>
</g>
</g>
<!-- Node3 -->
<g id="Node000003" class="node">
<title>Node3</title>
<g id="a_Node000003"><a xlink:href="classnixf_1_1Expr.html" target="_top" xlink:title=" ">
<polygon fill="white" stroke="#666666" points="76.38,-134.25 14.62,-134.25 14.62,-113.5 76.38,-113.5 76.38,-134.25"/>
<text text-anchor="middle" x="45.5" y="-120.75" font-family="Helvetica,sans-Serif" font-size="10.00">nixf::Expr</text>
</a>
</g>
</g>
<!-- Node3&#45;&gt;Node2 -->
<g id="edge2_Node000002_Node000003" class="edge">
<title>Node3&#45;&gt;Node2</title>
<g id="a_edge2_Node000002_Node000003"><a xlink:title=" ">
<path fill="none" stroke="#63b8ff" d="M45.5,-101.63C45.5,-93.41 45.5,-84.43 45.5,-77.83"/>
<polygon fill="#63b8ff" stroke="#63b8ff" points="42,-101.57 45.5,-111.57 49,-101.57 42,-101.57"/>
</a>
</g>
</g>
<!-- Node4 -->
<g id="Node000004" class="node">
<title>Node4</title>
<g id="a_Node000004"><a xlink:href="classnixf_1_1Node.html" target="_top" xlink:title=" ">
<polygon fill="white" stroke="#666666" points="78.25,-191 12.75,-191 12.75,-170.25 78.25,-170.25 78.25,-191"/>
<text text-anchor="middle" x="45.5" y="-177.5" font-family="Helvetica,sans-Serif" font-size="10.00">nixf::Node</text>
</a>
</g>
</g>
<!-- Node4&#45;&gt;Node3 -->
<g id="edge3_Node000003_Node000004" class="edge">
<title>Node4&#45;&gt;Node3</title>
<g id="a_edge3_Node000003_Node000004"><a xlink:title=" ">
<path fill="none" stroke="#63b8ff" d="M45.5,-158.38C45.5,-150.16 45.5,-141.18 45.5,-134.58"/>
<polygon fill="#63b8ff" stroke="#63b8ff" points="42,-158.32 45.5,-168.32 49,-158.32 42,-158.32"/>
</a>
</g>
</g>
</g>
</svg>
