<?xml version="1.0" encoding="UTF-8" standalone="no"?>
<!DOCTYPE svg PUBLIC "-//W3C//DTD SVG 1.1//EN"
 "http://www.w3.org/Graphics/SVG/1.1/DTD/svg11.dtd">
<!-- Generated by graphviz version 12.2.1 (0)
 -->
<!-- Title: nixf::ExprUnaryOp Pages: 1 -->
<svg width="113pt" height="199pt"
 viewBox="0.00 0.00 112.50 199.00" xmlns="http://www.w3.org/2000/svg" xmlns:xlink="http://www.w3.org/1999/xlink">
<g id="graph0" class="graph" transform="scale(1 1) rotate(0) translate(4 195)">
<title>nixf::ExprUnaryOp</title>
<!-- Node1 -->
<g id="Node000001" class="node">
<title>Node1</title>
<g id="a_Node000001"><a xlink:title=" ">
<polygon fill="#999999" stroke="#666666" points="104.5,-20.75 0,-20.75 0,0 104.5,0 104.5,-20.75"/>
<text text-anchor="middle" x="52.25" y="-7.25" font-family="Helvetica,sans-Serif" font-size="10.00">nixf::ExprUnaryOp</text>
</a>
</g>
</g>
<!-- Node2 -->
<g id="Node000002" class="node">
<title>Node2</title>
<g id="a_Node000002"><a xlink:href="classnixf_1_1ExprOp.html" target="_top" xlink:title="Abstract class for binary operators and unary operators.">
<polygon fill="white" stroke="#666666" points="89.88,-77.5 14.62,-77.5 14.62,-56.75 89.88,-56.75 89.88,-77.5"/>
<text text-anchor="middle" x="52.25" y="-64" font-family="Helvetica,sans-Serif" font-size="10.00">nixf::ExprOp</text>
</a>
</g>
</g>
<!-- Node2&#45;&gt;Node1 -->
<g id="edge1_Node000001_Node000002" class="edge">
<title>Node2&#45;&gt;Node1</title>
<g id="a_edge1_Node000001_Node000002"><a xlink:title=" ">
<path fill="none" stroke="#63b8ff" d="M52.25,-44.88C52.25,-36.66 52.25,-27.68 52.25,-21.08"/>
<polygon fill="#63b8ff" stroke="#63b8ff" points="48.75,-44.82 52.25,-54.82 55.75,-44.82 48.75,-44.82"/>
</a>
</g>
</g>
<!-- Node3 -->
<g id="Node000003" class="node">
<title>Node3</title>
<g id="a_Node000003"><a xlink:href="classnixf_1_1Expr.html" target="_top" xlink:title=" ">
<polygon fill="white" stroke="#666666" points="83.12,-134.25 21.38,-134.25 21.38,-113.5 83.12,-113.5 83.12,-134.25"/>
<text text-anchor="middle" x="52.25" y="-120.75" font-family="Helvetica,sans-Serif" font-size="10.00">nixf::Expr</text>
</a>
</g>
</g>
<!-- Node3&#45;&gt;Node2 -->
<g id="edge2_Node000002_Node000003" class="edge">
<title>Node3&#45;&gt;Node2</title>
<g id="a_edge2_Node000002_Node000003"><a xlink:title=" ">
<path fill="none" stroke="#63b8ff" d="M52.25,-101.63C52.25,-93.41 52.25,-84.43 52.25,-77.83"/>
<polygon fill="#63b8ff" stroke="#63b8ff" points="48.75,-101.57 52.25,-111.57 55.75,-101.57 48.75,-101.57"/>
</a>
</g>
</g>
<!-- Node4 -->
<g id="Node000004" class="node">
<title>Node4</title>
<g id="a_Node000004"><a xlink:href="classnixf_1_1Node.html" target="_top" xlink:title=" ">
<polygon fill="white" stroke="#666666" points="85,-191 19.5,-191 19.5,-170.25 85,-170.25 85,-191"/>
<text text-anchor="middle" x="52.25" y="-177.5" font-family="Helvetica,sans-Serif" font-size="10.00">nixf::Node</text>
</a>
</g>
</g>
<!-- Node4&#45;&gt;Node3 -->
<g id="edge3_Node000003_Node000004" class="edge">
<title>Node4&#45;&gt;Node3</title>
<g id="a_edge3_Node000003_Node000004"><a xlink:title=" ">
<path fill="none" stroke="#63b8ff" d="M52.25,-158.38C52.25,-150.16 52.25,-141.18 52.25,-134.58"/>
<polygon fill="#63b8ff" stroke="#63b8ff" points="48.75,-158.32 52.25,-168.32 55.75,-158.32 48.75,-158.32"/>
</a>
</g>
</g>
</g>
</svg>
