<?xml version="1.0" encoding="UTF-8" standalone="no"?>
<!DOCTYPE svg PUBLIC "-//W3C//DTD SVG 1.1//EN"
 "http://www.w3.org/Graphics/SVG/1.1/DTD/svg11.dtd">
<!-- Generated by graphviz version 12.2.1 (0)
 -->
<!-- Title: lspserver::LSPServer Pages: 1 -->
<svg width="320pt" height="104pt"
 viewBox="0.00 0.00 320.25 104.25" xmlns="http://www.w3.org/2000/svg" xmlns:xlink="http://www.w3.org/1999/xlink">
<g id="graph0" class="graph" transform="scale(1 1) rotate(0) translate(4 100.25)">
<title>lspserver::LSPServer</title>
<!-- Node1 -->
<g id="Node000001" class="node">
<title>Node1</title>
<g id="a_Node000001"><a xlink:title=" ">
<polygon fill="#999999" stroke="#666666" points="214.25,-20.75 98.5,-20.75 98.5,0 214.25,0 214.25,-20.75"/>
<text text-anchor="middle" x="156.38" y="-7.25" font-family="Helvetica,sans-Serif" font-size="10.00">lspserver::LSPServer</text>
</a>
</g>
</g>
<!-- Node2 -->
<g id="Node000002" class="node">
<title>Node2</title>
<g id="a_Node000002"><a xlink:href="classlspserver_1_1MessageHandler.html" target="_top" xlink:title=" ">
<polygon fill="white" stroke="#666666" points="148.75,-96.25 0,-96.25 0,-75.5 148.75,-75.5 148.75,-96.25"/>
<text text-anchor="middle" x="74.38" y="-82.75" font-family="Helvetica,sans-Serif" font-size="10.00">lspserver::MessageHandler</text>
</a>
</g>
</g>
<!-- Node2&#45;&gt;Node1 -->
<g id="edge1_Node000001_Node000002" class="edge">
<title>Node2&#45;&gt;Node1</title>
<g id="a_edge1_Node000001_Node000002"><a xlink:title=" ">
<path fill="none" stroke="#63b8ff" d="M93.29,-67.92C109.43,-53.45 132.08,-33.15 145.39,-21.22"/>
<polygon fill="#63b8ff" stroke="#63b8ff" points="91.33,-64.98 86.22,-74.26 96,-70.19 91.33,-64.98"/>
</a>
</g>
</g>
<!-- Node3 -->
<g id="Node000003" class="node">
<title>Node3</title>
<g id="a_Node000003"><a xlink:href="structlspserver_1_1HandlerRegistry.html" target="_top" xlink:title=" ">
<polygon fill="white" stroke="#666666" points="312.25,-96.25 166.5,-96.25 166.5,-75.5 312.25,-75.5 312.25,-96.25"/>
<text text-anchor="middle" x="239.38" y="-82.75" font-family="Helvetica,sans-Serif" font-size="10.00">lspserver::HandlerRegistry</text>
</a>
</g>
</g>
<!-- Node3&#45;&gt;Node1 -->
<g id="edge2_Node000001_Node000003" class="edge">
<title>Node3&#45;&gt;Node1</title>
<g id="a_edge2_Node000001_Node000003"><a xlink:title=" ">
<path fill="none" stroke="#9a32cd" stroke-dasharray="5,2" d="M220.23,-67.92C203.89,-53.45 180.97,-33.15 167.49,-21.22"/>
<polygon fill="#9a32cd" stroke="#9a32cd" points="217.58,-70.25 227.39,-74.26 222.22,-65.01 217.58,-70.25"/>
</a>
</g>
<text text-anchor="start" x="210.75" y="-45" font-family="Helvetica,sans-Serif" font-size="10.00" fill="grey">Registry</text>
</g>
</g>
</svg>
