<?xml version="1.0" encoding="UTF-8" standalone="no"?>
<!DOCTYPE svg PUBLIC "-//W3C//DTD SVG 1.1//EN"
 "http://www.w3.org/Graphics/SVG/1.1/DTD/svg11.dtd">
<!-- Generated by graphviz version 12.2.1 (0)
 -->
<!-- Title: nixf::Node Pages: 1 -->
<svg width="518pt" height="692pt"
 viewBox="0.00 0.00 517.50 691.75" xmlns="http://www.w3.org/2000/svg" xmlns:xlink="http://www.w3.org/1999/xlink">
<g id="graph0" class="graph" transform="scale(1 1) rotate(0) translate(4 687.75)">
<title>nixf::Node</title>
<!-- Node1 -->
<g id="Node000001" class="node">
<title>Node1</title>
<g id="a_Node000001"><a xlink:title=" ">
<polygon fill="#999999" stroke="#666666" points="65.5,-293.75 0,-293.75 0,-273 65.5,-273 65.5,-293.75"/>
<text text-anchor="middle" x="32.75" y="-280.25" font-family="Helvetica,sans-Serif" font-size="10.00">nixf::Node</text>
</a>
</g>
</g>
<!-- Node2 -->
<g id="Node000002" class="node">
<title>Node2</title>
<g id="a_Node000002"><a xlink:href="classnixf_1_1AttrName.html" target="_top" xlink:title=" ">
<polygon fill="white" stroke="#666666" points="206.75,-566.75 119.5,-566.75 119.5,-546 206.75,-546 206.75,-566.75"/>
<text text-anchor="middle" x="163.12" y="-553.25" font-family="Helvetica,sans-Serif" font-size="10.00">nixf::AttrName</text>
</a>
</g>
</g>
<!-- Node1&#45;&gt;Node2 -->
<g id="edge1_Node000001_Node000002" class="edge">
<title>Node1&#45;&gt;Node2</title>
<g id="a_edge1_Node000001_Node000002"><a xlink:title=" ">
<path fill="none" stroke="#63b8ff" d="M33.09,-305.49C32.88,-353.97 39.3,-470.53 101.5,-536.38 106.37,-541.53 112.6,-545.36 119.19,-548.2"/>
<polygon fill="#63b8ff" stroke="#63b8ff" points="36.59,-305.77 33.25,-295.72 29.59,-305.66 36.59,-305.77"/>
</a>
</g>
</g>
<!-- Node3 -->
<g id="Node000003" class="node">
<title>Node3</title>
<g id="a_Node000003"><a xlink:href="classnixf_1_1AttrPath.html" target="_top" xlink:title=" ">
<polygon fill="white" stroke="#666666" points="202.62,-527.75 123.62,-527.75 123.62,-507 202.62,-507 202.62,-527.75"/>
<text text-anchor="middle" x="163.12" y="-514.25" font-family="Helvetica,sans-Serif" font-size="10.00">nixf::AttrPath</text>
</a>
</g>
</g>
<!-- Node1&#45;&gt;Node3 -->
<g id="edge2_Node000001_Node000003" class="edge">
<title>Node1&#45;&gt;Node3</title>
<g id="a_edge2_Node000001_Node000003"><a xlink:title=" ">
<path fill="none" stroke="#63b8ff" d="M34.38,-305.25C36.81,-348.08 48.27,-443.5 101.5,-497.38 107.42,-503.37 115.17,-507.56 123.14,-510.5"/>
<polygon fill="#63b8ff" stroke="#63b8ff" points="37.89,-305.32 33.96,-295.49 30.9,-305.63 37.89,-305.32"/>
</a>
</g>
</g>
<!-- Node4 -->
<g id="Node000004" class="node">
<title>Node4</title>
<g id="a_Node000004"><a xlink:href="classnixf_1_1Binding.html" target="_top" xlink:title=" ">
<polygon fill="white" stroke="#666666" points="201.5,-488.75 124.75,-488.75 124.75,-468 201.5,-468 201.5,-488.75"/>
<text text-anchor="middle" x="163.12" y="-475.25" font-family="Helvetica,sans-Serif" font-size="10.00">nixf::Binding</text>
</a>
</g>
</g>
<!-- Node1&#45;&gt;Node4 -->
<g id="edge3_Node000001_Node000004" class="edge">
<title>Node1&#45;&gt;Node4</title>
<g id="a_edge3_Node000001_Node000004"><a xlink:title=" ">
<path fill="none" stroke="#63b8ff" d="M36.24,-305.54C41.55,-342.41 57.35,-416.41 101.5,-458.38 107.85,-464.41 116.05,-468.62 124.36,-471.56"/>
<polygon fill="#63b8ff" stroke="#63b8ff" points="39.72,-305.13 34.97,-295.66 32.78,-306.03 39.72,-305.13"/>
</a>
</g>
</g>
<!-- Node5 -->
<g id="Node000005" class="node">
<title>Node5</title>
<g id="a_Node000005"><a xlink:href="classnixf_1_1Binds.html" target="_top" xlink:title=" ">
<polygon fill="white" stroke="#666666" points="196.62,-449.75 129.62,-449.75 129.62,-429 196.62,-429 196.62,-449.75"/>
<text text-anchor="middle" x="163.12" y="-436.25" font-family="Helvetica,sans-Serif" font-size="10.00">nixf::Binds</text>
</a>
</g>
</g>
<!-- Node1&#45;&gt;Node5 -->
<g id="edge4_Node000001_Node000005" class="edge">
<title>Node1&#45;&gt;Node5</title>
<g id="a_edge4_Node000001_Node000005"><a xlink:title=" ">
<path fill="none" stroke="#63b8ff" d="M38.84,-304.79C47.03,-334.64 65.92,-388.57 101.5,-419.38 109.29,-426.12 119.42,-430.61 129.17,-433.58"/>
<polygon fill="#63b8ff" stroke="#63b8ff" points="42.31,-304.22 36.43,-295.41 35.53,-305.96 42.31,-304.22"/>
</a>
</g>
</g>
<!-- Node6 -->
<g id="Node000006" class="node">
<title>Node6</title>
<g id="a_Node000006"><a xlink:href="classnixf_1_1Dot.html" target="_top" xlink:title="Holds a &quot;.&quot; in the language.">
<polygon fill="white" stroke="#666666" points="191.75,-410.75 134.5,-410.75 134.5,-390 191.75,-390 191.75,-410.75"/>
<text text-anchor="middle" x="163.12" y="-397.25" font-family="Helvetica,sans-Serif" font-size="10.00">nixf::Dot</text>
</a>
</g>
</g>
<!-- Node1&#45;&gt;Node6 -->
<g id="edge5_Node000001_Node000006" class="edge">
<title>Node1&#45;&gt;Node6</title>
<g id="a_edge5_Node000001_Node000006"><a xlink:title=" ">
<path fill="none" stroke="#63b8ff" d="M43.34,-304.36C54.4,-326.32 74.56,-360.32 101.5,-380.38 111.01,-387.46 123.16,-392.11 134.09,-395.13"/>
<polygon fill="#63b8ff" stroke="#63b8ff" points="46.56,-302.97 39.06,-295.48 40.25,-306.01 46.56,-302.97"/>
</a>
</g>
</g>
<!-- Node7 -->
<g id="Node000007" class="node">
<title>Node7</title>
<g id="a_Node000007"><a xlink:href="classnixf_1_1Expr.html" target="_top" xlink:title=" ">
<polygon fill="white" stroke="#666666" points="194,-371.75 132.25,-371.75 132.25,-351 194,-351 194,-371.75"/>
<text text-anchor="middle" x="163.12" y="-358.25" font-family="Helvetica,sans-Serif" font-size="10.00">nixf::Expr</text>
</a>
</g>
</g>
<!-- Node1&#45;&gt;Node7 -->
<g id="edge6_Node000001_Node000007" class="edge">
<title>Node1&#45;&gt;Node7</title>
<g id="a_edge6_Node000001_Node000007"><a xlink:title=" ">
<path fill="none" stroke="#63b8ff" d="M51.76,-302.26C64.62,-314.82 82.87,-330.87 101.5,-341.38 110.86,-346.65 121.84,-350.8 131.85,-353.92"/>
<polygon fill="#63b8ff" stroke="#63b8ff" points="54.39,-299.93 44.85,-295.31 49.42,-304.87 54.39,-299.93"/>
</a>
</g>
</g>
<!-- Node28 -->
<g id="Node000028" class="node">
<title>Node28</title>
<g id="a_Node000028"><a xlink:href="classnixf_1_1Formal.html" target="_top" xlink:title=" ">
<polygon fill="white" stroke="#666666" points="200,-332.75 126.25,-332.75 126.25,-312 200,-312 200,-332.75"/>
<text text-anchor="middle" x="163.12" y="-319.25" font-family="Helvetica,sans-Serif" font-size="10.00">nixf::Formal</text>
</a>
</g>
</g>
<!-- Node1&#45;&gt;Node28 -->
<g id="edge27_Node000001_Node000028" class="edge">
<title>Node1&#45;&gt;Node28</title>
<g id="a_edge27_Node000001_Node000028"><a xlink:title=" ">
<path fill="none" stroke="#63b8ff" d="M76.62,-296.4C92.77,-301.31 110.97,-306.83 126.4,-311.52"/>
<polygon fill="#63b8ff" stroke="#63b8ff" points="77.85,-293.11 67.26,-293.56 75.81,-299.81 77.85,-293.11"/>
</a>
</g>
</g>
<!-- Node29 -->
<g id="Node000029" class="node">
<title>Node29</title>
<g id="a_Node000029"><a xlink:href="classnixf_1_1Formals.html" target="_top" xlink:title="Lambda formal arguments.">
<polygon fill="white" stroke="#666666" points="202.62,-293.75 123.62,-293.75 123.62,-273 202.62,-273 202.62,-293.75"/>
<text text-anchor="middle" x="163.12" y="-280.25" font-family="Helvetica,sans-Serif" font-size="10.00">nixf::Formals</text>
</a>
</g>
</g>
<!-- Node1&#45;&gt;Node29 -->
<g id="edge28_Node000001_Node000029" class="edge">
<title>Node1&#45;&gt;Node29</title>
<g id="a_edge28_Node000001_Node000029"><a xlink:title=" ">
<path fill="none" stroke="#63b8ff" d="M77.3,-283.38C92.16,-283.38 108.67,-283.38 123.15,-283.38"/>
<polygon fill="#63b8ff" stroke="#63b8ff" points="77.33,-279.88 67.33,-283.38 77.33,-286.88 77.33,-279.88"/>
</a>
</g>
</g>
<!-- Node30 -->
<g id="Node000030" class="node">
<title>Node30</title>
<g id="a_Node000030"><a xlink:href="classnixf_1_1Identifier.html" target="_top" xlink:title="Identifier. Variable names, attribute names, etc.">
<polygon fill="white" stroke="#666666" points="204.88,-254.75 121.38,-254.75 121.38,-234 204.88,-234 204.88,-254.75"/>
<text text-anchor="middle" x="163.12" y="-241.25" font-family="Helvetica,sans-Serif" font-size="10.00">nixf::Identifier</text>
</a>
</g>
</g>
<!-- Node1&#45;&gt;Node30 -->
<g id="edge29_Node000001_Node000030" class="edge">
<title>Node1&#45;&gt;Node30</title>
<g id="a_edge29_Node000001_Node000030"><a xlink:title=" ">
<path fill="none" stroke="#63b8ff" d="M76.62,-270.35C92.77,-265.44 110.97,-259.92 126.4,-255.23"/>
<polygon fill="#63b8ff" stroke="#63b8ff" points="75.81,-266.94 67.26,-273.19 77.85,-273.64 75.81,-266.94"/>
</a>
</g>
</g>
<!-- Node31 -->
<g id="Node000031" class="node">
<title>Node31</title>
<g id="a_Node000031"><a xlink:href="classnixf_1_1Inherit.html" target="_top" xlink:title=" ">
<polygon fill="white" stroke="#666666" points="198.88,-215.75 127.38,-215.75 127.38,-195 198.88,-195 198.88,-215.75"/>
<text text-anchor="middle" x="163.12" y="-202.25" font-family="Helvetica,sans-Serif" font-size="10.00">nixf::Inherit</text>
</a>
</g>
</g>
<!-- Node1&#45;&gt;Node31 -->
<g id="edge30_Node000001_Node000031" class="edge">
<title>Node1&#45;&gt;Node31</title>
<g id="a_edge30_Node000001_Node000031"><a xlink:title=" ">
<path fill="none" stroke="#63b8ff" d="M51.76,-264.49C64.62,-251.93 82.87,-235.88 101.5,-225.38 109.42,-220.91 118.48,-217.26 127.15,-214.35"/>
<polygon fill="#63b8ff" stroke="#63b8ff" points="49.42,-261.88 44.85,-271.44 54.39,-266.82 49.42,-261.88"/>
</a>
</g>
</g>
<!-- Node32 -->
<g id="Node000032" class="node">
<title>Node32</title>
<g id="a_Node000032"><a xlink:href="classnixf_1_1InterpolatedParts.html" target="_top" xlink:title=" ">
<polygon fill="white" stroke="#666666" points="224.75,-176.75 101.5,-176.75 101.5,-156 224.75,-156 224.75,-176.75"/>
<text text-anchor="middle" x="163.12" y="-163.25" font-family="Helvetica,sans-Serif" font-size="10.00">nixf::InterpolatedParts</text>
</a>
</g>
</g>
<!-- Node1&#45;&gt;Node32 -->
<g id="edge31_Node000001_Node000032" class="edge">
<title>Node1&#45;&gt;Node32</title>
<g id="a_edge31_Node000001_Node000032"><a xlink:title=" ">
<path fill="none" stroke="#63b8ff" d="M43.34,-262.39C54.4,-240.43 74.56,-206.43 101.5,-186.38 106.48,-182.67 112.18,-179.63 118.05,-177.14"/>
<polygon fill="#63b8ff" stroke="#63b8ff" points="40.25,-260.74 39.06,-271.27 46.56,-263.78 40.25,-260.74"/>
</a>
</g>
</g>
<!-- Node33 -->
<g id="Node000033" class="node">
<title>Node33</title>
<g id="a_Node000033"><a xlink:href="classnixf_1_1Interpolation.html" target="_top" xlink:title="${expr} construct">
<polygon fill="white" stroke="#666666" points="214.25,-137.75 112,-137.75 112,-117 214.25,-117 214.25,-137.75"/>
<text text-anchor="middle" x="163.12" y="-124.25" font-family="Helvetica,sans-Serif" font-size="10.00">nixf::Interpolation</text>
</a>
</g>
</g>
<!-- Node1&#45;&gt;Node33 -->
<g id="edge32_Node000001_Node000033" class="edge">
<title>Node1&#45;&gt;Node33</title>
<g id="a_edge32_Node000001_Node000033"><a xlink:title=" ">
<path fill="none" stroke="#63b8ff" d="M38.84,-261.96C47.03,-232.11 65.92,-178.18 101.5,-147.38 105.77,-143.68 110.75,-140.66 115.98,-138.19"/>
<polygon fill="#63b8ff" stroke="#63b8ff" points="35.53,-260.79 36.43,-271.34 42.31,-262.53 35.53,-260.79"/>
</a>
</g>
</g>
<!-- Node34 -->
<g id="Node000034" class="node">
<title>Node34</title>
<g id="a_Node000034"><a xlink:href="classnixf_1_1LambdaArg.html" target="_top" xlink:title=" ">
<polygon fill="white" stroke="#666666" points="210.88,-98.75 115.38,-98.75 115.38,-78 210.88,-78 210.88,-98.75"/>
<text text-anchor="middle" x="163.12" y="-85.25" font-family="Helvetica,sans-Serif" font-size="10.00">nixf::LambdaArg</text>
</a>
</g>
</g>
<!-- Node1&#45;&gt;Node34 -->
<g id="edge33_Node000001_Node000034" class="edge">
<title>Node1&#45;&gt;Node34</title>
<g id="a_edge33_Node000001_Node000034"><a xlink:title=" ">
<path fill="none" stroke="#63b8ff" d="M36.24,-261.21C41.55,-224.34 57.35,-150.34 101.5,-108.38 105.44,-104.63 110.09,-101.59 115.03,-99.12"/>
<polygon fill="#63b8ff" stroke="#63b8ff" points="32.78,-260.72 34.97,-271.09 39.72,-261.62 32.78,-260.72"/>
</a>
</g>
</g>
<!-- Node35 -->
<g id="Node000035" class="node">
<title>Node35</title>
<g id="a_Node000035"><a xlink:href="classnixf_1_1Misc.html" target="_top" xlink:title="Misc node, used for parentheses, keywords, etc.">
<polygon fill="white" stroke="#666666" points="194.38,-59.75 131.88,-59.75 131.88,-39 194.38,-39 194.38,-59.75"/>
<text text-anchor="middle" x="163.12" y="-46.25" font-family="Helvetica,sans-Serif" font-size="10.00">nixf::Misc</text>
</a>
</g>
</g>
<!-- Node1&#45;&gt;Node35 -->
<g id="edge34_Node000001_Node000035" class="edge">
<title>Node1&#45;&gt;Node35</title>
<g id="a_edge34_Node000001_Node000035"><a xlink:title=" ">
<path fill="none" stroke="#63b8ff" d="M34.38,-261.5C36.81,-218.67 48.27,-123.25 101.5,-69.38 109.52,-61.25 120.9,-56.43 131.64,-53.57"/>
<polygon fill="#63b8ff" stroke="#63b8ff" points="30.9,-261.12 33.96,-271.26 37.89,-261.43 30.9,-261.12"/>
</a>
</g>
</g>
<!-- Node36 -->
<g id="Node000036" class="node">
<title>Node36</title>
<g id="a_Node000036"><a xlink:href="classnixf_1_1Op.html" target="_top" xlink:title=" ">
<polygon fill="white" stroke="#666666" points="189.88,-20.75 136.38,-20.75 136.38,0 189.88,0 189.88,-20.75"/>
<text text-anchor="middle" x="163.12" y="-7.25" font-family="Helvetica,sans-Serif" font-size="10.00">nixf::Op</text>
</a>
</g>
</g>
<!-- Node1&#45;&gt;Node36 -->
<g id="edge35_Node000001_Node000036" class="edge">
<title>Node1&#45;&gt;Node36</title>
<g id="a_edge35_Node000001_Node000036"><a xlink:title=" ">
<path fill="none" stroke="#63b8ff" d="M33.09,-261.26C32.88,-212.78 39.3,-96.22 101.5,-30.38 110.48,-20.87 124.06,-15.88 136.1,-13.26"/>
<polygon fill="#63b8ff" stroke="#63b8ff" points="29.59,-261.09 33.25,-271.03 36.59,-260.98 29.59,-261.09"/>
</a>
</g>
</g>
<!-- Node8 -->
<g id="Node000008" class="node">
<title>Node8</title>
<g id="a_Node000008"><a xlink:href="classnixf_1_1ExprAssert.html" target="_top" xlink:title=" ">
<polygon fill="white" stroke="#666666" points="357.38,-683.75 264.88,-683.75 264.88,-663 357.38,-663 357.38,-683.75"/>
<text text-anchor="middle" x="311.12" y="-670.25" font-family="Helvetica,sans-Serif" font-size="10.00">nixf::ExprAssert</text>
</a>
</g>
</g>
<!-- Node7&#45;&gt;Node8 -->
<g id="edge7_Node000007_Node000008" class="edge">
<title>Node7&#45;&gt;Node8</title>
<g id="a_edge7_Node000007_Node000008"><a xlink:title=" ">
<path fill="none" stroke="#63b8ff" d="M205.41,-368.09C212.79,-371.05 219.71,-375.3 224.75,-381.38 302.55,-475.28 186.1,-556.95 260.75,-653.38 263.69,-657.18 267.48,-660.26 271.64,-662.76"/>
<polygon fill="#63b8ff" stroke="#63b8ff" points="206.49,-364.76 195.9,-365.07 204.37,-371.43 206.49,-364.76"/>
</a>
</g>
</g>
<!-- Node9 -->
<g id="Node000009" class="node">
<title>Node9</title>
<g id="a_Node000009"><a xlink:href="classnixf_1_1ExprAttrs.html" target="_top" xlink:title=" ">
<polygon fill="white" stroke="#666666" points="353.62,-644.75 268.62,-644.75 268.62,-624 353.62,-624 353.62,-644.75"/>
<text text-anchor="middle" x="311.12" y="-631.25" font-family="Helvetica,sans-Serif" font-size="10.00">nixf::ExprAttrs</text>
</a>
</g>
</g>
<!-- Node7&#45;&gt;Node9 -->
<g id="edge8_Node000007_Node000009" class="edge">
<title>Node7&#45;&gt;Node9</title>
<g id="a_edge8_Node000007_Node000009"><a xlink:title=" ">
<path fill="none" stroke="#63b8ff" d="M205.31,-368.18C212.69,-371.13 219.65,-375.35 224.75,-381.38 292.47,-461.33 195.71,-532.22 260.75,-614.38 263.74,-618.15 267.54,-621.21 271.72,-623.7"/>
<polygon fill="#63b8ff" stroke="#63b8ff" points="206.39,-364.85 195.8,-365.15 204.27,-371.52 206.39,-364.85"/>
</a>
</g>
</g>
<!-- Node10 -->
<g id="Node000010" class="node">
<title>Node10</title>
<g id="a_Node000010"><a xlink:href="classnixf_1_1ExprCall.html" target="_top" xlink:title="A call/apply to some function.">
<polygon fill="white" stroke="#666666" points="351.38,-605.75 270.88,-605.75 270.88,-585 351.38,-585 351.38,-605.75"/>
<text text-anchor="middle" x="311.12" y="-592.25" font-family="Helvetica,sans-Serif" font-size="10.00">nixf::ExprCall</text>
</a>
</g>
</g>
<!-- Node7&#45;&gt;Node10 -->
<g id="edge9_Node000007_Node000010" class="edge">
<title>Node7&#45;&gt;Node10</title>
<g id="a_edge9_Node000007_Node000010"><a xlink:title=" ">
<path fill="none" stroke="#63b8ff" d="M205.17,-368.3C212.56,-371.24 219.56,-375.43 224.75,-381.38 282.43,-447.43 205.29,-507.45 260.75,-575.38 263.79,-579.1 267.63,-582.14 271.83,-584.61"/>
<polygon fill="#63b8ff" stroke="#63b8ff" points="206.25,-364.97 195.66,-365.27 204.13,-371.64 206.25,-364.97"/>
</a>
</g>
</g>
<!-- Node11 -->
<g id="Node000011" class="node">
<title>Node11</title>
<g id="a_Node000011"><a xlink:href="classnixf_1_1ExprFloat.html" target="_top" xlink:title=" ">
<polygon fill="white" stroke="#666666" points="354.38,-566.75 267.88,-566.75 267.88,-546 354.38,-546 354.38,-566.75"/>
<text text-anchor="middle" x="311.12" y="-553.25" font-family="Helvetica,sans-Serif" font-size="10.00">nixf::ExprFloat</text>
</a>
</g>
</g>
<!-- Node7&#45;&gt;Node11 -->
<g id="edge10_Node000007_Node000011" class="edge">
<title>Node7&#45;&gt;Node11</title>
<g id="a_edge10_Node000007_Node000011"><a xlink:title=" ">
<path fill="none" stroke="#63b8ff" d="M205.17,-368.57C212.51,-371.49 219.48,-375.6 224.75,-381.38 272.45,-433.59 214.81,-482.61 260.75,-536.38 263.99,-540.17 268.07,-543.26 272.47,-545.76"/>
<polygon fill="#63b8ff" stroke="#63b8ff" points="206.36,-365.27 195.77,-365.54 204.21,-371.93 206.36,-365.27"/>
</a>
</g>
</g>
<!-- Node12 -->
<g id="Node000012" class="node">
<title>Node12</title>
<g id="a_Node000012"><a xlink:href="classnixf_1_1ExprIf.html" target="_top" xlink:title=" ">
<polygon fill="white" stroke="#666666" points="345.38,-527.75 276.88,-527.75 276.88,-507 345.38,-507 345.38,-527.75"/>
<text text-anchor="middle" x="311.12" y="-514.25" font-family="Helvetica,sans-Serif" font-size="10.00">nixf::ExprIf</text>
</a>
</g>
</g>
<!-- Node7&#45;&gt;Node12 -->
<g id="edge11_Node000007_Node000012" class="edge">
<title>Node7&#45;&gt;Node12</title>
<g id="a_edge11_Node000007_Node000012"><a xlink:title=" ">
<path fill="none" stroke="#63b8ff" d="M205.06,-368.96C212.34,-371.85 219.32,-375.85 224.75,-381.38 262.58,-419.88 224.21,-457.64 260.75,-497.38 265.07,-502.07 270.65,-505.69 276.49,-508.47"/>
<polygon fill="#63b8ff" stroke="#63b8ff" points="206.35,-365.7 195.76,-365.93 204.18,-372.35 206.35,-365.7"/>
</a>
</g>
</g>
<!-- Node13 -->
<g id="Node000013" class="node">
<title>Node13</title>
<g id="a_Node000013"><a xlink:href="classnixf_1_1ExprInt.html" target="_top" xlink:title=" ">
<polygon fill="white" stroke="#666666" points="348.38,-488.75 273.88,-488.75 273.88,-468 348.38,-468 348.38,-488.75"/>
<text text-anchor="middle" x="311.12" y="-475.25" font-family="Helvetica,sans-Serif" font-size="10.00">nixf::ExprInt</text>
</a>
</g>
</g>
<!-- Node7&#45;&gt;Node13 -->
<g id="edge12_Node000007_Node000013" class="edge">
<title>Node7&#45;&gt;Node13</title>
<g id="a_edge12_Node000007_Node000013"><a xlink:title=" ">
<path fill="none" stroke="#63b8ff" d="M205.16,-369.83C212.25,-372.64 219.14,-376.39 224.75,-381.38 253,-406.46 233.35,-432.37 260.75,-458.38 264.64,-462.07 269.3,-465.11 274.19,-467.62"/>
<polygon fill="#63b8ff" stroke="#63b8ff" points="206.4,-366.55 195.8,-366.71 204.18,-373.19 206.4,-366.55"/>
</a>
</g>
</g>
<!-- Node14 -->
<g id="Node000014" class="node">
<title>Node14</title>
<g id="a_Node000014"><a xlink:href="classnixf_1_1ExprLambda.html" target="_top" xlink:title=" ">
<polygon fill="white" stroke="#666666" points="361.5,-449.75 260.75,-449.75 260.75,-429 361.5,-429 361.5,-449.75"/>
<text text-anchor="middle" x="311.12" y="-436.25" font-family="Helvetica,sans-Serif" font-size="10.00">nixf::ExprLambda</text>
</a>
</g>
</g>
<!-- Node7&#45;&gt;Node14 -->
<g id="edge13_Node000007_Node000014" class="edge">
<title>Node7&#45;&gt;Node14</title>
<g id="a_edge13_Node000007_Node000014"><a xlink:title=" ">
<path fill="none" stroke="#63b8ff" d="M205.07,-371.8C211.91,-374.39 218.73,-377.56 224.75,-381.38 244.39,-393.84 241.53,-406.27 260.75,-419.38 265.95,-422.92 271.86,-425.99 277.76,-428.59"/>
<polygon fill="#63b8ff" stroke="#63b8ff" points="206.45,-368.57 195.85,-368.66 204.19,-375.2 206.45,-368.57"/>
</a>
</g>
</g>
<!-- Node15 -->
<g id="Node000015" class="node">
<title>Node15</title>
<g id="a_Node000015"><a xlink:href="classnixf_1_1ExprLet.html" target="_top" xlink:title=" ">
<polygon fill="white" stroke="#666666" points="349.5,-410.75 272.75,-410.75 272.75,-390 349.5,-390 349.5,-410.75"/>
<text text-anchor="middle" x="311.12" y="-397.25" font-family="Helvetica,sans-Serif" font-size="10.00">nixf::ExprLet</text>
</a>
</g>
</g>
<!-- Node7&#45;&gt;Node15 -->
<g id="edge14_Node000007_Node000015" class="edge">
<title>Node7&#45;&gt;Node15</title>
<g id="a_edge14_Node000007_Node000015"><a xlink:title=" ">
<path fill="none" stroke="#63b8ff" d="M205.26,-372.36C226.33,-377.99 251.81,-384.8 272.38,-390.29"/>
<polygon fill="#63b8ff" stroke="#63b8ff" points="206.4,-369.05 195.84,-369.85 204.6,-375.81 206.4,-369.05"/>
</a>
</g>
</g>
<!-- Node16 -->
<g id="Node000016" class="node">
<title>Node16</title>
<g id="a_Node000016"><a xlink:href="classnixf_1_1ExprList.html" target="_top" xlink:title=" ">
<polygon fill="white" stroke="#666666" points="350.62,-371.75 271.62,-371.75 271.62,-351 350.62,-351 350.62,-371.75"/>
<text text-anchor="middle" x="311.12" y="-358.25" font-family="Helvetica,sans-Serif" font-size="10.00">nixf::ExprList</text>
</a>
</g>
</g>
<!-- Node7&#45;&gt;Node16 -->
<g id="edge15_Node000007_Node000016" class="edge">
<title>Node7&#45;&gt;Node16</title>
<g id="a_edge15_Node000007_Node000016"><a xlink:title=" ">
<path fill="none" stroke="#63b8ff" d="M205.66,-361.38C226.29,-361.38 251.06,-361.38 271.3,-361.38"/>
<polygon fill="#63b8ff" stroke="#63b8ff" points="205.89,-357.88 195.89,-361.38 205.89,-364.88 205.89,-357.88"/>
</a>
</g>
</g>
<!-- Node17 -->
<g id="Node000017" class="node">
<title>Node17</title>
<g id="a_Node000017"><a xlink:href="classnixf_1_1ExprOp.html" target="_top" xlink:title="Abstract class for binary operators and unary operators.">
<polygon fill="white" stroke="#666666" points="348.75,-332.75 273.5,-332.75 273.5,-312 348.75,-312 348.75,-332.75"/>
<text text-anchor="middle" x="311.12" y="-319.25" font-family="Helvetica,sans-Serif" font-size="10.00">nixf::ExprOp</text>
</a>
</g>
</g>
<!-- Node7&#45;&gt;Node17 -->
<g id="edge16_Node000007_Node000017" class="edge">
<title>Node7&#45;&gt;Node17</title>
<g id="a_edge16_Node000007_Node000017"><a xlink:title=" ">
<path fill="none" stroke="#63b8ff" d="M205.38,-350.35C226.71,-344.66 252.52,-337.76 273.18,-332.24"/>
<polygon fill="#63b8ff" stroke="#63b8ff" points="204.6,-346.94 195.84,-352.9 206.4,-353.7 204.6,-346.94"/>
</a>
</g>
</g>
<!-- Node21 -->
<g id="Node000021" class="node">
<title>Node21</title>
<g id="a_Node000021"><a xlink:href="classnixf_1_1ExprParen.html" target="_top" xlink:title=" ">
<polygon fill="white" stroke="#666666" points="355.5,-293.75 266.75,-293.75 266.75,-273 355.5,-273 355.5,-293.75"/>
<text text-anchor="middle" x="311.12" y="-280.25" font-family="Helvetica,sans-Serif" font-size="10.00">nixf::ExprParen</text>
</a>
</g>
</g>
<!-- Node7&#45;&gt;Node21 -->
<g id="edge20_Node000007_Node000021" class="edge">
<title>Node7&#45;&gt;Node21</title>
<g id="a_edge20_Node000007_Node000021"><a xlink:title=" ">
<path fill="none" stroke="#63b8ff" d="M205.07,-350.95C211.91,-348.36 218.73,-345.19 224.75,-341.38 244.39,-328.91 241.53,-316.48 260.75,-303.38 265.95,-299.83 271.86,-296.76 277.76,-294.16"/>
<polygon fill="#63b8ff" stroke="#63b8ff" points="204.19,-347.55 195.85,-354.09 206.45,-354.18 204.19,-347.55"/>
</a>
</g>
</g>
<!-- Node22 -->
<g id="Node000022" class="node">
<title>Node22</title>
<g id="a_Node000022"><a xlink:href="classnixf_1_1ExprPath.html" target="_top" xlink:title=" ">
<polygon fill="white" stroke="#666666" points="352.5,-254.75 269.75,-254.75 269.75,-234 352.5,-234 352.5,-254.75"/>
<text text-anchor="middle" x="311.12" y="-241.25" font-family="Helvetica,sans-Serif" font-size="10.00">nixf::ExprPath</text>
</a>
</g>
</g>
<!-- Node7&#45;&gt;Node22 -->
<g id="edge21_Node000007_Node000022" class="edge">
<title>Node7&#45;&gt;Node22</title>
<g id="a_edge21_Node000007_Node000022"><a xlink:title=" ">
<path fill="none" stroke="#63b8ff" d="M205.16,-352.92C212.25,-350.11 219.14,-346.36 224.75,-341.38 253,-316.29 233.35,-290.38 260.75,-264.38 264.64,-260.68 269.3,-257.64 274.19,-255.13"/>
<polygon fill="#63b8ff" stroke="#63b8ff" points="204.18,-349.56 195.8,-356.04 206.4,-356.2 204.18,-349.56"/>
</a>
</g>
</g>
<!-- Node23 -->
<g id="Node000023" class="node">
<title>Node23</title>
<g id="a_Node000023"><a xlink:href="classnixf_1_1ExprSPath.html" target="_top" xlink:title=" ">
<polygon fill="white" stroke="#666666" points="355.5,-215.75 266.75,-215.75 266.75,-195 355.5,-195 355.5,-215.75"/>
<text text-anchor="middle" x="311.12" y="-202.25" font-family="Helvetica,sans-Serif" font-size="10.00">nixf::ExprSPath</text>
</a>
</g>
</g>
<!-- Node7&#45;&gt;Node23 -->
<g id="edge22_Node000007_Node000023" class="edge">
<title>Node7&#45;&gt;Node23</title>
<g id="a_edge22_Node000007_Node000023"><a xlink:title=" ">
<path fill="none" stroke="#63b8ff" d="M205.06,-353.79C212.34,-350.9 219.32,-346.9 224.75,-341.38 262.58,-302.87 224.21,-265.11 260.75,-225.38 264.13,-221.7 268.28,-218.68 272.73,-216.21"/>
<polygon fill="#63b8ff" stroke="#63b8ff" points="204.18,-350.4 195.76,-356.82 206.35,-357.05 204.18,-350.4"/>
</a>
</g>
</g>
<!-- Node24 -->
<g id="Node000024" class="node">
<title>Node24</title>
<g id="a_Node000024"><a xlink:href="classnixf_1_1ExprSelect.html" target="_top" xlink:title=" ">
<polygon fill="white" stroke="#666666" points="357,-176.75 265.25,-176.75 265.25,-156 357,-156 357,-176.75"/>
<text text-anchor="middle" x="311.12" y="-163.25" font-family="Helvetica,sans-Serif" font-size="10.00">nixf::ExprSelect</text>
</a>
</g>
</g>
<!-- Node7&#45;&gt;Node24 -->
<g id="edge23_Node000007_Node000024" class="edge">
<title>Node7&#45;&gt;Node24</title>
<g id="a_edge23_Node000007_Node000024"><a xlink:title=" ">
<path fill="none" stroke="#63b8ff" d="M205.17,-354.18C212.51,-351.26 219.48,-347.15 224.75,-341.38 272.45,-289.16 214.81,-240.14 260.75,-186.38 263.99,-182.58 268.07,-179.49 272.47,-176.99"/>
<polygon fill="#63b8ff" stroke="#63b8ff" points="204.21,-350.82 195.77,-357.21 206.36,-357.48 204.21,-350.82"/>
</a>
</g>
</g>
<!-- Node25 -->
<g id="Node000025" class="node">
<title>Node25</title>
<g id="a_Node000025"><a xlink:href="classnixf_1_1ExprString.html" target="_top" xlink:title=" ">
<polygon fill="white" stroke="#666666" points="356.25,-137.75 266,-137.75 266,-117 356.25,-117 356.25,-137.75"/>
<text text-anchor="middle" x="311.12" y="-124.25" font-family="Helvetica,sans-Serif" font-size="10.00">nixf::ExprString</text>
</a>
</g>
</g>
<!-- Node7&#45;&gt;Node25 -->
<g id="edge24_Node000007_Node000025" class="edge">
<title>Node7&#45;&gt;Node25</title>
<g id="a_edge24_Node000007_Node000025"><a xlink:title=" ">
<path fill="none" stroke="#63b8ff" d="M205.17,-354.45C212.56,-351.51 219.56,-347.32 224.75,-341.38 282.43,-275.32 205.29,-215.3 260.75,-147.38 263.79,-143.65 267.63,-140.61 271.83,-138.14"/>
<polygon fill="#63b8ff" stroke="#63b8ff" points="204.13,-351.11 195.66,-357.48 206.25,-357.78 204.13,-351.11"/>
</a>
</g>
</g>
<!-- Node26 -->
<g id="Node000026" class="node">
<title>Node26</title>
<g id="a_Node000026"><a xlink:href="classnixf_1_1ExprVar.html" target="_top" xlink:title=" ">
<polygon fill="white" stroke="#666666" points="349.88,-98.75 272.38,-98.75 272.38,-78 349.88,-78 349.88,-98.75"/>
<text text-anchor="middle" x="311.12" y="-85.25" font-family="Helvetica,sans-Serif" font-size="10.00">nixf::ExprVar</text>
</a>
</g>
</g>
<!-- Node7&#45;&gt;Node26 -->
<g id="edge25_Node000007_Node000026" class="edge">
<title>Node7&#45;&gt;Node26</title>
<g id="a_edge25_Node000007_Node000026"><a xlink:title=" ">
<path fill="none" stroke="#63b8ff" d="M205.31,-354.57C212.69,-351.62 219.65,-347.4 224.75,-341.38 292.47,-261.42 195.71,-190.53 260.75,-108.38 263.85,-104.46 267.84,-101.31 272.2,-98.77"/>
<polygon fill="#63b8ff" stroke="#63b8ff" points="204.27,-351.23 195.8,-357.6 206.39,-357.9 204.27,-351.23"/>
</a>
</g>
</g>
<!-- Node27 -->
<g id="Node000027" class="node">
<title>Node27</title>
<g id="a_Node000027"><a xlink:href="classnixf_1_1ExprWith.html" target="_top" xlink:title=" ">
<polygon fill="white" stroke="#666666" points="353.25,-59.75 269,-59.75 269,-39 353.25,-39 353.25,-59.75"/>
<text text-anchor="middle" x="311.12" y="-46.25" font-family="Helvetica,sans-Serif" font-size="10.00">nixf::ExprWith</text>
</a>
</g>
</g>
<!-- Node7&#45;&gt;Node27 -->
<g id="edge26_Node000007_Node000027" class="edge">
<title>Node7&#45;&gt;Node27</title>
<g id="a_edge26_Node000007_Node000027"><a xlink:title=" ">
<path fill="none" stroke="#63b8ff" d="M205.41,-354.66C212.79,-351.7 219.71,-347.45 224.75,-341.38 302.55,-247.47 186.1,-165.8 260.75,-69.38 263.69,-65.57 267.48,-62.49 271.64,-59.99"/>
<polygon fill="#63b8ff" stroke="#63b8ff" points="204.37,-351.32 195.9,-357.68 206.49,-357.99 204.37,-351.32"/>
</a>
</g>
</g>
<!-- Node18 -->
<g id="Node000018" class="node">
<title>Node18</title>
<g id="a_Node000018"><a xlink:href="classnixf_1_1ExprBinOp.html" target="_top" xlink:title=" ">
<polygon fill="white" stroke="#666666" points="499,-371.75 408,-371.75 408,-351 499,-351 499,-371.75"/>
<text text-anchor="middle" x="453.5" y="-358.25" font-family="Helvetica,sans-Serif" font-size="10.00">nixf::ExprBinOp</text>
</a>
</g>
</g>
<!-- Node17&#45;&gt;Node18 -->
<g id="edge17_Node000017_Node000018" class="edge">
<title>Node17&#45;&gt;Node18</title>
<g id="a_edge17_Node000017_Node000018"><a xlink:title=" ">
<path fill="none" stroke="#63b8ff" d="M360.09,-335.7C377.47,-340.53 396.88,-345.92 413.41,-350.51"/>
<polygon fill="#63b8ff" stroke="#63b8ff" points="361.04,-332.33 350.47,-333.03 359.16,-339.08 361.04,-332.33"/>
</a>
</g>
</g>
<!-- Node19 -->
<g id="Node000019" class="node">
<title>Node19</title>
<g id="a_Node000019"><a xlink:href="classnixf_1_1ExprOpHasAttr.html" target="_top" xlink:title=" ">
<polygon fill="white" stroke="#666666" points="509.5,-332.75 397.5,-332.75 397.5,-312 509.5,-312 509.5,-332.75"/>
<text text-anchor="middle" x="453.5" y="-319.25" font-family="Helvetica,sans-Serif" font-size="10.00">nixf::ExprOpHasAttr</text>
</a>
</g>
</g>
<!-- Node17&#45;&gt;Node19 -->
<g id="edge18_Node000017_Node000019" class="edge">
<title>Node17&#45;&gt;Node19</title>
<g id="a_edge18_Node000017_Node000019"><a xlink:title=" ">
<path fill="none" stroke="#63b8ff" d="M360.45,-322.38C372.26,-322.38 384.99,-322.38 397.1,-322.38"/>
<polygon fill="#63b8ff" stroke="#63b8ff" points="360.52,-318.88 350.52,-322.38 360.52,-325.88 360.52,-318.88"/>
</a>
</g>
</g>
<!-- Node20 -->
<g id="Node000020" class="node">
<title>Node20</title>
<g id="a_Node000020"><a xlink:href="classnixf_1_1ExprUnaryOp.html" target="_top" xlink:title=" ">
<polygon fill="white" stroke="#666666" points="505.75,-293.75 401.25,-293.75 401.25,-273 505.75,-273 505.75,-293.75"/>
<text text-anchor="middle" x="453.5" y="-280.25" font-family="Helvetica,sans-Serif" font-size="10.00">nixf::ExprUnaryOp</text>
</a>
</g>
</g>
<!-- Node17&#45;&gt;Node20 -->
<g id="edge19_Node000017_Node000020" class="edge">
<title>Node17&#45;&gt;Node20</title>
<g id="a_edge19_Node000017_Node000020"><a xlink:title=" ">
<path fill="none" stroke="#63b8ff" d="M360.09,-309.05C377.47,-304.22 396.88,-298.83 413.41,-294.24"/>
<polygon fill="#63b8ff" stroke="#63b8ff" points="359.16,-305.67 350.47,-311.72 361.04,-312.42 359.16,-305.67"/>
</a>
</g>
</g>
</g>
</svg>
