<?xml version="1.0" encoding="UTF-8" standalone="no"?>
<!DOCTYPE svg PUBLIC "-//W3C//DTD SVG 1.1//EN"
 "http://www.w3.org/Graphics/SVG/1.1/DTD/svg11.dtd">
<!-- Generated by graphviz version 12.2.1 (0)
 -->
<!-- Title: nixf::ExprFloat Pages: 1 -->
<svg width="95pt" height="142pt"
 viewBox="0.00 0.00 94.50 142.25" xmlns="http://www.w3.org/2000/svg" xmlns:xlink="http://www.w3.org/1999/xlink">
<g id="graph0" class="graph" transform="scale(1 1) rotate(0) translate(4 138.25)">
<title>nixf::ExprFloat</title>
<!-- Node1 -->
<g id="Node000001" class="node">
<title>Node1</title>
<g id="a_Node000001"><a xlink:title=" ">
<polygon fill="#999999" stroke="#666666" points="86.5,-20.75 0,-20.75 0,0 86.5,0 86.5,-20.75"/>
<text text-anchor="middle" x="43.25" y="-7.25" font-family="Helvetica,sans-Serif" font-size="10.00">nixf::ExprFloat</text>
</a>
</g>
</g>
<!-- Node2 -->
<g id="Node000002" class="node">
<title>Node2</title>
<g id="a_Node000002"><a xlink:href="classnixf_1_1Expr.html" target="_top" xlink:title=" ">
<polygon fill="white" stroke="#666666" points="74.12,-77.5 12.38,-77.5 12.38,-56.75 74.12,-56.75 74.12,-77.5"/>
<text text-anchor="middle" x="43.25" y="-64" font-family="Helvetica,sans-Serif" font-size="10.00">nixf::Expr</text>
</a>
</g>
</g>
<!-- Node2&#45;&gt;Node1 -->
<g id="edge1_Node000001_Node000002" class="edge">
<title>Node2&#45;&gt;Node1</title>
<g id="a_edge1_Node000001_Node000002"><a xlink:title=" ">
<path fill="none" stroke="#63b8ff" d="M43.25,-44.88C43.25,-36.66 43.25,-27.68 43.25,-21.08"/>
<polygon fill="#63b8ff" stroke="#63b8ff" points="39.75,-44.82 43.25,-54.82 46.75,-44.82 39.75,-44.82"/>
</a>
</g>
</g>
<!-- Node3 -->
<g id="Node000003" class="node">
<title>Node3</title>
<g id="a_Node000003"><a xlink:href="classnixf_1_1Node.html" target="_top" xlink:title=" ">
<polygon fill="white" stroke="#666666" points="76,-134.25 10.5,-134.25 10.5,-113.5 76,-113.5 76,-134.25"/>
<text text-anchor="middle" x="43.25" y="-120.75" font-family="Helvetica,sans-Serif" font-size="10.00">nixf::Node</text>
</a>
</g>
</g>
<!-- Node3&#45;&gt;Node2 -->
<g id="edge2_Node000002_Node000003" class="edge">
<title>Node3&#45;&gt;Node2</title>
<g id="a_edge2_Node000002_Node000003"><a xlink:title=" ">
<path fill="none" stroke="#63b8ff" d="M43.25,-101.63C43.25,-93.41 43.25,-84.43 43.25,-77.83"/>
<polygon fill="#63b8ff" stroke="#63b8ff" points="39.75,-101.57 43.25,-111.57 46.75,-101.57 39.75,-101.57"/>
</a>
</g>
</g>
</g>
</svg>
