<?xml version="1.0" encoding="UTF-8" standalone="no"?>
<!DOCTYPE svg PUBLIC "-//W3C//DTD SVG 1.1//EN"
 "http://www.w3.org/Graphics/SVG/1.1/DTD/svg11.dtd">
<!-- Generated by graphviz version 12.2.1 (0)
 -->
<!-- Title: tokens.Token Pages: 1 -->
<svg width="212pt" height="86pt"
 viewBox="0.00 0.00 212.25 85.50" xmlns="http://www.w3.org/2000/svg" xmlns:xlink="http://www.w3.org/1999/xlink">
<g id="graph0" class="graph" transform="scale(1 1) rotate(0) translate(4 81.5)">
<title>tokens.Token</title>
<!-- Node1 -->
<g id="Node000001" class="node">
<title>Node1</title>
<g id="a_Node000001"><a xlink:title=" ">
<polygon fill="#999999" stroke="#666666" points="141.5,-77.5 62.5,-77.5 62.5,-56.75 141.5,-56.75 141.5,-77.5"/>
<text text-anchor="middle" x="102" y="-64" font-family="Helvetica,sans-Serif" font-size="10.00">tokens.Token</text>
</a>
</g>
</g>
<!-- Node2 -->
<g id="Node000002" class="node">
<title>Node2</title>
<g id="a_Node000002"><a xlink:href="classtokens_1_1KwToken.html" target="_top" xlink:title=" ">
<polygon fill="white" stroke="#666666" points="94,-20.75 0,-20.75 0,0 94,0 94,-20.75"/>
<text text-anchor="middle" x="47" y="-7.25" font-family="Helvetica,sans-Serif" font-size="10.00">tokens.KwToken</text>
</a>
</g>
</g>
<!-- Node1&#45;&gt;Node2 -->
<g id="edge1_Node000001_Node000002" class="edge">
<title>Node1&#45;&gt;Node2</title>
<g id="a_edge1_Node000001_Node000002"><a xlink:title=" ">
<path fill="none" stroke="#63b8ff" d="M84.09,-48.3C75,-39.25 64.31,-28.61 56.75,-21.08"/>
<polygon fill="#63b8ff" stroke="#63b8ff" points="81.54,-50.69 91.09,-55.27 86.48,-45.73 81.54,-50.69"/>
</a>
</g>
</g>
<!-- Node3 -->
<g id="Node000003" class="node">
<title>Node3</title>
<g id="a_Node000003"><a xlink:href="classtokens_1_1OpToken.html" target="_top" xlink:title=" ">
<polygon fill="white" stroke="#666666" points="204.25,-20.75 111.75,-20.75 111.75,0 204.25,0 204.25,-20.75"/>
<text text-anchor="middle" x="158" y="-7.25" font-family="Helvetica,sans-Serif" font-size="10.00">tokens.OpToken</text>
</a>
</g>
</g>
<!-- Node1&#45;&gt;Node3 -->
<g id="edge2_Node000001_Node000003" class="edge">
<title>Node1&#45;&gt;Node3</title>
<g id="a_edge2_Node000001_Node000003"><a xlink:title=" ">
<path fill="none" stroke="#63b8ff" d="M120.23,-48.3C129.49,-39.25 140.37,-28.61 148.07,-21.08"/>
<polygon fill="#63b8ff" stroke="#63b8ff" points="117.8,-45.79 113.09,-55.28 122.69,-50.79 117.8,-45.79"/>
</a>
</g>
</g>
</g>
</svg>
