<?xml version="1.0" encoding="UTF-8" standalone="no"?>
<!DOCTYPE svg PUBLIC "-//W3C//DTD SVG 1.1//EN"
 "http://www.w3.org/Graphics/SVG/1.1/DTD/svg11.dtd">
<!-- Generated by graphviz version 12.2.1 (0)
 -->
<!-- Title: nixf::ExprList Pages: 1 -->
<svg width="87pt" height="142pt"
 viewBox="0.00 0.00 87.00 142.25" xmlns="http://www.w3.org/2000/svg" xmlns:xlink="http://www.w3.org/1999/xlink">
<g id="graph0" class="graph" transform="scale(1 1) rotate(0) translate(4 138.25)">
<title>nixf::ExprList</title>
<!-- Node1 -->
<g id="Node000001" class="node">
<title>Node1</title>
<g id="a_Node000001"><a xlink:title=" ">
<polygon fill="#999999" stroke="#666666" points="79,-20.75 0,-20.75 0,0 79,0 79,-20.75"/>
<text text-anchor="middle" x="39.5" y="-7.25" font-family="Helvetica,sans-Serif" font-size="10.00">nixf::ExprList</text>
</a>
</g>
</g>
<!-- Node2 -->
<g id="Node000002" class="node">
<title>Node2</title>
<g id="a_Node000002"><a xlink:href="classnixf_1_1Expr.html" target="_top" xlink:title=" ">
<polygon fill="white" stroke="#666666" points="70.38,-77.5 8.62,-77.5 8.62,-56.75 70.38,-56.75 70.38,-77.5"/>
<text text-anchor="middle" x="39.5" y="-64" font-family="Helvetica,sans-Serif" font-size="10.00">nixf::Expr</text>
</a>
</g>
</g>
<!-- Node2&#45;&gt;Node1 -->
<g id="edge1_Node000001_Node000002" class="edge">
<title>Node2&#45;&gt;Node1</title>
<g id="a_edge1_Node000001_Node000002"><a xlink:title=" ">
<path fill="none" stroke="#63b8ff" d="M39.5,-44.88C39.5,-36.66 39.5,-27.68 39.5,-21.08"/>
<polygon fill="#63b8ff" stroke="#63b8ff" points="36,-44.82 39.5,-54.82 43,-44.82 36,-44.82"/>
</a>
</g>
</g>
<!-- Node3 -->
<g id="Node000003" class="node">
<title>Node3</title>
<g id="a_Node000003"><a xlink:href="classnixf_1_1Node.html" target="_top" xlink:title=" ">
<polygon fill="white" stroke="#666666" points="72.25,-134.25 6.75,-134.25 6.75,-113.5 72.25,-113.5 72.25,-134.25"/>
<text text-anchor="middle" x="39.5" y="-120.75" font-family="Helvetica,sans-Serif" font-size="10.00">nixf::Node</text>
</a>
</g>
</g>
<!-- Node3&#45;&gt;Node2 -->
<g id="edge2_Node000002_Node000003" class="edge">
<title>Node3&#45;&gt;Node2</title>
<g id="a_edge2_Node000002_Node000003"><a xlink:title=" ">
<path fill="none" stroke="#63b8ff" d="M39.5,-101.63C39.5,-93.41 39.5,-84.43 39.5,-77.83"/>
<polygon fill="#63b8ff" stroke="#63b8ff" points="36,-101.57 39.5,-111.57 43,-101.57 36,-101.57"/>
</a>
</g>
</g>
</g>
</svg>
