<?xml version="1.0" encoding="UTF-8" standalone="no"?>
<!DOCTYPE svg PUBLIC "-//W3C//DTD SVG 1.1//EN"
 "http://www.w3.org/Graphics/SVG/1.1/DTD/svg11.dtd">
<!-- Generated by graphviz version 12.2.1 (0)
 -->
<!-- Title: nixf::ExprOp Pages: 1 -->
<svg width="83pt" height="142pt"
 viewBox="0.00 0.00 83.25 142.25" xmlns="http://www.w3.org/2000/svg" xmlns:xlink="http://www.w3.org/1999/xlink">
<g id="graph0" class="graph" transform="scale(1 1) rotate(0) translate(4 138.25)">
<title>nixf::ExprOp</title>
<!-- Node1 -->
<g id="Node000001" class="node">
<title>Node1</title>
<g id="a_Node000001"><a xlink:title="Abstract class for binary operators and unary operators.">
<polygon fill="#999999" stroke="#666666" points="75.25,-20.75 0,-20.75 0,0 75.25,0 75.25,-20.75"/>
<text text-anchor="middle" x="37.62" y="-7.25" font-family="Helvetica,sans-Serif" font-size="10.00">nixf::ExprOp</text>
</a>
</g>
</g>
<!-- Node2 -->
<g id="Node000002" class="node">
<title>Node2</title>
<g id="a_Node000002"><a xlink:href="classnixf_1_1Expr.html" target="_top" xlink:title=" ">
<polygon fill="white" stroke="#666666" points="68.5,-77.5 6.75,-77.5 6.75,-56.75 68.5,-56.75 68.5,-77.5"/>
<text text-anchor="middle" x="37.62" y="-64" font-family="Helvetica,sans-Serif" font-size="10.00">nixf::Expr</text>
</a>
</g>
</g>
<!-- Node2&#45;&gt;Node1 -->
<g id="edge1_Node000001_Node000002" class="edge">
<title>Node2&#45;&gt;Node1</title>
<g id="a_edge1_Node000001_Node000002"><a xlink:title=" ">
<path fill="none" stroke="#63b8ff" d="M37.62,-44.88C37.62,-36.66 37.62,-27.68 37.62,-21.08"/>
<polygon fill="#63b8ff" stroke="#63b8ff" points="34.13,-44.82 37.63,-54.82 41.13,-44.82 34.13,-44.82"/>
</a>
</g>
</g>
<!-- Node3 -->
<g id="Node000003" class="node">
<title>Node3</title>
<g id="a_Node000003"><a xlink:href="classnixf_1_1Node.html" target="_top" xlink:title=" ">
<polygon fill="white" stroke="#666666" points="70.38,-134.25 4.88,-134.25 4.88,-113.5 70.38,-113.5 70.38,-134.25"/>
<text text-anchor="middle" x="37.62" y="-120.75" font-family="Helvetica,sans-Serif" font-size="10.00">nixf::Node</text>
</a>
</g>
</g>
<!-- Node3&#45;&gt;Node2 -->
<g id="edge2_Node000002_Node000003" class="edge">
<title>Node3&#45;&gt;Node2</title>
<g id="a_edge2_Node000002_Node000003"><a xlink:title=" ">
<path fill="none" stroke="#63b8ff" d="M37.62,-101.63C37.62,-93.41 37.62,-84.43 37.62,-77.83"/>
<polygon fill="#63b8ff" stroke="#63b8ff" points="34.13,-101.57 37.63,-111.57 41.13,-101.57 34.13,-101.57"/>
</a>
</g>
</g>
</g>
</svg>
