<?xml version="1.0" encoding="UTF-8" standalone="no"?>
<!DOCTYPE svg PUBLIC "-//W3C//DTD SVG 1.1//EN"
 "http://www.w3.org/Graphics/SVG/1.1/DTD/svg11.dtd">
<!-- Generated by graphviz version 12.2.1 (0)
 -->
<!-- Title: nixd::EvalClient Pages: 1 -->
<svg width="157pt" height="199pt"
 viewBox="0.00 0.00 156.75 199.00" xmlns="http://www.w3.org/2000/svg" xmlns:xlink="http://www.w3.org/1999/xlink">
<g id="graph0" class="graph" transform="scale(1 1) rotate(0) translate(4 195)">
<title>nixd::EvalClient</title>
<!-- Node1 -->
<g id="Node000001" class="node">
<title>Node1</title>
<g id="a_Node000001"><a xlink:title=" ">
<polygon fill="#999999" stroke="#666666" points="120.62,-77.5 28.12,-77.5 28.12,-56.75 120.62,-56.75 120.62,-77.5"/>
<text text-anchor="middle" x="74.38" y="-64" font-family="Helvetica,sans-Serif" font-size="10.00">nixd::EvalClient</text>
</a>
</g>
</g>
<!-- Node4 -->
<g id="Node000004" class="node">
<title>Node4</title>
<g id="a_Node000004"><a xlink:href="classnixd_1_1OwnedEvalClient.html" target="_top" xlink:title=" ">
<polygon fill="white" stroke="#666666" points="137.5,-20.75 11.25,-20.75 11.25,0 137.5,0 137.5,-20.75"/>
<text text-anchor="middle" x="74.38" y="-7.25" font-family="Helvetica,sans-Serif" font-size="10.00">nixd::OwnedEvalClient</text>
</a>
</g>
</g>
<!-- Node1&#45;&gt;Node4 -->
<g id="edge3_Node000001_Node000004" class="edge">
<title>Node1&#45;&gt;Node4</title>
<g id="a_edge3_Node000001_Node000004"><a xlink:title=" ">
<path fill="none" stroke="#63b8ff" d="M74.38,-44.88C74.38,-36.66 74.38,-27.68 74.38,-21.08"/>
<polygon fill="#63b8ff" stroke="#63b8ff" points="70.88,-44.82 74.38,-54.82 77.88,-44.82 70.88,-44.82"/>
</a>
</g>
</g>
<!-- Node2 -->
<g id="Node000002" class="node">
<title>Node2</title>
<g id="a_Node000002"><a xlink:href="classlspserver_1_1LSPServer.html" target="_top" xlink:title=" ">
<polygon fill="white" stroke="#666666" points="132.25,-134.25 16.5,-134.25 16.5,-113.5 132.25,-113.5 132.25,-134.25"/>
<text text-anchor="middle" x="74.38" y="-120.75" font-family="Helvetica,sans-Serif" font-size="10.00">lspserver::LSPServer</text>
</a>
</g>
</g>
<!-- Node2&#45;&gt;Node1 -->
<g id="edge1_Node000001_Node000002" class="edge">
<title>Node2&#45;&gt;Node1</title>
<g id="a_edge1_Node000001_Node000002"><a xlink:title=" ">
<path fill="none" stroke="#63b8ff" d="M74.38,-101.63C74.38,-93.41 74.38,-84.43 74.38,-77.83"/>
<polygon fill="#63b8ff" stroke="#63b8ff" points="70.88,-101.57 74.38,-111.57 77.88,-101.57 70.88,-101.57"/>
</a>
</g>
</g>
<!-- Node3 -->
<g id="Node000003" class="node">
<title>Node3</title>
<g id="a_Node000003"><a xlink:href="classlspserver_1_1MessageHandler.html" target="_top" xlink:title=" ">
<polygon fill="white" stroke="#666666" points="148.75,-191 0,-191 0,-170.25 148.75,-170.25 148.75,-191"/>
<text text-anchor="middle" x="74.38" y="-177.5" font-family="Helvetica,sans-Serif" font-size="10.00">lspserver::MessageHandler</text>
</a>
</g>
</g>
<!-- Node3&#45;&gt;Node2 -->
<g id="edge2_Node000002_Node000003" class="edge">
<title>Node3&#45;&gt;Node2</title>
<g id="a_edge2_Node000002_Node000003"><a xlink:title=" ">
<path fill="none" stroke="#63b8ff" d="M74.38,-158.38C74.38,-150.16 74.38,-141.18 74.38,-134.58"/>
<polygon fill="#63b8ff" stroke="#63b8ff" points="70.88,-158.32 74.38,-168.32 77.88,-158.32 70.88,-158.32"/>
</a>
</g>
</g>
</g>
</svg>
