<?xml version="1.0" encoding="UTF-8" standalone="no"?>
<!DOCTYPE svg PUBLIC "-//W3C//DTD SVG 1.1//EN"
 "http://www.w3.org/Graphics/SVG/1.1/DTD/svg11.dtd">
<!-- Generated by graphviz version 12.2.1 (0)
 -->
<!-- Title: nixd::EvalClient Pages: 1 -->
<svg width="320pt" height="156pt"
 viewBox="0.00 0.00 320.25 156.00" xmlns="http://www.w3.org/2000/svg" xmlns:xlink="http://www.w3.org/1999/xlink">
<g id="graph0" class="graph" transform="scale(1 1) rotate(0) translate(4 152)">
<title>nixd::EvalClient</title>
<!-- Node1 -->
<g id="Node000001" class="node">
<title>Node1</title>
<g id="a_Node000001"><a xlink:title=" ">
<polygon fill="#999999" stroke="#666666" points="202.62,-20.75 110.12,-20.75 110.12,0 202.62,0 202.62,-20.75"/>
<text text-anchor="middle" x="156.38" y="-7.25" font-family="Helvetica,sans-Serif" font-size="10.00">nixd::EvalClient</text>
</a>
</g>
</g>
<!-- Node2 -->
<g id="Node000002" class="node">
<title>Node2</title>
<g id="a_Node000002"><a xlink:href="classlspserver_1_1LSPServer.html" target="_top" xlink:title=" ">
<polygon fill="white" stroke="#666666" points="214.25,-78.5 98.5,-78.5 98.5,-57.75 214.25,-57.75 214.25,-78.5"/>
<text text-anchor="middle" x="156.38" y="-65" font-family="Helvetica,sans-Serif" font-size="10.00">lspserver::LSPServer</text>
</a>
</g>
</g>
<!-- Node2&#45;&gt;Node1 -->
<g id="edge1_Node000001_Node000002" class="edge">
<title>Node2&#45;&gt;Node1</title>
<g id="a_edge1_Node000001_Node000002"><a xlink:title=" ">
<path fill="none" stroke="#63b8ff" d="M156.38,-46.18C156.38,-37.52 156.38,-27.9 156.38,-20.97"/>
<polygon fill="#63b8ff" stroke="#63b8ff" points="152.88,-45.9 156.38,-55.9 159.88,-45.9 152.88,-45.9"/>
</a>
</g>
</g>
<!-- Node3 -->
<g id="Node000003" class="node">
<title>Node3</title>
<g id="a_Node000003"><a xlink:href="classlspserver_1_1MessageHandler.html" target="_top" xlink:title=" ">
<polygon fill="white" stroke="#666666" points="148.75,-148 0,-148 0,-127.25 148.75,-127.25 148.75,-148"/>
<text text-anchor="middle" x="74.38" y="-134.5" font-family="Helvetica,sans-Serif" font-size="10.00">lspserver::MessageHandler</text>
</a>
</g>
</g>
<!-- Node3&#45;&gt;Node2 -->
<g id="edge2_Node000002_Node000003" class="edge">
<title>Node3&#45;&gt;Node2</title>
<g id="a_edge2_Node000002_Node000003"><a xlink:title=" ">
<path fill="none" stroke="#63b8ff" d="M94.59,-119.98C110.22,-107.12 131.32,-89.75 144.38,-79"/>
<polygon fill="#63b8ff" stroke="#63b8ff" points="92.79,-116.93 87.29,-125.99 97.24,-122.34 92.79,-116.93"/>
</a>
</g>
</g>
<!-- Node4 -->
<g id="Node000004" class="node">
<title>Node4</title>
<g id="a_Node000004"><a xlink:href="structlspserver_1_1HandlerRegistry.html" target="_top" xlink:title=" ">
<polygon fill="white" stroke="#666666" points="312.25,-148 166.5,-148 166.5,-127.25 312.25,-127.25 312.25,-148"/>
<text text-anchor="middle" x="239.38" y="-134.5" font-family="Helvetica,sans-Serif" font-size="10.00">lspserver::HandlerRegistry</text>
</a>
</g>
</g>
<!-- Node4&#45;&gt;Node2 -->
<g id="edge3_Node000002_Node000004" class="edge">
<title>Node4&#45;&gt;Node2</title>
<g id="a_edge3_Node000002_Node000004"><a xlink:title=" ">
<path fill="none" stroke="#9a32cd" stroke-dasharray="5,2" d="M218.91,-119.98C203.1,-107.12 181.73,-89.75 168.51,-79"/>
<polygon fill="#9a32cd" stroke="#9a32cd" points="216.34,-122.4 226.31,-126 220.76,-116.97 216.34,-122.4"/>
</a>
</g>
<text text-anchor="middle" x="227.06" y="-99.75" font-family="Helvetica,sans-Serif" font-size="10.00" fill="grey"> Registry</text>
</g>
</g>
</svg>
