<?xml version="1.0" encoding="UTF-8" standalone="no"?>
<!DOCTYPE svg PUBLIC "-//W3C//DTD SVG 1.1//EN"
 "http://www.w3.org/Graphics/SVG/1.1/DTD/svg11.dtd">
<!-- Generated by graphviz version 12.2.1 (0)
 -->
<!-- Title: nixf::ExprAttrs Pages: 1 -->
<svg width="93pt" height="142pt"
 viewBox="0.00 0.00 93.00 142.25" xmlns="http://www.w3.org/2000/svg" xmlns:xlink="http://www.w3.org/1999/xlink">
<g id="graph0" class="graph" transform="scale(1 1) rotate(0) translate(4 138.25)">
<title>nixf::ExprAttrs</title>
<!-- Node1 -->
<g id="Node000001" class="node">
<title>Node1</title>
<g id="a_Node000001"><a xlink:title=" ">
<polygon fill="#999999" stroke="#666666" points="85,-20.75 0,-20.75 0,0 85,0 85,-20.75"/>
<text text-anchor="middle" x="42.5" y="-7.25" font-family="Helvetica,sans-Serif" font-size="10.00">nixf::ExprAttrs</text>
</a>
</g>
</g>
<!-- Node2 -->
<g id="Node000002" class="node">
<title>Node2</title>
<g id="a_Node000002"><a xlink:href="classnixf_1_1Expr.html" target="_top" xlink:title=" ">
<polygon fill="white" stroke="#666666" points="73.38,-77.5 11.62,-77.5 11.62,-56.75 73.38,-56.75 73.38,-77.5"/>
<text text-anchor="middle" x="42.5" y="-64" font-family="Helvetica,sans-Serif" font-size="10.00">nixf::Expr</text>
</a>
</g>
</g>
<!-- Node2&#45;&gt;Node1 -->
<g id="edge1_Node000001_Node000002" class="edge">
<title>Node2&#45;&gt;Node1</title>
<g id="a_edge1_Node000001_Node000002"><a xlink:title=" ">
<path fill="none" stroke="#63b8ff" d="M42.5,-44.88C42.5,-36.66 42.5,-27.68 42.5,-21.08"/>
<polygon fill="#63b8ff" stroke="#63b8ff" points="39,-44.82 42.5,-54.82 46,-44.82 39,-44.82"/>
</a>
</g>
</g>
<!-- Node3 -->
<g id="Node000003" class="node">
<title>Node3</title>
<g id="a_Node000003"><a xlink:href="classnixf_1_1Node.html" target="_top" xlink:title=" ">
<polygon fill="white" stroke="#666666" points="75.25,-134.25 9.75,-134.25 9.75,-113.5 75.25,-113.5 75.25,-134.25"/>
<text text-anchor="middle" x="42.5" y="-120.75" font-family="Helvetica,sans-Serif" font-size="10.00">nixf::Node</text>
</a>
</g>
</g>
<!-- Node3&#45;&gt;Node2 -->
<g id="edge2_Node000002_Node000003" class="edge">
<title>Node3&#45;&gt;Node2</title>
<g id="a_edge2_Node000002_Node000003"><a xlink:title=" ">
<path fill="none" stroke="#63b8ff" d="M42.5,-101.63C42.5,-93.41 42.5,-84.43 42.5,-77.83"/>
<polygon fill="#63b8ff" stroke="#63b8ff" points="39,-101.57 42.5,-111.57 46,-101.57 39,-101.57"/>
</a>
</g>
</g>
</g>
</svg>
