<?xml version="1.0" encoding="UTF-8" standalone="no"?>
<!DOCTYPE svg PUBLIC "-//W3C//DTD SVG 1.1//EN"
 "http://www.w3.org/Graphics/SVG/1.1/DTD/svg11.dtd">
<!-- Generated by graphviz version 12.2.1 (0)
 -->
<!-- Title: nixf::ExprOpHasAttr Pages: 1 -->
<svg width="120pt" height="199pt"
 viewBox="0.00 0.00 120.00 199.00" xmlns="http://www.w3.org/2000/svg" xmlns:xlink="http://www.w3.org/1999/xlink">
<g id="graph0" class="graph" transform="scale(1 1) rotate(0) translate(4 195)">
<title>nixf::ExprOpHasAttr</title>
<!-- Node1 -->
<g id="Node000001" class="node">
<title>Node1</title>
<g id="a_Node000001"><a xlink:title=" ">
<polygon fill="#999999" stroke="#666666" points="112,-20.75 0,-20.75 0,0 112,0 112,-20.75"/>
<text text-anchor="middle" x="56" y="-7.25" font-family="Helvetica,sans-Serif" font-size="10.00">nixf::ExprOpHasAttr</text>
</a>
</g>
</g>
<!-- Node2 -->
<g id="Node000002" class="node">
<title>Node2</title>
<g id="a_Node000002"><a xlink:href="classnixf_1_1ExprOp.html" target="_top" xlink:title="Abstract class for binary operators and unary operators.">
<polygon fill="white" stroke="#666666" points="93.62,-77.5 18.38,-77.5 18.38,-56.75 93.62,-56.75 93.62,-77.5"/>
<text text-anchor="middle" x="56" y="-64" font-family="Helvetica,sans-Serif" font-size="10.00">nixf::ExprOp</text>
</a>
</g>
</g>
<!-- Node2&#45;&gt;Node1 -->
<g id="edge1_Node000001_Node000002" class="edge">
<title>Node2&#45;&gt;Node1</title>
<g id="a_edge1_Node000001_Node000002"><a xlink:title=" ">
<path fill="none" stroke="#63b8ff" d="M56,-44.88C56,-36.66 56,-27.68 56,-21.08"/>
<polygon fill="#63b8ff" stroke="#63b8ff" points="52.5,-44.82 56,-54.82 59.5,-44.82 52.5,-44.82"/>
</a>
</g>
</g>
<!-- Node3 -->
<g id="Node000003" class="node">
<title>Node3</title>
<g id="a_Node000003"><a xlink:href="classnixf_1_1Expr.html" target="_top" xlink:title=" ">
<polygon fill="white" stroke="#666666" points="86.88,-134.25 25.13,-134.25 25.13,-113.5 86.88,-113.5 86.88,-134.25"/>
<text text-anchor="middle" x="56" y="-120.75" font-family="Helvetica,sans-Serif" font-size="10.00">nixf::Expr</text>
</a>
</g>
</g>
<!-- Node3&#45;&gt;Node2 -->
<g id="edge2_Node000002_Node000003" class="edge">
<title>Node3&#45;&gt;Node2</title>
<g id="a_edge2_Node000002_Node000003"><a xlink:title=" ">
<path fill="none" stroke="#63b8ff" d="M56,-101.63C56,-93.41 56,-84.43 56,-77.83"/>
<polygon fill="#63b8ff" stroke="#63b8ff" points="52.5,-101.57 56,-111.57 59.5,-101.57 52.5,-101.57"/>
</a>
</g>
</g>
<!-- Node4 -->
<g id="Node000004" class="node">
<title>Node4</title>
<g id="a_Node000004"><a xlink:href="classnixf_1_1Node.html" target="_top" xlink:title=" ">
<polygon fill="white" stroke="#666666" points="88.75,-191 23.25,-191 23.25,-170.25 88.75,-170.25 88.75,-191"/>
<text text-anchor="middle" x="56" y="-177.5" font-family="Helvetica,sans-Serif" font-size="10.00">nixf::Node</text>
</a>
</g>
</g>
<!-- Node4&#45;&gt;Node3 -->
<g id="edge3_Node000003_Node000004" class="edge">
<title>Node4&#45;&gt;Node3</title>
<g id="a_edge3_Node000003_Node000004"><a xlink:title=" ">
<path fill="none" stroke="#63b8ff" d="M56,-158.38C56,-150.16 56,-141.18 56,-134.58"/>
<polygon fill="#63b8ff" stroke="#63b8ff" points="52.5,-158.32 56,-168.32 59.5,-158.32 52.5,-158.32"/>
</a>
</g>
</g>
</g>
</svg>
