<?xml version="1.0" encoding="UTF-8" standalone="no"?>
<!DOCTYPE svg PUBLIC "-//W3C//DTD SVG 1.1//EN"
 "http://www.w3.org/Graphics/SVG/1.1/DTD/svg11.dtd">
<!-- Generated by graphviz version 12.2.1 (0)
 -->
<!-- Title: nixf::Expr Pages: 1 -->
<svg width="467pt" height="692pt"
 viewBox="0.00 0.00 466.50 691.75" xmlns="http://www.w3.org/2000/svg" xmlns:xlink="http://www.w3.org/1999/xlink">
<g id="graph0" class="graph" transform="scale(1 1) rotate(0) translate(4 687.75)">
<title>nixf::Expr</title>
<!-- Node1 -->
<g id="Node000001" class="node">
<title>Node1</title>
<g id="a_Node000001"><a xlink:title=" ">
<polygon fill="#999999" stroke="#666666" points="163.25,-351.75 101.5,-351.75 101.5,-331 163.25,-331 163.25,-351.75"/>
<text text-anchor="middle" x="132.38" y="-338.25" font-family="Helvetica,sans-Serif" font-size="10.00">nixf::Expr</text>
</a>
</g>
</g>
<!-- Node3 -->
<g id="Node000003" class="node">
<title>Node3</title>
<g id="a_Node000003"><a xlink:href="classnixf_1_1ExprAssert.html" target="_top" xlink:title=" ">
<polygon fill="white" stroke="#666666" points="301.12,-683.75 208.62,-683.75 208.62,-663 301.12,-663 301.12,-683.75"/>
<text text-anchor="middle" x="254.88" y="-670.25" font-family="Helvetica,sans-Serif" font-size="10.00">nixf::ExprAssert</text>
</a>
</g>
</g>
<!-- Node1&#45;&gt;Node3 -->
<g id="edge2_Node000001_Node000003" class="edge">
<title>Node1&#45;&gt;Node3</title>
<g id="a_edge2_Node000001_Node000003"><a xlink:title=" ">
<path fill="none" stroke="#63b8ff" d="M135.26,-363.27C141.15,-426.77 161.1,-609.34 199.25,-653.38 202.49,-657.12 206.49,-660.16 210.84,-662.63"/>
<polygon fill="#63b8ff" stroke="#63b8ff" points="138.76,-363.08 134.38,-353.43 131.79,-363.7 138.76,-363.08"/>
</a>
</g>
</g>
<!-- Node4 -->
<g id="Node000004" class="node">
<title>Node4</title>
<g id="a_Node000004"><a xlink:href="classnixf_1_1ExprAttrs.html" target="_top" xlink:title=" ">
<polygon fill="white" stroke="#666666" points="297.38,-644.75 212.38,-644.75 212.38,-624 297.38,-624 297.38,-644.75"/>
<text text-anchor="middle" x="254.88" y="-631.25" font-family="Helvetica,sans-Serif" font-size="10.00">nixf::ExprAttrs</text>
</a>
</g>
</g>
<!-- Node1&#45;&gt;Node4 -->
<g id="edge3_Node000001_Node000004" class="edge">
<title>Node1&#45;&gt;Node4</title>
<g id="a_edge3_Node000001_Node000004"><a xlink:title=" ">
<path fill="none" stroke="#63b8ff" d="M135.97,-363.17C143.26,-421.03 165.61,-576.66 199.25,-614.38 202.81,-618.37 207.24,-621.57 212.03,-624.13"/>
<polygon fill="#63b8ff" stroke="#63b8ff" points="139.49,-363.1 134.79,-353.6 132.54,-363.95 139.49,-363.1"/>
</a>
</g>
</g>
<!-- Node5 -->
<g id="Node000005" class="node">
<title>Node5</title>
<g id="a_Node000005"><a xlink:href="classnixf_1_1ExprCall.html" target="_top" xlink:title="A call/apply to some function.">
<polygon fill="white" stroke="#666666" points="295.12,-605.75 214.62,-605.75 214.62,-585 295.12,-585 295.12,-605.75"/>
<text text-anchor="middle" x="254.88" y="-592.25" font-family="Helvetica,sans-Serif" font-size="10.00">nixf::ExprCall</text>
</a>
</g>
</g>
<!-- Node1&#45;&gt;Node5 -->
<g id="edge4_Node000001_Node000005" class="edge">
<title>Node1&#45;&gt;Node5</title>
<g id="a_edge4_Node000001_Node000005"><a xlink:title=" ">
<path fill="none" stroke="#63b8ff" d="M133.26,-363.52C134.24,-409.16 142.88,-514.51 199.25,-575.38 203.44,-579.89 208.73,-583.4 214.36,-586.11"/>
<polygon fill="#63b8ff" stroke="#63b8ff" points="136.76,-363.56 133.17,-353.6 129.76,-363.63 136.76,-363.56"/>
</a>
</g>
</g>
<!-- Node6 -->
<g id="Node000006" class="node">
<title>Node6</title>
<g id="a_Node000006"><a xlink:href="classnixf_1_1ExprFloat.html" target="_top" xlink:title=" ">
<polygon fill="white" stroke="#666666" points="298.12,-566.75 211.62,-566.75 211.62,-546 298.12,-546 298.12,-566.75"/>
<text text-anchor="middle" x="254.88" y="-553.25" font-family="Helvetica,sans-Serif" font-size="10.00">nixf::ExprFloat</text>
</a>
</g>
</g>
<!-- Node1&#45;&gt;Node6 -->
<g id="edge5_Node000001_Node000006" class="edge">
<title>Node1&#45;&gt;Node6</title>
<g id="a_edge5_Node000001_Node000006"><a xlink:title=" ">
<path fill="none" stroke="#63b8ff" d="M134.75,-363.33C138.4,-403.12 151.63,-487.54 199.25,-536.38 202.85,-540.06 207.18,-543.07 211.81,-545.53"/>
<polygon fill="#63b8ff" stroke="#63b8ff" points="138.24,-363.08 133.97,-353.38 131.26,-363.62 138.24,-363.08"/>
</a>
</g>
</g>
<!-- Node7 -->
<g id="Node000007" class="node">
<title>Node7</title>
<g id="a_Node000007"><a xlink:href="classnixf_1_1ExprIf.html" target="_top" xlink:title=" ">
<polygon fill="white" stroke="#666666" points="289.12,-527.75 220.62,-527.75 220.62,-507 289.12,-507 289.12,-527.75"/>
<text text-anchor="middle" x="254.88" y="-514.25" font-family="Helvetica,sans-Serif" font-size="10.00">nixf::ExprIf</text>
</a>
</g>
</g>
<!-- Node1&#45;&gt;Node7 -->
<g id="edge6_Node000001_Node000007" class="edge">
<title>Node1&#45;&gt;Node7</title>
<g id="a_edge6_Node000001_Node000007"><a xlink:title=" ">
<path fill="none" stroke="#63b8ff" d="M136.92,-363.33C143.43,-396.73 160.37,-460.34 199.25,-497.38 205.1,-502.95 212.63,-506.99 220.21,-509.92"/>
<polygon fill="#63b8ff" stroke="#63b8ff" points="140.39,-362.84 135.18,-353.61 133.5,-364.07 140.39,-362.84"/>
</a>
</g>
</g>
<!-- Node8 -->
<g id="Node000008" class="node">
<title>Node8</title>
<g id="a_Node000008"><a xlink:href="classnixf_1_1ExprInt.html" target="_top" xlink:title=" ">
<polygon fill="white" stroke="#666666" points="292.12,-488.75 217.62,-488.75 217.62,-468 292.12,-468 292.12,-488.75"/>
<text text-anchor="middle" x="254.88" y="-475.25" font-family="Helvetica,sans-Serif" font-size="10.00">nixf::ExprInt</text>
</a>
</g>
</g>
<!-- Node1&#45;&gt;Node8 -->
<g id="edge7_Node000001_Node000008" class="edge">
<title>Node1&#45;&gt;Node8</title>
<g id="a_edge7_Node000001_Node000008"><a xlink:title=" ">
<path fill="none" stroke="#63b8ff" d="M140.18,-362.65C149.53,-388.67 168.75,-432.45 199.25,-458.38 204.48,-462.82 210.79,-466.32 217.23,-469.05"/>
<polygon fill="#63b8ff" stroke="#63b8ff" points="143.6,-361.84 137.06,-353.5 136.97,-364.09 143.6,-361.84"/>
</a>
</g>
</g>
<!-- Node9 -->
<g id="Node000009" class="node">
<title>Node9</title>
<g id="a_Node000009"><a xlink:href="classnixf_1_1ExprLambda.html" target="_top" xlink:title=" ">
<polygon fill="white" stroke="#666666" points="305.25,-449.75 204.5,-449.75 204.5,-429 305.25,-429 305.25,-449.75"/>
<text text-anchor="middle" x="254.88" y="-436.25" font-family="Helvetica,sans-Serif" font-size="10.00">nixf::ExprLambda</text>
</a>
</g>
</g>
<!-- Node1&#45;&gt;Node9 -->
<g id="edge8_Node000001_Node000009" class="edge">
<title>Node1&#45;&gt;Node9</title>
<g id="a_edge8_Node000001_Node000009"><a xlink:title=" ">
<path fill="none" stroke="#63b8ff" d="M145.8,-361.27C157.63,-378.74 176.91,-403.75 199.25,-419.38 204.38,-422.96 210.23,-425.99 216.15,-428.51"/>
<polygon fill="#63b8ff" stroke="#63b8ff" points="148.96,-359.7 140.56,-353.25 143.1,-363.53 148.96,-359.7"/>
</a>
</g>
</g>
<!-- Node10 -->
<g id="Node000010" class="node">
<title>Node10</title>
<g id="a_Node000010"><a xlink:href="classnixf_1_1ExprLegacyLet.html" target="_top" xlink:title=" ">
<polygon fill="white" stroke="#666666" points="310.5,-410.75 199.25,-410.75 199.25,-390 310.5,-390 310.5,-410.75"/>
<text text-anchor="middle" x="254.88" y="-397.25" font-family="Helvetica,sans-Serif" font-size="10.00">nixf::ExprLegacyLet</text>
</a>
</g>
</g>
<!-- Node1&#45;&gt;Node10 -->
<g id="edge9_Node000001_Node000010" class="edge">
<title>Node1&#45;&gt;Node10</title>
<g id="a_edge9_Node000001_Node000010"><a xlink:title=" ">
<path fill="none" stroke="#63b8ff" d="M159.4,-358.28C171.27,-365.6 185.69,-373.95 199.25,-380.38 206.28,-383.71 214.02,-386.84 221.41,-389.6"/>
<polygon fill="#63b8ff" stroke="#63b8ff" points="161.31,-355.35 150.98,-352.99 157.58,-361.27 161.31,-355.35"/>
</a>
</g>
</g>
<!-- Node11 -->
<g id="Node000011" class="node">
<title>Node11</title>
<g id="a_Node000011"><a xlink:href="classnixf_1_1ExprLet.html" target="_top" xlink:title=" ">
<polygon fill="white" stroke="#666666" points="293.25,-371.75 216.5,-371.75 216.5,-351 293.25,-351 293.25,-371.75"/>
<text text-anchor="middle" x="254.88" y="-358.25" font-family="Helvetica,sans-Serif" font-size="10.00">nixf::ExprLet</text>
</a>
</g>
</g>
<!-- Node1&#45;&gt;Node11 -->
<g id="edge10_Node000001_Node000011" class="edge">
<title>Node1&#45;&gt;Node11</title>
<g id="a_edge10_Node000001_Node000011"><a xlink:title=" ">
<path fill="none" stroke="#63b8ff" d="M174.47,-348.2C188.06,-350.45 203.1,-352.95 216.4,-355.16"/>
<polygon fill="#63b8ff" stroke="#63b8ff" points="175.4,-344.8 164.96,-346.62 174.26,-351.71 175.4,-344.8"/>
</a>
</g>
</g>
<!-- Node12 -->
<g id="Node000012" class="node">
<title>Node12</title>
<g id="a_Node000012"><a xlink:href="classnixf_1_1ExprList.html" target="_top" xlink:title=" ">
<polygon fill="white" stroke="#666666" points="294.38,-332.75 215.38,-332.75 215.38,-312 294.38,-312 294.38,-332.75"/>
<text text-anchor="middle" x="254.88" y="-319.25" font-family="Helvetica,sans-Serif" font-size="10.00">nixf::ExprList</text>
</a>
</g>
</g>
<!-- Node1&#45;&gt;Node12 -->
<g id="edge11_Node000001_Node000012" class="edge">
<title>Node1&#45;&gt;Node12</title>
<g id="a_edge11_Node000001_Node000012"><a xlink:title=" ">
<path fill="none" stroke="#63b8ff" d="M174.57,-334.88C187.68,-332.81 202.13,-330.53 215.06,-328.49"/>
<polygon fill="#63b8ff" stroke="#63b8ff" points="174.3,-331.38 164.97,-336.39 175.39,-338.29 174.3,-331.38"/>
</a>
</g>
</g>
<!-- Node13 -->
<g id="Node000013" class="node">
<title>Node13</title>
<g id="a_Node000013"><a xlink:href="classnixf_1_1ExprOp.html" target="_top" xlink:title="Abstract class for binary operators and unary operators.">
<polygon fill="white" stroke="#666666" points="292.5,-293.75 217.25,-293.75 217.25,-273 292.5,-273 292.5,-293.75"/>
<text text-anchor="middle" x="254.88" y="-280.25" font-family="Helvetica,sans-Serif" font-size="10.00">nixf::ExprOp</text>
</a>
</g>
</g>
<!-- Node1&#45;&gt;Node13 -->
<g id="edge12_Node000001_Node000013" class="edge">
<title>Node1&#45;&gt;Node13</title>
<g id="a_edge12_Node000001_Node000013"><a xlink:title=" ">
<path fill="none" stroke="#63b8ff" d="M159.94,-324.65C171.73,-317.6 185.93,-309.6 199.25,-303.38 206.3,-300.08 214.04,-296.96 221.44,-294.21"/>
<polygon fill="#63b8ff" stroke="#63b8ff" points="158.29,-321.56 151.57,-329.75 161.93,-327.54 158.29,-321.56"/>
</a>
</g>
</g>
<!-- Node17 -->
<g id="Node000017" class="node">
<title>Node17</title>
<g id="a_Node000017"><a xlink:href="classnixf_1_1ExprParen.html" target="_top" xlink:title=" ">
<polygon fill="white" stroke="#666666" points="299.25,-254.75 210.5,-254.75 210.5,-234 299.25,-234 299.25,-254.75"/>
<text text-anchor="middle" x="254.88" y="-241.25" font-family="Helvetica,sans-Serif" font-size="10.00">nixf::ExprParen</text>
</a>
</g>
</g>
<!-- Node1&#45;&gt;Node17 -->
<g id="edge16_Node000001_Node000017" class="edge">
<title>Node1&#45;&gt;Node17</title>
<g id="a_edge16_Node000001_Node000017"><a xlink:title=" ">
<path fill="none" stroke="#63b8ff" d="M146.05,-321.46C157.94,-304.23 177.15,-279.73 199.25,-264.38 204.48,-260.75 210.44,-257.69 216.46,-255.15"/>
<polygon fill="#63b8ff" stroke="#63b8ff" points="143.41,-319.12 140.78,-329.38 149.23,-323 143.41,-319.12"/>
</a>
</g>
</g>
<!-- Node18 -->
<g id="Node000018" class="node">
<title>Node18</title>
<g id="a_Node000018"><a xlink:href="classnixf_1_1ExprPath.html" target="_top" xlink:title=" ">
<polygon fill="white" stroke="#666666" points="296.25,-215.75 213.5,-215.75 213.5,-195 296.25,-195 296.25,-215.75"/>
<text text-anchor="middle" x="254.88" y="-202.25" font-family="Helvetica,sans-Serif" font-size="10.00">nixf::ExprPath</text>
</a>
</g>
</g>
<!-- Node1&#45;&gt;Node18 -->
<g id="edge17_Node000001_Node000018" class="edge">
<title>Node1&#45;&gt;Node18</title>
<g id="a_edge17_Node000001_Node000018"><a xlink:title=" ">
<path fill="none" stroke="#63b8ff" d="M140.36,-319.93C149.8,-294.09 169.04,-250.96 199.25,-225.38 203.57,-221.72 208.61,-218.71 213.85,-216.23"/>
<polygon fill="#63b8ff" stroke="#63b8ff" points="137.06,-318.75 137.09,-329.34 143.68,-321.04 137.06,-318.75"/>
</a>
</g>
</g>
<!-- Node19 -->
<g id="Node000019" class="node">
<title>Node19</title>
<g id="a_Node000019"><a xlink:href="classnixf_1_1ExprSPath.html" target="_top" xlink:title=" ">
<polygon fill="white" stroke="#666666" points="299.25,-176.75 210.5,-176.75 210.5,-156 299.25,-156 299.25,-176.75"/>
<text text-anchor="middle" x="254.88" y="-163.25" font-family="Helvetica,sans-Serif" font-size="10.00">nixf::ExprSPath</text>
</a>
</g>
</g>
<!-- Node1&#45;&gt;Node19 -->
<g id="edge18_Node000001_Node000019" class="edge">
<title>Node1&#45;&gt;Node19</title>
<g id="a_edge18_Node000001_Node000019"><a xlink:title=" ">
<path fill="none" stroke="#63b8ff" d="M136.96,-319.56C143.53,-286.37 160.54,-223.17 199.25,-186.38 203.13,-182.69 207.74,-179.67 212.62,-177.2"/>
<polygon fill="#63b8ff" stroke="#63b8ff" points="133.56,-318.74 135.21,-329.21 140.44,-320 133.56,-318.74"/>
</a>
</g>
</g>
<!-- Node20 -->
<g id="Node000020" class="node">
<title>Node20</title>
<g id="a_Node000020"><a xlink:href="classnixf_1_1ExprSelect.html" target="_top" xlink:title=" ">
<polygon fill="white" stroke="#666666" points="300.75,-137.75 209,-137.75 209,-117 300.75,-117 300.75,-137.75"/>
<text text-anchor="middle" x="254.88" y="-124.25" font-family="Helvetica,sans-Serif" font-size="10.00">nixf::ExprSelect</text>
</a>
</g>
</g>
<!-- Node1&#45;&gt;Node20 -->
<g id="edge19_Node000001_Node000020" class="edge">
<title>Node1&#45;&gt;Node20</title>
<g id="a_edge19_Node000001_Node000020"><a xlink:title=" ">
<path fill="none" stroke="#63b8ff" d="M134.79,-319.53C138.49,-279.94 151.81,-195.95 199.25,-147.38 202.85,-143.69 207.18,-140.68 211.81,-138.22"/>
<polygon fill="#63b8ff" stroke="#63b8ff" points="131.3,-319.18 134,-329.42 138.28,-319.73 131.3,-319.18"/>
</a>
</g>
</g>
<!-- Node21 -->
<g id="Node000021" class="node">
<title>Node21</title>
<g id="a_Node000021"><a xlink:href="classnixf_1_1ExprString.html" target="_top" xlink:title=" ">
<polygon fill="white" stroke="#666666" points="300,-98.75 209.75,-98.75 209.75,-78 300,-78 300,-98.75"/>
<text text-anchor="middle" x="254.88" y="-85.25" font-family="Helvetica,sans-Serif" font-size="10.00">nixf::ExprString</text>
</a>
</g>
</g>
<!-- Node1&#45;&gt;Node21 -->
<g id="edge20_Node000001_Node000021" class="edge">
<title>Node1&#45;&gt;Node21</title>
<g id="a_edge20_Node000001_Node000021"><a xlink:title=" ">
<path fill="none" stroke="#63b8ff" d="M133.29,-319.32C134.32,-273.87 143.07,-168.96 199.25,-108.38 202.68,-104.67 206.86,-101.65 211.36,-99.19"/>
<polygon fill="#63b8ff" stroke="#63b8ff" points="129.8,-319.16 133.19,-329.2 136.79,-319.24 129.8,-319.16"/>
</a>
</g>
</g>
<!-- Node22 -->
<g id="Node000022" class="node">
<title>Node22</title>
<g id="a_Node000022"><a xlink:href="classnixf_1_1ExprVar.html" target="_top" xlink:title=" ">
<polygon fill="white" stroke="#666666" points="293.62,-59.75 216.12,-59.75 216.12,-39 293.62,-39 293.62,-59.75"/>
<text text-anchor="middle" x="254.88" y="-46.25" font-family="Helvetica,sans-Serif" font-size="10.00">nixf::ExprVar</text>
</a>
</g>
</g>
<!-- Node1&#45;&gt;Node22 -->
<g id="edge21_Node000001_Node000022" class="edge">
<title>Node1&#45;&gt;Node22</title>
<g id="a_edge21_Node000001_Node000022"><a xlink:title=" ">
<path fill="none" stroke="#63b8ff" d="M136.03,-319.3C143.39,-261.36 165.79,-106.87 199.25,-69.38 203.76,-64.33 209.64,-60.55 215.88,-57.73"/>
<polygon fill="#63b8ff" stroke="#63b8ff" points="132.56,-318.84 134.8,-329.19 139.5,-319.7 132.56,-318.84"/>
</a>
</g>
</g>
<!-- Node23 -->
<g id="Node000023" class="node">
<title>Node23</title>
<g id="a_Node000023"><a xlink:href="classnixf_1_1ExprWith.html" target="_top" xlink:title=" ">
<polygon fill="white" stroke="#666666" points="297,-20.75 212.75,-20.75 212.75,0 297,0 297,-20.75"/>
<text text-anchor="middle" x="254.88" y="-7.25" font-family="Helvetica,sans-Serif" font-size="10.00">nixf::ExprWith</text>
</a>
</g>
</g>
<!-- Node1&#45;&gt;Node23 -->
<g id="edge22_Node000001_Node000023" class="edge">
<title>Node1&#45;&gt;Node23</title>
<g id="a_edge22_Node000001_Node000023"><a xlink:title=" ">
<path fill="none" stroke="#63b8ff" d="M135.31,-319.13C141.27,-255.44 161.28,-74.17 199.25,-30.38 202.89,-26.18 207.49,-22.86 212.46,-20.24"/>
<polygon fill="#63b8ff" stroke="#63b8ff" points="131.83,-318.75 134.41,-329.03 138.8,-319.38 131.83,-318.75"/>
</a>
</g>
</g>
<!-- Node2 -->
<g id="Node000002" class="node">
<title>Node2</title>
<g id="a_Node000002"><a xlink:href="classnixf_1_1Node.html" target="_top" xlink:title=" ">
<polygon fill="white" stroke="#666666" points="65.5,-351.75 0,-351.75 0,-331 65.5,-331 65.5,-351.75"/>
<text text-anchor="middle" x="32.75" y="-338.25" font-family="Helvetica,sans-Serif" font-size="10.00">nixf::Node</text>
</a>
</g>
</g>
<!-- Node2&#45;&gt;Node1 -->
<g id="edge1_Node000001_Node000002" class="edge">
<title>Node2&#45;&gt;Node1</title>
<g id="a_edge1_Node000001_Node000002"><a xlink:title=" ">
<path fill="none" stroke="#63b8ff" d="M77.47,-341.38C85.48,-341.38 93.66,-341.38 101.16,-341.38"/>
<polygon fill="#63b8ff" stroke="#63b8ff" points="77.5,-337.88 67.5,-341.38 77.5,-344.88 77.5,-337.88"/>
</a>
</g>
</g>
<!-- Node14 -->
<g id="Node000014" class="node">
<title>Node14</title>
<g id="a_Node000014"><a xlink:href="classnixf_1_1ExprBinOp.html" target="_top" xlink:title=" ">
<polygon fill="white" stroke="#666666" points="448,-332.75 357,-332.75 357,-312 448,-312 448,-332.75"/>
<text text-anchor="middle" x="402.5" y="-319.25" font-family="Helvetica,sans-Serif" font-size="10.00">nixf::ExprBinOp</text>
</a>
</g>
</g>
<!-- Node13&#45;&gt;Node14 -->
<g id="edge13_Node000013_Node000014" class="edge">
<title>Node13&#45;&gt;Node14</title>
<g id="a_edge13_Node000013_Node000014"><a xlink:title=" ">
<path fill="none" stroke="#63b8ff" d="M303.88,-296.23C322.41,-301.19 343.38,-306.81 361.12,-311.56"/>
<polygon fill="#63b8ff" stroke="#63b8ff" points="305.03,-292.91 294.46,-293.71 303.22,-299.68 305.03,-292.91"/>
</a>
</g>
</g>
<!-- Node15 -->
<g id="Node000015" class="node">
<title>Node15</title>
<g id="a_Node000015"><a xlink:href="classnixf_1_1ExprOpHasAttr.html" target="_top" xlink:title=" ">
<polygon fill="white" stroke="#666666" points="458.5,-293.75 346.5,-293.75 346.5,-273 458.5,-273 458.5,-293.75"/>
<text text-anchor="middle" x="402.5" y="-280.25" font-family="Helvetica,sans-Serif" font-size="10.00">nixf::ExprOpHasAttr</text>
</a>
</g>
</g>
<!-- Node13&#45;&gt;Node15 -->
<g id="edge14_Node000013_Node000015" class="edge">
<title>Node13&#45;&gt;Node15</title>
<g id="a_edge14_Node000013_Node000015"><a xlink:title=" ">
<path fill="none" stroke="#63b8ff" d="M304.36,-283.38C317.71,-283.38 332.3,-283.38 346.01,-283.38"/>
<polygon fill="#63b8ff" stroke="#63b8ff" points="304.51,-279.88 294.51,-283.38 304.51,-286.88 304.51,-279.88"/>
</a>
</g>
</g>
<!-- Node16 -->
<g id="Node000016" class="node">
<title>Node16</title>
<g id="a_Node000016"><a xlink:href="classnixf_1_1ExprUnaryOp.html" target="_top" xlink:title=" ">
<polygon fill="white" stroke="#666666" points="454.75,-254.75 350.25,-254.75 350.25,-234 454.75,-234 454.75,-254.75"/>
<text text-anchor="middle" x="402.5" y="-241.25" font-family="Helvetica,sans-Serif" font-size="10.00">nixf::ExprUnaryOp</text>
</a>
</g>
</g>
<!-- Node13&#45;&gt;Node16 -->
<g id="edge15_Node000013_Node000016" class="edge">
<title>Node13&#45;&gt;Node16</title>
<g id="a_edge15_Node000013_Node000016"><a xlink:title=" ">
<path fill="none" stroke="#63b8ff" d="M303.88,-270.52C322.41,-265.56 343.38,-259.94 361.12,-255.19"/>
<polygon fill="#63b8ff" stroke="#63b8ff" points="303.22,-267.07 294.46,-273.04 305.03,-273.84 303.22,-267.07"/>
</a>
</g>
</g>
</g>
</svg>
