<?xml version="1.0" encoding="UTF-8" standalone="no"?>
<!DOCTYPE svg PUBLIC "-//W3C//DTD SVG 1.1//EN"
 "http://www.w3.org/Graphics/SVG/1.1/DTD/svg11.dtd">
<!-- Generated by graphviz version 12.2.1 (0)
 -->
<!-- Title: nixf::Node Pages: 1 -->
<svg width="528pt" height="711pt"
 viewBox="0.00 0.00 528.00 710.75" xmlns="http://www.w3.org/2000/svg" xmlns:xlink="http://www.w3.org/1999/xlink">
<g id="graph0" class="graph" transform="scale(1 1) rotate(0) translate(4 706.75)">
<title>nixf::Node</title>
<!-- Node1 -->
<g id="Node000001" class="node">
<title>Node1</title>
<g id="a_Node000001"><a xlink:title=" ">
<polygon fill="#999999" stroke="#666666" points="65.5,-293.75 0,-293.75 0,-273 65.5,-273 65.5,-293.75"/>
<text text-anchor="middle" x="32.75" y="-280.25" font-family="Helvetica,sans-Serif" font-size="10.00">nixf::Node</text>
</a>
</g>
</g>
<!-- Node2 -->
<g id="Node000002" class="node">
<title>Node2</title>
<g id="a_Node000002"><a xlink:href="classnixf_1_1AttrName.html" target="_top" xlink:title=" ">
<polygon fill="white" stroke="#666666" points="206.75,-566.75 119.5,-566.75 119.5,-546 206.75,-546 206.75,-566.75"/>
<text text-anchor="middle" x="163.12" y="-553.25" font-family="Helvetica,sans-Serif" font-size="10.00">nixf::AttrName</text>
</a>
</g>
</g>
<!-- Node1&#45;&gt;Node2 -->
<g id="edge1_Node000001_Node000002" class="edge">
<title>Node1&#45;&gt;Node2</title>
<g id="a_edge1_Node000001_Node000002"><a xlink:title=" ">
<path fill="none" stroke="#63b8ff" d="M33.09,-305.49C32.88,-353.97 39.3,-470.53 101.5,-536.38 106.37,-541.53 112.6,-545.36 119.19,-548.2"/>
<polygon fill="#63b8ff" stroke="#63b8ff" points="36.59,-305.77 33.25,-295.72 29.59,-305.66 36.59,-305.77"/>
</a>
</g>
</g>
<!-- Node3 -->
<g id="Node000003" class="node">
<title>Node3</title>
<g id="a_Node000003"><a xlink:href="classnixf_1_1AttrPath.html" target="_top" xlink:title=" ">
<polygon fill="white" stroke="#666666" points="202.62,-527.75 123.62,-527.75 123.62,-507 202.62,-507 202.62,-527.75"/>
<text text-anchor="middle" x="163.12" y="-514.25" font-family="Helvetica,sans-Serif" font-size="10.00">nixf::AttrPath</text>
</a>
</g>
</g>
<!-- Node1&#45;&gt;Node3 -->
<g id="edge2_Node000001_Node000003" class="edge">
<title>Node1&#45;&gt;Node3</title>
<g id="a_edge2_Node000001_Node000003"><a xlink:title=" ">
<path fill="none" stroke="#63b8ff" d="M34.38,-305.25C36.81,-348.08 48.27,-443.5 101.5,-497.38 107.42,-503.37 115.17,-507.56 123.14,-510.5"/>
<polygon fill="#63b8ff" stroke="#63b8ff" points="37.89,-305.32 33.96,-295.49 30.9,-305.63 37.89,-305.32"/>
</a>
</g>
</g>
<!-- Node4 -->
<g id="Node000004" class="node">
<title>Node4</title>
<g id="a_Node000004"><a xlink:href="classnixf_1_1Binding.html" target="_top" xlink:title=" ">
<polygon fill="white" stroke="#666666" points="201.5,-488.75 124.75,-488.75 124.75,-468 201.5,-468 201.5,-488.75"/>
<text text-anchor="middle" x="163.12" y="-475.25" font-family="Helvetica,sans-Serif" font-size="10.00">nixf::Binding</text>
</a>
</g>
</g>
<!-- Node1&#45;&gt;Node4 -->
<g id="edge3_Node000001_Node000004" class="edge">
<title>Node1&#45;&gt;Node4</title>
<g id="a_edge3_Node000001_Node000004"><a xlink:title=" ">
<path fill="none" stroke="#63b8ff" d="M36.24,-305.54C41.55,-342.41 57.35,-416.41 101.5,-458.38 107.85,-464.41 116.05,-468.62 124.36,-471.56"/>
<polygon fill="#63b8ff" stroke="#63b8ff" points="39.72,-305.13 34.97,-295.66 32.78,-306.03 39.72,-305.13"/>
</a>
</g>
</g>
<!-- Node5 -->
<g id="Node000005" class="node">
<title>Node5</title>
<g id="a_Node000005"><a xlink:href="classnixf_1_1Binds.html" target="_top" xlink:title=" ">
<polygon fill="white" stroke="#666666" points="196.62,-449.75 129.62,-449.75 129.62,-429 196.62,-429 196.62,-449.75"/>
<text text-anchor="middle" x="163.12" y="-436.25" font-family="Helvetica,sans-Serif" font-size="10.00">nixf::Binds</text>
</a>
</g>
</g>
<!-- Node1&#45;&gt;Node5 -->
<g id="edge4_Node000001_Node000005" class="edge">
<title>Node1&#45;&gt;Node5</title>
<g id="a_edge4_Node000001_Node000005"><a xlink:title=" ">
<path fill="none" stroke="#63b8ff" d="M38.84,-304.79C47.03,-334.64 65.92,-388.57 101.5,-419.38 109.29,-426.12 119.42,-430.61 129.17,-433.58"/>
<polygon fill="#63b8ff" stroke="#63b8ff" points="42.31,-304.22 36.43,-295.41 35.53,-305.96 42.31,-304.22"/>
</a>
</g>
</g>
<!-- Node6 -->
<g id="Node000006" class="node">
<title>Node6</title>
<g id="a_Node000006"><a xlink:href="classnixf_1_1Dot.html" target="_top" xlink:title="Holds a &quot;.&quot; in the language.">
<polygon fill="white" stroke="#666666" points="191.75,-410.75 134.5,-410.75 134.5,-390 191.75,-390 191.75,-410.75"/>
<text text-anchor="middle" x="163.12" y="-397.25" font-family="Helvetica,sans-Serif" font-size="10.00">nixf::Dot</text>
</a>
</g>
</g>
<!-- Node1&#45;&gt;Node6 -->
<g id="edge5_Node000001_Node000006" class="edge">
<title>Node1&#45;&gt;Node6</title>
<g id="a_edge5_Node000001_Node000006"><a xlink:title=" ">
<path fill="none" stroke="#63b8ff" d="M43.34,-304.36C54.4,-326.32 74.56,-360.32 101.5,-380.38 111.01,-387.46 123.16,-392.11 134.09,-395.13"/>
<polygon fill="#63b8ff" stroke="#63b8ff" points="46.56,-302.97 39.06,-295.48 40.25,-306.01 46.56,-302.97"/>
</a>
</g>
</g>
<!-- Node7 -->
<g id="Node000007" class="node">
<title>Node7</title>
<g id="a_Node000007"><a xlink:href="classnixf_1_1Expr.html" target="_top" xlink:title=" ">
<polygon fill="white" stroke="#666666" points="194,-371.75 132.25,-371.75 132.25,-351 194,-351 194,-371.75"/>
<text text-anchor="middle" x="163.12" y="-358.25" font-family="Helvetica,sans-Serif" font-size="10.00">nixf::Expr</text>
</a>
</g>
</g>
<!-- Node1&#45;&gt;Node7 -->
<g id="edge6_Node000001_Node000007" class="edge">
<title>Node1&#45;&gt;Node7</title>
<g id="a_edge6_Node000001_Node000007"><a xlink:title=" ">
<path fill="none" stroke="#63b8ff" d="M51.76,-302.26C64.62,-314.82 82.87,-330.87 101.5,-341.38 110.86,-346.65 121.84,-350.8 131.85,-353.92"/>
<polygon fill="#63b8ff" stroke="#63b8ff" points="54.39,-299.93 44.85,-295.31 49.42,-304.87 54.39,-299.93"/>
</a>
</g>
</g>
<!-- Node29 -->
<g id="Node000029" class="node">
<title>Node29</title>
<g id="a_Node000029"><a xlink:href="classnixf_1_1Formal.html" target="_top" xlink:title=" ">
<polygon fill="white" stroke="#666666" points="200,-332.75 126.25,-332.75 126.25,-312 200,-312 200,-332.75"/>
<text text-anchor="middle" x="163.12" y="-319.25" font-family="Helvetica,sans-Serif" font-size="10.00">nixf::Formal</text>
</a>
</g>
</g>
<!-- Node1&#45;&gt;Node29 -->
<g id="edge28_Node000001_Node000029" class="edge">
<title>Node1&#45;&gt;Node29</title>
<g id="a_edge28_Node000001_Node000029"><a xlink:title=" ">
<path fill="none" stroke="#63b8ff" d="M76.62,-296.4C92.77,-301.31 110.97,-306.83 126.4,-311.52"/>
<polygon fill="#63b8ff" stroke="#63b8ff" points="77.85,-293.11 67.26,-293.56 75.81,-299.81 77.85,-293.11"/>
</a>
</g>
</g>
<!-- Node30 -->
<g id="Node000030" class="node">
<title>Node30</title>
<g id="a_Node000030"><a xlink:href="classnixf_1_1Formals.html" target="_top" xlink:title="Lambda formal arguments.">
<polygon fill="white" stroke="#666666" points="202.62,-293.75 123.62,-293.75 123.62,-273 202.62,-273 202.62,-293.75"/>
<text text-anchor="middle" x="163.12" y="-280.25" font-family="Helvetica,sans-Serif" font-size="10.00">nixf::Formals</text>
</a>
</g>
</g>
<!-- Node1&#45;&gt;Node30 -->
<g id="edge29_Node000001_Node000030" class="edge">
<title>Node1&#45;&gt;Node30</title>
<g id="a_edge29_Node000001_Node000030"><a xlink:title=" ">
<path fill="none" stroke="#63b8ff" d="M77.3,-283.38C92.16,-283.38 108.67,-283.38 123.15,-283.38"/>
<polygon fill="#63b8ff" stroke="#63b8ff" points="77.33,-279.88 67.33,-283.38 77.33,-286.88 77.33,-279.88"/>
</a>
</g>
</g>
<!-- Node31 -->
<g id="Node000031" class="node">
<title>Node31</title>
<g id="a_Node000031"><a xlink:href="classnixf_1_1Identifier.html" target="_top" xlink:title="Identifier. Variable names, attribute names, etc.">
<polygon fill="white" stroke="#666666" points="204.88,-254.75 121.38,-254.75 121.38,-234 204.88,-234 204.88,-254.75"/>
<text text-anchor="middle" x="163.12" y="-241.25" font-family="Helvetica,sans-Serif" font-size="10.00">nixf::Identifier</text>
</a>
</g>
</g>
<!-- Node1&#45;&gt;Node31 -->
<g id="edge30_Node000001_Node000031" class="edge">
<title>Node1&#45;&gt;Node31</title>
<g id="a_edge30_Node000001_Node000031"><a xlink:title=" ">
<path fill="none" stroke="#63b8ff" d="M76.62,-270.35C92.77,-265.44 110.97,-259.92 126.4,-255.23"/>
<polygon fill="#63b8ff" stroke="#63b8ff" points="75.81,-266.94 67.26,-273.19 77.85,-273.64 75.81,-266.94"/>
</a>
</g>
</g>
<!-- Node32 -->
<g id="Node000032" class="node">
<title>Node32</title>
<g id="a_Node000032"><a xlink:href="classnixf_1_1Inherit.html" target="_top" xlink:title=" ">
<polygon fill="white" stroke="#666666" points="198.88,-215.75 127.38,-215.75 127.38,-195 198.88,-195 198.88,-215.75"/>
<text text-anchor="middle" x="163.12" y="-202.25" font-family="Helvetica,sans-Serif" font-size="10.00">nixf::Inherit</text>
</a>
</g>
</g>
<!-- Node1&#45;&gt;Node32 -->
<g id="edge31_Node000001_Node000032" class="edge">
<title>Node1&#45;&gt;Node32</title>
<g id="a_edge31_Node000001_Node000032"><a xlink:title=" ">
<path fill="none" stroke="#63b8ff" d="M51.76,-264.49C64.62,-251.93 82.87,-235.88 101.5,-225.38 109.42,-220.91 118.48,-217.26 127.15,-214.35"/>
<polygon fill="#63b8ff" stroke="#63b8ff" points="49.42,-261.88 44.85,-271.44 54.39,-266.82 49.42,-261.88"/>
</a>
</g>
</g>
<!-- Node33 -->
<g id="Node000033" class="node">
<title>Node33</title>
<g id="a_Node000033"><a xlink:href="classnixf_1_1InterpolatedParts.html" target="_top" xlink:title=" ">
<polygon fill="white" stroke="#666666" points="224.75,-176.75 101.5,-176.75 101.5,-156 224.75,-156 224.75,-176.75"/>
<text text-anchor="middle" x="163.12" y="-163.25" font-family="Helvetica,sans-Serif" font-size="10.00">nixf::InterpolatedParts</text>
</a>
</g>
</g>
<!-- Node1&#45;&gt;Node33 -->
<g id="edge32_Node000001_Node000033" class="edge">
<title>Node1&#45;&gt;Node33</title>
<g id="a_edge32_Node000001_Node000033"><a xlink:title=" ">
<path fill="none" stroke="#63b8ff" d="M43.34,-262.39C54.4,-240.43 74.56,-206.43 101.5,-186.38 106.48,-182.67 112.18,-179.63 118.05,-177.14"/>
<polygon fill="#63b8ff" stroke="#63b8ff" points="40.25,-260.74 39.06,-271.27 46.56,-263.78 40.25,-260.74"/>
</a>
</g>
</g>
<!-- Node34 -->
<g id="Node000034" class="node">
<title>Node34</title>
<g id="a_Node000034"><a xlink:href="classnixf_1_1Interpolation.html" target="_top" xlink:title="${expr} construct">
<polygon fill="white" stroke="#666666" points="214.25,-137.75 112,-137.75 112,-117 214.25,-117 214.25,-137.75"/>
<text text-anchor="middle" x="163.12" y="-124.25" font-family="Helvetica,sans-Serif" font-size="10.00">nixf::Interpolation</text>
</a>
</g>
</g>
<!-- Node1&#45;&gt;Node34 -->
<g id="edge33_Node000001_Node000034" class="edge">
<title>Node1&#45;&gt;Node34</title>
<g id="a_edge33_Node000001_Node000034"><a xlink:title=" ">
<path fill="none" stroke="#63b8ff" d="M38.84,-261.96C47.03,-232.11 65.92,-178.18 101.5,-147.38 105.77,-143.68 110.75,-140.66 115.98,-138.19"/>
<polygon fill="#63b8ff" stroke="#63b8ff" points="35.53,-260.79 36.43,-271.34 42.31,-262.53 35.53,-260.79"/>
</a>
</g>
</g>
<!-- Node35 -->
<g id="Node000035" class="node">
<title>Node35</title>
<g id="a_Node000035"><a xlink:href="classnixf_1_1LambdaArg.html" target="_top" xlink:title=" ">
<polygon fill="white" stroke="#666666" points="210.88,-98.75 115.38,-98.75 115.38,-78 210.88,-78 210.88,-98.75"/>
<text text-anchor="middle" x="163.12" y="-85.25" font-family="Helvetica,sans-Serif" font-size="10.00">nixf::LambdaArg</text>
</a>
</g>
</g>
<!-- Node1&#45;&gt;Node35 -->
<g id="edge34_Node000001_Node000035" class="edge">
<title>Node1&#45;&gt;Node35</title>
<g id="a_edge34_Node000001_Node000035"><a xlink:title=" ">
<path fill="none" stroke="#63b8ff" d="M36.24,-261.21C41.55,-224.34 57.35,-150.34 101.5,-108.38 105.44,-104.63 110.09,-101.59 115.03,-99.12"/>
<polygon fill="#63b8ff" stroke="#63b8ff" points="32.78,-260.72 34.97,-271.09 39.72,-261.62 32.78,-260.72"/>
</a>
</g>
</g>
<!-- Node36 -->
<g id="Node000036" class="node">
<title>Node36</title>
<g id="a_Node000036"><a xlink:href="classnixf_1_1Misc.html" target="_top" xlink:title="Misc node, used for parentheses, keywords, etc.">
<polygon fill="white" stroke="#666666" points="194.38,-59.75 131.88,-59.75 131.88,-39 194.38,-39 194.38,-59.75"/>
<text text-anchor="middle" x="163.12" y="-46.25" font-family="Helvetica,sans-Serif" font-size="10.00">nixf::Misc</text>
</a>
</g>
</g>
<!-- Node1&#45;&gt;Node36 -->
<g id="edge35_Node000001_Node000036" class="edge">
<title>Node1&#45;&gt;Node36</title>
<g id="a_edge35_Node000001_Node000036"><a xlink:title=" ">
<path fill="none" stroke="#63b8ff" d="M34.38,-261.5C36.81,-218.67 48.27,-123.25 101.5,-69.38 109.52,-61.25 120.9,-56.43 131.64,-53.57"/>
<polygon fill="#63b8ff" stroke="#63b8ff" points="30.9,-261.12 33.96,-271.26 37.89,-261.43 30.9,-261.12"/>
</a>
</g>
</g>
<!-- Node37 -->
<g id="Node000037" class="node">
<title>Node37</title>
<g id="a_Node000037"><a xlink:href="classnixf_1_1Op.html" target="_top" xlink:title=" ">
<polygon fill="white" stroke="#666666" points="189.88,-20.75 136.38,-20.75 136.38,0 189.88,0 189.88,-20.75"/>
<text text-anchor="middle" x="163.12" y="-7.25" font-family="Helvetica,sans-Serif" font-size="10.00">nixf::Op</text>
</a>
</g>
</g>
<!-- Node1&#45;&gt;Node37 -->
<g id="edge36_Node000001_Node000037" class="edge">
<title>Node1&#45;&gt;Node37</title>
<g id="a_edge36_Node000001_Node000037"><a xlink:title=" ">
<path fill="none" stroke="#63b8ff" d="M33.09,-261.26C32.88,-212.78 39.3,-96.22 101.5,-30.38 110.48,-20.87 124.06,-15.88 136.1,-13.26"/>
<polygon fill="#63b8ff" stroke="#63b8ff" points="29.59,-261.09 33.25,-271.03 36.59,-260.98 29.59,-261.09"/>
</a>
</g>
</g>
<!-- Node8 -->
<g id="Node000008" class="node">
<title>Node8</title>
<g id="a_Node000008"><a xlink:href="classnixf_1_1ExprAssert.html" target="_top" xlink:title=" ">
<polygon fill="white" stroke="#666666" points="362.62,-702.75 270.12,-702.75 270.12,-682 362.62,-682 362.62,-702.75"/>
<text text-anchor="middle" x="316.38" y="-689.25" font-family="Helvetica,sans-Serif" font-size="10.00">nixf::ExprAssert</text>
</a>
</g>
</g>
<!-- Node7&#45;&gt;Node8 -->
<g id="edge7_Node000007_Node000008" class="edge">
<title>Node7&#45;&gt;Node8</title>
<g id="a_edge7_Node000007_Node000008"><a xlink:title=" ">
<path fill="none" stroke="#63b8ff" d="M205.45,-368.06C212.83,-371.02 219.74,-375.28 224.75,-381.38 307.46,-482.08 179.68,-570.35 260.75,-672.38 263.7,-676.09 267.41,-679.12 271.5,-681.58"/>
<polygon fill="#63b8ff" stroke="#63b8ff" points="206.53,-364.73 195.94,-365.04 204.41,-371.4 206.53,-364.73"/>
</a>
</g>
</g>
<!-- Node9 -->
<g id="Node000009" class="node">
<title>Node9</title>
<g id="a_Node000009"><a xlink:href="classnixf_1_1ExprAttrs.html" target="_top" xlink:title=" ">
<polygon fill="white" stroke="#666666" points="358.88,-663.75 273.88,-663.75 273.88,-643 358.88,-643 358.88,-663.75"/>
<text text-anchor="middle" x="316.38" y="-650.25" font-family="Helvetica,sans-Serif" font-size="10.00">nixf::ExprAttrs</text>
</a>
</g>
</g>
<!-- Node7&#45;&gt;Node9 -->
<g id="edge8_Node000007_Node000009" class="edge">
<title>Node7&#45;&gt;Node9</title>
<g id="a_edge8_Node000007_Node000009"><a xlink:title=" ">
<path fill="none" stroke="#63b8ff" d="M205.36,-368.13C212.74,-371.09 219.68,-375.32 224.75,-381.38 297.38,-468.12 189.53,-545.46 260.75,-633.38 264.18,-637.61 268.6,-640.95 273.43,-643.58"/>
<polygon fill="#63b8ff" stroke="#63b8ff" points="206.44,-364.8 195.85,-365.11 204.32,-371.47 206.44,-364.8"/>
</a>
</g>
</g>
<!-- Node10 -->
<g id="Node000010" class="node">
<title>Node10</title>
<g id="a_Node000010"><a xlink:href="classnixf_1_1ExprCall.html" target="_top" xlink:title="A call/apply to some function.">
<polygon fill="white" stroke="#666666" points="356.62,-624.75 276.12,-624.75 276.12,-604 356.62,-604 356.62,-624.75"/>
<text text-anchor="middle" x="316.38" y="-611.25" font-family="Helvetica,sans-Serif" font-size="10.00">nixf::ExprCall</text>
</a>
</g>
</g>
<!-- Node7&#45;&gt;Node10 -->
<g id="edge9_Node000007_Node000010" class="edge">
<title>Node7&#45;&gt;Node10</title>
<g id="a_edge9_Node000007_Node000010"><a xlink:title=" ">
<path fill="none" stroke="#63b8ff" d="M205.24,-368.23C212.63,-371.18 219.61,-375.39 224.75,-381.38 287.32,-454.2 199.37,-520.55 260.75,-594.38 264.75,-599.19 270.02,-602.85 275.71,-605.62"/>
<polygon fill="#63b8ff" stroke="#63b8ff" points="206.32,-364.91 195.73,-365.21 204.2,-371.58 206.32,-364.91"/>
</a>
</g>
</g>
<!-- Node11 -->
<g id="Node000011" class="node">
<title>Node11</title>
<g id="a_Node000011"><a xlink:href="classnixf_1_1ExprFloat.html" target="_top" xlink:title=" ">
<polygon fill="white" stroke="#666666" points="359.62,-585.75 273.12,-585.75 273.12,-565 359.62,-565 359.62,-585.75"/>
<text text-anchor="middle" x="316.38" y="-572.25" font-family="Helvetica,sans-Serif" font-size="10.00">nixf::ExprFloat</text>
</a>
</g>
</g>
<!-- Node7&#45;&gt;Node11 -->
<g id="edge10_Node000007_Node000011" class="edge">
<title>Node7&#45;&gt;Node11</title>
<g id="a_edge10_Node000007_Node000011"><a xlink:title=" ">
<path fill="none" stroke="#63b8ff" d="M205.28,-368.47C212.61,-371.4 219.55,-375.54 224.75,-381.38 277.3,-440.32 209.16,-495.59 260.75,-555.38 264.11,-559.27 268.31,-562.41 272.86,-564.94"/>
<polygon fill="#63b8ff" stroke="#63b8ff" points="206.47,-365.17 195.88,-365.44 204.32,-371.83 206.47,-365.17"/>
</a>
</g>
</g>
<!-- Node12 -->
<g id="Node000012" class="node">
<title>Node12</title>
<g id="a_Node000012"><a xlink:href="classnixf_1_1ExprIf.html" target="_top" xlink:title=" ">
<polygon fill="white" stroke="#666666" points="350.62,-546.75 282.12,-546.75 282.12,-526 350.62,-526 350.62,-546.75"/>
<text text-anchor="middle" x="316.38" y="-533.25" font-family="Helvetica,sans-Serif" font-size="10.00">nixf::ExprIf</text>
</a>
</g>
</g>
<!-- Node7&#45;&gt;Node12 -->
<g id="edge11_Node000007_Node000012" class="edge">
<title>Node7&#45;&gt;Node12</title>
<g id="a_edge11_Node000007_Node000012"><a xlink:title=" ">
<path fill="none" stroke="#63b8ff" d="M205.24,-368.79C212.51,-371.69 219.44,-375.74 224.75,-381.38 267.37,-426.54 218.87,-470.53 260.75,-516.38 266.34,-522.49 273.95,-526.74 281.71,-529.69"/>
<polygon fill="#63b8ff" stroke="#63b8ff" points="206.53,-365.53 195.94,-365.76 204.36,-372.18 206.53,-365.53"/>
</a>
</g>
</g>
<!-- Node13 -->
<g id="Node000013" class="node">
<title>Node13</title>
<g id="a_Node000013"><a xlink:href="classnixf_1_1ExprInt.html" target="_top" xlink:title=" ">
<polygon fill="white" stroke="#666666" points="353.62,-507.75 279.12,-507.75 279.12,-487 353.62,-487 353.62,-507.75"/>
<text text-anchor="middle" x="316.38" y="-494.25" font-family="Helvetica,sans-Serif" font-size="10.00">nixf::ExprInt</text>
</a>
</g>
</g>
<!-- Node7&#45;&gt;Node13 -->
<g id="edge12_Node000007_Node000013" class="edge">
<title>Node7&#45;&gt;Node13</title>
<g id="a_edge12_Node000007_Node000013"><a xlink:title=" ">
<path fill="none" stroke="#63b8ff" d="M205.27,-369.39C212.41,-372.25 219.28,-376.12 224.75,-381.38 257.61,-412.94 228.4,-445.28 260.75,-477.38 265.77,-482.35 272.13,-486.11 278.72,-488.93"/>
<polygon fill="#63b8ff" stroke="#63b8ff" points="206.41,-366.09 195.82,-366.27 204.22,-372.73 206.41,-366.09"/>
</a>
</g>
</g>
<!-- Node14 -->
<g id="Node000014" class="node">
<title>Node14</title>
<g id="a_Node000014"><a xlink:href="classnixf_1_1ExprLambda.html" target="_top" xlink:title=" ">
<polygon fill="white" stroke="#666666" points="366.75,-468.75 266,-468.75 266,-448 366.75,-448 366.75,-468.75"/>
<text text-anchor="middle" x="316.38" y="-455.25" font-family="Helvetica,sans-Serif" font-size="10.00">nixf::ExprLambda</text>
</a>
</g>
</g>
<!-- Node7&#45;&gt;Node14 -->
<g id="edge13_Node000007_Node000014" class="edge">
<title>Node7&#45;&gt;Node14</title>
<g id="a_edge13_Node000007_Node000014"><a xlink:title=" ">
<path fill="none" stroke="#63b8ff" d="M205.33,-370.68C212.24,-373.4 219.02,-376.9 224.75,-381.38 248.36,-399.82 237.44,-419.55 260.75,-438.38 265.31,-442.05 270.6,-445.09 276.07,-447.59"/>
<polygon fill="#63b8ff" stroke="#63b8ff" points="206.52,-367.39 195.93,-367.49 204.27,-374.02 206.52,-367.39"/>
</a>
</g>
</g>
<!-- Node15 -->
<g id="Node000015" class="node">
<title>Node15</title>
<g id="a_Node000015"><a xlink:href="classnixf_1_1ExprLegacyLet.html" target="_top" xlink:title=" ">
<polygon fill="white" stroke="#666666" points="372,-429.75 260.75,-429.75 260.75,-409 372,-409 372,-429.75"/>
<text text-anchor="middle" x="316.38" y="-416.25" font-family="Helvetica,sans-Serif" font-size="10.00">nixf::ExprLegacyLet</text>
</a>
</g>
</g>
<!-- Node7&#45;&gt;Node15 -->
<g id="edge14_Node000007_Node000015" class="edge">
<title>Node7&#45;&gt;Node15</title>
<g id="a_edge14_Node000007_Node000015"><a xlink:title=" ">
<path fill="none" stroke="#63b8ff" d="M205.23,-374.04C211.82,-376.32 218.51,-378.8 224.75,-381.38 241.29,-388.2 244.32,-392.29 260.75,-399.38 268.17,-402.58 276.28,-405.73 283.94,-408.55"/>
<polygon fill="#63b8ff" stroke="#63b8ff" points="206.38,-370.73 195.79,-370.87 204.16,-377.37 206.38,-370.73"/>
</a>
</g>
</g>
<!-- Node16 -->
<g id="Node000016" class="node">
<title>Node16</title>
<g id="a_Node000016"><a xlink:href="classnixf_1_1ExprLet.html" target="_top" xlink:title=" ">
<polygon fill="white" stroke="#666666" points="354.75,-390.75 278,-390.75 278,-370 354.75,-370 354.75,-390.75"/>
<text text-anchor="middle" x="316.38" y="-377.25" font-family="Helvetica,sans-Serif" font-size="10.00">nixf::ExprLet</text>
</a>
</g>
</g>
<!-- Node7&#45;&gt;Node16 -->
<g id="edge15_Node000007_Node000016" class="edge">
<title>Node7&#45;&gt;Node16</title>
<g id="a_edge15_Node000007_Node000016"><a xlink:title=" ">
<path fill="none" stroke="#63b8ff" d="M205.62,-366.59C228.14,-369.42 255.77,-372.89 277.67,-375.64"/>
<polygon fill="#63b8ff" stroke="#63b8ff" points="206.23,-363.14 195.87,-365.36 205.36,-370.08 206.23,-363.14"/>
</a>
</g>
</g>
<!-- Node17 -->
<g id="Node000017" class="node">
<title>Node17</title>
<g id="a_Node000017"><a xlink:href="classnixf_1_1ExprList.html" target="_top" xlink:title=" ">
<polygon fill="white" stroke="#666666" points="355.88,-351.75 276.88,-351.75 276.88,-331 355.88,-331 355.88,-351.75"/>
<text text-anchor="middle" x="316.38" y="-338.25" font-family="Helvetica,sans-Serif" font-size="10.00">nixf::ExprList</text>
</a>
</g>
</g>
<!-- Node7&#45;&gt;Node17 -->
<g id="edge16_Node000007_Node000017" class="edge">
<title>Node7&#45;&gt;Node17</title>
<g id="a_edge16_Node000007_Node000017"><a xlink:title=" ">
<path fill="none" stroke="#63b8ff" d="M205.76,-355.87C227.87,-352.95 254.88,-349.37 276.55,-346.51"/>
<polygon fill="#63b8ff" stroke="#63b8ff" points="205.32,-352.4 195.87,-357.18 206.24,-359.34 205.32,-352.4"/>
</a>
</g>
</g>
<!-- Node18 -->
<g id="Node000018" class="node">
<title>Node18</title>
<g id="a_Node000018"><a xlink:href="classnixf_1_1ExprOp.html" target="_top" xlink:title="Abstract class for binary operators and unary operators.">
<polygon fill="white" stroke="#666666" points="354,-312.75 278.75,-312.75 278.75,-292 354,-292 354,-312.75"/>
<text text-anchor="middle" x="316.38" y="-299.25" font-family="Helvetica,sans-Serif" font-size="10.00">nixf::ExprOp</text>
</a>
</g>
</g>
<!-- Node7&#45;&gt;Node18 -->
<g id="edge17_Node000007_Node000018" class="edge">
<title>Node7&#45;&gt;Node18</title>
<g id="a_edge17_Node000007_Node000018"><a xlink:title=" ">
<path fill="none" stroke="#63b8ff" d="M205.28,-348.83C211.86,-346.53 218.54,-344.01 224.75,-341.38 241.4,-334.29 244.22,-329.72 260.75,-322.38 268.04,-319.13 276.03,-315.99 283.6,-313.19"/>
<polygon fill="#63b8ff" stroke="#63b8ff" points="204.2,-345.5 195.84,-352 206.43,-352.14 204.2,-345.5"/>
</a>
</g>
</g>
<!-- Node22 -->
<g id="Node000022" class="node">
<title>Node22</title>
<g id="a_Node000022"><a xlink:href="classnixf_1_1ExprParen.html" target="_top" xlink:title=" ">
<polygon fill="white" stroke="#666666" points="360.75,-273.75 272,-273.75 272,-253 360.75,-253 360.75,-273.75"/>
<text text-anchor="middle" x="316.38" y="-260.25" font-family="Helvetica,sans-Serif" font-size="10.00">nixf::ExprParen</text>
</a>
</g>
</g>
<!-- Node7&#45;&gt;Node22 -->
<g id="edge21_Node000007_Node000022" class="edge">
<title>Node7&#45;&gt;Node22</title>
<g id="a_edge21_Node000007_Node000022"><a xlink:title=" ">
<path fill="none" stroke="#63b8ff" d="M204.65,-352.38C211.8,-349.62 218.84,-346.03 224.75,-341.38 248.59,-322.61 237.22,-302.53 260.75,-283.38 265.29,-279.68 270.58,-276.63 276.04,-274.12"/>
<polygon fill="#63b8ff" stroke="#63b8ff" points="204.02,-348.9 195.65,-355.39 206.24,-355.54 204.02,-348.9"/>
</a>
</g>
</g>
<!-- Node23 -->
<g id="Node000023" class="node">
<title>Node23</title>
<g id="a_Node000023"><a xlink:href="classnixf_1_1ExprPath.html" target="_top" xlink:title=" ">
<polygon fill="white" stroke="#666666" points="357.75,-234.75 275,-234.75 275,-214 357.75,-214 357.75,-234.75"/>
<text text-anchor="middle" x="316.38" y="-221.25" font-family="Helvetica,sans-Serif" font-size="10.00">nixf::ExprPath</text>
</a>
</g>
</g>
<!-- Node7&#45;&gt;Node23 -->
<g id="edge22_Node000007_Node000023" class="edge">
<title>Node7&#45;&gt;Node23</title>
<g id="a_edge22_Node000007_Node000023"><a xlink:title=" ">
<path fill="none" stroke="#63b8ff" d="M205.29,-353.37C212.42,-350.51 219.29,-346.64 224.75,-341.38 257.86,-309.46 228.16,-276.82 260.75,-244.38 264.69,-240.46 269.45,-237.3 274.51,-234.75"/>
<polygon fill="#63b8ff" stroke="#63b8ff" points="204.23,-350.03 195.83,-356.5 206.43,-356.68 204.23,-350.03"/>
</a>
</g>
</g>
<!-- Node24 -->
<g id="Node000024" class="node">
<title>Node24</title>
<g id="a_Node000024"><a xlink:href="classnixf_1_1ExprSPath.html" target="_top" xlink:title=" ">
<polygon fill="white" stroke="#666666" points="360.75,-195.75 272,-195.75 272,-175 360.75,-175 360.75,-195.75"/>
<text text-anchor="middle" x="316.38" y="-182.25" font-family="Helvetica,sans-Serif" font-size="10.00">nixf::ExprSPath</text>
</a>
</g>
</g>
<!-- Node7&#45;&gt;Node24 -->
<g id="edge23_Node000007_Node000024" class="edge">
<title>Node7&#45;&gt;Node24</title>
<g id="a_edge23_Node000007_Node000024"><a xlink:title=" ">
<path fill="none" stroke="#63b8ff" d="M205.04,-354.06C212.38,-351.14 219.39,-347.07 224.75,-341.38 267.62,-295.86 218.62,-251.58 260.75,-205.38 264.15,-201.64 268.31,-198.61 272.8,-196.14"/>
<polygon fill="#63b8ff" stroke="#63b8ff" points="204.08,-350.69 195.63,-357.09 206.22,-357.35 204.08,-350.69"/>
</a>
</g>
</g>
<!-- Node25 -->
<g id="Node000025" class="node">
<title>Node25</title>
<g id="a_Node000025"><a xlink:href="classnixf_1_1ExprSelect.html" target="_top" xlink:title=" ">
<polygon fill="white" stroke="#666666" points="362.25,-156.75 270.5,-156.75 270.5,-136 362.25,-136 362.25,-156.75"/>
<text text-anchor="middle" x="316.38" y="-143.25" font-family="Helvetica,sans-Serif" font-size="10.00">nixf::ExprSelect</text>
</a>
</g>
</g>
<!-- Node7&#45;&gt;Node25 -->
<g id="edge24_Node000007_Node000025" class="edge">
<title>Node7&#45;&gt;Node25</title>
<g id="a_edge24_Node000007_Node000025"><a xlink:title=" ">
<path fill="none" stroke="#63b8ff" d="M205.29,-354.29C212.61,-351.35 219.55,-347.21 224.75,-341.38 277.56,-282.07 208.91,-226.52 260.75,-166.38 263.98,-162.63 267.98,-159.58 272.32,-157.1"/>
<polygon fill="#63b8ff" stroke="#63b8ff" points="204.33,-350.92 195.88,-357.32 206.47,-357.58 204.33,-350.92"/>
</a>
</g>
</g>
<!-- Node26 -->
<g id="Node000026" class="node">
<title>Node26</title>
<g id="a_Node000026"><a xlink:href="classnixf_1_1ExprString.html" target="_top" xlink:title=" ">
<polygon fill="white" stroke="#666666" points="361.5,-117.75 271.25,-117.75 271.25,-97 361.5,-97 361.5,-117.75"/>
<text text-anchor="middle" x="316.38" y="-104.25" font-family="Helvetica,sans-Serif" font-size="10.00">nixf::ExprString</text>
</a>
</g>
</g>
<!-- Node7&#45;&gt;Node26 -->
<g id="edge25_Node000007_Node000026" class="edge">
<title>Node7&#45;&gt;Node26</title>
<g id="a_edge25_Node000007_Node000026"><a xlink:title=" ">
<path fill="none" stroke="#63b8ff" d="M205.25,-354.52C212.64,-351.57 219.61,-347.36 224.75,-341.38 287.57,-268.2 199.12,-201.56 260.75,-127.38 263.85,-123.65 267.7,-120.61 271.93,-118.14"/>
<polygon fill="#63b8ff" stroke="#63b8ff" points="204.2,-351.18 195.74,-357.54 206.33,-357.85 204.2,-351.18"/>
</a>
</g>
</g>
<!-- Node27 -->
<g id="Node000027" class="node">
<title>Node27</title>
<g id="a_Node000027"><a xlink:href="classnixf_1_1ExprVar.html" target="_top" xlink:title=" ">
<polygon fill="white" stroke="#666666" points="355.12,-78.75 277.62,-78.75 277.62,-58 355.12,-58 355.12,-78.75"/>
<text text-anchor="middle" x="316.38" y="-65.25" font-family="Helvetica,sans-Serif" font-size="10.00">nixf::ExprVar</text>
</a>
</g>
</g>
<!-- Node7&#45;&gt;Node27 -->
<g id="edge26_Node000007_Node000027" class="edge">
<title>Node7&#45;&gt;Node27</title>
<g id="a_edge26_Node000007_Node000027"><a xlink:title=" ">
<path fill="none" stroke="#63b8ff" d="M205.37,-354.62C212.75,-351.66 219.68,-347.43 224.75,-341.38 297.64,-254.27 189.28,-176.65 260.75,-88.38 265.07,-83.04 270.95,-79.12 277.26,-76.26"/>
<polygon fill="#63b8ff" stroke="#63b8ff" points="204.32,-351.28 195.85,-357.64 206.44,-357.95 204.32,-351.28"/>
</a>
</g>
</g>
<!-- Node28 -->
<g id="Node000028" class="node">
<title>Node28</title>
<g id="a_Node000028"><a xlink:href="classnixf_1_1ExprWith.html" target="_top" xlink:title=" ">
<polygon fill="white" stroke="#666666" points="358.5,-39.75 274.25,-39.75 274.25,-19 358.5,-19 358.5,-39.75"/>
<text text-anchor="middle" x="316.38" y="-26.25" font-family="Helvetica,sans-Serif" font-size="10.00">nixf::ExprWith</text>
</a>
</g>
</g>
<!-- Node7&#45;&gt;Node28 -->
<g id="edge27_Node000007_Node000028" class="edge">
<title>Node7&#45;&gt;Node28</title>
<g id="a_edge27_Node000007_Node000028"><a xlink:title=" ">
<path fill="none" stroke="#63b8ff" d="M205.46,-354.69C212.83,-351.73 219.74,-347.48 224.75,-341.38 307.72,-240.31 179.42,-151.77 260.75,-49.38 264.27,-44.95 268.86,-41.5 273.89,-38.81"/>
<polygon fill="#63b8ff" stroke="#63b8ff" points="204.41,-351.35 195.94,-357.72 206.53,-358.02 204.41,-351.35"/>
</a>
</g>
</g>
<!-- Node19 -->
<g id="Node000019" class="node">
<title>Node19</title>
<g id="a_Node000019"><a xlink:href="classnixf_1_1ExprBinOp.html" target="_top" xlink:title=" ">
<polygon fill="white" stroke="#666666" points="509.5,-351.75 418.5,-351.75 418.5,-331 509.5,-331 509.5,-351.75"/>
<text text-anchor="middle" x="464" y="-338.25" font-family="Helvetica,sans-Serif" font-size="10.00">nixf::ExprBinOp</text>
</a>
</g>
</g>
<!-- Node18&#45;&gt;Node19 -->
<g id="edge18_Node000018_Node000019" class="edge">
<title>Node18&#45;&gt;Node19</title>
<g id="a_edge18_Node000018_Node000019"><a xlink:title=" ">
<path fill="none" stroke="#63b8ff" d="M365.38,-315.23C383.91,-320.19 404.88,-325.81 422.62,-330.56"/>
<polygon fill="#63b8ff" stroke="#63b8ff" points="366.53,-311.91 355.96,-312.71 364.72,-318.68 366.53,-311.91"/>
</a>
</g>
</g>
<!-- Node20 -->
<g id="Node000020" class="node">
<title>Node20</title>
<g id="a_Node000020"><a xlink:href="classnixf_1_1ExprOpHasAttr.html" target="_top" xlink:title=" ">
<polygon fill="white" stroke="#666666" points="520,-312.75 408,-312.75 408,-292 520,-292 520,-312.75"/>
<text text-anchor="middle" x="464" y="-299.25" font-family="Helvetica,sans-Serif" font-size="10.00">nixf::ExprOpHasAttr</text>
</a>
</g>
</g>
<!-- Node18&#45;&gt;Node20 -->
<g id="edge19_Node000018_Node000020" class="edge">
<title>Node18&#45;&gt;Node20</title>
<g id="a_edge19_Node000018_Node000020"><a xlink:title=" ">
<path fill="none" stroke="#63b8ff" d="M365.86,-302.38C379.21,-302.38 393.8,-302.38 407.51,-302.38"/>
<polygon fill="#63b8ff" stroke="#63b8ff" points="366.01,-298.88 356.01,-302.38 366.01,-305.88 366.01,-298.88"/>
</a>
</g>
</g>
<!-- Node21 -->
<g id="Node000021" class="node">
<title>Node21</title>
<g id="a_Node000021"><a xlink:href="classnixf_1_1ExprUnaryOp.html" target="_top" xlink:title=" ">
<polygon fill="white" stroke="#666666" points="516.25,-273.75 411.75,-273.75 411.75,-253 516.25,-253 516.25,-273.75"/>
<text text-anchor="middle" x="464" y="-260.25" font-family="Helvetica,sans-Serif" font-size="10.00">nixf::ExprUnaryOp</text>
</a>
</g>
</g>
<!-- Node18&#45;&gt;Node21 -->
<g id="edge20_Node000018_Node000021" class="edge">
<title>Node18&#45;&gt;Node21</title>
<g id="a_edge20_Node000018_Node000021"><a xlink:title=" ">
<path fill="none" stroke="#63b8ff" d="M365.38,-289.52C383.91,-284.56 404.88,-278.94 422.62,-274.19"/>
<polygon fill="#63b8ff" stroke="#63b8ff" points="364.72,-286.07 355.96,-292.04 366.53,-292.84 364.72,-286.07"/>
</a>
</g>
</g>
</g>
</svg>
