<?xml version="1.0" encoding="UTF-8" standalone="no"?>
<!DOCTYPE svg PUBLIC "-//W3C//DTD SVG 1.1//EN"
 "http://www.w3.org/Graphics/SVG/1.1/DTD/svg11.dtd">
<!-- Generated by graphviz version 12.2.1 (0)
 -->
<!-- Title: nixd::Controller Pages: 1 -->
<svg width="320pt" height="162pt"
 viewBox="0.00 0.00 320.25 162.00" xmlns="http://www.w3.org/2000/svg" xmlns:xlink="http://www.w3.org/1999/xlink">
<g id="graph0" class="graph" transform="scale(1 1) rotate(0) translate(4 158)">
<title>nixd::Controller</title>
<!-- Node1 -->
<g id="Node000001" class="node">
<title>Node1</title>
<g id="a_Node000001"><a xlink:title=" ">
<polygon fill="#999999" stroke="#666666" points="201.88,-20.75 110.88,-20.75 110.88,0 201.88,0 201.88,-20.75"/>
<text text-anchor="middle" x="156.38" y="-7.25" font-family="Helvetica,sans-Serif" font-size="10.00">nixd::Controller</text>
</a>
</g>
</g>
<!-- Node2 -->
<g id="Node000002" class="node">
<title>Node2</title>
<g id="a_Node000002"><a xlink:href="classlspserver_1_1LSPServer.html" target="_top" xlink:title=" ">
<polygon fill="white" stroke="#666666" points="214.25,-78.5 98.5,-78.5 98.5,-57.75 214.25,-57.75 214.25,-78.5"/>
<text text-anchor="middle" x="156.38" y="-65" font-family="Helvetica,sans-Serif" font-size="10.00">lspserver::LSPServer</text>
</a>
</g>
</g>
<!-- Node2&#45;&gt;Node1 -->
<g id="edge1_Node000001_Node000002" class="edge">
<title>Node2&#45;&gt;Node1</title>
<g id="a_edge1_Node000001_Node000002"><a xlink:title=" ">
<path fill="none" stroke="#63b8ff" d="M156.38,-46.18C156.38,-37.52 156.38,-27.9 156.38,-20.97"/>
<polygon fill="#63b8ff" stroke="#63b8ff" points="152.88,-45.9 156.38,-55.9 159.88,-45.9 152.88,-45.9"/>
</a>
</g>
</g>
<!-- Node3 -->
<g id="Node000003" class="node">
<title>Node3</title>
<g id="a_Node000003"><a xlink:href="classlspserver_1_1MessageHandler.html" target="_top" xlink:title=" ">
<polygon fill="white" stroke="#666666" points="148.75,-154 0,-154 0,-133.25 148.75,-133.25 148.75,-154"/>
<text text-anchor="middle" x="74.38" y="-140.5" font-family="Helvetica,sans-Serif" font-size="10.00">lspserver::MessageHandler</text>
</a>
</g>
</g>
<!-- Node3&#45;&gt;Node2 -->
<g id="edge2_Node000002_Node000003" class="edge">
<title>Node3&#45;&gt;Node2</title>
<g id="a_edge2_Node000002_Node000003"><a xlink:title=" ">
<path fill="none" stroke="#63b8ff" d="M93.29,-125.67C109.43,-111.2 132.08,-90.9 145.39,-78.97"/>
<polygon fill="#63b8ff" stroke="#63b8ff" points="91.33,-122.73 86.22,-132.01 96,-127.94 91.33,-122.73"/>
</a>
</g>
</g>
<!-- Node4 -->
<g id="Node000004" class="node">
<title>Node4</title>
<g id="a_Node000004"><a xlink:href="structlspserver_1_1HandlerRegistry.html" target="_top" xlink:title=" ">
<polygon fill="white" stroke="#666666" points="312.25,-154 166.5,-154 166.5,-133.25 312.25,-133.25 312.25,-154"/>
<text text-anchor="middle" x="239.38" y="-140.5" font-family="Helvetica,sans-Serif" font-size="10.00">lspserver::HandlerRegistry</text>
</a>
</g>
</g>
<!-- Node4&#45;&gt;Node2 -->
<g id="edge3_Node000002_Node000004" class="edge">
<title>Node4&#45;&gt;Node2</title>
<g id="a_edge3_Node000002_Node000004"><a xlink:title=" ">
<path fill="none" stroke="#9a32cd" stroke-dasharray="5,2" d="M220.23,-125.67C203.89,-111.2 180.97,-90.9 167.49,-78.97"/>
<polygon fill="#9a32cd" stroke="#9a32cd" points="217.58,-128 227.39,-132.01 222.22,-122.76 217.58,-128"/>
</a>
</g>
<text text-anchor="start" x="210.75" y="-102.75" font-family="Helvetica,sans-Serif" font-size="10.00" fill="grey">Registry</text>
</g>
</g>
</svg>
