<?xml version="1.0" encoding="UTF-8" standalone="no"?>
<!DOCTYPE svg PUBLIC "-//W3C//DTD SVG 1.1//EN"
 "http://www.w3.org/Graphics/SVG/1.1/DTD/svg11.dtd">
<!-- Generated by graphviz version 12.2.1 (0)
 -->
<!-- Title: nixd::JSONParseException Pages: 1 -->
<svg width="149pt" height="142pt"
 viewBox="0.00 0.00 149.25 142.25" xmlns="http://www.w3.org/2000/svg" xmlns:xlink="http://www.w3.org/1999/xlink">
<g id="graph0" class="graph" transform="scale(1 1) rotate(0) translate(4 138.25)">
<title>nixd::JSONParseException</title>
<!-- Node1 -->
<g id="Node000001" class="node">
<title>Node1</title>
<g id="a_Node000001"><a xlink:title=" ">
<polygon fill="#999999" stroke="#666666" points="141.25,-20.75 0,-20.75 0,0 141.25,0 141.25,-20.75"/>
<text text-anchor="middle" x="70.62" y="-7.25" font-family="Helvetica,sans-Serif" font-size="10.00">nixd::JSONParseException</text>
</a>
</g>
</g>
<!-- Node2 -->
<g id="Node000002" class="node">
<title>Node2</title>
<g id="a_Node000002"><a xlink:href="classnixd_1_1LLVMErrorException.html" target="_top" xlink:title=" ">
<polygon fill="white" stroke="#666666" points="140.5,-77.5 0.75,-77.5 0.75,-56.75 140.5,-56.75 140.5,-77.5"/>
<text text-anchor="middle" x="70.62" y="-64" font-family="Helvetica,sans-Serif" font-size="10.00">nixd::LLVMErrorException</text>
</a>
</g>
</g>
<!-- Node2&#45;&gt;Node1 -->
<g id="edge1_Node000001_Node000002" class="edge">
<title>Node2&#45;&gt;Node1</title>
<g id="a_edge1_Node000001_Node000002"><a xlink:title=" ">
<path fill="none" stroke="#63b8ff" d="M70.62,-44.88C70.62,-36.66 70.62,-27.68 70.62,-21.08"/>
<polygon fill="#63b8ff" stroke="#63b8ff" points="67.13,-44.82 70.63,-54.82 74.13,-44.82 67.13,-44.82"/>
</a>
</g>
</g>
<!-- Node3 -->
<g id="Node000003" class="node">
<title>Node3</title>
<g id="a_Node000003"><a xlink:title=" ">
<polygon fill="white" stroke="#666666" points="113.12,-134.25 28.12,-134.25 28.12,-113.5 113.12,-113.5 113.12,-134.25"/>
<text text-anchor="middle" x="70.62" y="-120.75" font-family="Helvetica,sans-Serif" font-size="10.00">std::exception</text>
</a>
</g>
</g>
<!-- Node3&#45;&gt;Node2 -->
<g id="edge2_Node000002_Node000003" class="edge">
<title>Node3&#45;&gt;Node2</title>
<g id="a_edge2_Node000002_Node000003"><a xlink:title=" ">
<path fill="none" stroke="#63b8ff" d="M70.62,-101.63C70.62,-93.41 70.62,-84.43 70.62,-77.83"/>
<polygon fill="#63b8ff" stroke="#63b8ff" points="67.13,-101.57 70.63,-111.57 74.13,-101.57 67.13,-101.57"/>
</a>
</g>
</g>
</g>
</svg>
