<?xml version="1.0" encoding="UTF-8" standalone="no"?>
<!DOCTYPE svg PUBLIC "-//W3C//DTD SVG 1.1//EN"
 "http://www.w3.org/Graphics/SVG/1.1/DTD/svg11.dtd">
<!-- Generated by graphviz version 12.2.1 (0)
 -->
<!-- Title: nixd Pages: 1 -->
<svg width="300pt" height="301pt"
 viewBox="0.00 0.00 300.38 300.50" xmlns="http://www.w3.org/2000/svg" xmlns:xlink="http://www.w3.org/1999/xlink">
<g id="graph0" class="graph" transform="scale(1 1) rotate(0) translate(4 296.5)">
<title>nixd</title>
<g id="clust1" class="cluster">
<title>clusterdir_6072663c54edb131dd9eabf55cf77072</title>
<g id="a_clust1"><a xlink:href="dir_6072663c54edb131dd9eabf55cf77072.html" target="_top" xlink:title="include">
<polygon fill="#edf0f7" stroke="#7f7f7f" stroke-dasharray="5,2" points="8,-40.75 8,-284.5 182,-284.5 182,-40.75 8,-40.75"/>
<text text-anchor="middle" x="95" y="-271" font-family="Helvetica,sans-Serif" font-size="10.00">include</text>
</a>
</g>
</g>
<g id="clust2" class="cluster">
<title>clusterdir_78474edbfdb26b7810ef0ed54a6ffeb0</title>
<g id="a_clust2"><a xlink:href="dir_78474edbfdb26b7810ef0ed54a6ffeb0.html" target="_top">
<polygon fill="#edf0f7" stroke="#404040" stroke-width="2" points="16,-48.75 16,-255.75 174,-255.75 174,-48.75 16,-48.75"/>
</a>
</g>
</g>
<!-- dir_78474edbfdb26b7810ef0ed54a6ffeb0 -->
<g id="node1" class="node">
<title>dir_78474edbfdb26b7810ef0ed54a6ffeb0</title>
<text text-anchor="middle" x="43" y="-234.25" font-family="Helvetica,sans-Serif" font-size="10.00">nixd</text>
</g>
<!-- dir_0842f02ee6fc0ecc9c7973a56a3aa437 -->
<g id="node2" class="node">
<title>dir_0842f02ee6fc0ecc9c7973a56a3aa437</title>
<g id="a_node2"><a xlink:href="dir_0842f02ee6fc0ecc9c7973a56a3aa437.html" target="_top" xlink:title="CommandLine">
<polygon fill="#a2b4d6" stroke="#404040" points="166.25,-247.75 79.75,-247.75 79.75,-227 166.25,-227 166.25,-247.75"/>
<text text-anchor="middle" x="123" y="-234.25" font-family="Helvetica,sans-Serif" font-size="10.00">CommandLine</text>
</a>
</g>
</g>
<!-- dir_1b739488bd9a560c1a1a4ec4ac74c381 -->
<g id="node3" class="node">
<title>dir_1b739488bd9a560c1a1a4ec4ac74c381</title>
<g id="a_node3"><a xlink:href="dir_1b739488bd9a560c1a1a4ec4ac74c381.html" target="_top" xlink:title="Controller">
<polygon fill="#a2b4d6" stroke="#404040" points="156,-191 92,-191 92,-170.25 156,-170.25 156,-191"/>
<text text-anchor="middle" x="124" y="-177.5" font-family="Helvetica,sans-Serif" font-size="10.00">Controller</text>
</a>
</g>
</g>
<!-- dir_0842f02ee6fc0ecc9c7973a56a3aa437&#45;&gt;dir_1b739488bd9a560c1a1a4ec4ac74c381 -->
<g id="edge1" class="edge">
<title>dir_0842f02ee6fc0ecc9c7973a56a3aa437&#45;&gt;dir_1b739488bd9a560c1a1a4ec4ac74c381</title>
<g id="a_edge1"><a xlink:href="dir_000002_000004.html" target="_top">
<path fill="none" stroke="#63b8ff" d="M123.18,-226.59C123.3,-219.97 123.46,-210.97 123.61,-202.77"/>
<polygon fill="#63b8ff" stroke="#63b8ff" points="127.11,-202.9 123.8,-192.84 120.11,-202.78 127.11,-202.9"/>
</a>
</g>
<g id="a_edge1&#45;headlabel"><a xlink:href="dir_000002_000004.html" target="_top" xlink:title="1">
<text text-anchor="middle" x="129.91" y="-201.91" font-family="Helvetica,sans-Serif" font-size="10.00" fill="#63b8ff">1</text>
</a>
</g>
</g>
<!-- dir_5d9174fd82c34d170442a81ddb0d3867 -->
<g id="node4" class="node">
<title>dir_5d9174fd82c34d170442a81ddb0d3867</title>
<g id="a_node4"><a xlink:href="dir_5d9174fd82c34d170442a81ddb0d3867.html" target="_top" xlink:title="Eval">
<polygon fill="#a2b4d6" stroke="#404040" points="134.5,-134.25 97.5,-134.25 97.5,-113.5 134.5,-113.5 134.5,-134.25"/>
<text text-anchor="middle" x="116" y="-120.75" font-family="Helvetica,sans-Serif" font-size="10.00">Eval</text>
</a>
</g>
</g>
<!-- dir_1b739488bd9a560c1a1a4ec4ac74c381&#45;&gt;dir_5d9174fd82c34d170442a81ddb0d3867 -->
<g id="edge3" class="edge">
<title>dir_1b739488bd9a560c1a1a4ec4ac74c381&#45;&gt;dir_5d9174fd82c34d170442a81ddb0d3867</title>
<g id="a_edge3"><a xlink:href="dir_000004_000008.html" target="_top">
<path fill="none" stroke="#63b8ff" d="M122.57,-169.84C121.59,-163.14 120.26,-154.01 119.05,-145.73"/>
<polygon fill="#63b8ff" stroke="#63b8ff" points="122.55,-145.46 117.64,-136.08 115.62,-146.48 122.55,-145.46"/>
</a>
</g>
<g id="a_edge3&#45;headlabel"><a xlink:href="dir_000004_000008.html" target="_top" xlink:title="1">
<text text-anchor="middle" x="125.66" y="-143.99" font-family="Helvetica,sans-Serif" font-size="10.00" fill="#63b8ff">1</text>
</a>
</g>
</g>
<!-- dir_fae1b722d580b1d4896c7d9500c560d0 -->
<g id="node5" class="node">
<title>dir_fae1b722d580b1d4896c7d9500c560d0</title>
<g id="a_node5"><a xlink:href="dir_fae1b722d580b1d4896c7d9500c560d0.html" target="_top" xlink:title="Protocol">
<polygon fill="#a2b4d6" stroke="#404040" points="79.88,-77.5 24.12,-77.5 24.12,-56.75 79.88,-56.75 79.88,-77.5"/>
<text text-anchor="middle" x="52" y="-64" font-family="Helvetica,sans-Serif" font-size="10.00">Protocol</text>
</a>
</g>
</g>
<!-- dir_1b739488bd9a560c1a1a4ec4ac74c381&#45;&gt;dir_fae1b722d580b1d4896c7d9500c560d0 -->
<g id="edge6" class="edge">
<title>dir_1b739488bd9a560c1a1a4ec4ac74c381&#45;&gt;dir_fae1b722d580b1d4896c7d9500c560d0</title>
<g id="a_edge6"><a xlink:href="dir_000004_000027.html" target="_top">
<path fill="none" stroke="#63b8ff" d="M115.78,-169.84C108.39,-160.86 97.44,-147.04 89,-134.25 79.03,-119.16 69.1,-101.2 62.04,-87.81"/>
<polygon fill="#63b8ff" stroke="#63b8ff" points="65.25,-86.41 57.54,-79.14 59.04,-89.63 65.25,-86.41"/>
</a>
</g>
<g id="a_edge6&#45;headlabel"><a xlink:href="dir_000004_000027.html" target="_top" xlink:title="1">
<text text-anchor="middle" x="68.73" y="-83.82" font-family="Helvetica,sans-Serif" font-size="10.00" fill="#63b8ff">1</text>
</a>
</g>
</g>
<!-- dir_0a80291a1162a19961e2bbfd790094c7 -->
<g id="node6" class="node">
<title>dir_0a80291a1162a19961e2bbfd790094c7</title>
<g id="a_node6"><a xlink:href="dir_0a80291a1162a19961e2bbfd790094c7.html" target="_top" xlink:title="Support">
<polygon fill="#a2b4d6" stroke="#404040" points="151.75,-77.5 98.25,-77.5 98.25,-56.75 151.75,-56.75 151.75,-77.5"/>
<text text-anchor="middle" x="125" y="-64" font-family="Helvetica,sans-Serif" font-size="10.00">Support</text>
</a>
</g>
</g>
<!-- dir_1b739488bd9a560c1a1a4ec4ac74c381&#45;&gt;dir_0a80291a1162a19961e2bbfd790094c7 -->
<g id="edge2" class="edge">
<title>dir_1b739488bd9a560c1a1a4ec4ac74c381&#45;&gt;dir_0a80291a1162a19961e2bbfd790094c7</title>
<g id="a_edge2"><a xlink:href="dir_000004_000033.html" target="_top">
<path fill="none" stroke="#63b8ff" d="M129.69,-169.93C134.59,-161.01 141.27,-147.22 144,-134.25 147.31,-118.52 141.89,-101.05 136,-88.03"/>
<polygon fill="#63b8ff" stroke="#63b8ff" points="139.2,-86.6 131.6,-79.23 132.95,-89.73 139.2,-86.6"/>
</a>
</g>
<g id="a_edge2&#45;headlabel"><a xlink:href="dir_000004_000033.html" target="_top" xlink:title="2">
<text text-anchor="middle" x="142.67" y="-84.06" font-family="Helvetica,sans-Serif" font-size="10.00" fill="#63b8ff">2</text>
</a>
</g>
</g>
<!-- dir_5def0a8c33681ccffd5a1a329ca9c6c2 -->
<g id="node7" class="node">
<title>dir_5def0a8c33681ccffd5a1a329ca9c6c2</title>
<g id="a_node7"><a xlink:href="dir_5def0a8c33681ccffd5a1a329ca9c6c2.html" target="_top" xlink:title="lspserver">
<polygon fill="#edf0f7" stroke="red" stroke-dasharray="5,2" points="182.5,-20.75 121.5,-20.75 121.5,0 182.5,0 182.5,-20.75"/>
<text text-anchor="middle" x="152" y="-7.25" font-family="Helvetica,sans-Serif" font-size="10.00">lspserver</text>
</a>
</g>
</g>
<!-- dir_1b739488bd9a560c1a1a4ec4ac74c381&#45;&gt;dir_5def0a8c33681ccffd5a1a329ca9c6c2 -->
<g id="edge4" class="edge">
<title>dir_1b739488bd9a560c1a1a4ec4ac74c381&#45;&gt;dir_5def0a8c33681ccffd5a1a329ca9c6c2</title>
<g id="a_edge4"><a xlink:href="dir_000004_000018.html" target="_top">
<path fill="none" stroke="#63b8ff" d="M131.28,-169.87C143.76,-152.44 168.69,-114.33 177,-77.5 180.6,-61.57 182.64,-56.08 177,-40.75 175.57,-36.86 173.37,-33.14 170.86,-29.72"/>
<polygon fill="#63b8ff" stroke="#63b8ff" points="173.52,-27.45 164.31,-22.19 168.23,-32.04 173.52,-27.45"/>
</a>
</g>
<g id="a_edge4&#45;headlabel"><a xlink:href="dir_000004_000018.html" target="_top" xlink:title="4">
<text text-anchor="middle" x="177.02" y="-24.03" font-family="Helvetica,sans-Serif" font-size="10.00" fill="#63b8ff">4</text>
</a>
</g>
</g>
<!-- dir_9ff0e04ed484c0229c3bd8fc4cfe4cb8 -->
<g id="node8" class="node">
<title>dir_9ff0e04ed484c0229c3bd8fc4cfe4cb8</title>
<g id="a_node8"><a xlink:href="dir_9ff0e04ed484c0229c3bd8fc4cfe4cb8.html" target="_top" xlink:title="libnixf">
<polygon fill="#edf0f7" stroke="red" points="292.38,-134.25 245.62,-134.25 245.62,-113.5 292.38,-113.5 292.38,-134.25"/>
<text text-anchor="middle" x="269" y="-120.75" font-family="Helvetica,sans-Serif" font-size="10.00">libnixf</text>
</a>
</g>
</g>
<!-- dir_1b739488bd9a560c1a1a4ec4ac74c381&#45;&gt;dir_9ff0e04ed484c0229c3bd8fc4cfe4cb8 -->
<g id="edge5" class="edge">
<title>dir_1b739488bd9a560c1a1a4ec4ac74c381&#45;&gt;dir_9ff0e04ed484c0229c3bd8fc4cfe4cb8</title>
<g id="a_edge5"><a xlink:href="dir_000004_000016.html" target="_top">
<path fill="none" stroke="#63b8ff" d="M149.92,-169.84C173.59,-160.9 208.73,-147.63 234.71,-137.82"/>
<polygon fill="#63b8ff" stroke="#63b8ff" points="235.69,-141.19 243.81,-134.39 233.22,-134.65 235.69,-141.19"/>
</a>
</g>
<g id="a_edge5&#45;headlabel"><a xlink:href="dir_000004_000016.html" target="_top" xlink:title="5">
<text text-anchor="middle" x="234.74" y="-141.46" font-family="Helvetica,sans-Serif" font-size="10.00" fill="#63b8ff">5</text>
</a>
</g>
</g>
<!-- dir_5d9174fd82c34d170442a81ddb0d3867&#45;&gt;dir_fae1b722d580b1d4896c7d9500c560d0 -->
<g id="edge9" class="edge">
<title>dir_5d9174fd82c34d170442a81ddb0d3867&#45;&gt;dir_fae1b722d580b1d4896c7d9500c560d0</title>
<g id="a_edge9"><a xlink:href="dir_000008_000027.html" target="_top">
<path fill="none" stroke="#63b8ff" d="M104.56,-113.09C95.55,-105.38 82.77,-94.45 72.07,-85.29"/>
<polygon fill="#63b8ff" stroke="#63b8ff" points="74.37,-82.65 64.49,-78.81 69.82,-87.97 74.37,-82.65"/>
</a>
</g>
<g id="a_edge9&#45;headlabel"><a xlink:href="dir_000008_000027.html" target="_top" xlink:title="3">
<text text-anchor="middle" x="77.79" y="-78.72" font-family="Helvetica,sans-Serif" font-size="10.00" fill="#63b8ff">3</text>
</a>
</g>
</g>
<!-- dir_5d9174fd82c34d170442a81ddb0d3867&#45;&gt;dir_0a80291a1162a19961e2bbfd790094c7 -->
<g id="edge7" class="edge">
<title>dir_5d9174fd82c34d170442a81ddb0d3867&#45;&gt;dir_0a80291a1162a19961e2bbfd790094c7</title>
<g id="a_edge7"><a xlink:href="dir_000008_000033.html" target="_top">
<path fill="none" stroke="#63b8ff" d="M117.61,-113.09C118.71,-106.39 120.21,-97.26 121.57,-88.98"/>
<polygon fill="#63b8ff" stroke="#63b8ff" points="124.99,-89.76 123.16,-79.32 118.08,-88.62 124.99,-89.76"/>
</a>
</g>
<g id="a_edge7&#45;headlabel"><a xlink:href="dir_000008_000033.html" target="_top" xlink:title="1">
<text text-anchor="middle" x="127.46" y="-89.15" font-family="Helvetica,sans-Serif" font-size="10.00" fill="#63b8ff">1</text>
</a>
</g>
</g>
<!-- dir_5d9174fd82c34d170442a81ddb0d3867&#45;&gt;dir_5def0a8c33681ccffd5a1a329ca9c6c2 -->
<g id="edge8" class="edge">
<title>dir_5d9174fd82c34d170442a81ddb0d3867&#45;&gt;dir_5def0a8c33681ccffd5a1a329ca9c6c2</title>
<g id="a_edge8"><a xlink:href="dir_000008_000018.html" target="_top">
<path fill="none" stroke="#63b8ff" d="M130.37,-113.24C141.06,-105.13 154.83,-92.48 161,-77.5 167.01,-62.92 164.08,-45.15 160.02,-31.7"/>
<polygon fill="#63b8ff" stroke="#63b8ff" points="163.45,-30.91 156.86,-22.62 156.84,-33.21 163.45,-30.91"/>
</a>
</g>
<g id="a_edge8&#45;headlabel"><a xlink:href="dir_000008_000018.html" target="_top" xlink:title="4">
<text text-anchor="middle" x="166.82" y="-28.82" font-family="Helvetica,sans-Serif" font-size="10.00" fill="#63b8ff">4</text>
</a>
</g>
</g>
<!-- dir_fae1b722d580b1d4896c7d9500c560d0&#45;&gt;dir_5def0a8c33681ccffd5a1a329ca9c6c2 -->
<g id="edge10" class="edge">
<title>dir_fae1b722d580b1d4896c7d9500c560d0&#45;&gt;dir_5def0a8c33681ccffd5a1a329ca9c6c2</title>
<g id="a_edge10"><a xlink:href="dir_000027_000018.html" target="_top">
<path fill="none" stroke="#63b8ff" d="M65.02,-56.42C71.96,-51.44 80.75,-45.46 89,-40.75 98.21,-35.49 108.53,-30.38 118.1,-25.93"/>
<polygon fill="#63b8ff" stroke="#63b8ff" points="119.45,-29.16 127.12,-21.85 116.57,-22.79 119.45,-29.16"/>
</a>
</g>
<g id="a_edge10&#45;headlabel"><a xlink:href="dir_000027_000018.html" target="_top" xlink:title="1">
<text text-anchor="middle" x="118.73" y="-29.48" font-family="Helvetica,sans-Serif" font-size="10.00" fill="#63b8ff">1</text>
</a>
</g>
</g>
<!-- dir_0a80291a1162a19961e2bbfd790094c7&#45;&gt;dir_5def0a8c33681ccffd5a1a329ca9c6c2 -->
<g id="edge11" class="edge">
<title>dir_0a80291a1162a19961e2bbfd790094c7&#45;&gt;dir_5def0a8c33681ccffd5a1a329ca9c6c2</title>
<g id="a_edge11"><a xlink:href="dir_000033_000018.html" target="_top">
<path fill="none" stroke="#63b8ff" d="M129.83,-56.34C133.24,-49.41 137.95,-39.87 142.14,-31.36"/>
<polygon fill="#63b8ff" stroke="#63b8ff" points="145.26,-32.95 146.55,-22.44 138.98,-29.86 145.26,-32.95"/>
</a>
</g>
<g id="a_edge11&#45;headlabel"><a xlink:href="dir_000033_000018.html" target="_top" xlink:title="1">
<text text-anchor="middle" x="146.89" y="-32.95" font-family="Helvetica,sans-Serif" font-size="10.00" fill="#63b8ff">1</text>
</a>
</g>
</g>
</g>
</svg>
