<?xml version="1.0" encoding="UTF-8" standalone="no"?>
<!DOCTYPE svg PUBLIC "-//W3C//DTD SVG 1.1//EN"
 "http://www.w3.org/Graphics/SVG/1.1/DTD/svg11.dtd">
<!-- Generated by graphviz version 10.0.1 (0)
 -->
<!-- Title: nixd Pages: 1 -->
<svg width="428pt" height="244pt"
 viewBox="0.00 0.00 428.38 243.75" xmlns="http://www.w3.org/2000/svg" xmlns:xlink="http://www.w3.org/1999/xlink">
<g id="graph0" class="graph" transform="scale(1 1) rotate(0) translate(4 239.75)">
<title>nixd</title>
<g id="clust1" class="cluster">
<title>clusterdir_6072663c54edb131dd9eabf55cf77072</title>
<g id="a_clust1"><a xlink:href="dir_6072663c54edb131dd9eabf55cf77072.html" target="_top" xlink:title="include">
<polygon fill="#edf0f7" stroke="#7f7f7f" stroke-dasharray="5,2" points="8,-40.75 8,-227.75 264,-227.75 264,-40.75 8,-40.75"/>
<text text-anchor="middle" x="136" y="-214.25" font-family="Helvetica,sans-Serif" font-size="10.00">include</text>
</a>
</g>
</g>
<g id="clust2" class="cluster">
<title>clusterdir_78474edbfdb26b7810ef0ed54a6ffeb0</title>
<g id="a_clust2"><a xlink:href="dir_78474edbfdb26b7810ef0ed54a6ffeb0.html" target="_top">
<polygon fill="#edf0f7" stroke="#404040" stroke-width="2" points="16,-48.75 16,-199 256,-199 256,-48.75 16,-48.75"/>
</a>
</g>
</g>
<!-- dir_78474edbfdb26b7810ef0ed54a6ffeb0 -->
<g id="node1" class="node">
<title>dir_78474edbfdb26b7810ef0ed54a6ffeb0</title>
<text text-anchor="middle" x="43" y="-177.5" font-family="Helvetica,sans-Serif" font-size="10.00">nixd</text>
</g>
<!-- dir_0842f02ee6fc0ecc9c7973a56a3aa437 -->
<g id="node2" class="node">
<title>dir_0842f02ee6fc0ecc9c7973a56a3aa437</title>
<g id="a_node2"><a xlink:href="dir_0842f02ee6fc0ecc9c7973a56a3aa437.html" target="_top" xlink:title="CommandLine">
<polygon fill="#a2b4d6" stroke="#404040" points="166.25,-191 79.75,-191 79.75,-170.25 166.25,-170.25 166.25,-191"/>
<text text-anchor="middle" x="123" y="-177.5" font-family="Helvetica,sans-Serif" font-size="10.00">CommandLine</text>
</a>
</g>
</g>
<!-- dir_1b739488bd9a560c1a1a4ec4ac74c381 -->
<g id="node3" class="node">
<title>dir_1b739488bd9a560c1a1a4ec4ac74c381</title>
<g id="a_node3"><a xlink:href="dir_1b739488bd9a560c1a1a4ec4ac74c381.html" target="_top" xlink:title="Controller">
<polygon fill="#a2b4d6" stroke="#404040" points="248,-191 184,-191 184,-170.25 248,-170.25 248,-191"/>
<text text-anchor="middle" x="216" y="-177.5" font-family="Helvetica,sans-Serif" font-size="10.00">Controller</text>
</a>
</g>
</g>
<!-- dir_5d9174fd82c34d170442a81ddb0d3867 -->
<g id="node4" class="node">
<title>dir_5d9174fd82c34d170442a81ddb0d3867</title>
<g id="a_node4"><a xlink:href="dir_5d9174fd82c34d170442a81ddb0d3867.html" target="_top" xlink:title="Eval">
<polygon fill="#a2b4d6" stroke="#404040" points="245.5,-134.25 208.5,-134.25 208.5,-113.5 245.5,-113.5 245.5,-134.25"/>
<text text-anchor="middle" x="227" y="-120.75" font-family="Helvetica,sans-Serif" font-size="10.00">Eval</text>
</a>
</g>
</g>
<!-- dir_1b739488bd9a560c1a1a4ec4ac74c381&#45;&gt;dir_5d9174fd82c34d170442a81ddb0d3867 -->
<g id="edge2" class="edge">
<title>dir_1b739488bd9a560c1a1a4ec4ac74c381&#45;&gt;dir_5d9174fd82c34d170442a81ddb0d3867</title>
<g id="a_edge2"><a xlink:href="dir_000004_000008.html" target="_top">
<path fill="none" stroke="#63b8ff" d="M217.97,-169.84C219.31,-163.14 221.15,-154.01 222.81,-145.73"/>
<polygon fill="#63b8ff" stroke="#63b8ff" points="226.21,-146.56 224.75,-136.06 219.35,-145.18 226.21,-146.56"/>
</a>
</g>
<g id="a_edge2&#45;headlabel"><a xlink:href="dir_000004_000008.html" target="_top" xlink:title="1">
<text text-anchor="middle" x="228.59" y="-146.03" font-family="Helvetica,sans-Serif" font-size="10.00" fill="#63b8ff">1</text>
</a>
</g>
</g>
<!-- dir_fae1b722d580b1d4896c7d9500c560d0 -->
<g id="node5" class="node">
<title>dir_fae1b722d580b1d4896c7d9500c560d0</title>
<g id="a_node5"><a xlink:href="dir_fae1b722d580b1d4896c7d9500c560d0.html" target="_top" xlink:title="Protocol">
<polygon fill="#a2b4d6" stroke="#404040" points="143.88,-77.5 88.12,-77.5 88.12,-56.75 143.88,-56.75 143.88,-77.5"/>
<text text-anchor="middle" x="116" y="-64" font-family="Helvetica,sans-Serif" font-size="10.00">Protocol</text>
</a>
</g>
</g>
<!-- dir_1b739488bd9a560c1a1a4ec4ac74c381&#45;&gt;dir_fae1b722d580b1d4896c7d9500c560d0 -->
<g id="edge5" class="edge">
<title>dir_1b739488bd9a560c1a1a4ec4ac74c381&#45;&gt;dir_fae1b722d580b1d4896c7d9500c560d0</title>
<g id="a_edge5"><a xlink:href="dir_000004_000027.html" target="_top">
<path fill="none" stroke="#63b8ff" d="M207.47,-170.12C190.88,-151.61 153.98,-110.47 132.46,-86.48"/>
<polygon fill="#63b8ff" stroke="#63b8ff" points="135.08,-84.16 125.8,-79.05 129.87,-88.83 135.08,-84.16"/>
</a>
</g>
<g id="a_edge5&#45;headlabel"><a xlink:href="dir_000004_000027.html" target="_top" xlink:title="1">
<text text-anchor="middle" x="138.59" y="-80.69" font-family="Helvetica,sans-Serif" font-size="10.00" fill="#63b8ff">1</text>
</a>
</g>
</g>
<!-- dir_0a80291a1162a19961e2bbfd790094c7 -->
<g id="node6" class="node">
<title>dir_0a80291a1162a19961e2bbfd790094c7</title>
<g id="a_node6"><a xlink:href="dir_0a80291a1162a19961e2bbfd790094c7.html" target="_top" xlink:title="Support">
<polygon fill="#a2b4d6" stroke="#404040" points="215.75,-77.5 162.25,-77.5 162.25,-56.75 215.75,-56.75 215.75,-77.5"/>
<text text-anchor="middle" x="189" y="-64" font-family="Helvetica,sans-Serif" font-size="10.00">Support</text>
</a>
</g>
</g>
<!-- dir_1b739488bd9a560c1a1a4ec4ac74c381&#45;&gt;dir_0a80291a1162a19961e2bbfd790094c7 -->
<g id="edge1" class="edge">
<title>dir_1b739488bd9a560c1a1a4ec4ac74c381&#45;&gt;dir_0a80291a1162a19961e2bbfd790094c7</title>
<g id="a_edge1"><a xlink:href="dir_000004_000033.html" target="_top">
<path fill="none" stroke="#63b8ff" d="M212.07,-170.04C208.48,-160.96 203.25,-146.87 200,-134.25 196.13,-119.22 193.31,-101.9 191.49,-88.76"/>
<polygon fill="#63b8ff" stroke="#63b8ff" points="195,-88.62 190.25,-79.15 188.06,-89.52 195,-88.62"/>
</a>
</g>
<g id="a_edge1&#45;headlabel"><a xlink:href="dir_000004_000033.html" target="_top" xlink:title="2">
<text text-anchor="middle" x="198.08" y="-87.2" font-family="Helvetica,sans-Serif" font-size="10.00" fill="#63b8ff">2</text>
</a>
</g>
</g>
<!-- dir_5def0a8c33681ccffd5a1a329ca9c6c2 -->
<g id="node7" class="node">
<title>dir_5def0a8c33681ccffd5a1a329ca9c6c2</title>
<g id="a_node7"><a xlink:href="dir_5def0a8c33681ccffd5a1a329ca9c6c2.html" target="_top" xlink:title="lspserver">
<polygon fill="#edf0f7" stroke="red" stroke-dasharray="5,2" points="246.5,-20.75 185.5,-20.75 185.5,0 246.5,0 246.5,-20.75"/>
<text text-anchor="middle" x="216" y="-7.25" font-family="Helvetica,sans-Serif" font-size="10.00">lspserver</text>
</a>
</g>
</g>
<!-- dir_1b739488bd9a560c1a1a4ec4ac74c381&#45;&gt;dir_5def0a8c33681ccffd5a1a329ca9c6c2 -->
<g id="edge3" class="edge">
<title>dir_1b739488bd9a560c1a1a4ec4ac74c381&#45;&gt;dir_5def0a8c33681ccffd5a1a329ca9c6c2</title>
<g id="a_edge3"><a xlink:href="dir_000004_000018.html" target="_top">
<path fill="none" stroke="#63b8ff" d="M234.71,-169.79C275.28,-147.2 364.75,-89.79 327,-40.75 318.42,-29.61 285.6,-21.83 257.85,-17.08"/>
<polygon fill="#63b8ff" stroke="#63b8ff" points="258.67,-13.67 248.24,-15.54 257.55,-20.58 258.67,-13.67"/>
</a>
</g>
<g id="a_edge3&#45;headlabel"><a xlink:href="dir_000004_000018.html" target="_top" xlink:title="4">
<text text-anchor="middle" x="261.17" y="-8.07" font-family="Helvetica,sans-Serif" font-size="10.00" fill="#63b8ff">4</text>
</a>
</g>
</g>
<!-- dir_9ff0e04ed484c0229c3bd8fc4cfe4cb8 -->
<g id="node8" class="node">
<title>dir_9ff0e04ed484c0229c3bd8fc4cfe4cb8</title>
<g id="a_node8"><a xlink:href="dir_9ff0e04ed484c0229c3bd8fc4cfe4cb8.html" target="_top" xlink:title="libnixf">
<polygon fill="#edf0f7" stroke="red" points="420.38,-134.25 373.62,-134.25 373.62,-113.5 420.38,-113.5 420.38,-134.25"/>
<text text-anchor="middle" x="397" y="-120.75" font-family="Helvetica,sans-Serif" font-size="10.00">libnixf</text>
</a>
</g>
</g>
<!-- dir_1b739488bd9a560c1a1a4ec4ac74c381&#45;&gt;dir_9ff0e04ed484c0229c3bd8fc4cfe4cb8 -->
<g id="edge4" class="edge">
<title>dir_1b739488bd9a560c1a1a4ec4ac74c381&#45;&gt;dir_9ff0e04ed484c0229c3bd8fc4cfe4cb8</title>
<g id="a_edge4"><a xlink:href="dir_000004_000016.html" target="_top">
<path fill="none" stroke="#63b8ff" d="M248.36,-169.84C280.47,-160.12 329.51,-145.29 362.38,-135.35"/>
<polygon fill="#63b8ff" stroke="#63b8ff" points="363.28,-138.73 371.83,-132.49 361.25,-132.03 363.28,-138.73"/>
</a>
</g>
<g id="a_edge4&#45;headlabel"><a xlink:href="dir_000004_000016.html" target="_top" xlink:title="5">
<text text-anchor="middle" x="362.11" y="-138.93" font-family="Helvetica,sans-Serif" font-size="10.00" fill="#63b8ff">5</text>
</a>
</g>
</g>
<!-- dir_5d9174fd82c34d170442a81ddb0d3867&#45;&gt;dir_fae1b722d580b1d4896c7d9500c560d0 -->
<g id="edge9" class="edge">
<title>dir_5d9174fd82c34d170442a81ddb0d3867&#45;&gt;dir_fae1b722d580b1d4896c7d9500c560d0</title>
<g id="a_edge9"><a xlink:href="dir_000008_000027.html" target="_top">
<path fill="none" stroke="#63b8ff" d="M208.17,-113.59C191.08,-105.16 165.59,-92.58 145.74,-82.8"/>
<polygon fill="#63b8ff" stroke="#63b8ff" points="147.54,-79.78 137.03,-78.5 144.45,-86.06 147.54,-79.78"/>
</a>
</g>
<g id="a_edge9&#45;headlabel"><a xlink:href="dir_000008_000027.html" target="_top" xlink:title="3">
<text text-anchor="middle" x="150.67" y="-75.03" font-family="Helvetica,sans-Serif" font-size="10.00" fill="#63b8ff">3</text>
</a>
</g>
</g>
<!-- dir_5d9174fd82c34d170442a81ddb0d3867&#45;&gt;dir_0a80291a1162a19961e2bbfd790094c7 -->
<g id="edge6" class="edge">
<title>dir_5d9174fd82c34d170442a81ddb0d3867&#45;&gt;dir_0a80291a1162a19961e2bbfd790094c7</title>
<g id="a_edge6"><a xlink:href="dir_000008_000033.html" target="_top">
<path fill="none" stroke="#63b8ff" d="M220.21,-113.09C215.23,-105.92 208.33,-95.98 202.28,-87.26"/>
<polygon fill="#63b8ff" stroke="#63b8ff" points="205.18,-85.29 196.6,-79.07 199.42,-89.28 205.18,-85.29"/>
</a>
</g>
<g id="a_edge6&#45;headlabel"><a xlink:href="dir_000008_000033.html" target="_top" xlink:title="1">
<text text-anchor="middle" x="208.69" y="-82.26" font-family="Helvetica,sans-Serif" font-size="10.00" fill="#63b8ff">1</text>
</a>
</g>
</g>
<!-- dir_5d9174fd82c34d170442a81ddb0d3867&#45;&gt;dir_5def0a8c33681ccffd5a1a329ca9c6c2 -->
<g id="edge7" class="edge">
<title>dir_5d9174fd82c34d170442a81ddb0d3867&#45;&gt;dir_5def0a8c33681ccffd5a1a329ca9c6c2</title>
<g id="a_edge7"><a xlink:href="dir_000008_000018.html" target="_top">
<path fill="none" stroke="#63b8ff" d="M227.61,-113.19C228.4,-97.75 229.2,-66.65 225,-40.75 224.52,-37.8 223.82,-34.74 223.02,-31.75"/>
<polygon fill="#63b8ff" stroke="#63b8ff" points="226.44,-30.96 220.13,-22.45 219.76,-33.04 226.44,-30.96"/>
</a>
</g>
<g id="a_edge7&#45;headlabel"><a xlink:href="dir_000008_000018.html" target="_top" xlink:title="4">
<text text-anchor="middle" x="229.77" y="-28.98" font-family="Helvetica,sans-Serif" font-size="10.00" fill="#63b8ff">4</text>
</a>
</g>
</g>
<!-- dir_c40eb6f7b133789742bdf3cebb28ba81 -->
<g id="node9" class="node">
<title>dir_c40eb6f7b133789742bdf3cebb28ba81</title>
<g id="a_node9"><a xlink:href="dir_c40eb6f7b133789742bdf3cebb28ba81.html" target="_top" xlink:title="libnixt">
<polygon fill="#edf0f7" stroke="red" points="318.38,-77.5 271.62,-77.5 271.62,-56.75 318.38,-56.75 318.38,-77.5"/>
<text text-anchor="middle" x="295" y="-64" font-family="Helvetica,sans-Serif" font-size="10.00">libnixt</text>
</a>
</g>
</g>
<!-- dir_5d9174fd82c34d170442a81ddb0d3867&#45;&gt;dir_c40eb6f7b133789742bdf3cebb28ba81 -->
<g id="edge8" class="edge">
<title>dir_5d9174fd82c34d170442a81ddb0d3867&#45;&gt;dir_c40eb6f7b133789742bdf3cebb28ba81</title>
<g id="a_edge8"><a xlink:href="dir_000008_000017.html" target="_top">
<path fill="none" stroke="#63b8ff" d="M239.16,-113.09C248.83,-105.3 262.58,-94.22 274.02,-85.01"/>
<polygon fill="#63b8ff" stroke="#63b8ff" points="276.18,-87.78 281.77,-78.78 271.79,-82.32 276.18,-87.78"/>
</a>
</g>
<g id="a_edge8&#45;headlabel"><a xlink:href="dir_000008_000017.html" target="_top" xlink:title="2">
<text text-anchor="middle" x="276.33" y="-88.17" font-family="Helvetica,sans-Serif" font-size="10.00" fill="#63b8ff">2</text>
</a>
</g>
</g>
<!-- dir_fae1b722d580b1d4896c7d9500c560d0&#45;&gt;dir_5def0a8c33681ccffd5a1a329ca9c6c2 -->
<g id="edge10" class="edge">
<title>dir_fae1b722d580b1d4896c7d9500c560d0&#45;&gt;dir_5def0a8c33681ccffd5a1a329ca9c6c2</title>
<g id="a_edge10"><a xlink:href="dir_000027_000018.html" target="_top">
<path fill="none" stroke="#63b8ff" d="M129.02,-56.42C135.96,-51.44 144.75,-45.46 153,-40.75 162.21,-35.49 172.53,-30.38 182.1,-25.93"/>
<polygon fill="#63b8ff" stroke="#63b8ff" points="183.45,-29.16 191.12,-21.85 180.57,-22.79 183.45,-29.16"/>
</a>
</g>
<g id="a_edge10&#45;headlabel"><a xlink:href="dir_000027_000018.html" target="_top" xlink:title="1">
<text text-anchor="middle" x="182.73" y="-29.48" font-family="Helvetica,sans-Serif" font-size="10.00" fill="#63b8ff">1</text>
</a>
</g>
</g>
<!-- dir_0a80291a1162a19961e2bbfd790094c7&#45;&gt;dir_5def0a8c33681ccffd5a1a329ca9c6c2 -->
<g id="edge11" class="edge">
<title>dir_0a80291a1162a19961e2bbfd790094c7&#45;&gt;dir_5def0a8c33681ccffd5a1a329ca9c6c2</title>
<g id="a_edge11"><a xlink:href="dir_000033_000018.html" target="_top">
<path fill="none" stroke="#63b8ff" d="M193.83,-56.34C197.24,-49.41 201.95,-39.87 206.14,-31.36"/>
<polygon fill="#63b8ff" stroke="#63b8ff" points="209.26,-32.95 210.55,-22.44 202.98,-29.86 209.26,-32.95"/>
</a>
</g>
<g id="a_edge11&#45;headlabel"><a xlink:href="dir_000033_000018.html" target="_top" xlink:title="1">
<text text-anchor="middle" x="210.89" y="-32.95" font-family="Helvetica,sans-Serif" font-size="10.00" fill="#63b8ff">1</text>
</a>
</g>
</g>
</g>
</svg>
