<?xml version="1.0" encoding="UTF-8" standalone="no"?>
<!DOCTYPE svg PUBLIC "-//W3C//DTD SVG 1.1//EN"
 "http://www.w3.org/Graphics/SVG/1.1/DTD/svg11.dtd">
<!-- Generated by graphviz version 12.2.1 (0)
 -->
<!-- Title: nixd Pages: 1 -->
<svg width="309pt" height="174pt"
 viewBox="0.00 0.00 309.38 174.25" xmlns="http://www.w3.org/2000/svg" xmlns:xlink="http://www.w3.org/1999/xlink">
<g id="graph0" class="graph" transform="scale(1 1) rotate(0) translate(4 170.25)">
<title>nixd</title>
<g id="clust1" class="cluster">
<title>clusterdir_271d3aa807e54726686810b489123a0c</title>
<g id="a_clust1"><a xlink:href="dir_271d3aa807e54726686810b489123a0c.html" target="_top">
<polygon fill="#edf0f7" stroke="#404040" stroke-width="2" points="8,-8 8,-158.25 222,-158.25 222,-8 8,-8"/>
</a>
</g>
</g>
<!-- dir_271d3aa807e54726686810b489123a0c -->
<g id="node1" class="node">
<title>dir_271d3aa807e54726686810b489123a0c</title>
<text text-anchor="middle" x="35" y="-136.75" font-family="Helvetica,sans-Serif" font-size="10.00">nixd</text>
</g>
<!-- dir_fbf4781f84a2dfdac7fb8e01b68aa402 -->
<g id="node2" class="node">
<title>dir_fbf4781f84a2dfdac7fb8e01b68aa402</title>
<g id="a_node2"><a xlink:href="dir_fbf4781f84a2dfdac7fb8e01b68aa402.html" target="_top" xlink:title="docs">
<polygon fill="#a2b4d6" stroke="#404040" points="110.25,-150.25 71.75,-150.25 71.75,-129.5 110.25,-129.5 110.25,-150.25"/>
<text text-anchor="middle" x="91" y="-136.75" font-family="Helvetica,sans-Serif" font-size="10.00">docs</text>
</a>
</g>
</g>
<!-- dir_6072663c54edb131dd9eabf55cf77072 -->
<g id="node3" class="node">
<title>dir_6072663c54edb131dd9eabf55cf77072</title>
<g id="a_node3"><a xlink:href="dir_6072663c54edb131dd9eabf55cf77072.html" target="_top" xlink:title="include">
<polygon fill="#a2b4d6" stroke="#404040" points="191.62,-93.5 140.38,-93.5 140.38,-72.75 191.62,-72.75 191.62,-93.5"/>
<text text-anchor="middle" x="166" y="-80" font-family="Helvetica,sans-Serif" font-size="10.00">include</text>
</a>
</g>
</g>
<!-- dir_5def0a8c33681ccffd5a1a329ca9c6c2 -->
<g id="node5" class="node">
<title>dir_5def0a8c33681ccffd5a1a329ca9c6c2</title>
<g id="a_node5"><a xlink:href="dir_5def0a8c33681ccffd5a1a329ca9c6c2.html" target="_top" xlink:title="lspserver">
<polygon fill="#a2b4d6" stroke="#404040" points="196.5,-36.75 135.5,-36.75 135.5,-16 196.5,-16 196.5,-36.75"/>
<text text-anchor="middle" x="166" y="-23.25" font-family="Helvetica,sans-Serif" font-size="10.00">lspserver</text>
</a>
</g>
</g>
<!-- dir_6072663c54edb131dd9eabf55cf77072&#45;&gt;dir_5def0a8c33681ccffd5a1a329ca9c6c2 -->
<g id="edge1" class="edge">
<title>dir_6072663c54edb131dd9eabf55cf77072&#45;&gt;dir_5def0a8c33681ccffd5a1a329ca9c6c2</title>
<g id="a_edge1"><a xlink:href="dir_000012_000018.html" target="_top">
<path fill="none" stroke="#63b8ff" d="M166,-72.34C166,-65.72 166,-56.72 166,-48.52"/>
<polygon fill="#63b8ff" stroke="#63b8ff" points="169.5,-48.59 166,-38.59 162.5,-48.59 169.5,-48.59"/>
</a>
</g>
<g id="a_edge1&#45;headlabel"><a xlink:href="dir_000012_000018.html" target="_top" xlink:title="10">
<text text-anchor="middle" x="172.34" y="-47.55" font-family="Helvetica,sans-Serif" font-size="10.00" fill="#63b8ff">10</text>
</a>
</g>
</g>
<!-- dir_9ff0e04ed484c0229c3bd8fc4cfe4cb8 -->
<g id="node7" class="node">
<title>dir_9ff0e04ed484c0229c3bd8fc4cfe4cb8</title>
<g id="a_node7"><a xlink:href="dir_9ff0e04ed484c0229c3bd8fc4cfe4cb8.html" target="_top" xlink:title="libnixf">
<polygon fill="#edf0f7" stroke="red" points="301.38,-36.75 254.62,-36.75 254.62,-16 301.38,-16 301.38,-36.75"/>
<text text-anchor="middle" x="278" y="-23.25" font-family="Helvetica,sans-Serif" font-size="10.00">libnixf</text>
</a>
</g>
</g>
<!-- dir_6072663c54edb131dd9eabf55cf77072&#45;&gt;dir_9ff0e04ed484c0229c3bd8fc4cfe4cb8 -->
<g id="edge2" class="edge">
<title>dir_6072663c54edb131dd9eabf55cf77072&#45;&gt;dir_9ff0e04ed484c0229c3bd8fc4cfe4cb8</title>
<g id="a_edge2"><a xlink:href="dir_000012_000016.html" target="_top">
<path fill="none" stroke="#63b8ff" d="M186.02,-72.34C203.22,-63.93 228.28,-51.68 247.9,-42.09"/>
<polygon fill="#63b8ff" stroke="#63b8ff" points="249.34,-45.28 256.79,-37.74 246.27,-38.99 249.34,-45.28"/>
</a>
</g>
<g id="a_edge2&#45;headlabel"><a xlink:href="dir_000012_000016.html" target="_top" xlink:title="5">
<text text-anchor="middle" x="248.72" y="-45.62" font-family="Helvetica,sans-Serif" font-size="10.00" fill="#63b8ff">5</text>
</a>
</g>
</g>
<!-- dir_8710806578cad174ffcb5e19312c912a -->
<g id="node4" class="node">
<title>dir_8710806578cad174ffcb5e19312c912a</title>
<g id="a_node4"><a xlink:href="dir_8710806578cad174ffcb5e19312c912a.html" target="_top" xlink:title="lib">
<polygon fill="#a2b4d6" stroke="#404040" points="214.4,-150.25 185.6,-150.25 185.6,-129.5 214.4,-129.5 214.4,-150.25"/>
<text text-anchor="middle" x="200" y="-136.75" font-family="Helvetica,sans-Serif" font-size="10.00">lib</text>
</a>
</g>
</g>
<!-- dir_8710806578cad174ffcb5e19312c912a&#45;&gt;dir_6072663c54edb131dd9eabf55cf77072 -->
<g id="edge4" class="edge">
<title>dir_8710806578cad174ffcb5e19312c912a&#45;&gt;dir_6072663c54edb131dd9eabf55cf77072</title>
<g id="a_edge4"><a xlink:href="dir_000015_000012.html" target="_top">
<path fill="none" stroke="#63b8ff" d="M193.92,-129.09C189.52,-122 183.43,-112.19 178.06,-103.54"/>
<polygon fill="#63b8ff" stroke="#63b8ff" points="181.07,-101.76 172.82,-95.11 175.13,-105.46 181.07,-101.76"/>
</a>
</g>
<g id="a_edge4&#45;headlabel"><a xlink:href="dir_000015_000012.html" target="_top" xlink:title="48">
<text text-anchor="middle" x="184.58" y="-98.91" font-family="Helvetica,sans-Serif" font-size="10.00" fill="#63b8ff">48</text>
</a>
</g>
</g>
<!-- dir_8710806578cad174ffcb5e19312c912a&#45;&gt;dir_5def0a8c33681ccffd5a1a329ca9c6c2 -->
<g id="edge3" class="edge">
<title>dir_8710806578cad174ffcb5e19312c912a&#45;&gt;dir_5def0a8c33681ccffd5a1a329ca9c6c2</title>
<g id="a_edge3"><a xlink:href="dir_000015_000018.html" target="_top">
<path fill="none" stroke="#63b8ff" d="M202.14,-129.14C204.6,-115.96 207.52,-91.88 201,-72.75 197.58,-62.71 190.93,-53.16 184.34,-45.43"/>
<polygon fill="#63b8ff" stroke="#63b8ff" points="186.94,-43.09 177.58,-38.12 181.8,-47.84 186.94,-43.09"/>
</a>
</g>
<g id="a_edge3&#45;headlabel"><a xlink:href="dir_000015_000018.html" target="_top" xlink:title="13">
<text text-anchor="middle" x="190.44" y="-39.56" font-family="Helvetica,sans-Serif" font-size="10.00" fill="#63b8ff">13</text>
</a>
</g>
</g>
<!-- dir_8710806578cad174ffcb5e19312c912a&#45;&gt;dir_9ff0e04ed484c0229c3bd8fc4cfe4cb8 -->
<g id="edge5" class="edge">
<title>dir_8710806578cad174ffcb5e19312c912a&#45;&gt;dir_9ff0e04ed484c0229c3bd8fc4cfe4cb8</title>
<g id="a_edge5"><a xlink:href="dir_000015_000016.html" target="_top">
<path fill="none" stroke="#63b8ff" d="M214.6,-135.92C234.57,-131 269.69,-119.04 285,-93.5 293.17,-79.87 290.53,-61.78 286.34,-47.96"/>
<polygon fill="#63b8ff" stroke="#63b8ff" points="289.65,-46.82 283,-38.57 283.06,-49.16 289.65,-46.82"/>
</a>
</g>
<g id="a_edge5&#45;headlabel"><a xlink:href="dir_000015_000016.html" target="_top" xlink:title="30">
<text text-anchor="middle" x="293.02" y="-44.7" font-family="Helvetica,sans-Serif" font-size="10.00" fill="#63b8ff">30</text>
</a>
</g>
</g>
<!-- dir_c40eb6f7b133789742bdf3cebb28ba81 -->
<g id="node8" class="node">
<title>dir_c40eb6f7b133789742bdf3cebb28ba81</title>
<g id="a_node8"><a xlink:href="dir_c40eb6f7b133789742bdf3cebb28ba81.html" target="_top" xlink:title="libnixt">
<polygon fill="#edf0f7" stroke="red" points="276.38,-93.5 229.62,-93.5 229.62,-72.75 276.38,-72.75 276.38,-93.5"/>
<text text-anchor="middle" x="253" y="-80" font-family="Helvetica,sans-Serif" font-size="10.00">libnixt</text>
</a>
</g>
</g>
<!-- dir_8710806578cad174ffcb5e19312c912a&#45;&gt;dir_c40eb6f7b133789742bdf3cebb28ba81 -->
<g id="edge6" class="edge">
<title>dir_8710806578cad174ffcb5e19312c912a&#45;&gt;dir_c40eb6f7b133789742bdf3cebb28ba81</title>
<g id="a_edge6"><a xlink:href="dir_000015_000017.html" target="_top">
<path fill="none" stroke="#63b8ff" d="M209.48,-129.09C216.79,-121.53 227.09,-110.89 235.84,-101.85"/>
<polygon fill="#63b8ff" stroke="#63b8ff" points="238.11,-104.54 242.55,-94.92 233.08,-99.67 238.11,-104.54"/>
</a>
</g>
<g id="a_edge6&#45;headlabel"><a xlink:href="dir_000015_000017.html" target="_top" xlink:title="1">
<text text-anchor="middle" x="238.71" y="-104.88" font-family="Helvetica,sans-Serif" font-size="10.00" fill="#63b8ff">1</text>
</a>
</g>
</g>
<!-- dir_43dccb67c075cdf61156590789c0ba7d -->
<g id="node6" class="node">
<title>dir_43dccb67c075cdf61156590789c0ba7d</title>
<g id="a_node6"><a xlink:href="dir_43dccb67c075cdf61156590789c0ba7d.html" target="_top" xlink:title="tools">
<polygon fill="#a2b4d6" stroke="#404040" points="168,-150.25 128,-150.25 128,-129.5 168,-129.5 168,-150.25"/>
<text text-anchor="middle" x="148" y="-136.75" font-family="Helvetica,sans-Serif" font-size="10.00">tools</text>
</a>
</g>
</g>
<!-- dir_43dccb67c075cdf61156590789c0ba7d&#45;&gt;dir_6072663c54edb131dd9eabf55cf77072 -->
<g id="edge8" class="edge">
<title>dir_43dccb67c075cdf61156590789c0ba7d&#45;&gt;dir_6072663c54edb131dd9eabf55cf77072</title>
<g id="a_edge8"><a xlink:href="dir_000036_000012.html" target="_top">
<path fill="none" stroke="#63b8ff" d="M151.22,-129.09C153.44,-122.31 156.49,-113.05 159.24,-104.69"/>
<polygon fill="#63b8ff" stroke="#63b8ff" points="162.54,-105.86 162.34,-95.27 155.89,-103.67 162.54,-105.86"/>
</a>
</g>
<g id="a_edge8&#45;headlabel"><a xlink:href="dir_000036_000012.html" target="_top" xlink:title="4">
<text text-anchor="middle" x="164.59" y="-105.6" font-family="Helvetica,sans-Serif" font-size="10.00" fill="#63b8ff">4</text>
</a>
</g>
</g>
<!-- dir_43dccb67c075cdf61156590789c0ba7d&#45;&gt;dir_5def0a8c33681ccffd5a1a329ca9c6c2 -->
<g id="edge7" class="edge">
<title>dir_43dccb67c075cdf61156590789c0ba7d&#45;&gt;dir_5def0a8c33681ccffd5a1a329ca9c6c2</title>
<g id="a_edge7"><a xlink:href="dir_000036_000018.html" target="_top">
<path fill="none" stroke="#63b8ff" d="M142.09,-129.32C134.83,-116.35 124.27,-92.5 131,-72.75 134.42,-62.71 141.07,-53.16 147.66,-45.43"/>
<polygon fill="#63b8ff" stroke="#63b8ff" points="150.2,-47.84 154.42,-38.12 145.06,-43.09 150.2,-47.84"/>
</a>
</g>
<g id="a_edge7&#45;headlabel"><a xlink:href="dir_000036_000018.html" target="_top" xlink:title="3">
<text text-anchor="middle" x="150.87" y="-48.17" font-family="Helvetica,sans-Serif" font-size="10.00" fill="#63b8ff">3</text>
</a>
</g>
</g>
<!-- dir_43dccb67c075cdf61156590789c0ba7d&#45;&gt;dir_c40eb6f7b133789742bdf3cebb28ba81 -->
<g id="edge9" class="edge">
<title>dir_43dccb67c075cdf61156590789c0ba7d&#45;&gt;dir_c40eb6f7b133789742bdf3cebb28ba81</title>
<g id="a_edge9"><a xlink:href="dir_000036_000017.html" target="_top">
<path fill="none" stroke="#63b8ff" d="M166.77,-129.09C182.75,-120.76 205.95,-108.66 224.26,-99.11"/>
<polygon fill="#63b8ff" stroke="#63b8ff" points="225.8,-102.26 233.05,-94.53 222.56,-96.05 225.8,-102.26"/>
</a>
</g>
<g id="a_edge9&#45;headlabel"><a xlink:href="dir_000036_000017.html" target="_top" xlink:title="1">
<text text-anchor="middle" x="225.27" y="-102.61" font-family="Helvetica,sans-Serif" font-size="10.00" fill="#63b8ff">1</text>
</a>
</g>
</g>
</g>
</svg>
