<?xml version="1.0" encoding="UTF-8" standalone="no"?>
<!DOCTYPE svg PUBLIC "-//W3C//DTD SVG 1.1//EN"
 "http://www.w3.org/Graphics/SVG/1.1/DTD/svg11.dtd">
<!-- Generated by graphviz version 10.0.1 (0)
 -->
<!-- Title: nixd Pages: 1 -->
<svg width="522pt" height="158pt"
 viewBox="0.00 0.00 522.38 158.25" xmlns="http://www.w3.org/2000/svg" xmlns:xlink="http://www.w3.org/1999/xlink">
<g id="graph0" class="graph" transform="scale(1 1) rotate(0) translate(4 154.25)">
<title>nixd</title>
<g id="clust1" class="cluster">
<title>clusterdir_271d3aa807e54726686810b489123a0c</title>
<g id="a_clust1"><a xlink:href="dir_271d3aa807e54726686810b489123a0c.html" target="_top">
<polygon fill="#edf0f7" stroke="#404040" stroke-width="2" points="8,-48.75 8,-142.25 278,-142.25 278,-48.75 8,-48.75"/>
</a>
</g>
</g>
<!-- dir_271d3aa807e54726686810b489123a0c -->
<g id="node1" class="node">
<title>dir_271d3aa807e54726686810b489123a0c</title>
<text text-anchor="middle" x="35" y="-120.75" font-family="Helvetica,sans-Serif" font-size="10.00">nixd</text>
</g>
<!-- dir_fbf4781f84a2dfdac7fb8e01b68aa402 -->
<g id="node2" class="node">
<title>dir_fbf4781f84a2dfdac7fb8e01b68aa402</title>
<g id="a_node2"><a xlink:href="dir_fbf4781f84a2dfdac7fb8e01b68aa402.html" target="_top" xlink:title="docs">
<polygon fill="#a2b4d6" stroke="#404040" points="110.25,-134.25 71.75,-134.25 71.75,-113.5 110.25,-113.5 110.25,-134.25"/>
<text text-anchor="middle" x="91" y="-120.75" font-family="Helvetica,sans-Serif" font-size="10.00">docs</text>
</a>
</g>
</g>
<!-- dir_6fe8e64755d6ca8350089c43e24a597c -->
<g id="node3" class="node">
<title>dir_6fe8e64755d6ca8350089c43e24a597c</title>
<g id="a_node3"><a xlink:href="dir_6fe8e64755d6ca8350089c43e24a597c.html" target="_top" xlink:title="librpc">
<polygon fill="#a2b4d6" stroke="#404040" points="168.5,-77.5 125.5,-77.5 125.5,-56.75 168.5,-56.75 168.5,-77.5"/>
<text text-anchor="middle" x="147" y="-64" font-family="Helvetica,sans-Serif" font-size="10.00">librpc</text>
</a>
</g>
</g>
<!-- dir_b55f34eed50f427f5a82f0c0c0b607fd -->
<g id="node7" class="node">
<title>dir_b55f34eed50f427f5a82f0c0c0b607fd</title>
<g id="a_node7"><a xlink:href="dir_b55f34eed50f427f5a82f0c0c0b607fd.html" target="_top" xlink:title="libbc">
<polygon fill="#edf0f7" stroke="red" points="277.62,-20.75 238.38,-20.75 238.38,0 277.62,0 277.62,-20.75"/>
<text text-anchor="middle" x="258" y="-7.25" font-family="Helvetica,sans-Serif" font-size="10.00">libbc</text>
</a>
</g>
</g>
<!-- dir_6fe8e64755d6ca8350089c43e24a597c&#45;&gt;dir_b55f34eed50f427f5a82f0c0c0b607fd -->
<g id="edge1" class="edge">
<title>dir_6fe8e64755d6ca8350089c43e24a597c&#45;&gt;dir_b55f34eed50f427f5a82f0c0c0b607fd</title>
<g id="a_edge1"><a xlink:href="dir_000020_000016.html" target="_top">
<path fill="none" stroke="#63b8ff" d="M163.35,-56.29C167.74,-53.75 172.51,-51.08 177,-48.75 193.48,-40.2 212.29,-31.46 227.64,-24.58"/>
<polygon fill="#63b8ff" stroke="#63b8ff" points="229.01,-27.8 236.73,-20.55 226.17,-21.4 229.01,-27.8"/>
</a>
</g>
<g id="a_edge1&#45;headlabel"><a xlink:href="dir_000020_000016.html" target="_top" xlink:title="4">
<text text-anchor="middle" x="228.26" y="-28.12" font-family="Helvetica,sans-Serif" font-size="10.00" fill="#63b8ff">4</text>
</a>
</g>
</g>
<!-- dir_fea53f7f87b7ec4e08a74e8a64eb26a3 -->
<g id="node4" class="node">
<title>dir_fea53f7f87b7ec4e08a74e8a64eb26a3</title>
<g id="a_node4"><a xlink:href="dir_fea53f7f87b7ec4e08a74e8a64eb26a3.html" target="_top" xlink:title="libutil">
<polygon fill="#a2b4d6" stroke="#404040" points="229.88,-77.5 186.12,-77.5 186.12,-56.75 229.88,-56.75 229.88,-77.5"/>
<text text-anchor="middle" x="208" y="-64" font-family="Helvetica,sans-Serif" font-size="10.00">libutil</text>
</a>
</g>
</g>
<!-- dir_1674159b14b5d6ba00b9e9bdffb50a16 -->
<g id="node5" class="node">
<title>dir_1674159b14b5d6ba00b9e9bdffb50a16</title>
<g id="a_node5"><a xlink:href="dir_1674159b14b5d6ba00b9e9bdffb50a16.html" target="_top" xlink:title="nix&#45;node&#45;eval">
<polygon fill="#a2b4d6" stroke="#404040" points="211.75,-134.25 128.25,-134.25 128.25,-113.5 211.75,-113.5 211.75,-134.25"/>
<text text-anchor="middle" x="170" y="-120.75" font-family="Helvetica,sans-Serif" font-size="10.00">nix&#45;node&#45;eval</text>
</a>
</g>
</g>
<!-- dir_1674159b14b5d6ba00b9e9bdffb50a16&#45;&gt;dir_6fe8e64755d6ca8350089c43e24a597c -->
<g id="edge2" class="edge">
<title>dir_1674159b14b5d6ba00b9e9bdffb50a16&#45;&gt;dir_6fe8e64755d6ca8350089c43e24a597c</title>
<g id="a_edge2"><a xlink:href="dir_000024_000020.html" target="_top">
<path fill="none" stroke="#63b8ff" d="M165.89,-113.09C163.01,-106.24 159.06,-96.84 155.52,-88.4"/>
<polygon fill="#63b8ff" stroke="#63b8ff" points="158.76,-87.09 151.66,-79.22 152.31,-89.8 158.76,-87.09"/>
</a>
</g>
<g id="a_edge2&#45;headlabel"><a xlink:href="dir_000024_000020.html" target="_top" xlink:title="2">
<text text-anchor="middle" x="162.19" y="-84.78" font-family="Helvetica,sans-Serif" font-size="10.00" fill="#63b8ff">2</text>
</a>
</g>
</g>
<!-- dir_1674159b14b5d6ba00b9e9bdffb50a16&#45;&gt;dir_b55f34eed50f427f5a82f0c0c0b607fd -->
<g id="edge5" class="edge">
<title>dir_1674159b14b5d6ba00b9e9bdffb50a16&#45;&gt;dir_b55f34eed50f427f5a82f0c0c0b607fd</title>
<g id="a_edge5"><a xlink:href="dir_000024_000016.html" target="_top">
<path fill="none" stroke="#63b8ff" d="M192.66,-113.16C207.86,-105.55 227.19,-93.55 239,-77.5 248.76,-64.24 253.52,-46.1 255.83,-32.17"/>
<polygon fill="#63b8ff" stroke="#63b8ff" points="259.29,-32.69 257.14,-22.32 252.35,-31.77 259.29,-32.69"/>
</a>
</g>
<g id="a_edge5&#45;headlabel"><a xlink:href="dir_000024_000016.html" target="_top" xlink:title="2">
<text text-anchor="middle" x="261.83" y="-32.01" font-family="Helvetica,sans-Serif" font-size="10.00" fill="#63b8ff">2</text>
</a>
</g>
</g>
<!-- dir_c40eb6f7b133789742bdf3cebb28ba81 -->
<g id="node8" class="node">
<title>dir_c40eb6f7b133789742bdf3cebb28ba81</title>
<g id="a_node8"><a xlink:href="dir_c40eb6f7b133789742bdf3cebb28ba81.html" target="_top" xlink:title="libnixt">
<polygon fill="#edf0f7" stroke="red" points="332.38,-77.5 285.62,-77.5 285.62,-56.75 332.38,-56.75 332.38,-77.5"/>
<text text-anchor="middle" x="309" y="-64" font-family="Helvetica,sans-Serif" font-size="10.00">libnixt</text>
</a>
</g>
</g>
<!-- dir_1674159b14b5d6ba00b9e9bdffb50a16&#45;&gt;dir_c40eb6f7b133789742bdf3cebb28ba81 -->
<g id="edge3" class="edge">
<title>dir_1674159b14b5d6ba00b9e9bdffb50a16&#45;&gt;dir_c40eb6f7b133789742bdf3cebb28ba81</title>
<g id="a_edge3"><a xlink:href="dir_000024_000019.html" target="_top">
<path fill="none" stroke="#63b8ff" d="M194.85,-113.09C217.16,-104.3 250.12,-91.32 274.89,-81.56"/>
<polygon fill="#63b8ff" stroke="#63b8ff" points="275.86,-84.94 283.88,-78.02 273.3,-78.43 275.86,-84.94"/>
</a>
</g>
<g id="a_edge3&#45;headlabel"><a xlink:href="dir_000024_000019.html" target="_top" xlink:title="5">
<text text-anchor="middle" x="274.97" y="-85.22" font-family="Helvetica,sans-Serif" font-size="10.00" fill="#63b8ff">5</text>
</a>
</g>
</g>
<!-- dir_b78a71a762ff0582d59dc461a15bff38 -->
<g id="node9" class="node">
<title>dir_b78a71a762ff0582d59dc461a15bff38</title>
<g id="a_node9"><a xlink:href="dir_b78a71a762ff0582d59dc461a15bff38.html" target="_top" xlink:title="lspserver">
<polygon fill="#edf0f7" stroke="red" points="411.5,-77.5 350.5,-77.5 350.5,-56.75 411.5,-56.75 411.5,-77.5"/>
<text text-anchor="middle" x="381" y="-64" font-family="Helvetica,sans-Serif" font-size="10.00">lspserver</text>
</a>
</g>
</g>
<!-- dir_1674159b14b5d6ba00b9e9bdffb50a16&#45;&gt;dir_b78a71a762ff0582d59dc461a15bff38 -->
<g id="edge4" class="edge">
<title>dir_1674159b14b5d6ba00b9e9bdffb50a16&#45;&gt;dir_b78a71a762ff0582d59dc461a15bff38</title>
<g id="a_edge4"><a xlink:href="dir_000024_000022.html" target="_top">
<path fill="none" stroke="#63b8ff" d="M207.72,-113.09C244.73,-103.48 301.03,-88.88 339.33,-78.94"/>
<polygon fill="#63b8ff" stroke="#63b8ff" points="339.85,-82.42 348.65,-76.52 338.09,-75.64 339.85,-82.42"/>
</a>
</g>
<g id="a_edge4&#45;headlabel"><a xlink:href="dir_000024_000022.html" target="_top" xlink:title="4">
<text text-anchor="middle" x="338.55" y="-82.56" font-family="Helvetica,sans-Serif" font-size="10.00" fill="#63b8ff">4</text>
</a>
</g>
</g>
<!-- dir_43dccb67c075cdf61156590789c0ba7d -->
<g id="node6" class="node">
<title>dir_43dccb67c075cdf61156590789c0ba7d</title>
<g id="a_node6"><a xlink:href="dir_43dccb67c075cdf61156590789c0ba7d.html" target="_top" xlink:title="tools">
<polygon fill="#a2b4d6" stroke="#404040" points="270,-134.25 230,-134.25 230,-113.5 270,-113.5 270,-134.25"/>
<text text-anchor="middle" x="250" y="-120.75" font-family="Helvetica,sans-Serif" font-size="10.00">tools</text>
</a>
</g>
</g>
<!-- dir_43dccb67c075cdf61156590789c0ba7d&#45;&gt;dir_6fe8e64755d6ca8350089c43e24a597c -->
<g id="edge6" class="edge">
<title>dir_43dccb67c075cdf61156590789c0ba7d&#45;&gt;dir_6fe8e64755d6ca8350089c43e24a597c</title>
<g id="a_edge6"><a xlink:href="dir_000046_000020.html" target="_top">
<path fill="none" stroke="#63b8ff" d="M231.59,-113.09C215.91,-104.76 193.15,-92.66 175.19,-83.11"/>
<polygon fill="#63b8ff" stroke="#63b8ff" points="177.06,-80.14 166.59,-78.54 173.78,-86.32 177.06,-80.14"/>
</a>
</g>
<g id="a_edge6&#45;headlabel"><a xlink:href="dir_000046_000020.html" target="_top" xlink:title="2">
<text text-anchor="middle" x="180.23" y="-75.49" font-family="Helvetica,sans-Serif" font-size="10.00" fill="#63b8ff">2</text>
</a>
</g>
</g>
<!-- dir_43dccb67c075cdf61156590789c0ba7d&#45;&gt;dir_fea53f7f87b7ec4e08a74e8a64eb26a3 -->
<g id="edge10" class="edge">
<title>dir_43dccb67c075cdf61156590789c0ba7d&#45;&gt;dir_fea53f7f87b7ec4e08a74e8a64eb26a3</title>
<g id="a_edge10"><a xlink:href="dir_000046_000021.html" target="_top">
<path fill="none" stroke="#63b8ff" d="M242.49,-113.09C236.88,-105.77 229.03,-95.54 222.24,-86.69"/>
<polygon fill="#63b8ff" stroke="#63b8ff" points="225.23,-84.83 216.36,-79.03 219.67,-89.09 225.23,-84.83"/>
</a>
</g>
<g id="a_edge10&#45;headlabel"><a xlink:href="dir_000046_000021.html" target="_top" xlink:title="5">
<text text-anchor="middle" x="228.75" y="-81.63" font-family="Helvetica,sans-Serif" font-size="10.00" fill="#63b8ff">5</text>
</a>
</g>
</g>
<!-- dir_43dccb67c075cdf61156590789c0ba7d&#45;&gt;dir_b55f34eed50f427f5a82f0c0c0b607fd -->
<g id="edge8" class="edge">
<title>dir_43dccb67c075cdf61156590789c0ba7d&#45;&gt;dir_b55f34eed50f427f5a82f0c0c0b607fd</title>
<g id="a_edge8"><a xlink:href="dir_000046_000016.html" target="_top">
<path fill="none" stroke="#63b8ff" d="M270.44,-120.54C311.7,-115.35 402.6,-101.42 421,-77.5 456.98,-30.72 345.75,-16.89 289.06,-12.91"/>
<polygon fill="#63b8ff" stroke="#63b8ff" points="289.58,-9.44 279.38,-12.3 289.14,-16.43 289.58,-9.44"/>
</a>
</g>
<g id="a_edge8&#45;headlabel"><a xlink:href="dir_000046_000016.html" target="_top" xlink:title="2">
<text text-anchor="middle" x="291.83" y="-3.61" font-family="Helvetica,sans-Serif" font-size="10.00" fill="#63b8ff">2</text>
</a>
</g>
</g>
<!-- dir_43dccb67c075cdf61156590789c0ba7d&#45;&gt;dir_b78a71a762ff0582d59dc461a15bff38 -->
<g id="edge9" class="edge">
<title>dir_43dccb67c075cdf61156590789c0ba7d&#45;&gt;dir_b78a71a762ff0582d59dc461a15bff38</title>
<g id="a_edge9"><a xlink:href="dir_000046_000022.html" target="_top">
<path fill="none" stroke="#63b8ff" d="M270.47,-114.32C290.94,-105.77 322.78,-92.46 347.04,-82.32"/>
<polygon fill="#63b8ff" stroke="#63b8ff" points="348.31,-85.58 356.18,-78.5 345.61,-79.12 348.31,-85.58"/>
</a>
</g>
<g id="a_edge9&#45;headlabel"><a xlink:href="dir_000046_000022.html" target="_top" xlink:title="7">
<text text-anchor="middle" x="347.48" y="-85.88" font-family="Helvetica,sans-Serif" font-size="10.00" fill="#63b8ff">7</text>
</a>
</g>
</g>
<!-- dir_9ff0e04ed484c0229c3bd8fc4cfe4cb8 -->
<g id="node10" class="node">
<title>dir_9ff0e04ed484c0229c3bd8fc4cfe4cb8</title>
<g id="a_node10"><a xlink:href="dir_9ff0e04ed484c0229c3bd8fc4cfe4cb8.html" target="_top" xlink:title="libnixf">
<polygon fill="#edf0f7" stroke="red" points="514.38,-77.5 467.62,-77.5 467.62,-56.75 514.38,-56.75 514.38,-77.5"/>
<text text-anchor="middle" x="491" y="-64" font-family="Helvetica,sans-Serif" font-size="10.00">libnixf</text>
</a>
</g>
</g>
<!-- dir_43dccb67c075cdf61156590789c0ba7d&#45;&gt;dir_9ff0e04ed484c0229c3bd8fc4cfe4cb8 -->
<g id="edge7" class="edge">
<title>dir_43dccb67c075cdf61156590789c0ba7d&#45;&gt;dir_9ff0e04ed484c0229c3bd8fc4cfe4cb8</title>
<g id="a_edge7"><a xlink:href="dir_000046_000018.html" target="_top">
<path fill="none" stroke="#63b8ff" d="M270.31,-118.56C307.05,-110.72 386.93,-93.45 454,-77.5 454.66,-77.34 455.34,-77.18 456.01,-77.02"/>
<polygon fill="#63b8ff" stroke="#63b8ff" points="456.8,-80.43 465.67,-74.64 455.12,-73.63 456.8,-80.43"/>
</a>
</g>
<g id="a_edge7&#45;headlabel"><a xlink:href="dir_000046_000018.html" target="_top" xlink:title="7">
<text text-anchor="middle" x="455.46" y="-80.56" font-family="Helvetica,sans-Serif" font-size="10.00" fill="#63b8ff">7</text>
</a>
</g>
</g>
</g>
</svg>
