<?xml version="1.0" encoding="UTF-8" standalone="no"?>
<!DOCTYPE svg PUBLIC "-//W3C//DTD SVG 1.1//EN"
 "http://www.w3.org/Graphics/SVG/1.1/DTD/svg11.dtd">
<!-- Generated by graphviz version 10.0.1 (0)
 -->
<!-- Title: nixd Pages: 1 -->
<svg width="314pt" height="130pt"
 viewBox="0.00 0.00 314.00 130.25" xmlns="http://www.w3.org/2000/svg" xmlns:xlink="http://www.w3.org/1999/xlink">
<g id="graph0" class="graph" transform="scale(1 1) rotate(0) translate(4 126.25)">
<title>nixd</title>
<g id="clust1" class="cluster">
<title>clusterdir_43dccb67c075cdf61156590789c0ba7d</title>
<g id="a_clust1"><a xlink:href="dir_43dccb67c075cdf61156590789c0ba7d.html" target="_top" xlink:title="tools">
<polygon fill="#edf0f7" stroke="#7f7f7f" stroke-dasharray="5,2" points="78.5,-40.75 78.5,-114.25 196.5,-114.25 196.5,-40.75 78.5,-40.75"/>
<text text-anchor="middle" x="137.5" y="-100.75" font-family="Helvetica,sans-Serif" font-size="10.00">tools</text>
</a>
</g>
</g>
<g id="clust2" class="cluster">
<title>clusterdir_088a14879491eee6c6c569af955fa3b5</title>
<g id="a_clust2"><a xlink:href="dir_088a14879491eee6c6c569af955fa3b5.html" target="_top">
<polygon fill="#edf0f7" stroke="#404040" stroke-width="2" points="86.5,-48.75 86.5,-85.5 188.5,-85.5 188.5,-48.75 86.5,-48.75"/>
</a>
</g>
</g>
<!-- dir_088a14879491eee6c6c569af955fa3b5 -->
<g id="node1" class="node">
<title>dir_088a14879491eee6c6c569af955fa3b5</title>
<text text-anchor="middle" x="113.5" y="-64" font-family="Helvetica,sans-Serif" font-size="10.00">nixd</text>
</g>
<!-- dir_2fce3de3a606fe8bc100a9ca8be3b4b7 -->
<g id="node2" class="node">
<title>dir_2fce3de3a606fe8bc100a9ca8be3b4b7</title>
<g id="a_node2"><a xlink:href="dir_2fce3de3a606fe8bc100a9ca8be3b4b7.html" target="_top" xlink:title="src">
<polygon fill="#a2b4d6" stroke="#404040" points="180.62,-77.5 150.38,-77.5 150.38,-56.75 180.62,-56.75 180.62,-77.5"/>
<text text-anchor="middle" x="165.5" y="-64" font-family="Helvetica,sans-Serif" font-size="10.00">src</text>
</a>
</g>
</g>
<!-- dir_b78a71a762ff0582d59dc461a15bff38 -->
<g id="node3" class="node">
<title>dir_b78a71a762ff0582d59dc461a15bff38</title>
<g id="a_node3"><a xlink:href="dir_b78a71a762ff0582d59dc461a15bff38.html" target="_top" xlink:title="lspserver">
<polygon fill="#edf0f7" stroke="red" points="61,-20.75 0,-20.75 0,0 61,0 61,-20.75"/>
<text text-anchor="middle" x="30.5" y="-7.25" font-family="Helvetica,sans-Serif" font-size="10.00">lspserver</text>
</a>
</g>
</g>
<!-- dir_2fce3de3a606fe8bc100a9ca8be3b4b7&#45;&gt;dir_b78a71a762ff0582d59dc461a15bff38 -->
<g id="edge4" class="edge">
<title>dir_2fce3de3a606fe8bc100a9ca8be3b4b7&#45;&gt;dir_b78a71a762ff0582d59dc461a15bff38</title>
<g id="a_edge4"><a xlink:href="dir_000045_000022.html" target="_top">
<path fill="none" stroke="#63b8ff" d="M158.13,-56.42C153.59,-51.07 147.34,-44.73 140.5,-40.75 134.39,-37.2 100.78,-28.45 72.3,-21.41"/>
<polygon fill="#63b8ff" stroke="#63b8ff" points="73.32,-18.06 62.77,-19.08 71.65,-24.86 73.32,-18.06"/>
</a>
</g>
<g id="a_edge4&#45;headlabel"><a xlink:href="dir_000045_000022.html" target="_top" xlink:title="7">
<text text-anchor="middle" x="76.02" y="-12.67" font-family="Helvetica,sans-Serif" font-size="10.00" fill="#63b8ff">7</text>
</a>
</g>
</g>
<!-- dir_9ff0e04ed484c0229c3bd8fc4cfe4cb8 -->
<g id="node4" class="node">
<title>dir_9ff0e04ed484c0229c3bd8fc4cfe4cb8</title>
<g id="a_node4"><a xlink:href="dir_9ff0e04ed484c0229c3bd8fc4cfe4cb8.html" target="_top" xlink:title="libnixf">
<polygon fill="#edf0f7" stroke="red" points="125.88,-20.75 79.12,-20.75 79.12,0 125.88,0 125.88,-20.75"/>
<text text-anchor="middle" x="102.5" y="-7.25" font-family="Helvetica,sans-Serif" font-size="10.00">libnixf</text>
</a>
</g>
</g>
<!-- dir_2fce3de3a606fe8bc100a9ca8be3b4b7&#45;&gt;dir_9ff0e04ed484c0229c3bd8fc4cfe4cb8 -->
<g id="edge2" class="edge">
<title>dir_2fce3de3a606fe8bc100a9ca8be3b4b7&#45;&gt;dir_9ff0e04ed484c0229c3bd8fc4cfe4cb8</title>
<g id="a_edge2"><a xlink:href="dir_000045_000018.html" target="_top">
<path fill="none" stroke="#63b8ff" d="M156.53,-56.42C151.89,-51.56 146.05,-45.67 140.5,-40.75 135.59,-36.39 130.1,-31.94 124.86,-27.86"/>
<polygon fill="#63b8ff" stroke="#63b8ff" points="127.15,-25.2 117.07,-21.93 122.91,-30.77 127.15,-25.2"/>
</a>
</g>
<g id="a_edge2&#45;headlabel"><a xlink:href="dir_000045_000018.html" target="_top" xlink:title="7">
<text text-anchor="middle" x="130.52" y="-21.07" font-family="Helvetica,sans-Serif" font-size="10.00" fill="#63b8ff">7</text>
</a>
</g>
</g>
<!-- dir_fea53f7f87b7ec4e08a74e8a64eb26a3 -->
<g id="node5" class="node">
<title>dir_fea53f7f87b7ec4e08a74e8a64eb26a3</title>
<g id="a_node5"><a xlink:href="dir_fea53f7f87b7ec4e08a74e8a64eb26a3.html" target="_top" xlink:title="libutil">
<polygon fill="#edf0f7" stroke="red" stroke-dasharray="5,2" points="187.38,-20.75 143.62,-20.75 143.62,0 187.38,0 187.38,-20.75"/>
<text text-anchor="middle" x="165.5" y="-7.25" font-family="Helvetica,sans-Serif" font-size="10.00">libutil</text>
</a>
</g>
</g>
<!-- dir_2fce3de3a606fe8bc100a9ca8be3b4b7&#45;&gt;dir_fea53f7f87b7ec4e08a74e8a64eb26a3 -->
<g id="edge5" class="edge">
<title>dir_2fce3de3a606fe8bc100a9ca8be3b4b7&#45;&gt;dir_fea53f7f87b7ec4e08a74e8a64eb26a3</title>
<g id="a_edge5"><a xlink:href="dir_000045_000021.html" target="_top">
<path fill="none" stroke="#63b8ff" d="M165.5,-56.34C165.5,-49.72 165.5,-40.72 165.5,-32.52"/>
<polygon fill="#63b8ff" stroke="#63b8ff" points="169,-32.59 165.5,-22.59 162,-32.59 169,-32.59"/>
</a>
</g>
<g id="a_edge5&#45;headlabel"><a xlink:href="dir_000045_000021.html" target="_top" xlink:title="5">
<text text-anchor="middle" x="171.84" y="-31.55" font-family="Helvetica,sans-Serif" font-size="10.00" fill="#63b8ff">5</text>
</a>
</g>
</g>
<!-- dir_b55f34eed50f427f5a82f0c0c0b607fd -->
<g id="node6" class="node">
<title>dir_b55f34eed50f427f5a82f0c0c0b607fd</title>
<g id="a_node6"><a xlink:href="dir_b55f34eed50f427f5a82f0c0c0b607fd.html" target="_top" xlink:title="libbc">
<polygon fill="#edf0f7" stroke="red" points="245.12,-20.75 205.88,-20.75 205.88,0 245.12,0 245.12,-20.75"/>
<text text-anchor="middle" x="225.5" y="-7.25" font-family="Helvetica,sans-Serif" font-size="10.00">libbc</text>
</a>
</g>
</g>
<!-- dir_2fce3de3a606fe8bc100a9ca8be3b4b7&#45;&gt;dir_b55f34eed50f427f5a82f0c0c0b607fd -->
<g id="edge3" class="edge">
<title>dir_2fce3de3a606fe8bc100a9ca8be3b4b7&#45;&gt;dir_b55f34eed50f427f5a82f0c0c0b607fd</title>
<g id="a_edge3"><a xlink:href="dir_000045_000016.html" target="_top">
<path fill="none" stroke="#63b8ff" d="M176.23,-56.34C184.59,-48.71 196.41,-37.92 206.38,-28.82"/>
<polygon fill="#63b8ff" stroke="#63b8ff" points="208.72,-31.42 213.75,-22.1 204,-26.25 208.72,-31.42"/>
</a>
</g>
<g id="a_edge3&#45;headlabel"><a xlink:href="dir_000045_000016.html" target="_top" xlink:title="2">
<text text-anchor="middle" x="209.1" y="-31.8" font-family="Helvetica,sans-Serif" font-size="10.00" fill="#63b8ff">2</text>
</a>
</g>
</g>
<!-- dir_6fe8e64755d6ca8350089c43e24a597c -->
<g id="node7" class="node">
<title>dir_6fe8e64755d6ca8350089c43e24a597c</title>
<g id="a_node7"><a xlink:href="dir_6fe8e64755d6ca8350089c43e24a597c.html" target="_top" xlink:title="librpc">
<polygon fill="#edf0f7" stroke="red" stroke-dasharray="5,2" points="306,-20.75 263,-20.75 263,0 306,0 306,-20.75"/>
<text text-anchor="middle" x="284.5" y="-7.25" font-family="Helvetica,sans-Serif" font-size="10.00">librpc</text>
</a>
</g>
</g>
<!-- dir_2fce3de3a606fe8bc100a9ca8be3b4b7&#45;&gt;dir_6fe8e64755d6ca8350089c43e24a597c -->
<g id="edge1" class="edge">
<title>dir_2fce3de3a606fe8bc100a9ca8be3b4b7&#45;&gt;dir_6fe8e64755d6ca8350089c43e24a597c</title>
<g id="a_edge1"><a xlink:href="dir_000045_000020.html" target="_top">
<path fill="none" stroke="#63b8ff" d="M181.06,-58.97C199.22,-50.61 229.73,-36.57 252.93,-25.9"/>
<polygon fill="#63b8ff" stroke="#63b8ff" points="254.32,-29.11 261.94,-21.75 251.39,-22.75 254.32,-29.11"/>
</a>
</g>
<g id="a_edge1&#45;headlabel"><a xlink:href="dir_000045_000020.html" target="_top" xlink:title="2">
<text text-anchor="middle" x="253.61" y="-29.44" font-family="Helvetica,sans-Serif" font-size="10.00" fill="#63b8ff">2</text>
</a>
</g>
</g>
</g>
</svg>
