<?xml version="1.0" encoding="UTF-8" standalone="no"?>
<!DOCTYPE svg PUBLIC "-//W3C//DTD SVG 1.1//EN"
 "http://www.w3.org/Graphics/SVG/1.1/DTD/svg11.dtd">
<!-- Generated by graphviz version 12.2.1 (0)
 -->
<!-- Title: lib Pages: 1 -->
<svg width="583pt" height="146pt"
 viewBox="0.00 0.00 583.38 146.25" xmlns="http://www.w3.org/2000/svg" xmlns:xlink="http://www.w3.org/1999/xlink">
<g id="graph0" class="graph" transform="scale(1 1) rotate(0) translate(4 142.25)">
<title>lib</title>
<g id="clust1" class="cluster">
<title>clusterdir_271d3aa807e54726686810b489123a0c</title>
<g id="a_clust1"><a xlink:href="dir_271d3aa807e54726686810b489123a0c.html" target="_top" xlink:title="nixd">
<polygon fill="#edf0f7" stroke="#404040" stroke-dasharray="5,2" points="8,-8 8,-130.25 456,-130.25 456,-8 8,-8"/>
<text text-anchor="middle" x="232" y="-116.75" font-family="Helvetica,sans-Serif" font-size="10.00">nixd</text>
</a>
</g>
</g>
<g id="clust2" class="cluster">
<title>clusterdir_8710806578cad174ffcb5e19312c912a</title>
<g id="a_clust2"><a xlink:href="dir_8710806578cad174ffcb5e19312c912a.html" target="_top">
<polygon fill="#edf0f7" stroke="#404040" stroke-width="2" points="16,-64.75 16,-101.5 448,-101.5 448,-64.75 16,-64.75"/>
</a>
</g>
</g>
<!-- dir_5def0a8c33681ccffd5a1a329ca9c6c2 -->
<g id="node1" class="node">
<title>dir_5def0a8c33681ccffd5a1a329ca9c6c2</title>
<g id="a_node1"><a xlink:href="dir_5def0a8c33681ccffd5a1a329ca9c6c2.html" target="_top" xlink:title="lspserver">
<polygon fill="#a2b4d6" stroke="red" points="382.5,-36.75 321.5,-36.75 321.5,-16 382.5,-16 382.5,-36.75"/>
<text text-anchor="middle" x="352" y="-23.25" font-family="Helvetica,sans-Serif" font-size="10.00">lspserver</text>
</a>
</g>
</g>
<!-- dir_6072663c54edb131dd9eabf55cf77072 -->
<g id="node2" class="node">
<title>dir_6072663c54edb131dd9eabf55cf77072</title>
<g id="a_node2"><a xlink:href="dir_6072663c54edb131dd9eabf55cf77072.html" target="_top" xlink:title="include">
<polygon fill="#a2b4d6" stroke="red" points="284.62,-36.75 233.38,-36.75 233.38,-16 284.62,-16 284.62,-36.75"/>
<text text-anchor="middle" x="259" y="-23.25" font-family="Helvetica,sans-Serif" font-size="10.00">include</text>
</a>
</g>
</g>
<!-- dir_8710806578cad174ffcb5e19312c912a -->
<g id="node3" class="node">
<title>dir_8710806578cad174ffcb5e19312c912a</title>
<text text-anchor="middle" x="38" y="-80" font-family="Helvetica,sans-Serif" font-size="10.00">lib</text>
</g>
<!-- dir_ace1bc4bdf9378a7354e2dacfa3269ed -->
<g id="node4" class="node">
<title>dir_ace1bc4bdf9378a7354e2dacfa3269ed</title>
<g id="a_node4"><a xlink:href="dir_ace1bc4bdf9378a7354e2dacfa3269ed.html" target="_top" xlink:title="CommandLine">
<polygon fill="#a2b4d6" stroke="#404040" points="302.25,-93.5 215.75,-93.5 215.75,-72.75 302.25,-72.75 302.25,-93.5"/>
<text text-anchor="middle" x="259" y="-80" font-family="Helvetica,sans-Serif" font-size="10.00">CommandLine</text>
</a>
</g>
</g>
<!-- dir_ace1bc4bdf9378a7354e2dacfa3269ed&#45;&gt;dir_5def0a8c33681ccffd5a1a329ca9c6c2 -->
<g id="edge1" class="edge">
<title>dir_ace1bc4bdf9378a7354e2dacfa3269ed&#45;&gt;dir_5def0a8c33681ccffd5a1a329ca9c6c2</title>
<g id="a_edge1"><a xlink:href="dir_000003_000018.html" target="_top">
<path fill="none" stroke="#63b8ff" d="M275.63,-72.34C289.51,-64.16 309.56,-52.36 325.63,-42.9"/>
<polygon fill="#63b8ff" stroke="#63b8ff" points="327.37,-45.94 334.21,-37.85 323.82,-39.9 327.37,-45.94"/>
</a>
</g>
<g id="a_edge1&#45;headlabel"><a xlink:href="dir_000003_000018.html" target="_top" xlink:title="1">
<text text-anchor="middle" x="327.02" y="-46.31" font-family="Helvetica,sans-Serif" font-size="10.00" fill="#63b8ff">1</text>
</a>
</g>
</g>
<!-- dir_ace1bc4bdf9378a7354e2dacfa3269ed&#45;&gt;dir_6072663c54edb131dd9eabf55cf77072 -->
<g id="edge2" class="edge">
<title>dir_ace1bc4bdf9378a7354e2dacfa3269ed&#45;&gt;dir_6072663c54edb131dd9eabf55cf77072</title>
<g id="a_edge2"><a xlink:href="dir_000003_000012.html" target="_top">
<path fill="none" stroke="#63b8ff" d="M259,-72.34C259,-65.72 259,-56.72 259,-48.52"/>
<polygon fill="#63b8ff" stroke="#63b8ff" points="262.5,-48.59 259,-38.59 255.5,-48.59 262.5,-48.59"/>
</a>
</g>
<g id="a_edge2&#45;headlabel"><a xlink:href="dir_000003_000012.html" target="_top" xlink:title="5">
<text text-anchor="middle" x="265.34" y="-47.55" font-family="Helvetica,sans-Serif" font-size="10.00" fill="#63b8ff">5</text>
</a>
</g>
</g>
<!-- dir_2dfd61e782002e6a63843e36bf78a91c -->
<g id="node5" class="node">
<title>dir_2dfd61e782002e6a63843e36bf78a91c</title>
<g id="a_node5"><a xlink:href="dir_2dfd61e782002e6a63843e36bf78a91c.html" target="_top" xlink:title="Controller">
<polygon fill="#a2b4d6" stroke="#404040" points="384,-93.5 320,-93.5 320,-72.75 384,-72.75 384,-93.5"/>
<text text-anchor="middle" x="352" y="-80" font-family="Helvetica,sans-Serif" font-size="10.00">Controller</text>
</a>
</g>
</g>
<!-- dir_2dfd61e782002e6a63843e36bf78a91c&#45;&gt;dir_5def0a8c33681ccffd5a1a329ca9c6c2 -->
<g id="edge3" class="edge">
<title>dir_2dfd61e782002e6a63843e36bf78a91c&#45;&gt;dir_5def0a8c33681ccffd5a1a329ca9c6c2</title>
<g id="a_edge3"><a xlink:href="dir_000005_000018.html" target="_top">
<path fill="none" stroke="#63b8ff" d="M352,-72.34C352,-65.72 352,-56.72 352,-48.52"/>
<polygon fill="#63b8ff" stroke="#63b8ff" points="355.5,-48.59 352,-38.59 348.5,-48.59 355.5,-48.59"/>
</a>
</g>
<g id="a_edge3&#45;headlabel"><a xlink:href="dir_000005_000018.html" target="_top" xlink:title="11">
<text text-anchor="middle" x="358.34" y="-47.55" font-family="Helvetica,sans-Serif" font-size="10.00" fill="#63b8ff">11</text>
</a>
</g>
</g>
<!-- dir_2dfd61e782002e6a63843e36bf78a91c&#45;&gt;dir_6072663c54edb131dd9eabf55cf77072 -->
<g id="edge4" class="edge">
<title>dir_2dfd61e782002e6a63843e36bf78a91c&#45;&gt;dir_6072663c54edb131dd9eabf55cf77072</title>
<g id="a_edge4"><a xlink:href="dir_000005_000012.html" target="_top">
<path fill="none" stroke="#63b8ff" d="M335.37,-72.34C321.49,-64.16 301.44,-52.36 285.37,-42.9"/>
<polygon fill="#63b8ff" stroke="#63b8ff" points="287.18,-39.9 276.79,-37.85 283.63,-45.94 287.18,-39.9"/>
</a>
</g>
<g id="a_edge4&#45;headlabel"><a xlink:href="dir_000005_000012.html" target="_top" xlink:title="30">
<text text-anchor="middle" x="290.41" y="-35.39" font-family="Helvetica,sans-Serif" font-size="10.00" fill="#63b8ff">30</text>
</a>
</g>
</g>
<!-- dir_9ff0e04ed484c0229c3bd8fc4cfe4cb8 -->
<g id="node9" class="node">
<title>dir_9ff0e04ed484c0229c3bd8fc4cfe4cb8</title>
<g id="a_node9"><a xlink:href="dir_9ff0e04ed484c0229c3bd8fc4cfe4cb8.html" target="_top" xlink:title="libnixf">
<polygon fill="#edf0f7" stroke="red" points="510.38,-36.75 463.62,-36.75 463.62,-16 510.38,-16 510.38,-36.75"/>
<text text-anchor="middle" x="487" y="-23.25" font-family="Helvetica,sans-Serif" font-size="10.00">libnixf</text>
</a>
</g>
</g>
<!-- dir_2dfd61e782002e6a63843e36bf78a91c&#45;&gt;dir_9ff0e04ed484c0229c3bd8fc4cfe4cb8 -->
<g id="edge5" class="edge">
<title>dir_2dfd61e782002e6a63843e36bf78a91c&#45;&gt;dir_9ff0e04ed484c0229c3bd8fc4cfe4cb8</title>
<g id="a_edge5"><a xlink:href="dir_000005_000016.html" target="_top">
<path fill="none" stroke="#63b8ff" d="M375.53,-72.34C381.55,-69.85 388.01,-67.19 394,-64.75 413.48,-56.81 435.31,-48.03 452.91,-40.98"/>
<polygon fill="#63b8ff" stroke="#63b8ff" points="453.88,-44.36 461.87,-37.4 451.28,-37.86 453.88,-44.36"/>
</a>
</g>
<g id="a_edge5&#45;headlabel"><a xlink:href="dir_000005_000016.html" target="_top" xlink:title="30">
<text text-anchor="middle" x="453.01" y="-44.64" font-family="Helvetica,sans-Serif" font-size="10.00" fill="#63b8ff">30</text>
</a>
</g>
</g>
<!-- dir_272f3262a55b8c6cb4d459b3d2979355 -->
<g id="node6" class="node">
<title>dir_272f3262a55b8c6cb4d459b3d2979355</title>
<g id="a_node6"><a xlink:href="dir_272f3262a55b8c6cb4d459b3d2979355.html" target="_top" xlink:title="Eval">
<polygon fill="#a2b4d6" stroke="#404040" points="439.5,-93.5 402.5,-93.5 402.5,-72.75 439.5,-72.75 439.5,-93.5"/>
<text text-anchor="middle" x="421" y="-80" font-family="Helvetica,sans-Serif" font-size="10.00">Eval</text>
</a>
</g>
</g>
<!-- dir_272f3262a55b8c6cb4d459b3d2979355&#45;&gt;dir_5def0a8c33681ccffd5a1a329ca9c6c2 -->
<g id="edge6" class="edge">
<title>dir_272f3262a55b8c6cb4d459b3d2979355&#45;&gt;dir_5def0a8c33681ccffd5a1a329ca9c6c2</title>
<g id="a_edge6"><a xlink:href="dir_000009_000018.html" target="_top">
<path fill="none" stroke="#63b8ff" d="M408.66,-72.34C398.75,-64.47 384.61,-53.25 372.94,-43.99"/>
<polygon fill="#63b8ff" stroke="#63b8ff" points="375.42,-41.49 365.41,-38.02 371.07,-46.98 375.42,-41.49"/>
</a>
</g>
<g id="a_edge6&#45;headlabel"><a xlink:href="dir_000009_000018.html" target="_top" xlink:title="1">
<text text-anchor="middle" x="378.82" y="-37.44" font-family="Helvetica,sans-Serif" font-size="10.00" fill="#63b8ff">1</text>
</a>
</g>
</g>
<!-- dir_272f3262a55b8c6cb4d459b3d2979355&#45;&gt;dir_6072663c54edb131dd9eabf55cf77072 -->
<g id="edge7" class="edge">
<title>dir_272f3262a55b8c6cb4d459b3d2979355&#45;&gt;dir_6072663c54edb131dd9eabf55cf77072</title>
<g id="a_edge7"><a xlink:href="dir_000009_000012.html" target="_top">
<path fill="none" stroke="#63b8ff" d="M406.9,-72.29C402.57,-69.58 397.71,-66.82 393,-64.75 361.46,-50.9 323.47,-40.88 296.01,-34.73"/>
<polygon fill="#63b8ff" stroke="#63b8ff" points="296.93,-31.34 286.41,-32.64 295.44,-38.18 296.93,-31.34"/>
</a>
</g>
<g id="a_edge7&#45;headlabel"><a xlink:href="dir_000009_000012.html" target="_top" xlink:title="5">
<text text-anchor="middle" x="299.56" y="-25.89" font-family="Helvetica,sans-Serif" font-size="10.00" fill="#63b8ff">5</text>
</a>
</g>
</g>
<!-- dir_c40eb6f7b133789742bdf3cebb28ba81 -->
<g id="node10" class="node">
<title>dir_c40eb6f7b133789742bdf3cebb28ba81</title>
<g id="a_node10"><a xlink:href="dir_c40eb6f7b133789742bdf3cebb28ba81.html" target="_top" xlink:title="libnixt">
<polygon fill="#edf0f7" stroke="red" points="575.38,-36.75 528.62,-36.75 528.62,-16 575.38,-16 575.38,-36.75"/>
<text text-anchor="middle" x="552" y="-23.25" font-family="Helvetica,sans-Serif" font-size="10.00">libnixt</text>
</a>
</g>
</g>
<!-- dir_272f3262a55b8c6cb4d459b3d2979355&#45;&gt;dir_c40eb6f7b133789742bdf3cebb28ba81 -->
<g id="edge8" class="edge">
<title>dir_272f3262a55b8c6cb4d459b3d2979355&#45;&gt;dir_c40eb6f7b133789742bdf3cebb28ba81</title>
<g id="a_edge8"><a xlink:href="dir_000009_000017.html" target="_top">
<path fill="none" stroke="#63b8ff" d="M439.77,-74.28C460.11,-65.78 492.98,-52.04 517.91,-41.62"/>
<polygon fill="#63b8ff" stroke="#63b8ff" points="519.11,-44.91 526.99,-37.83 516.42,-38.45 519.11,-44.91"/>
</a>
</g>
<g id="a_edge8&#45;headlabel"><a xlink:href="dir_000009_000017.html" target="_top" xlink:title="1">
<text text-anchor="middle" x="518.29" y="-45.21" font-family="Helvetica,sans-Serif" font-size="10.00" fill="#63b8ff">1</text>
</a>
</g>
</g>
<!-- dir_c7c53a0769b4ad4e9ba220fbe05bc880 -->
<g id="node7" class="node">
<title>dir_c7c53a0769b4ad4e9ba220fbe05bc880</title>
<g id="a_node7"><a xlink:href="dir_c7c53a0769b4ad4e9ba220fbe05bc880.html" target="_top" xlink:title="Protocol">
<polygon fill="#a2b4d6" stroke="#404040" points="125.88,-93.5 70.12,-93.5 70.12,-72.75 125.88,-72.75 125.88,-93.5"/>
<text text-anchor="middle" x="98" y="-80" font-family="Helvetica,sans-Serif" font-size="10.00">Protocol</text>
</a>
</g>
</g>
<!-- dir_c7c53a0769b4ad4e9ba220fbe05bc880&#45;&gt;dir_6072663c54edb131dd9eabf55cf77072 -->
<g id="edge9" class="edge">
<title>dir_c7c53a0769b4ad4e9ba220fbe05bc880&#45;&gt;dir_6072663c54edb131dd9eabf55cf77072</title>
<g id="a_edge9"><a xlink:href="dir_000028_000012.html" target="_top">
<path fill="none" stroke="#63b8ff" d="M117.36,-72.38C122.97,-69.74 129.17,-66.98 135,-64.75 163.77,-53.73 197.26,-43.8 222.18,-36.95"/>
<polygon fill="#63b8ff" stroke="#63b8ff" points="222.78,-40.41 231.52,-34.42 220.95,-33.66 222.78,-40.41"/>
</a>
</g>
<g id="a_edge9&#45;headlabel"><a xlink:href="dir_000028_000012.html" target="_top" xlink:title="2">
<text text-anchor="middle" x="221.52" y="-40.57" font-family="Helvetica,sans-Serif" font-size="10.00" fill="#63b8ff">2</text>
</a>
</g>
</g>
<!-- dir_978717066d8678c437a210f61244a087 -->
<g id="node8" class="node">
<title>dir_978717066d8678c437a210f61244a087</title>
<g id="a_node8"><a xlink:href="dir_978717066d8678c437a210f61244a087.html" target="_top" xlink:title="Support">
<polygon fill="#a2b4d6" stroke="#404040" points="197.75,-93.5 144.25,-93.5 144.25,-72.75 197.75,-72.75 197.75,-93.5"/>
<text text-anchor="middle" x="171" y="-80" font-family="Helvetica,sans-Serif" font-size="10.00">Support</text>
</a>
</g>
</g>
<!-- dir_978717066d8678c437a210f61244a087&#45;&gt;dir_6072663c54edb131dd9eabf55cf77072 -->
<g id="edge10" class="edge">
<title>dir_978717066d8678c437a210f61244a087&#45;&gt;dir_6072663c54edb131dd9eabf55cf77072</title>
<g id="a_edge10"><a xlink:href="dir_000034_000012.html" target="_top">
<path fill="none" stroke="#63b8ff" d="M186.73,-72.34C199.87,-64.16 218.84,-52.36 234.05,-42.9"/>
<polygon fill="#63b8ff" stroke="#63b8ff" points="235.48,-46.13 242.12,-37.88 231.78,-40.19 235.48,-46.13"/>
</a>
</g>
<g id="a_edge10&#45;headlabel"><a xlink:href="dir_000034_000012.html" target="_top" xlink:title="6">
<text text-anchor="middle" x="235.21" y="-46.52" font-family="Helvetica,sans-Serif" font-size="10.00" fill="#63b8ff">6</text>
</a>
</g>
</g>
</g>
</svg>
