<?xml version="1.0" encoding="UTF-8" standalone="no"?>
<!DOCTYPE svg PUBLIC "-//W3C//DTD SVG 1.1//EN"
 "http://www.w3.org/Graphics/SVG/1.1/DTD/svg11.dtd">
<!-- Generated by graphviz version 12.1.2 (0)
 -->
<!-- Title: nixd Pages: 1 -->
<svg width="364pt" height="301pt"
 viewBox="0.00 0.00 364.38 300.50" xmlns="http://www.w3.org/2000/svg" xmlns:xlink="http://www.w3.org/1999/xlink">
<g id="graph0" class="graph" transform="scale(1 1) rotate(0) translate(4 296.5)">
<title>nixd</title>
<g id="clust1" class="cluster">
<title>clusterdir_6072663c54edb131dd9eabf55cf77072</title>
<g id="a_clust1"><a xlink:href="dir_6072663c54edb131dd9eabf55cf77072.html" target="_top" xlink:title="include">
<polygon fill="#edf0f7" stroke="#7f7f7f" stroke-dasharray="5,2" points="8,-40.75 8,-284.5 182,-284.5 182,-40.75 8,-40.75"/>
<text text-anchor="middle" x="95" y="-271" font-family="Helvetica,sans-Serif" font-size="10.00">include</text>
</a>
</g>
</g>
<g id="clust2" class="cluster">
<title>clusterdir_78474edbfdb26b7810ef0ed54a6ffeb0</title>
<g id="a_clust2"><a xlink:href="dir_78474edbfdb26b7810ef0ed54a6ffeb0.html" target="_top">
<polygon fill="#edf0f7" stroke="#404040" stroke-width="2" points="16,-48.75 16,-255.75 174,-255.75 174,-48.75 16,-48.75"/>
</a>
</g>
</g>
<!-- dir_78474edbfdb26b7810ef0ed54a6ffeb0 -->
<g id="node1" class="node">
<title>dir_78474edbfdb26b7810ef0ed54a6ffeb0</title>
<text text-anchor="middle" x="43" y="-234.25" font-family="Helvetica,sans-Serif" font-size="10.00">nixd</text>
</g>
<!-- dir_0842f02ee6fc0ecc9c7973a56a3aa437 -->
<g id="node2" class="node">
<title>dir_0842f02ee6fc0ecc9c7973a56a3aa437</title>
<g id="a_node2"><a xlink:href="dir_0842f02ee6fc0ecc9c7973a56a3aa437.html" target="_top" xlink:title="CommandLine">
<polygon fill="#a2b4d6" stroke="#404040" points="166.25,-247.75 79.75,-247.75 79.75,-227 166.25,-227 166.25,-247.75"/>
<text text-anchor="middle" x="123" y="-234.25" font-family="Helvetica,sans-Serif" font-size="10.00">CommandLine</text>
</a>
</g>
</g>
<!-- dir_1b739488bd9a560c1a1a4ec4ac74c381 -->
<g id="node3" class="node">
<title>dir_1b739488bd9a560c1a1a4ec4ac74c381</title>
<g id="a_node3"><a xlink:href="dir_1b739488bd9a560c1a1a4ec4ac74c381.html" target="_top" xlink:title="Controller">
<polygon fill="#a2b4d6" stroke="#404040" points="160,-191 96,-191 96,-170.25 160,-170.25 160,-191"/>
<text text-anchor="middle" x="128" y="-177.5" font-family="Helvetica,sans-Serif" font-size="10.00">Controller</text>
</a>
</g>
</g>
<!-- dir_0842f02ee6fc0ecc9c7973a56a3aa437&#45;&gt;dir_1b739488bd9a560c1a1a4ec4ac74c381 -->
<g id="edge1" class="edge">
<title>dir_0842f02ee6fc0ecc9c7973a56a3aa437&#45;&gt;dir_1b739488bd9a560c1a1a4ec4ac74c381</title>
<g id="a_edge1"><a xlink:href="dir_000002_000004.html" target="_top">
<path fill="none" stroke="#63b8ff" d="M123.89,-226.59C124.5,-219.97 125.32,-210.97 126.07,-202.77"/>
<polygon fill="#63b8ff" stroke="#63b8ff" points="129.55,-203.11 126.98,-192.84 122.58,-202.48 129.55,-203.11"/>
</a>
</g>
<g id="a_edge1&#45;headlabel"><a xlink:href="dir_000002_000004.html" target="_top" xlink:title="1">
<text text-anchor="middle" x="132.19" y="-202.32" font-family="Helvetica,sans-Serif" font-size="10.00" fill="#63b8ff">1</text>
</a>
</g>
</g>
<!-- dir_5d9174fd82c34d170442a81ddb0d3867 -->
<g id="node4" class="node">
<title>dir_5d9174fd82c34d170442a81ddb0d3867</title>
<g id="a_node4"><a xlink:href="dir_5d9174fd82c34d170442a81ddb0d3867.html" target="_top" xlink:title="Eval">
<polygon fill="#a2b4d6" stroke="#404040" points="165.5,-134.25 128.5,-134.25 128.5,-113.5 165.5,-113.5 165.5,-134.25"/>
<text text-anchor="middle" x="147" y="-120.75" font-family="Helvetica,sans-Serif" font-size="10.00">Eval</text>
</a>
</g>
</g>
<!-- dir_1b739488bd9a560c1a1a4ec4ac74c381&#45;&gt;dir_5d9174fd82c34d170442a81ddb0d3867 -->
<g id="edge3" class="edge">
<title>dir_1b739488bd9a560c1a1a4ec4ac74c381&#45;&gt;dir_5d9174fd82c34d170442a81ddb0d3867</title>
<g id="a_edge3"><a xlink:href="dir_000004_000008.html" target="_top">
<path fill="none" stroke="#63b8ff" d="M131.4,-169.84C133.75,-163.06 136.96,-153.8 139.86,-145.44"/>
<polygon fill="#63b8ff" stroke="#63b8ff" points="143.16,-146.6 143.14,-136.01 136.55,-144.31 143.16,-146.6"/>
</a>
</g>
<g id="a_edge3&#45;headlabel"><a xlink:href="dir_000004_000008.html" target="_top" xlink:title="1">
<text text-anchor="middle" x="145.16" y="-146.38" font-family="Helvetica,sans-Serif" font-size="10.00" fill="#63b8ff">1</text>
</a>
</g>
</g>
<!-- dir_fae1b722d580b1d4896c7d9500c560d0 -->
<g id="node5" class="node">
<title>dir_fae1b722d580b1d4896c7d9500c560d0</title>
<g id="a_node5"><a xlink:href="dir_fae1b722d580b1d4896c7d9500c560d0.html" target="_top" xlink:title="Protocol">
<polygon fill="#a2b4d6" stroke="#404040" points="79.88,-77.5 24.12,-77.5 24.12,-56.75 79.88,-56.75 79.88,-77.5"/>
<text text-anchor="middle" x="52" y="-64" font-family="Helvetica,sans-Serif" font-size="10.00">Protocol</text>
</a>
</g>
</g>
<!-- dir_1b739488bd9a560c1a1a4ec4ac74c381&#45;&gt;dir_fae1b722d580b1d4896c7d9500c560d0 -->
<g id="edge6" class="edge">
<title>dir_1b739488bd9a560c1a1a4ec4ac74c381&#45;&gt;dir_fae1b722d580b1d4896c7d9500c560d0</title>
<g id="a_edge6"><a xlink:href="dir_000004_000027.html" target="_top">
<path fill="none" stroke="#63b8ff" d="M121.52,-170.12C109.02,-151.78 81.36,-111.2 64.95,-87.12"/>
<polygon fill="#63b8ff" stroke="#63b8ff" points="68.06,-85.47 59.53,-79.18 62.27,-89.41 68.06,-85.47"/>
</a>
</g>
<g id="a_edge6&#45;headlabel"><a xlink:href="dir_000004_000027.html" target="_top" xlink:title="1">
<text text-anchor="middle" x="71.57" y="-82.46" font-family="Helvetica,sans-Serif" font-size="10.00" fill="#63b8ff">1</text>
</a>
</g>
</g>
<!-- dir_0a80291a1162a19961e2bbfd790094c7 -->
<g id="node6" class="node">
<title>dir_0a80291a1162a19961e2bbfd790094c7</title>
<g id="a_node6"><a xlink:href="dir_0a80291a1162a19961e2bbfd790094c7.html" target="_top" xlink:title="Support">
<polygon fill="#a2b4d6" stroke="#404040" points="151.75,-77.5 98.25,-77.5 98.25,-56.75 151.75,-56.75 151.75,-77.5"/>
<text text-anchor="middle" x="125" y="-64" font-family="Helvetica,sans-Serif" font-size="10.00">Support</text>
</a>
</g>
</g>
<!-- dir_1b739488bd9a560c1a1a4ec4ac74c381&#45;&gt;dir_0a80291a1162a19961e2bbfd790094c7 -->
<g id="edge2" class="edge">
<title>dir_1b739488bd9a560c1a1a4ec4ac74c381&#45;&gt;dir_0a80291a1162a19961e2bbfd790094c7</title>
<g id="a_edge2"><a xlink:href="dir_000004_000033.html" target="_top">
<path fill="none" stroke="#63b8ff" d="M125.79,-169.95C123.82,-160.81 121.09,-146.68 120,-134.25 118.68,-119.13 120.04,-102.04 121.68,-89.02"/>
<polygon fill="#63b8ff" stroke="#63b8ff" points="125.09,-89.88 123.04,-79.49 118.16,-88.89 125.09,-89.88"/>
</a>
</g>
<g id="a_edge2&#45;headlabel"><a xlink:href="dir_000004_000033.html" target="_top" xlink:title="2">
<text text-anchor="middle" x="127.61" y="-89.22" font-family="Helvetica,sans-Serif" font-size="10.00" fill="#63b8ff">2</text>
</a>
</g>
</g>
<!-- dir_5def0a8c33681ccffd5a1a329ca9c6c2 -->
<g id="node7" class="node">
<title>dir_5def0a8c33681ccffd5a1a329ca9c6c2</title>
<g id="a_node7"><a xlink:href="dir_5def0a8c33681ccffd5a1a329ca9c6c2.html" target="_top" xlink:title="lspserver">
<polygon fill="#edf0f7" stroke="red" stroke-dasharray="5,2" points="182.5,-20.75 121.5,-20.75 121.5,0 182.5,0 182.5,-20.75"/>
<text text-anchor="middle" x="152" y="-7.25" font-family="Helvetica,sans-Serif" font-size="10.00">lspserver</text>
</a>
</g>
</g>
<!-- dir_1b739488bd9a560c1a1a4ec4ac74c381&#45;&gt;dir_5def0a8c33681ccffd5a1a329ca9c6c2 -->
<g id="edge4" class="edge">
<title>dir_1b739488bd9a560c1a1a4ec4ac74c381&#45;&gt;dir_5def0a8c33681ccffd5a1a329ca9c6c2</title>
<g id="a_edge4"><a xlink:href="dir_000004_000018.html" target="_top">
<path fill="none" stroke="#63b8ff" d="M152.02,-169.76C184.17,-155.06 239.83,-124.07 263,-77.5 270.27,-62.88 272.96,-53.69 263,-40.75 254.42,-29.61 221.6,-21.83 193.85,-17.08"/>
<polygon fill="#63b8ff" stroke="#63b8ff" points="194.67,-13.67 184.24,-15.54 193.55,-20.58 194.67,-13.67"/>
</a>
</g>
<g id="a_edge4&#45;headlabel"><a xlink:href="dir_000004_000018.html" target="_top" xlink:title="4">
<text text-anchor="middle" x="197.17" y="-8.07" font-family="Helvetica,sans-Serif" font-size="10.00" fill="#63b8ff">4</text>
</a>
</g>
</g>
<!-- dir_9ff0e04ed484c0229c3bd8fc4cfe4cb8 -->
<g id="node8" class="node">
<title>dir_9ff0e04ed484c0229c3bd8fc4cfe4cb8</title>
<g id="a_node8"><a xlink:href="dir_9ff0e04ed484c0229c3bd8fc4cfe4cb8.html" target="_top" xlink:title="libnixf">
<polygon fill="#edf0f7" stroke="red" points="356.38,-134.25 309.62,-134.25 309.62,-113.5 356.38,-113.5 356.38,-134.25"/>
<text text-anchor="middle" x="333" y="-120.75" font-family="Helvetica,sans-Serif" font-size="10.00">libnixf</text>
</a>
</g>
</g>
<!-- dir_1b739488bd9a560c1a1a4ec4ac74c381&#45;&gt;dir_9ff0e04ed484c0229c3bd8fc4cfe4cb8 -->
<g id="edge5" class="edge">
<title>dir_1b739488bd9a560c1a1a4ec4ac74c381&#45;&gt;dir_9ff0e04ed484c0229c3bd8fc4cfe4cb8</title>
<g id="a_edge5"><a xlink:href="dir_000004_000016.html" target="_top">
<path fill="none" stroke="#63b8ff" d="M160.48,-170.95C198.19,-160.88 260.13,-144.34 298.63,-134.06"/>
<polygon fill="#63b8ff" stroke="#63b8ff" points="299.08,-137.56 307.83,-131.6 297.27,-130.79 299.08,-137.56"/>
</a>
</g>
<g id="a_edge5&#45;headlabel"><a xlink:href="dir_000004_000016.html" target="_top" xlink:title="5">
<text text-anchor="middle" x="297.8" y="-137.71" font-family="Helvetica,sans-Serif" font-size="10.00" fill="#63b8ff">5</text>
</a>
</g>
</g>
<!-- dir_5d9174fd82c34d170442a81ddb0d3867&#45;&gt;dir_fae1b722d580b1d4896c7d9500c560d0 -->
<g id="edge10" class="edge">
<title>dir_5d9174fd82c34d170442a81ddb0d3867&#45;&gt;dir_fae1b722d580b1d4896c7d9500c560d0</title>
<g id="a_edge10"><a xlink:href="dir_000008_000027.html" target="_top">
<path fill="none" stroke="#63b8ff" d="M130.02,-113.09C115.7,-104.83 94.96,-92.88 78.46,-83.38"/>
<polygon fill="#63b8ff" stroke="#63b8ff" points="80.56,-80.55 70.15,-78.58 77.06,-86.61 80.56,-80.55"/>
</a>
</g>
<g id="a_edge10&#45;headlabel"><a xlink:href="dir_000008_000027.html" target="_top" xlink:title="3">
<text text-anchor="middle" x="83.78" y="-76" font-family="Helvetica,sans-Serif" font-size="10.00" fill="#63b8ff">3</text>
</a>
</g>
</g>
<!-- dir_5d9174fd82c34d170442a81ddb0d3867&#45;&gt;dir_0a80291a1162a19961e2bbfd790094c7 -->
<g id="edge7" class="edge">
<title>dir_5d9174fd82c34d170442a81ddb0d3867&#45;&gt;dir_0a80291a1162a19961e2bbfd790094c7</title>
<g id="a_edge7"><a xlink:href="dir_000008_000033.html" target="_top">
<path fill="none" stroke="#63b8ff" d="M143.07,-113.09C140.31,-106.24 136.54,-96.84 133.15,-88.4"/>
<polygon fill="#63b8ff" stroke="#63b8ff" points="136.44,-87.21 129.46,-79.23 129.94,-89.82 136.44,-87.21"/>
</a>
</g>
<g id="a_edge7&#45;headlabel"><a xlink:href="dir_000008_000033.html" target="_top" xlink:title="1">
<text text-anchor="middle" x="139.85" y="-84.95" font-family="Helvetica,sans-Serif" font-size="10.00" fill="#63b8ff">1</text>
</a>
</g>
</g>
<!-- dir_5d9174fd82c34d170442a81ddb0d3867&#45;&gt;dir_5def0a8c33681ccffd5a1a329ca9c6c2 -->
<g id="edge8" class="edge">
<title>dir_5d9174fd82c34d170442a81ddb0d3867&#45;&gt;dir_5def0a8c33681ccffd5a1a329ca9c6c2</title>
<g id="a_edge8"><a xlink:href="dir_000008_000018.html" target="_top">
<path fill="none" stroke="#63b8ff" d="M150.86,-113.33C154.3,-104.28 159.08,-90.22 161,-77.5 163.43,-61.35 163.42,-56.9 161,-40.75 160.56,-37.8 159.88,-34.73 159.09,-31.74"/>
<polygon fill="#63b8ff" stroke="#63b8ff" points="162.51,-30.95 156.19,-22.44 155.82,-33.03 162.51,-30.95"/>
</a>
</g>
<g id="a_edge8&#45;headlabel"><a xlink:href="dir_000008_000018.html" target="_top" xlink:title="4">
<text text-anchor="middle" x="165.84" y="-28.97" font-family="Helvetica,sans-Serif" font-size="10.00" fill="#63b8ff">4</text>
</a>
</g>
</g>
<!-- dir_c40eb6f7b133789742bdf3cebb28ba81 -->
<g id="node9" class="node">
<title>dir_c40eb6f7b133789742bdf3cebb28ba81</title>
<g id="a_node9"><a xlink:href="dir_c40eb6f7b133789742bdf3cebb28ba81.html" target="_top" xlink:title="libnixt">
<polygon fill="#edf0f7" stroke="red" points="254.38,-77.5 207.62,-77.5 207.62,-56.75 254.38,-56.75 254.38,-77.5"/>
<text text-anchor="middle" x="231" y="-64" font-family="Helvetica,sans-Serif" font-size="10.00">libnixt</text>
</a>
</g>
</g>
<!-- dir_5d9174fd82c34d170442a81ddb0d3867&#45;&gt;dir_c40eb6f7b133789742bdf3cebb28ba81 -->
<g id="edge9" class="edge">
<title>dir_5d9174fd82c34d170442a81ddb0d3867&#45;&gt;dir_c40eb6f7b133789742bdf3cebb28ba81</title>
<g id="a_edge9"><a xlink:href="dir_000008_000017.html" target="_top">
<path fill="none" stroke="#63b8ff" d="M162.02,-113.09C174.44,-104.99 192.32,-93.33 206.77,-83.92"/>
<polygon fill="#63b8ff" stroke="#63b8ff" points="208.38,-87.05 214.84,-78.65 204.56,-81.18 208.38,-87.05"/>
</a>
</g>
<g id="a_edge9&#45;headlabel"><a xlink:href="dir_000008_000017.html" target="_top" xlink:title="2">
<text text-anchor="middle" x="208.18" y="-87.44" font-family="Helvetica,sans-Serif" font-size="10.00" fill="#63b8ff">2</text>
</a>
</g>
</g>
<!-- dir_fae1b722d580b1d4896c7d9500c560d0&#45;&gt;dir_5def0a8c33681ccffd5a1a329ca9c6c2 -->
<g id="edge11" class="edge">
<title>dir_fae1b722d580b1d4896c7d9500c560d0&#45;&gt;dir_5def0a8c33681ccffd5a1a329ca9c6c2</title>
<g id="a_edge11"><a xlink:href="dir_000027_000018.html" target="_top">
<path fill="none" stroke="#63b8ff" d="M65.02,-56.42C71.96,-51.44 80.75,-45.46 89,-40.75 98.21,-35.49 108.53,-30.38 118.1,-25.93"/>
<polygon fill="#63b8ff" stroke="#63b8ff" points="119.45,-29.16 127.12,-21.85 116.57,-22.79 119.45,-29.16"/>
</a>
</g>
<g id="a_edge11&#45;headlabel"><a xlink:href="dir_000027_000018.html" target="_top" xlink:title="1">
<text text-anchor="middle" x="118.73" y="-29.48" font-family="Helvetica,sans-Serif" font-size="10.00" fill="#63b8ff">1</text>
</a>
</g>
</g>
<!-- dir_0a80291a1162a19961e2bbfd790094c7&#45;&gt;dir_5def0a8c33681ccffd5a1a329ca9c6c2 -->
<g id="edge12" class="edge">
<title>dir_0a80291a1162a19961e2bbfd790094c7&#45;&gt;dir_5def0a8c33681ccffd5a1a329ca9c6c2</title>
<g id="a_edge12"><a xlink:href="dir_000033_000018.html" target="_top">
<path fill="none" stroke="#63b8ff" d="M129.83,-56.34C133.24,-49.41 137.95,-39.87 142.14,-31.36"/>
<polygon fill="#63b8ff" stroke="#63b8ff" points="145.26,-32.95 146.55,-22.44 138.98,-29.86 145.26,-32.95"/>
</a>
</g>
<g id="a_edge12&#45;headlabel"><a xlink:href="dir_000033_000018.html" target="_top" xlink:title="1">
<text text-anchor="middle" x="146.89" y="-32.95" font-family="Helvetica,sans-Serif" font-size="10.00" fill="#63b8ff">1</text>
</a>
</g>
</g>
</g>
</svg>
