<?xml version="1.0" encoding="UTF-8" standalone="no"?>
<!DOCTYPE svg PUBLIC "-//W3C//DTD SVG 1.1//EN"
 "http://www.w3.org/Graphics/SVG/1.1/DTD/svg11.dtd">
<!-- Generated by graphviz version 12.1.2 (0)
 -->
<!-- Title: nixd Pages: 1 -->
<svg width="350pt" height="174pt"
 viewBox="0.00 0.00 350.38 174.25" xmlns="http://www.w3.org/2000/svg" xmlns:xlink="http://www.w3.org/1999/xlink">
<g id="graph0" class="graph" transform="scale(1 1) rotate(0) translate(4 170.25)">
<title>nixd</title>
<g id="clust1" class="cluster">
<title>clusterdir_271d3aa807e54726686810b489123a0c</title>
<g id="a_clust1"><a xlink:href="dir_271d3aa807e54726686810b489123a0c.html" target="_top">
<polygon fill="#edf0f7" stroke="#404040" stroke-width="2" points="8,-8 8,-158.25 223,-158.25 223,-8 8,-8"/>
</a>
</g>
</g>
<!-- dir_271d3aa807e54726686810b489123a0c -->
<g id="node1" class="node">
<title>dir_271d3aa807e54726686810b489123a0c</title>
<text text-anchor="middle" x="35" y="-136.75" font-family="Helvetica,sans-Serif" font-size="10.00">nixd</text>
</g>
<!-- dir_fbf4781f84a2dfdac7fb8e01b68aa402 -->
<g id="node2" class="node">
<title>dir_fbf4781f84a2dfdac7fb8e01b68aa402</title>
<g id="a_node2"><a xlink:href="dir_fbf4781f84a2dfdac7fb8e01b68aa402.html" target="_top" xlink:title="docs">
<polygon fill="#a2b4d6" stroke="#404040" points="110.25,-150.25 71.75,-150.25 71.75,-129.5 110.25,-129.5 110.25,-150.25"/>
<text text-anchor="middle" x="91" y="-136.75" font-family="Helvetica,sans-Serif" font-size="10.00">docs</text>
</a>
</g>
</g>
<!-- dir_6072663c54edb131dd9eabf55cf77072 -->
<g id="node3" class="node">
<title>dir_6072663c54edb131dd9eabf55cf77072</title>
<g id="a_node3"><a xlink:href="dir_6072663c54edb131dd9eabf55cf77072.html" target="_top" xlink:title="include">
<polygon fill="#a2b4d6" stroke="#404040" points="214.62,-93.5 163.38,-93.5 163.38,-72.75 214.62,-72.75 214.62,-93.5"/>
<text text-anchor="middle" x="189" y="-80" font-family="Helvetica,sans-Serif" font-size="10.00">include</text>
</a>
</g>
</g>
<!-- dir_5def0a8c33681ccffd5a1a329ca9c6c2 -->
<g id="node5" class="node">
<title>dir_5def0a8c33681ccffd5a1a329ca9c6c2</title>
<g id="a_node5"><a xlink:href="dir_5def0a8c33681ccffd5a1a329ca9c6c2.html" target="_top" xlink:title="lspserver">
<polygon fill="#a2b4d6" stroke="#404040" points="174.5,-36.75 113.5,-36.75 113.5,-16 174.5,-16 174.5,-36.75"/>
<text text-anchor="middle" x="144" y="-23.25" font-family="Helvetica,sans-Serif" font-size="10.00">lspserver</text>
</a>
</g>
</g>
<!-- dir_6072663c54edb131dd9eabf55cf77072&#45;&gt;dir_5def0a8c33681ccffd5a1a329ca9c6c2 -->
<g id="edge1" class="edge">
<title>dir_6072663c54edb131dd9eabf55cf77072&#45;&gt;dir_5def0a8c33681ccffd5a1a329ca9c6c2</title>
<g id="a_edge1"><a xlink:href="dir_000012_000018.html" target="_top">
<path fill="none" stroke="#63b8ff" d="M180.95,-72.34C174.94,-65.02 166.53,-54.79 159.26,-45.94"/>
<polygon fill="#63b8ff" stroke="#63b8ff" points="161.99,-43.75 152.94,-38.25 156.58,-48.2 161.99,-43.75"/>
</a>
</g>
<g id="a_edge1&#45;headlabel"><a xlink:href="dir_000012_000018.html" target="_top" xlink:title="10">
<text text-anchor="middle" x="165.5" y="-40.43" font-family="Helvetica,sans-Serif" font-size="10.00" fill="#63b8ff">10</text>
</a>
</g>
</g>
<!-- dir_9ff0e04ed484c0229c3bd8fc4cfe4cb8 -->
<g id="node7" class="node">
<title>dir_9ff0e04ed484c0229c3bd8fc4cfe4cb8</title>
<g id="a_node7"><a xlink:href="dir_9ff0e04ed484c0229c3bd8fc4cfe4cb8.html" target="_top" xlink:title="libnixf">
<polygon fill="#edf0f7" stroke="red" points="277.38,-36.75 230.62,-36.75 230.62,-16 277.38,-16 277.38,-36.75"/>
<text text-anchor="middle" x="254" y="-23.25" font-family="Helvetica,sans-Serif" font-size="10.00">libnixf</text>
</a>
</g>
</g>
<!-- dir_6072663c54edb131dd9eabf55cf77072&#45;&gt;dir_9ff0e04ed484c0229c3bd8fc4cfe4cb8 -->
<g id="edge2" class="edge">
<title>dir_6072663c54edb131dd9eabf55cf77072&#45;&gt;dir_9ff0e04ed484c0229c3bd8fc4cfe4cb8</title>
<g id="a_edge2"><a xlink:href="dir_000012_000016.html" target="_top">
<path fill="none" stroke="#63b8ff" d="M200.62,-72.34C209.86,-64.55 223.01,-53.47 233.95,-44.26"/>
<polygon fill="#63b8ff" stroke="#63b8ff" points="235.93,-47.17 241.32,-38.05 231.42,-41.82 235.93,-47.17"/>
</a>
</g>
<g id="a_edge2&#45;headlabel"><a xlink:href="dir_000012_000016.html" target="_top" xlink:title="5">
<text text-anchor="middle" x="236.17" y="-47.56" font-family="Helvetica,sans-Serif" font-size="10.00" fill="#63b8ff">5</text>
</a>
</g>
</g>
<!-- dir_c40eb6f7b133789742bdf3cebb28ba81 -->
<g id="node8" class="node">
<title>dir_c40eb6f7b133789742bdf3cebb28ba81</title>
<g id="a_node8"><a xlink:href="dir_c40eb6f7b133789742bdf3cebb28ba81.html" target="_top" xlink:title="libnixt">
<polygon fill="#edf0f7" stroke="red" points="342.38,-36.75 295.62,-36.75 295.62,-16 342.38,-16 342.38,-36.75"/>
<text text-anchor="middle" x="319" y="-23.25" font-family="Helvetica,sans-Serif" font-size="10.00">libnixt</text>
</a>
</g>
</g>
<!-- dir_6072663c54edb131dd9eabf55cf77072&#45;&gt;dir_c40eb6f7b133789742bdf3cebb28ba81 -->
<g id="edge3" class="edge">
<title>dir_6072663c54edb131dd9eabf55cf77072&#45;&gt;dir_c40eb6f7b133789742bdf3cebb28ba81</title>
<g id="a_edge3"><a xlink:href="dir_000012_000017.html" target="_top">
<path fill="none" stroke="#63b8ff" d="M212.24,-72.34C232.67,-63.73 262.64,-51.11 285.63,-41.43"/>
<polygon fill="#63b8ff" stroke="#63b8ff" points="286.71,-44.77 294.56,-37.67 283.99,-38.32 286.71,-44.77"/>
</a>
</g>
<g id="a_edge3&#45;headlabel"><a xlink:href="dir_000012_000017.html" target="_top" xlink:title="2">
<text text-anchor="middle" x="285.89" y="-45.07" font-family="Helvetica,sans-Serif" font-size="10.00" fill="#63b8ff">2</text>
</a>
</g>
</g>
<!-- dir_8710806578cad174ffcb5e19312c912a -->
<g id="node4" class="node">
<title>dir_8710806578cad174ffcb5e19312c912a</title>
<g id="a_node4"><a xlink:href="dir_8710806578cad174ffcb5e19312c912a.html" target="_top" xlink:title="lib">
<polygon fill="#a2b4d6" stroke="#404040" points="157.4,-150.25 128.6,-150.25 128.6,-129.5 157.4,-129.5 157.4,-150.25"/>
<text text-anchor="middle" x="143" y="-136.75" font-family="Helvetica,sans-Serif" font-size="10.00">lib</text>
</a>
</g>
</g>
<!-- dir_8710806578cad174ffcb5e19312c912a&#45;&gt;dir_6072663c54edb131dd9eabf55cf77072 -->
<g id="edge5" class="edge">
<title>dir_8710806578cad174ffcb5e19312c912a&#45;&gt;dir_6072663c54edb131dd9eabf55cf77072</title>
<g id="a_edge5"><a xlink:href="dir_000015_000012.html" target="_top">
<path fill="none" stroke="#63b8ff" d="M151.22,-129.09C157.44,-121.69 166.15,-111.32 173.64,-102.41"/>
<polygon fill="#63b8ff" stroke="#63b8ff" points="176.12,-104.9 179.87,-94.99 170.76,-100.39 176.12,-104.9"/>
</a>
</g>
<g id="a_edge5&#45;headlabel"><a xlink:href="dir_000015_000012.html" target="_top" xlink:title="48">
<text text-anchor="middle" x="176.96" y="-105.19" font-family="Helvetica,sans-Serif" font-size="10.00" fill="#63b8ff">48</text>
</a>
</g>
</g>
<!-- dir_8710806578cad174ffcb5e19312c912a&#45;&gt;dir_5def0a8c33681ccffd5a1a329ca9c6c2 -->
<g id="edge4" class="edge">
<title>dir_8710806578cad174ffcb5e19312c912a&#45;&gt;dir_5def0a8c33681ccffd5a1a329ca9c6c2</title>
<g id="a_edge4"><a xlink:href="dir_000015_000018.html" target="_top">
<path fill="none" stroke="#63b8ff" d="M141.69,-129.02C140.14,-116.1 137.9,-92.73 139,-72.75 139.44,-64.75 140.31,-55.98 141.21,-48.31"/>
<polygon fill="#63b8ff" stroke="#63b8ff" points="144.66,-48.95 142.43,-38.59 137.71,-48.07 144.66,-48.95"/>
</a>
</g>
<g id="a_edge4&#45;headlabel"><a xlink:href="dir_000015_000018.html" target="_top" xlink:title="13">
<text text-anchor="middle" x="147.21" y="-48.24" font-family="Helvetica,sans-Serif" font-size="10.00" fill="#63b8ff">13</text>
</a>
</g>
</g>
<!-- dir_8710806578cad174ffcb5e19312c912a&#45;&gt;dir_9ff0e04ed484c0229c3bd8fc4cfe4cb8 -->
<g id="edge6" class="edge">
<title>dir_8710806578cad174ffcb5e19312c912a&#45;&gt;dir_9ff0e04ed484c0229c3bd8fc4cfe4cb8</title>
<g id="a_edge6"><a xlink:href="dir_000015_000016.html" target="_top">
<path fill="none" stroke="#63b8ff" d="M157.58,-132.08C178.13,-122.28 214.19,-104.18 224,-93.5 235.99,-80.45 243.86,-61.78 248.52,-47.61"/>
<polygon fill="#63b8ff" stroke="#63b8ff" points="251.75,-49.01 251.26,-38.43 245.05,-47.01 251.75,-49.01"/>
</a>
</g>
<g id="a_edge6&#45;headlabel"><a xlink:href="dir_000015_000016.html" target="_top" xlink:title="30">
<text text-anchor="middle" x="253.88" y="-48.7" font-family="Helvetica,sans-Serif" font-size="10.00" fill="#63b8ff">30</text>
</a>
</g>
</g>
<!-- dir_8710806578cad174ffcb5e19312c912a&#45;&gt;dir_c40eb6f7b133789742bdf3cebb28ba81 -->
<g id="edge7" class="edge">
<title>dir_8710806578cad174ffcb5e19312c912a&#45;&gt;dir_c40eb6f7b133789742bdf3cebb28ba81</title>
<g id="a_edge7"><a xlink:href="dir_000015_000017.html" target="_top">
<path fill="none" stroke="#63b8ff" d="M157.88,-132.56C184.27,-121.31 237.23,-98.52 245,-93.5 266.57,-79.56 288.11,-59.43 302.34,-45.05"/>
<polygon fill="#63b8ff" stroke="#63b8ff" points="304.69,-47.65 309.14,-38.03 299.67,-42.78 304.69,-47.65"/>
</a>
</g>
<g id="a_edge7&#45;headlabel"><a xlink:href="dir_000015_000017.html" target="_top" xlink:title="1">
<text text-anchor="middle" x="305.29" y="-48" font-family="Helvetica,sans-Serif" font-size="10.00" fill="#63b8ff">1</text>
</a>
</g>
</g>
<!-- dir_43dccb67c075cdf61156590789c0ba7d -->
<g id="node6" class="node">
<title>dir_43dccb67c075cdf61156590789c0ba7d</title>
<g id="a_node6"><a xlink:href="dir_43dccb67c075cdf61156590789c0ba7d.html" target="_top" xlink:title="tools">
<polygon fill="#a2b4d6" stroke="#404040" points="215,-150.25 175,-150.25 175,-129.5 215,-129.5 215,-150.25"/>
<text text-anchor="middle" x="195" y="-136.75" font-family="Helvetica,sans-Serif" font-size="10.00">tools</text>
</a>
</g>
</g>
<!-- dir_43dccb67c075cdf61156590789c0ba7d&#45;&gt;dir_6072663c54edb131dd9eabf55cf77072 -->
<g id="edge9" class="edge">
<title>dir_43dccb67c075cdf61156590789c0ba7d&#45;&gt;dir_6072663c54edb131dd9eabf55cf77072</title>
<g id="a_edge9"><a xlink:href="dir_000036_000012.html" target="_top">
<path fill="none" stroke="#63b8ff" d="M193.93,-129.09C193.2,-122.47 192.22,-113.47 191.32,-105.27"/>
<polygon fill="#63b8ff" stroke="#63b8ff" points="194.8,-104.89 190.23,-95.33 187.84,-105.65 194.8,-104.89"/>
</a>
</g>
<g id="a_edge9&#45;headlabel"><a xlink:href="dir_000036_000012.html" target="_top" xlink:title="4">
<text text-anchor="middle" x="197.85" y="-103.53" font-family="Helvetica,sans-Serif" font-size="10.00" fill="#63b8ff">4</text>
</a>
</g>
</g>
<!-- dir_43dccb67c075cdf61156590789c0ba7d&#45;&gt;dir_5def0a8c33681ccffd5a1a329ca9c6c2 -->
<g id="edge8" class="edge">
<title>dir_43dccb67c075cdf61156590789c0ba7d&#45;&gt;dir_5def0a8c33681ccffd5a1a329ca9c6c2</title>
<g id="a_edge8"><a xlink:href="dir_000036_000018.html" target="_top">
<path fill="none" stroke="#63b8ff" d="M182.86,-129.04C173.38,-120.65 160.73,-107.7 154,-93.5 147.29,-79.35 144.88,-61.75 144.09,-48.27"/>
<polygon fill="#63b8ff" stroke="#63b8ff" points="147.6,-48.25 143.8,-38.36 140.6,-48.46 147.6,-48.25"/>
</a>
</g>
<g id="a_edge8&#45;headlabel"><a xlink:href="dir_000036_000018.html" target="_top" xlink:title="3">
<text text-anchor="middle" x="150.5" y="-47.12" font-family="Helvetica,sans-Serif" font-size="10.00" fill="#63b8ff">3</text>
</a>
</g>
</g>
<!-- dir_43dccb67c075cdf61156590789c0ba7d&#45;&gt;dir_c40eb6f7b133789742bdf3cebb28ba81 -->
<g id="edge10" class="edge">
<title>dir_43dccb67c075cdf61156590789c0ba7d&#45;&gt;dir_c40eb6f7b133789742bdf3cebb28ba81</title>
<g id="a_edge10"><a xlink:href="dir_000036_000017.html" target="_top">
<path fill="none" stroke="#63b8ff" d="M215.42,-134.61C237.84,-128.91 273.51,-116.73 295,-93.5 306.55,-81.02 312.63,-62.56 315.78,-48.31"/>
<polygon fill="#63b8ff" stroke="#63b8ff" points="319.2,-49.09 317.58,-38.62 312.31,-47.81 319.2,-49.09"/>
</a>
</g>
<g id="a_edge10&#45;headlabel"><a xlink:href="dir_000036_000017.html" target="_top" xlink:title="1">
<text text-anchor="middle" x="321.61" y="-48.53" font-family="Helvetica,sans-Serif" font-size="10.00" fill="#63b8ff">1</text>
</a>
</g>
</g>
</g>
</svg>
