<?xml version="1.0" encoding="UTF-8" standalone="no"?>
<!DOCTYPE svg PUBLIC "-//W3C//DTD SVG 1.1//EN"
 "http://www.w3.org/Graphics/SVG/1.1/DTD/svg11.dtd">
<!-- Generated by graphviz version 12.2.1 (0)
 -->
<!-- Title: Controller Pages: 1 -->
<svg width="201pt" height="187pt"
 viewBox="0.00 0.00 200.65 187.00" xmlns="http://www.w3.org/2000/svg" xmlns:xlink="http://www.w3.org/1999/xlink">
<g id="graph0" class="graph" transform="scale(1 1) rotate(0) translate(4 183)">
<title>Controller</title>
<g id="clust1" class="cluster">
<title>clusterdir_8710806578cad174ffcb5e19312c912a</title>
<g id="a_clust1"><a xlink:href="dir_8710806578cad174ffcb5e19312c912a.html" target="_top" xlink:title="lib">
<polygon fill="#edf0f7" stroke="#7f7f7f" stroke-dasharray="5,2" points="9.5,-40.75 9.5,-171 117.5,-171 117.5,-40.75 9.5,-40.75"/>
<text text-anchor="middle" x="63.5" y="-157.5" font-family="Helvetica,sans-Serif" font-size="10.00">lib</text>
</a>
</g>
</g>
<g id="clust2" class="cluster">
<title>clusterdir_2dfd61e782002e6a63843e36bf78a91c</title>
<g id="a_clust2"><a xlink:href="dir_2dfd61e782002e6a63843e36bf78a91c.html" target="_top">
<polygon fill="#edf0f7" stroke="#404040" stroke-width="2" points="17.5,-48.75 17.5,-142.25 109.5,-142.25 109.5,-48.75 17.5,-48.75"/>
</a>
</g>
</g>
<!-- dir_2dfd61e782002e6a63843e36bf78a91c -->
<g id="node1" class="node">
<title>dir_2dfd61e782002e6a63843e36bf78a91c</title>
<text text-anchor="middle" x="66.5" y="-120.75" font-family="Helvetica,sans-Serif" font-size="10.00">Controller</text>
</g>
<!-- dir_b0b098fcd8f6db4f76fc3007db9ffe76 -->
<g id="node2" class="node">
<title>dir_b0b098fcd8f6db4f76fc3007db9ffe76</title>
<g id="a_node2"><a xlink:href="dir_b0b098fcd8f6db4f76fc3007db9ffe76.html" target="_top" xlink:title="CodeActions">
<polygon fill="#a2b4d6" stroke="#404040" points="101.88,-77.5 25.12,-77.5 25.12,-56.75 101.88,-56.75 101.88,-77.5"/>
<text text-anchor="middle" x="63.5" y="-64" font-family="Helvetica,sans-Serif" font-size="10.00">CodeActions</text>
</a>
</g>
</g>
<!-- dir_2dfd61e782002e6a63843e36bf78a91c&#45;&gt;dir_b0b098fcd8f6db4f76fc3007db9ffe76 -->
<g id="edge4" class="edge">
<title>dir_2dfd61e782002e6a63843e36bf78a91c&#45;&gt;dir_b0b098fcd8f6db4f76fc3007db9ffe76</title>
<g id="a_edge4"><a xlink:href="dir_000006_000002.html" target="_top">
<path fill="none" stroke="#63b8ff" d="M66,-113.83C65.64,-107.14 65.12,-97.74 64.66,-89.21"/>
<polygon fill="#63b8ff" stroke="#63b8ff" points="68.15,-89.04 64.11,-79.24 61.16,-89.42 68.15,-89.04"/>
</a>
</g>
<g id="a_edge4&#45;headlabel"><a xlink:href="dir_000006_000002.html" target="_top" xlink:title="11">
<text text-anchor="middle" x="71.1" y="-87.83" font-family="Helvetica,sans-Serif" font-size="10.00" fill="#63b8ff">11</text>
</a>
</g>
</g>
<!-- dir_5def0a8c33681ccffd5a1a329ca9c6c2 -->
<g id="node3" class="node">
<title>dir_5def0a8c33681ccffd5a1a329ca9c6c2</title>
<g id="a_node3"><a xlink:href="dir_5def0a8c33681ccffd5a1a329ca9c6c2.html" target="_top" xlink:title="lspserver">
<polygon fill="#edf0f7" stroke="red" stroke-dasharray="5,2" points="61,-20.75 0,-20.75 0,0 61,0 61,-20.75"/>
<text text-anchor="middle" x="30.5" y="-7.25" font-family="Helvetica,sans-Serif" font-size="10.00">lspserver</text>
</a>
</g>
</g>
<!-- dir_2dfd61e782002e6a63843e36bf78a91c&#45;&gt;dir_5def0a8c33681ccffd5a1a329ca9c6c2 -->
<g id="edge1" class="edge">
<title>dir_2dfd61e782002e6a63843e36bf78a91c&#45;&gt;dir_5def0a8c33681ccffd5a1a329ca9c6c2</title>
<g id="a_edge1"><a xlink:href="dir_000006_000019.html" target="_top">
<path fill="none" stroke="#63b8ff" d="M50.58,-113.61C38.72,-105.71 23.43,-93.15 16.5,-77.5 9.89,-62.57 12.9,-56.68 16.5,-40.75 17.21,-37.6 18.3,-34.4 19.57,-31.32"/>
<polygon fill="#63b8ff" stroke="#63b8ff" points="22.68,-32.92 23.89,-22.4 16.38,-29.87 22.68,-32.92"/>
</a>
</g>
<g id="a_edge1&#45;headlabel"><a xlink:href="dir_000006_000019.html" target="_top" xlink:title="27">
<text text-anchor="middle" x="24.33" y="-32.91" font-family="Helvetica,sans-Serif" font-size="10.00" fill="#63b8ff">27</text>
</a>
</g>
</g>
<!-- dir_6072663c54edb131dd9eabf55cf77072 -->
<g id="node4" class="node">
<title>dir_6072663c54edb131dd9eabf55cf77072</title>
<g id="a_node4"><a xlink:href="dir_6072663c54edb131dd9eabf55cf77072.html" target="_top" xlink:title="include">
<polygon fill="#edf0f7" stroke="red" stroke-dasharray="5,2" points="177.12,-77.5 125.88,-77.5 125.88,-56.75 177.12,-56.75 177.12,-77.5"/>
<text text-anchor="middle" x="151.5" y="-64" font-family="Helvetica,sans-Serif" font-size="10.00">include</text>
</a>
</g>
</g>
<!-- dir_2dfd61e782002e6a63843e36bf78a91c&#45;&gt;dir_6072663c54edb131dd9eabf55cf77072 -->
<g id="edge2" class="edge">
<title>dir_2dfd61e782002e6a63843e36bf78a91c&#45;&gt;dir_6072663c54edb131dd9eabf55cf77072</title>
<g id="a_edge2"><a xlink:href="dir_000006_000013.html" target="_top">
<path fill="none" stroke="#63b8ff" d="M80.92,-113.59C93.46,-105.51 111.92,-93.62 126.81,-84.03"/>
<polygon fill="#63b8ff" stroke="#63b8ff" points="128.65,-87 135.16,-78.65 124.86,-81.12 128.65,-87"/>
</a>
</g>
<g id="a_edge2&#45;headlabel"><a xlink:href="dir_000006_000013.html" target="_top" xlink:title="31">
<text text-anchor="middle" x="128.44" y="-87.39" font-family="Helvetica,sans-Serif" font-size="10.00" fill="#63b8ff">31</text>
</a>
</g>
</g>
<!-- dir_9ff0e04ed484c0229c3bd8fc4cfe4cb8 -->
<g id="node5" class="node">
<title>dir_9ff0e04ed484c0229c3bd8fc4cfe4cb8</title>
<g id="a_node5"><a xlink:href="dir_9ff0e04ed484c0229c3bd8fc4cfe4cb8.html" target="_top" xlink:title="libnixf">
<polygon fill="#edf0f7" stroke="red" points="176.88,-20.75 130.12,-20.75 130.12,0 176.88,0 176.88,-20.75"/>
<text text-anchor="middle" x="153.5" y="-7.25" font-family="Helvetica,sans-Serif" font-size="10.00">libnixf</text>
</a>
</g>
</g>
<!-- dir_2dfd61e782002e6a63843e36bf78a91c&#45;&gt;dir_9ff0e04ed484c0229c3bd8fc4cfe4cb8 -->
<g id="edge3" class="edge">
<title>dir_2dfd61e782002e6a63843e36bf78a91c&#45;&gt;dir_9ff0e04ed484c0229c3bd8fc4cfe4cb8</title>
<g id="a_edge3"><a xlink:href="dir_000006_000017.html" target="_top">
<path fill="none" stroke="#63b8ff" d="M98.36,-120.56C126.77,-116.61 166.81,-105.99 186.5,-77.5 195.79,-64.06 193.19,-55.65 186.5,-40.75 184.49,-36.26 181.41,-32.18 177.93,-28.58"/>
<polygon fill="#63b8ff" stroke="#63b8ff" points="180.36,-26.05 170.53,-22.1 175.75,-31.32 180.36,-26.05"/>
</a>
</g>
<g id="a_edge3&#45;headlabel"><a xlink:href="dir_000006_000017.html" target="_top" xlink:title="67">
<text text-anchor="middle" x="183.8" y="-22.16" font-family="Helvetica,sans-Serif" font-size="10.00" fill="#63b8ff">67</text>
</a>
</g>
</g>
<!-- dir_b0b098fcd8f6db4f76fc3007db9ffe76&#45;&gt;dir_5def0a8c33681ccffd5a1a329ca9c6c2 -->
<g id="edge5" class="edge">
<title>dir_b0b098fcd8f6db4f76fc3007db9ffe76&#45;&gt;dir_5def0a8c33681ccffd5a1a329ca9c6c2</title>
<g id="a_edge5"><a xlink:href="dir_000002_000019.html" target="_top">
<path fill="none" stroke="#63b8ff" d="M57.6,-56.34C53.33,-49.25 47.42,-39.44 42.2,-30.79"/>
<polygon fill="#63b8ff" stroke="#63b8ff" points="45.29,-29.13 37.13,-22.37 39.29,-32.75 45.29,-29.13"/>
</a>
</g>
<g id="a_edge5&#45;headlabel"><a xlink:href="dir_000002_000019.html" target="_top" xlink:title="13">
<text text-anchor="middle" x="48.8" y="-26.32" font-family="Helvetica,sans-Serif" font-size="10.00" fill="#63b8ff">13</text>
</a>
</g>
</g>
<!-- dir_b0b098fcd8f6db4f76fc3007db9ffe76&#45;&gt;dir_9ff0e04ed484c0229c3bd8fc4cfe4cb8 -->
<g id="edge6" class="edge">
<title>dir_b0b098fcd8f6db4f76fc3007db9ffe76&#45;&gt;dir_9ff0e04ed484c0229c3bd8fc4cfe4cb8</title>
<g id="a_edge6"><a xlink:href="dir_000002_000017.html" target="_top">
<path fill="none" stroke="#63b8ff" d="M79.59,-56.34C93.03,-48.16 112.43,-36.36 127.99,-26.9"/>
<polygon fill="#63b8ff" stroke="#63b8ff" points="129.53,-30.05 136.26,-21.87 125.89,-24.07 129.53,-30.05"/>
</a>
</g>
<g id="a_edge6&#45;headlabel"><a xlink:href="dir_000002_000017.html" target="_top" xlink:title="32">
<text text-anchor="middle" x="129.23" y="-30.43" font-family="Helvetica,sans-Serif" font-size="10.00" fill="#63b8ff">32</text>
</a>
</g>
</g>
</g>
</svg>
