<?xml version="1.0" encoding="UTF-8" standalone="no"?>
<!DOCTYPE svg PUBLIC "-//W3C//DTD SVG 1.1//EN"
 "http://www.w3.org/Graphics/SVG/1.1/DTD/svg11.dtd">
<!-- Generated by graphviz version 10.0.1 (0)
 -->
<!-- Title: Graphical Class Hierarchy Pages: 1 -->
<svg width="518pt" height="673pt"
 viewBox="0.00 0.00 517.50 672.75" xmlns="http://www.w3.org/2000/svg" xmlns:xlink="http://www.w3.org/1999/xlink">
<g id="graph0" class="graph" transform="scale(1 1) rotate(0) translate(4 668.75)">
<title>Graphical Class Hierarchy</title>
<!-- Node0 -->
<g id="Node000000" class="node">
<title>Node0</title>
<g id="a_Node000000"><a xlink:href="classnixf_1_1Node.html" target="_top" xlink:title=" ">
<polygon fill="white" stroke="#666666" points="65.5,-273.75 0,-273.75 0,-253 65.5,-253 65.5,-273.75"/>
<text text-anchor="middle" x="32.75" y="-260.25" font-family="Helvetica,sans-Serif" font-size="10.00">nixf::Node</text>
</a>
</g>
</g>
<!-- Node1 -->
<g id="Node000001" class="node">
<title>Node1</title>
<g id="a_Node000001"><a xlink:href="classnixf_1_1AttrName.html" target="_top" xlink:title=" ">
<polygon fill="white" stroke="#666666" points="206.75,-527.75 119.5,-527.75 119.5,-507 206.75,-507 206.75,-527.75"/>
<text text-anchor="middle" x="163.12" y="-514.25" font-family="Helvetica,sans-Serif" font-size="10.00">nixf::AttrName</text>
</a>
</g>
</g>
<!-- Node0&#45;&gt;Node1 -->
<g id="edge16_Node000000_Node000001" class="edge">
<title>Node0&#45;&gt;Node1</title>
<g id="a_edge16_Node000000_Node000001"><a xlink:title=" ">
<path fill="none" stroke="#63b8ff" d="M33.67,-285.39C34.73,-331.17 43.69,-437.39 101.5,-497.38 106.42,-502.48 112.67,-506.29 119.28,-509.12"/>
<polygon fill="#63b8ff" stroke="#63b8ff" points="37.18,-285.64 33.57,-275.68 30.18,-285.72 37.18,-285.64"/>
</a>
</g>
</g>
<!-- Node2 -->
<g id="Node000002" class="node">
<title>Node2</title>
<g id="a_Node000002"><a xlink:href="classnixf_1_1AttrPath.html" target="_top" xlink:title=" ">
<polygon fill="white" stroke="#666666" points="202.62,-488.75 123.62,-488.75 123.62,-468 202.62,-468 202.62,-488.75"/>
<text text-anchor="middle" x="163.12" y="-475.25" font-family="Helvetica,sans-Serif" font-size="10.00">nixf::AttrPath</text>
</a>
</g>
</g>
<!-- Node0&#45;&gt;Node2 -->
<g id="edge17_Node000000_Node000002" class="edge">
<title>Node0&#45;&gt;Node2</title>
<g id="a_edge17_Node000000_Node000002"><a xlink:title=" ">
<path fill="none" stroke="#63b8ff" d="M35.18,-285.23C38.97,-325.18 52.64,-410.28 101.5,-458.38 107.5,-464.28 115.28,-468.45 123.26,-471.38"/>
<polygon fill="#63b8ff" stroke="#63b8ff" points="38.69,-285.15 34.39,-275.46 31.71,-285.71 38.69,-285.15"/>
</a>
</g>
</g>
<!-- Node3 -->
<g id="Node000003" class="node">
<title>Node3</title>
<g id="a_Node000003"><a xlink:href="classnixf_1_1Binding.html" target="_top" xlink:title=" ">
<polygon fill="white" stroke="#666666" points="201.5,-449.75 124.75,-449.75 124.75,-429 201.5,-429 201.5,-449.75"/>
<text text-anchor="middle" x="163.12" y="-436.25" font-family="Helvetica,sans-Serif" font-size="10.00">nixf::Binding</text>
</a>
</g>
</g>
<!-- Node0&#45;&gt;Node3 -->
<g id="edge18_Node000000_Node000003" class="edge">
<title>Node0&#45;&gt;Node3</title>
<g id="a_edge18_Node000000_Node000003"><a xlink:title=" ">
<path fill="none" stroke="#63b8ff" d="M37.44,-285.49C44.18,-319.12 61.67,-383.01 101.5,-419.38 107.97,-425.28 116.22,-429.44 124.53,-432.38"/>
<polygon fill="#63b8ff" stroke="#63b8ff" points="40.89,-284.9 35.63,-275.7 34,-286.17 40.89,-284.9"/>
</a>
</g>
</g>
<!-- Node4 -->
<g id="Node000004" class="node">
<title>Node4</title>
<g id="a_Node000004"><a xlink:href="classnixf_1_1Binds.html" target="_top" xlink:title=" ">
<polygon fill="white" stroke="#666666" points="196.62,-410.75 129.62,-410.75 129.62,-390 196.62,-390 196.62,-410.75"/>
<text text-anchor="middle" x="163.12" y="-397.25" font-family="Helvetica,sans-Serif" font-size="10.00">nixf::Binds</text>
</a>
</g>
</g>
<!-- Node0&#45;&gt;Node4 -->
<g id="edge19_Node000000_Node000004" class="edge">
<title>Node0&#45;&gt;Node4</title>
<g id="a_edge19_Node000000_Node000004"><a xlink:title=" ">
<path fill="none" stroke="#63b8ff" d="M40.78,-284.81C50.42,-311 70.22,-354.96 101.5,-380.38 109.5,-386.87 119.69,-391.29 129.42,-394.28"/>
<polygon fill="#63b8ff" stroke="#63b8ff" points="44.15,-283.87 37.55,-275.59 37.55,-286.18 44.15,-283.87"/>
</a>
</g>
</g>
<!-- Node5 -->
<g id="Node000005" class="node">
<title>Node5</title>
<g id="a_Node000005"><a xlink:href="classnixf_1_1Expr.html" target="_top" xlink:title=" ">
<polygon fill="white" stroke="#666666" points="194,-371.75 132.25,-371.75 132.25,-351 194,-351 194,-371.75"/>
<text text-anchor="middle" x="163.12" y="-358.25" font-family="Helvetica,sans-Serif" font-size="10.00">nixf::Expr</text>
</a>
</g>
</g>
<!-- Node0&#45;&gt;Node5 -->
<g id="edge20_Node000000_Node000005" class="edge">
<title>Node0&#45;&gt;Node5</title>
<g id="a_edge20_Node000000_Node000005"><a xlink:title=" ">
<path fill="none" stroke="#63b8ff" d="M46.54,-283.43C58.71,-301.02 78.53,-326.09 101.5,-341.38 110.63,-347.45 121.77,-351.82 131.99,-354.89"/>
<polygon fill="#63b8ff" stroke="#63b8ff" points="49.6,-281.71 41.13,-275.33 43.77,-285.59 49.6,-281.71"/>
</a>
</g>
</g>
<!-- Node25 -->
<g id="Node000025" class="node">
<title>Node25</title>
<g id="a_Node000025"><a xlink:href="classnixf_1_1Formal.html" target="_top" xlink:title=" ">
<polygon fill="white" stroke="#666666" points="200,-332.75 126.25,-332.75 126.25,-312 200,-312 200,-332.75"/>
<text text-anchor="middle" x="163.12" y="-319.25" font-family="Helvetica,sans-Serif" font-size="10.00">nixf::Formal</text>
</a>
</g>
</g>
<!-- Node0&#45;&gt;Node25 -->
<g id="edge40_Node000000_Node000025" class="edge">
<title>Node0&#45;&gt;Node25</title>
<g id="a_edge40_Node000000_Node000025"><a xlink:title=" ">
<path fill="none" stroke="#63b8ff" d="M59.85,-280.07C72.17,-287.51 87.27,-296.01 101.5,-302.38 109.19,-305.81 117.66,-308.97 125.76,-311.72"/>
<polygon fill="#63b8ff" stroke="#63b8ff" points="61.87,-277.2 51.52,-274.93 58.2,-283.16 61.87,-277.2"/>
</a>
</g>
</g>
<!-- Node26 -->
<g id="Node000026" class="node">
<title>Node26</title>
<g id="a_Node000026"><a xlink:href="classnixf_1_1Formals.html" target="_top" xlink:title="Lambda formal arguments.">
<polygon fill="white" stroke="#666666" points="202.62,-293.75 123.62,-293.75 123.62,-273 202.62,-273 202.62,-293.75"/>
<text text-anchor="middle" x="163.12" y="-280.25" font-family="Helvetica,sans-Serif" font-size="10.00">nixf::Formals</text>
</a>
</g>
</g>
<!-- Node0&#45;&gt;Node26 -->
<g id="edge41_Node000000_Node000026" class="edge">
<title>Node0&#45;&gt;Node26</title>
<g id="a_edge41_Node000000_Node000026"><a xlink:title=" ">
<path fill="none" stroke="#63b8ff" d="M76.86,-270.09C91.84,-272.42 108.53,-275.02 123.15,-277.3"/>
<polygon fill="#63b8ff" stroke="#63b8ff" points="77.73,-266.68 67.31,-268.6 76.65,-273.6 77.73,-266.68"/>
</a>
</g>
</g>
<!-- Node27 -->
<g id="Node000027" class="node">
<title>Node27</title>
<g id="a_Node000027"><a xlink:href="classnixf_1_1Identifier.html" target="_top" xlink:title="Identifier. Variable names, attribute names, etc.">
<polygon fill="white" stroke="#666666" points="204.88,-254.75 121.38,-254.75 121.38,-234 204.88,-234 204.88,-254.75"/>
<text text-anchor="middle" x="163.12" y="-241.25" font-family="Helvetica,sans-Serif" font-size="10.00">nixf::Identifier</text>
</a>
</g>
</g>
<!-- Node0&#45;&gt;Node27 -->
<g id="edge42_Node000000_Node000027" class="edge">
<title>Node0&#45;&gt;Node27</title>
<g id="a_edge42_Node000000_Node000027"><a xlink:title=" ">
<path fill="none" stroke="#63b8ff" d="M76.9,-256.99C91.22,-254.87 107.11,-252.52 121.25,-250.42"/>
<polygon fill="#63b8ff" stroke="#63b8ff" points="76.69,-253.48 67.31,-258.41 77.72,-260.41 76.69,-253.48"/>
</a>
</g>
</g>
<!-- Node28 -->
<g id="Node000028" class="node">
<title>Node28</title>
<g id="a_Node000028"><a xlink:href="classnixf_1_1Inherit.html" target="_top" xlink:title=" ">
<polygon fill="white" stroke="#666666" points="198.88,-215.75 127.38,-215.75 127.38,-195 198.88,-195 198.88,-215.75"/>
<text text-anchor="middle" x="163.12" y="-202.25" font-family="Helvetica,sans-Serif" font-size="10.00">nixf::Inherit</text>
</a>
</g>
</g>
<!-- Node0&#45;&gt;Node28 -->
<g id="edge43_Node000000_Node000028" class="edge">
<title>Node0&#45;&gt;Node28</title>
<g id="a_edge43_Node000000_Node000028"><a xlink:title=" ">
<path fill="none" stroke="#63b8ff" d="M60.41,-246.85C72.65,-239.68 87.52,-231.53 101.5,-225.38 109.61,-221.8 118.58,-218.51 127.07,-215.67"/>
<polygon fill="#63b8ff" stroke="#63b8ff" points="58.91,-243.67 52.12,-251.81 62.5,-249.68 58.91,-243.67"/>
</a>
</g>
</g>
<!-- Node29 -->
<g id="Node000029" class="node">
<title>Node29</title>
<g id="a_Node000029"><a xlink:href="classnixf_1_1InterpolatedParts.html" target="_top" xlink:title=" ">
<polygon fill="white" stroke="#666666" points="224.75,-176.75 101.5,-176.75 101.5,-156 224.75,-156 224.75,-176.75"/>
<text text-anchor="middle" x="163.12" y="-163.25" font-family="Helvetica,sans-Serif" font-size="10.00">nixf::InterpolatedParts</text>
</a>
</g>
</g>
<!-- Node0&#45;&gt;Node29 -->
<g id="edge44_Node000000_Node000029" class="edge">
<title>Node0&#45;&gt;Node29</title>
<g id="a_edge44_Node000000_Node000029"><a xlink:title=" ">
<path fill="none" stroke="#63b8ff" d="M46.79,-243.3C59.02,-225.96 78.77,-201.39 101.5,-186.38 107.05,-182.71 113.33,-179.66 119.69,-177.15"/>
<polygon fill="#63b8ff" stroke="#63b8ff" points="44.09,-241.06 41.35,-251.29 49.87,-244.99 44.09,-241.06"/>
</a>
</g>
</g>
<!-- Node30 -->
<g id="Node000030" class="node">
<title>Node30</title>
<g id="a_Node000030"><a xlink:href="classnixf_1_1Interpolation.html" target="_top" xlink:title="${expr} construct">
<polygon fill="white" stroke="#666666" points="214.25,-137.75 112,-137.75 112,-117 214.25,-117 214.25,-137.75"/>
<text text-anchor="middle" x="163.12" y="-124.25" font-family="Helvetica,sans-Serif" font-size="10.00">nixf::Interpolation</text>
</a>
</g>
</g>
<!-- Node0&#45;&gt;Node30 -->
<g id="edge45_Node000000_Node000030" class="edge">
<title>Node0&#45;&gt;Node30</title>
<g id="a_edge45_Node000000_Node000030"><a xlink:title=" ">
<path fill="none" stroke="#63b8ff" d="M40.82,-242.12C50.52,-216.15 70.37,-172.57 101.5,-147.38 106.07,-143.68 111.34,-140.66 116.83,-138.19"/>
<polygon fill="#63b8ff" stroke="#63b8ff" points="37.63,-240.66 37.59,-251.26 44.23,-243 37.63,-240.66"/>
</a>
</g>
</g>
<!-- Node31 -->
<g id="Node000031" class="node">
<title>Node31</title>
<g id="a_Node000031"><a xlink:href="classnixf_1_1LambdaArg.html" target="_top" xlink:title=" ">
<polygon fill="white" stroke="#666666" points="210.88,-98.75 115.38,-98.75 115.38,-78 210.88,-78 210.88,-98.75"/>
<text text-anchor="middle" x="163.12" y="-85.25" font-family="Helvetica,sans-Serif" font-size="10.00">nixf::LambdaArg</text>
</a>
</g>
</g>
<!-- Node0&#45;&gt;Node31 -->
<g id="edge46_Node000000_Node000031" class="edge">
<title>Node0&#45;&gt;Node31</title>
<g id="a_edge46_Node000000_Node000031"><a xlink:title=" ">
<path fill="none" stroke="#63b8ff" d="M37.48,-241.4C44.28,-207.98 61.84,-144.5 101.5,-108.38 105.6,-104.64 110.41,-101.61 115.49,-99.14"/>
<polygon fill="#63b8ff" stroke="#63b8ff" points="34.06,-240.65 35.65,-251.12 40.94,-241.94 34.06,-240.65"/>
</a>
</g>
</g>
<!-- Node32 -->
<g id="Node000032" class="node">
<title>Node32</title>
<g id="a_Node000032"><a xlink:href="classnixf_1_1Misc.html" target="_top" xlink:title="Misc node, used for parentheses, keywords, etc.">
<polygon fill="white" stroke="#666666" points="194.38,-59.75 131.88,-59.75 131.88,-39 194.38,-39 194.38,-59.75"/>
<text text-anchor="middle" x="163.12" y="-46.25" font-family="Helvetica,sans-Serif" font-size="10.00">nixf::Misc</text>
</a>
</g>
</g>
<!-- Node0&#45;&gt;Node32 -->
<g id="edge47_Node000000_Node000032" class="edge">
<title>Node0&#45;&gt;Node32</title>
<g id="a_edge47_Node000000_Node000032"><a xlink:title=" ">
<path fill="none" stroke="#63b8ff" d="M35.22,-241.63C39.07,-201.88 52.83,-117.21 101.5,-69.38 109.56,-61.45 120.82,-56.67 131.46,-53.78"/>
<polygon fill="#63b8ff" stroke="#63b8ff" points="31.75,-241.09 34.41,-251.34 38.73,-241.67 31.75,-241.09"/>
</a>
</g>
</g>
<!-- Node33 -->
<g id="Node000033" class="node">
<title>Node33</title>
<g id="a_Node000033"><a xlink:href="classnixf_1_1Op.html" target="_top" xlink:title=" ">
<polygon fill="white" stroke="#666666" points="189.88,-20.75 136.38,-20.75 136.38,0 189.88,0 189.88,-20.75"/>
<text text-anchor="middle" x="163.12" y="-7.25" font-family="Helvetica,sans-Serif" font-size="10.00">nixf::Op</text>
</a>
</g>
</g>
<!-- Node0&#45;&gt;Node33 -->
<g id="edge48_Node000000_Node000033" class="edge">
<title>Node0&#45;&gt;Node33</title>
<g id="a_edge48_Node000000_Node000033"><a xlink:title=" ">
<path fill="none" stroke="#63b8ff" d="M33.71,-241.16C34.86,-195.41 44,-89.96 101.5,-30.38 110.5,-21.04 123.94,-16.06 135.88,-13.41"/>
<polygon fill="#63b8ff" stroke="#63b8ff" points="30.21,-241.07 33.59,-251.12 37.21,-241.16 30.21,-241.07"/>
</a>
</g>
</g>
<!-- Node6 -->
<g id="Node000006" class="node">
<title>Node6</title>
<g id="a_Node000006"><a xlink:href="classnixf_1_1ExprAssert.html" target="_top" xlink:title=" ">
<polygon fill="white" stroke="#666666" points="357.38,-664.75 264.88,-664.75 264.88,-644 357.38,-644 357.38,-664.75"/>
<text text-anchor="middle" x="311.12" y="-651.25" font-family="Helvetica,sans-Serif" font-size="10.00">nixf::ExprAssert</text>
</a>
</g>
</g>
<!-- Node5&#45;&gt;Node6 -->
<g id="edge21_Node000005_Node000006" class="edge">
<title>Node5&#45;&gt;Node6</title>
<g id="a_edge21_Node000005_Node000006"><a xlink:title=" ">
<path fill="none" stroke="#63b8ff" d="M205.37,-368.13C212.75,-371.09 219.68,-375.32 224.75,-381.38 297.64,-468.48 190.79,-544.9 260.75,-634.38 263.71,-638.16 267.51,-641.24 271.68,-643.73"/>
<polygon fill="#63b8ff" stroke="#63b8ff" points="206.44,-364.8 195.85,-365.11 204.32,-371.47 206.44,-364.8"/>
</a>
</g>
</g>
<!-- Node7 -->
<g id="Node000007" class="node">
<title>Node7</title>
<g id="a_Node000007"><a xlink:href="classnixf_1_1ExprAttrs.html" target="_top" xlink:title=" ">
<polygon fill="white" stroke="#666666" points="353.62,-625.75 268.62,-625.75 268.62,-605 353.62,-605 353.62,-625.75"/>
<text text-anchor="middle" x="311.12" y="-612.25" font-family="Helvetica,sans-Serif" font-size="10.00">nixf::ExprAttrs</text>
</a>
</g>
</g>
<!-- Node5&#45;&gt;Node7 -->
<g id="edge22_Node000005_Node000007" class="edge">
<title>Node5&#45;&gt;Node7</title>
<g id="a_edge22_Node000005_Node000007"><a xlink:title=" ">
<path fill="none" stroke="#63b8ff" d="M205.25,-368.23C212.64,-371.18 219.61,-375.39 224.75,-381.38 287.57,-454.55 200.38,-520.16 260.75,-595.38 263.76,-599.13 267.58,-602.18 271.77,-604.66"/>
<polygon fill="#63b8ff" stroke="#63b8ff" points="206.33,-364.9 195.74,-365.21 204.2,-371.57 206.33,-364.9"/>
</a>
</g>
</g>
<!-- Node8 -->
<g id="Node000008" class="node">
<title>Node8</title>
<g id="a_Node000008"><a xlink:href="classnixf_1_1ExprCall.html" target="_top" xlink:title="A call/apply to some function.">
<polygon fill="white" stroke="#666666" points="351.38,-586.75 270.88,-586.75 270.88,-566 351.38,-566 351.38,-586.75"/>
<text text-anchor="middle" x="311.12" y="-573.25" font-family="Helvetica,sans-Serif" font-size="10.00">nixf::ExprCall</text>
</a>
</g>
</g>
<!-- Node5&#45;&gt;Node8 -->
<g id="edge23_Node000005_Node000008" class="edge">
<title>Node5&#45;&gt;Node8</title>
<g id="a_edge23_Node000005_Node000008"><a xlink:title=" ">
<path fill="none" stroke="#63b8ff" d="M205.29,-368.46C212.61,-371.4 219.55,-375.54 224.75,-381.38 277.56,-440.68 209.94,-495.36 260.75,-556.38 263.83,-560.07 267.69,-563.09 271.9,-565.56"/>
<polygon fill="#63b8ff" stroke="#63b8ff" points="206.47,-365.17 195.88,-365.43 204.33,-371.83 206.47,-365.17"/>
</a>
</g>
</g>
<!-- Node9 -->
<g id="Node000009" class="node">
<title>Node9</title>
<g id="a_Node000009"><a xlink:href="classnixf_1_1ExprFloat.html" target="_top" xlink:title=" ">
<polygon fill="white" stroke="#666666" points="354.38,-547.75 267.88,-547.75 267.88,-527 354.38,-527 354.38,-547.75"/>
<text text-anchor="middle" x="311.12" y="-534.25" font-family="Helvetica,sans-Serif" font-size="10.00">nixf::ExprFloat</text>
</a>
</g>
</g>
<!-- Node5&#45;&gt;Node9 -->
<g id="edge24_Node000005_Node000009" class="edge">
<title>Node5&#45;&gt;Node9</title>
<g id="a_edge24_Node000005_Node000009"><a xlink:title=" ">
<path fill="none" stroke="#63b8ff" d="M205.04,-368.69C212.38,-371.61 219.39,-375.68 224.75,-381.38 267.62,-426.89 219.41,-470.46 260.75,-517.38 264.05,-521.12 268.16,-524.18 272.58,-526.67"/>
<polygon fill="#63b8ff" stroke="#63b8ff" points="206.22,-365.4 195.63,-365.66 204.08,-372.06 206.22,-365.4"/>
</a>
</g>
</g>
<!-- Node10 -->
<g id="Node000010" class="node">
<title>Node10</title>
<g id="a_Node000010"><a xlink:href="classnixf_1_1ExprIf.html" target="_top" xlink:title=" ">
<polygon fill="white" stroke="#666666" points="345.38,-508.75 276.88,-508.75 276.88,-488 345.38,-488 345.38,-508.75"/>
<text text-anchor="middle" x="311.12" y="-495.25" font-family="Helvetica,sans-Serif" font-size="10.00">nixf::ExprIf</text>
</a>
</g>
</g>
<!-- Node5&#45;&gt;Node10 -->
<g id="edge25_Node000005_Node000010" class="edge">
<title>Node5&#45;&gt;Node10</title>
<g id="a_edge25_Node000005_Node000010"><a xlink:title=" ">
<path fill="none" stroke="#63b8ff" d="M205.29,-369.38C212.42,-372.24 219.29,-376.11 224.75,-381.38 257.86,-413.29 228.72,-445.38 260.75,-478.38 265.13,-482.89 270.67,-486.41 276.44,-489.16"/>
<polygon fill="#63b8ff" stroke="#63b8ff" points="206.43,-366.07 195.83,-366.25 204.23,-372.72 206.43,-366.07"/>
</a>
</g>
</g>
<!-- Node11 -->
<g id="Node000011" class="node">
<title>Node11</title>
<g id="a_Node000011"><a xlink:href="classnixf_1_1ExprInt.html" target="_top" xlink:title=" ">
<polygon fill="white" stroke="#666666" points="348.38,-469.75 273.88,-469.75 273.88,-449 348.38,-449 348.38,-469.75"/>
<text text-anchor="middle" x="311.12" y="-456.25" font-family="Helvetica,sans-Serif" font-size="10.00">nixf::ExprInt</text>
</a>
</g>
</g>
<!-- Node5&#45;&gt;Node11 -->
<g id="edge26_Node000005_Node000011" class="edge">
<title>Node5&#45;&gt;Node11</title>
<g id="a_edge26_Node000005_Node000011"><a xlink:title=" ">
<path fill="none" stroke="#63b8ff" d="M204.65,-370.37C211.8,-373.13 218.84,-376.72 224.75,-381.38 248.59,-400.14 237.55,-419.83 260.75,-439.38 265.06,-443.01 270.13,-446.05 275.33,-448.57"/>
<polygon fill="#63b8ff" stroke="#63b8ff" points="206.24,-367.21 195.65,-367.36 204.02,-373.85 206.24,-367.21"/>
</a>
</g>
</g>
<!-- Node12 -->
<g id="Node000012" class="node">
<title>Node12</title>
<g id="a_Node000012"><a xlink:href="classnixf_1_1ExprLambda.html" target="_top" xlink:title=" ">
<polygon fill="white" stroke="#666666" points="361.5,-430.75 260.75,-430.75 260.75,-410 361.5,-410 361.5,-430.75"/>
<text text-anchor="middle" x="311.12" y="-417.25" font-family="Helvetica,sans-Serif" font-size="10.00">nixf::ExprLambda</text>
</a>
</g>
</g>
<!-- Node5&#45;&gt;Node12 -->
<g id="edge27_Node000005_Node000012" class="edge">
<title>Node5&#45;&gt;Node12</title>
<g id="a_edge27_Node000005_Node000012"><a xlink:title=" ">
<path fill="none" stroke="#63b8ff" d="M205.28,-373.92C211.86,-376.22 218.54,-378.74 224.75,-381.38 241.4,-388.46 244.35,-392.75 260.75,-400.38 267.54,-403.53 274.98,-406.7 281.97,-409.54"/>
<polygon fill="#63b8ff" stroke="#63b8ff" points="206.43,-370.61 195.84,-370.75 204.2,-377.25 206.43,-370.61"/>
</a>
</g>
</g>
<!-- Node13 -->
<g id="Node000013" class="node">
<title>Node13</title>
<g id="a_Node000013"><a xlink:href="classnixf_1_1ExprLet.html" target="_top" xlink:title=" ">
<polygon fill="white" stroke="#666666" points="349.5,-391.75 272.75,-391.75 272.75,-371 349.5,-371 349.5,-391.75"/>
<text text-anchor="middle" x="311.12" y="-378.25" font-family="Helvetica,sans-Serif" font-size="10.00">nixf::ExprLet</text>
</a>
</g>
</g>
<!-- Node5&#45;&gt;Node13 -->
<g id="edge28_Node000005_Node000013" class="edge">
<title>Node5&#45;&gt;Node13</title>
<g id="a_edge28_Node000005_Node000013"><a xlink:title=" ">
<path fill="none" stroke="#63b8ff" d="M205.55,-367.05C226.56,-369.93 251.9,-373.4 272.38,-376.2"/>
<polygon fill="#63b8ff" stroke="#63b8ff" points="206.26,-363.61 195.88,-365.72 205.31,-370.55 206.26,-363.61"/>
</a>
</g>
</g>
<!-- Node14 -->
<g id="Node000014" class="node">
<title>Node14</title>
<g id="a_Node000014"><a xlink:href="classnixf_1_1ExprList.html" target="_top" xlink:title=" ">
<polygon fill="white" stroke="#666666" points="350.62,-352.75 271.62,-352.75 271.62,-332 350.62,-332 350.62,-352.75"/>
<text text-anchor="middle" x="311.12" y="-339.25" font-family="Helvetica,sans-Serif" font-size="10.00">nixf::ExprList</text>
</a>
</g>
</g>
<!-- Node5&#45;&gt;Node14 -->
<g id="edge29_Node000005_Node000014" class="edge">
<title>Node5&#45;&gt;Node14</title>
<g id="a_edge29_Node000005_Node000014"><a xlink:title=" ">
<path fill="none" stroke="#63b8ff" d="M205.66,-355.97C226.29,-353.29 251.06,-350.06 271.3,-347.43"/>
<polygon fill="#63b8ff" stroke="#63b8ff" points="205.34,-352.48 195.88,-357.24 206.25,-359.42 205.34,-352.48"/>
</a>
</g>
</g>
<!-- Node15 -->
<g id="Node000015" class="node">
<title>Node15</title>
<g id="a_Node000015"><a xlink:href="classnixf_1_1ExprOp.html" target="_top" xlink:title="Abstract class for binary operators and unary operators.">
<polygon fill="white" stroke="#666666" points="348.75,-313.75 273.5,-313.75 273.5,-293 348.75,-293 348.75,-313.75"/>
<text text-anchor="middle" x="311.12" y="-300.25" font-family="Helvetica,sans-Serif" font-size="10.00">nixf::ExprOp</text>
</a>
</g>
</g>
<!-- Node5&#45;&gt;Node15 -->
<g id="edge30_Node000005_Node000015" class="edge">
<title>Node5&#45;&gt;Node15</title>
<g id="a_edge30_Node000005_Node000015"><a xlink:title=" ">
<path fill="none" stroke="#63b8ff" d="M205.23,-348.71C211.82,-346.43 218.51,-343.95 224.75,-341.38 241.29,-334.55 244.45,-330.74 260.75,-323.38 267.66,-320.25 275.21,-317.08 282.28,-314.21"/>
<polygon fill="#63b8ff" stroke="#63b8ff" points="204.16,-345.38 195.79,-351.88 206.38,-352.02 204.16,-345.38"/>
</a>
</g>
</g>
<!-- Node19 -->
<g id="Node000019" class="node">
<title>Node19</title>
<g id="a_Node000019"><a xlink:href="classnixf_1_1ExprParen.html" target="_top" xlink:title=" ">
<polygon fill="white" stroke="#666666" points="355.5,-274.75 266.75,-274.75 266.75,-254 355.5,-254 355.5,-274.75"/>
<text text-anchor="middle" x="311.12" y="-261.25" font-family="Helvetica,sans-Serif" font-size="10.00">nixf::ExprParen</text>
</a>
</g>
</g>
<!-- Node5&#45;&gt;Node19 -->
<g id="edge34_Node000005_Node000019" class="edge">
<title>Node5&#45;&gt;Node19</title>
<g id="a_edge34_Node000005_Node000019"><a xlink:title=" ">
<path fill="none" stroke="#63b8ff" d="M205.33,-352.07C212.24,-349.35 219.02,-345.85 224.75,-341.38 248.36,-322.93 237.76,-303.59 260.75,-284.38 265.08,-280.76 270.15,-277.73 275.36,-275.21"/>
<polygon fill="#63b8ff" stroke="#63b8ff" points="204.27,-348.73 195.93,-355.26 206.52,-355.36 204.27,-348.73"/>
</a>
</g>
</g>
<!-- Node20 -->
<g id="Node000020" class="node">
<title>Node20</title>
<g id="a_Node000020"><a xlink:href="classnixf_1_1ExprPath.html" target="_top" xlink:title=" ">
<polygon fill="white" stroke="#666666" points="352.5,-235.75 269.75,-235.75 269.75,-215 352.5,-215 352.5,-235.75"/>
<text text-anchor="middle" x="311.12" y="-222.25" font-family="Helvetica,sans-Serif" font-size="10.00">nixf::ExprPath</text>
</a>
</g>
</g>
<!-- Node5&#45;&gt;Node20 -->
<g id="edge35_Node000005_Node000020" class="edge">
<title>Node5&#45;&gt;Node20</title>
<g id="a_edge35_Node000005_Node000020"><a xlink:title=" ">
<path fill="none" stroke="#63b8ff" d="M205.27,-353.36C212.41,-350.5 219.28,-346.63 224.75,-341.38 257.61,-309.81 228.95,-278.01 260.75,-245.38 264.36,-241.67 268.76,-238.62 273.42,-236.13"/>
<polygon fill="#63b8ff" stroke="#63b8ff" points="204.22,-350.02 195.82,-356.48 206.41,-356.66 204.22,-350.02"/>
</a>
</g>
</g>
<!-- Node21 -->
<g id="Node000021" class="node">
<title>Node21</title>
<g id="a_Node000021"><a xlink:href="classnixf_1_1ExprSelect.html" target="_top" xlink:title=" ">
<polygon fill="white" stroke="#666666" points="357,-196.75 265.25,-196.75 265.25,-176 357,-176 357,-196.75"/>
<text text-anchor="middle" x="311.12" y="-183.25" font-family="Helvetica,sans-Serif" font-size="10.00">nixf::ExprSelect</text>
</a>
</g>
</g>
<!-- Node5&#45;&gt;Node21 -->
<g id="edge36_Node000005_Node000021" class="edge">
<title>Node5&#45;&gt;Node21</title>
<g id="a_edge36_Node000005_Node000021"><a xlink:title=" ">
<path fill="none" stroke="#63b8ff" d="M205.24,-353.96C212.51,-351.06 219.44,-347.01 224.75,-341.38 267.37,-296.21 219.65,-252.93 260.75,-206.38 264.06,-202.63 268.16,-199.58 272.59,-197.09"/>
<polygon fill="#63b8ff" stroke="#63b8ff" points="204.36,-350.57 195.94,-356.99 206.53,-357.22 204.36,-350.57"/>
</a>
</g>
</g>
<!-- Node22 -->
<g id="Node000022" class="node">
<title>Node22</title>
<g id="a_Node000022"><a xlink:href="classnixf_1_1ExprString.html" target="_top" xlink:title=" ">
<polygon fill="white" stroke="#666666" points="356.25,-157.75 266,-157.75 266,-137 356.25,-137 356.25,-157.75"/>
<text text-anchor="middle" x="311.12" y="-144.25" font-family="Helvetica,sans-Serif" font-size="10.00">nixf::ExprString</text>
</a>
</g>
</g>
<!-- Node5&#45;&gt;Node22 -->
<g id="edge37_Node000005_Node000022" class="edge">
<title>Node5&#45;&gt;Node22</title>
<g id="a_edge37_Node000005_Node000022"><a xlink:title=" ">
<path fill="none" stroke="#63b8ff" d="M205.28,-354.28C212.61,-351.35 219.55,-347.21 224.75,-341.38 277.3,-282.43 210.18,-228.03 260.75,-167.38 263.83,-163.68 267.7,-160.66 271.9,-158.2"/>
<polygon fill="#63b8ff" stroke="#63b8ff" points="204.32,-350.92 195.88,-357.31 206.47,-357.58 204.32,-350.92"/>
</a>
</g>
</g>
<!-- Node23 -->
<g id="Node000023" class="node">
<title>Node23</title>
<g id="a_Node000023"><a xlink:href="classnixf_1_1ExprVar.html" target="_top" xlink:title=" ">
<polygon fill="white" stroke="#666666" points="349.88,-118.75 272.38,-118.75 272.38,-98 349.88,-98 349.88,-118.75"/>
<text text-anchor="middle" x="311.12" y="-105.25" font-family="Helvetica,sans-Serif" font-size="10.00">nixf::ExprVar</text>
</a>
</g>
</g>
<!-- Node5&#45;&gt;Node23 -->
<g id="edge38_Node000005_Node000023" class="edge">
<title>Node5&#45;&gt;Node23</title>
<g id="a_edge38_Node000005_Node000023"><a xlink:title=" ">
<path fill="none" stroke="#63b8ff" d="M205.24,-354.52C212.63,-351.57 219.61,-347.36 224.75,-341.38 287.32,-268.55 200.63,-203.23 260.75,-128.38 263.88,-124.48 267.88,-121.34 272.26,-118.81"/>
<polygon fill="#63b8ff" stroke="#63b8ff" points="204.2,-351.17 195.73,-357.54 206.32,-357.84 204.2,-351.17"/>
</a>
</g>
</g>
<!-- Node24 -->
<g id="Node000024" class="node">
<title>Node24</title>
<g id="a_Node000024"><a xlink:href="classnixf_1_1ExprWith.html" target="_top" xlink:title=" ">
<polygon fill="white" stroke="#666666" points="353.25,-79.75 269,-79.75 269,-59 353.25,-59 353.25,-79.75"/>
<text text-anchor="middle" x="311.12" y="-66.25" font-family="Helvetica,sans-Serif" font-size="10.00">nixf::ExprWith</text>
</a>
</g>
</g>
<!-- Node5&#45;&gt;Node24 -->
<g id="edge39_Node000005_Node000024" class="edge">
<title>Node5&#45;&gt;Node24</title>
<g id="a_edge39_Node000005_Node000024"><a xlink:title=" ">
<path fill="none" stroke="#63b8ff" d="M205.36,-354.62C212.74,-351.66 219.68,-347.43 224.75,-341.38 297.38,-254.63 191.03,-178.48 260.75,-89.38 263.71,-85.59 267.51,-82.51 271.68,-80.02"/>
<polygon fill="#63b8ff" stroke="#63b8ff" points="204.32,-351.28 195.85,-357.64 206.44,-357.95 204.32,-351.28"/>
</a>
</g>
</g>
<!-- Node16 -->
<g id="Node000016" class="node">
<title>Node16</title>
<g id="a_Node000016"><a xlink:href="classnixf_1_1ExprBinOp.html" target="_top" xlink:title=" ">
<polygon fill="white" stroke="#666666" points="499,-352.75 408,-352.75 408,-332 499,-332 499,-352.75"/>
<text text-anchor="middle" x="453.5" y="-339.25" font-family="Helvetica,sans-Serif" font-size="10.00">nixf::ExprBinOp</text>
</a>
</g>
</g>
<!-- Node15&#45;&gt;Node16 -->
<g id="edge31_Node000015_Node000016" class="edge">
<title>Node15&#45;&gt;Node16</title>
<g id="a_edge31_Node000015_Node000016"><a xlink:title=" ">
<path fill="none" stroke="#63b8ff" d="M360.09,-316.7C377.47,-321.53 396.88,-326.92 413.41,-331.51"/>
<polygon fill="#63b8ff" stroke="#63b8ff" points="361.04,-313.33 350.47,-314.03 359.16,-320.08 361.04,-313.33"/>
</a>
</g>
</g>
<!-- Node17 -->
<g id="Node000017" class="node">
<title>Node17</title>
<g id="a_Node000017"><a xlink:href="classnixf_1_1ExprOpHasAttr.html" target="_top" xlink:title=" ">
<polygon fill="white" stroke="#666666" points="509.5,-313.75 397.5,-313.75 397.5,-293 509.5,-293 509.5,-313.75"/>
<text text-anchor="middle" x="453.5" y="-300.25" font-family="Helvetica,sans-Serif" font-size="10.00">nixf::ExprOpHasAttr</text>
</a>
</g>
</g>
<!-- Node15&#45;&gt;Node17 -->
<g id="edge32_Node000015_Node000017" class="edge">
<title>Node15&#45;&gt;Node17</title>
<g id="a_edge32_Node000015_Node000017"><a xlink:title=" ">
<path fill="none" stroke="#63b8ff" d="M360.45,-303.38C372.26,-303.38 384.99,-303.38 397.1,-303.38"/>
<polygon fill="#63b8ff" stroke="#63b8ff" points="360.52,-299.88 350.52,-303.38 360.52,-306.88 360.52,-299.88"/>
</a>
</g>
</g>
<!-- Node18 -->
<g id="Node000018" class="node">
<title>Node18</title>
<g id="a_Node000018"><a xlink:href="classnixf_1_1ExprUnaryOp.html" target="_top" xlink:title=" ">
<polygon fill="white" stroke="#666666" points="505.75,-274.75 401.25,-274.75 401.25,-254 505.75,-254 505.75,-274.75"/>
<text text-anchor="middle" x="453.5" y="-261.25" font-family="Helvetica,sans-Serif" font-size="10.00">nixf::ExprUnaryOp</text>
</a>
</g>
</g>
<!-- Node15&#45;&gt;Node18 -->
<g id="edge33_Node000015_Node000018" class="edge">
<title>Node15&#45;&gt;Node18</title>
<g id="a_edge33_Node000015_Node000018"><a xlink:title=" ">
<path fill="none" stroke="#63b8ff" d="M360.09,-290.05C377.47,-285.22 396.88,-279.83 413.41,-275.24"/>
<polygon fill="#63b8ff" stroke="#63b8ff" points="359.16,-286.67 350.47,-292.72 361.04,-293.42 359.16,-286.67"/>
</a>
</g>
</g>
</g>
</svg>
