<?xml version="1.0" encoding="UTF-8" standalone="no"?>
<!DOCTYPE svg PUBLIC "-//W3C//DTD SVG 1.1//EN"
 "http://www.w3.org/Graphics/SVG/1.1/DTD/svg11.dtd">
<!-- Generated by graphviz version 10.0.1 (0)
 -->
<!-- Title: Graphical Class Hierarchy Pages: 1 -->
<svg width="509pt" height="236pt"
 viewBox="0.00 0.00 509.00 235.50" xmlns="http://www.w3.org/2000/svg" xmlns:xlink="http://www.w3.org/1999/xlink">
<g id="graph0" class="graph" transform="scale(1 1) rotate(0) translate(4 231.5)">
<title>Graphical Class Hierarchy</title>
<!-- Node0 -->
<g id="Node000000" class="node">
<title>Node0</title>
<g id="a_Node000000"><a xlink:title=" ">
<polygon fill="#e0e0e0" stroke="#999999" points="85,-165.12 0,-165.12 0,-144.38 85,-144.38 85,-165.12"/>
<text text-anchor="middle" x="42.5" y="-151.62" font-family="Helvetica,sans-Serif" font-size="10.00">std::exception</text>
</a>
</g>
</g>
<!-- Node1 -->
<g id="Node000001" class="node">
<title>Node1</title>
<g id="a_Node000001"><a xlink:href="structnixd_1_1CannotFindVarException.html" target="_top" xlink:title=" ">
<polygon fill="white" stroke="#666666" points="282.5,-227.12 121,-227.12 121,-206.38 282.5,-206.38 282.5,-227.12"/>
<text text-anchor="middle" x="201.75" y="-213.62" font-family="Helvetica,sans-Serif" font-size="10.00">nixd::CannotFindVarException</text>
</a>
</g>
</g>
<!-- Node0&#45;&gt;Node1 -->
<g id="edge80_Node000000_Node000001" class="edge">
<title>Node0&#45;&gt;Node1</title>
<g id="a_edge80_Node000000_Node000001"><a xlink:title=" ">
<path fill="none" stroke="#63b8ff" d="M70.27,-171.43C84.85,-179.94 103.44,-189.92 121,-196.75 130.05,-200.27 139.91,-203.33 149.53,-205.93"/>
<polygon fill="#63b8ff" stroke="#63b8ff" points="72.12,-168.46 61.74,-166.33 68.53,-174.46 72.12,-168.46"/>
</a>
</g>
</g>
<!-- Node2 -->
<g id="Node000002" class="node">
<title>Node2</title>
<g id="a_Node000002"><a xlink:href="structnixd_1_1idioms_1_1IdiomException.html" target="_top" xlink:title=" ">
<polygon fill="white" stroke="#666666" points="280.62,-188.12 122.88,-188.12 122.88,-167.38 280.62,-167.38 280.62,-188.12"/>
<text text-anchor="middle" x="201.75" y="-174.62" font-family="Helvetica,sans-Serif" font-size="10.00">nixd::idioms::IdiomException</text>
</a>
</g>
</g>
<!-- Node0&#45;&gt;Node2 -->
<g id="edge81_Node000000_Node000002" class="edge">
<title>Node0&#45;&gt;Node2</title>
<g id="a_edge81_Node000000_Node000002"><a xlink:title=" ">
<path fill="none" stroke="#63b8ff" d="M96.33,-162.48C106.06,-163.9 116.37,-165.41 126.59,-166.9"/>
<polygon fill="#63b8ff" stroke="#63b8ff" points="97.13,-159.06 86.72,-161.07 96.11,-165.98 97.13,-159.06"/>
</a>
</g>
</g>
<!-- Node3 -->
<g id="Node000003" class="node">
<title>Node3</title>
<g id="a_Node000003"><a xlink:href="structnixd_1_1idioms_1_1IdiomSelectorException.html" target="_top" xlink:title="Exceptions scoped in nixd::mkIdiomSelector.">
<polygon fill="white" stroke="#666666" points="276.5,-149.5 127,-149.5 127,-116 276.5,-116 276.5,-149.5"/>
<text text-anchor="start" x="135" y="-136" font-family="Helvetica,sans-Serif" font-size="10.00">nixd::idioms::IdiomSelector</text>
<text text-anchor="middle" x="201.75" y="-123.25" font-family="Helvetica,sans-Serif" font-size="10.00">Exception</text>
</a>
</g>
</g>
<!-- Node0&#45;&gt;Node3 -->
<g id="edge82_Node000000_Node000003" class="edge">
<title>Node0&#45;&gt;Node3</title>
<g id="a_edge82_Node000000_Node000003"><a xlink:title=" ">
<path fill="none" stroke="#63b8ff" d="M96.33,-147.36C106.06,-146 116.37,-144.55 126.59,-143.13"/>
<polygon fill="#63b8ff" stroke="#63b8ff" points="96.14,-143.85 86.73,-148.7 97.11,-150.78 96.14,-143.85"/>
</a>
</g>
</g>
<!-- Node7 -->
<g id="Node000007" class="node">
<title>Node7</title>
<g id="a_Node000007"><a xlink:href="structnixd_1_1idioms_1_1VLAException.html" target="_top" xlink:title=" ">
<polygon fill="white" stroke="#666666" points="276.5,-72.12 127,-72.12 127,-51.38 276.5,-51.38 276.5,-72.12"/>
<text text-anchor="middle" x="201.75" y="-58.62" font-family="Helvetica,sans-Serif" font-size="10.00">nixd::idioms::VLAException</text>
</a>
</g>
</g>
<!-- Node0&#45;&gt;Node7 -->
<g id="edge86_Node000000_Node000007" class="edge">
<title>Node0&#45;&gt;Node7</title>
<g id="a_edge86_Node000000_Node000007"><a xlink:title=" ">
<path fill="none" stroke="#63b8ff" d="M69.9,-138.03C84.81,-128.68 103.84,-116.9 121,-106.75 141.25,-94.77 164.74,-81.6 180.96,-72.62"/>
<polygon fill="#63b8ff" stroke="#63b8ff" points="68.19,-134.97 61.59,-143.26 71.92,-140.89 68.19,-134.97"/>
</a>
</g>
</g>
<!-- Node4 -->
<g id="Node000004" class="node">
<title>Node4</title>
<g id="a_Node000004"><a xlink:href="structnixd_1_1idioms_1_1DynamicNameException.html" target="_top" xlink:title="The attrpath has a dynamic name, thus it cannot be trivially transformed to &quot;static&quot; selector.">
<polygon fill="white" stroke="#666666" points="487.12,-227.5 332.38,-227.5 332.38,-194 487.12,-194 487.12,-227.5"/>
<text text-anchor="start" x="340.38" y="-214" font-family="Helvetica,sans-Serif" font-size="10.00">nixd::idioms::DynamicName</text>
<text text-anchor="middle" x="409.75" y="-201.25" font-family="Helvetica,sans-Serif" font-size="10.00">Exception</text>
</a>
</g>
</g>
<!-- Node3&#45;&gt;Node4 -->
<g id="edge83_Node000003_Node000004" class="edge">
<title>Node3&#45;&gt;Node4</title>
<g id="a_edge83_Node000003_Node000004"><a xlink:title=" ">
<path fill="none" stroke="#63b8ff" d="M272.96,-154.25C276.22,-155.68 279.42,-157.18 282.5,-158.75 300.09,-167.69 300.75,-176.11 318.5,-184.75 325.24,-188.03 332.48,-190.98 339.81,-193.59"/>
<polygon fill="#63b8ff" stroke="#63b8ff" points="274.36,-151.04 263.78,-150.49 271.7,-157.52 274.36,-151.04"/>
</a>
</g>
</g>
<!-- Node5 -->
<g id="Node000005" class="node">
<title>Node5</title>
<g id="a_Node000005"><a xlink:href="structnixd_1_1idioms_1_1NotAnIdiomException.html" target="_top" xlink:title="The pattern of this variable cannot be recognized by known idioms.">
<polygon fill="white" stroke="#666666" points="479.62,-175.5 339.88,-175.5 339.88,-142 479.62,-142 479.62,-175.5"/>
<text text-anchor="start" x="347.88" y="-162" font-family="Helvetica,sans-Serif" font-size="10.00">nixd::idioms::NotAnIdiom</text>
<text text-anchor="middle" x="409.75" y="-149.25" font-family="Helvetica,sans-Serif" font-size="10.00">Exception</text>
</a>
</g>
</g>
<!-- Node3&#45;&gt;Node5 -->
<g id="edge84_Node000003_Node000005" class="edge">
<title>Node3&#45;&gt;Node5</title>
<g id="a_edge84_Node000003_Node000005"><a xlink:title=" ">
<path fill="none" stroke="#63b8ff" d="M287.97,-143.51C305.11,-145.67 322.93,-147.92 339.45,-150"/>
<polygon fill="#63b8ff" stroke="#63b8ff" points="288.69,-140.07 278.33,-142.29 287.81,-147.01 288.69,-140.07"/>
</a>
</g>
</g>
<!-- Node6 -->
<g id="Node000006" class="node">
<title>Node6</title>
<g id="a_Node000006"><a xlink:href="structnixd_1_1idioms_1_1NotVariableSelect.html" target="_top" xlink:title=" ">
<polygon fill="white" stroke="#666666" points="479.25,-123.5 340.25,-123.5 340.25,-90 479.25,-90 479.25,-123.5"/>
<text text-anchor="start" x="348.25" y="-110" font-family="Helvetica,sans-Serif" font-size="10.00">nixd::idioms::NotVariable</text>
<text text-anchor="middle" x="409.75" y="-97.25" font-family="Helvetica,sans-Serif" font-size="10.00">Select</text>
</a>
</g>
</g>
<!-- Node3&#45;&gt;Node6 -->
<g id="edge85_Node000003_Node000006" class="edge">
<title>Node3&#45;&gt;Node6</title>
<g id="a_edge85_Node000003_Node000006"><a xlink:title=" ">
<path fill="none" stroke="#63b8ff" d="M288.04,-121.99C305.28,-119.81 323.2,-117.55 339.79,-115.45"/>
<polygon fill="#63b8ff" stroke="#63b8ff" points="287.81,-118.49 278.33,-123.21 288.69,-125.43 287.81,-118.49"/>
</a>
</g>
</g>
<!-- Node8 -->
<g id="Node000008" class="node">
<title>Node8</title>
<g id="a_Node000008"><a xlink:href="structnixd_1_1idioms_1_1NoSuchVarException.html" target="_top" xlink:title="No such variable.">
<polygon fill="white" stroke="#666666" points="501,-72.12 318.5,-72.12 318.5,-51.38 501,-51.38 501,-72.12"/>
<text text-anchor="middle" x="409.75" y="-58.62" font-family="Helvetica,sans-Serif" font-size="10.00">nixd::idioms::NoSuchVarException</text>
</a>
</g>
</g>
<!-- Node7&#45;&gt;Node8 -->
<g id="edge87_Node000007_Node000008" class="edge">
<title>Node7&#45;&gt;Node8</title>
<g id="a_edge87_Node000007_Node000008"><a xlink:title=" ">
<path fill="none" stroke="#63b8ff" d="M288.27,-61.75C298.11,-61.75 308.18,-61.75 318.09,-61.75"/>
<polygon fill="#63b8ff" stroke="#63b8ff" points="288.34,-58.25 278.34,-61.75 288.34,-65.25 288.34,-58.25"/>
</a>
</g>
</g>
<!-- Node9 -->
<g id="Node000009" class="node">
<title>Node9</title>
<g id="a_Node000009"><a xlink:href="structnixd_1_1idioms_1_1UndefinedVarException.html" target="_top" xlink:title=" ">
<polygon fill="white" stroke="#666666" points="483.38,-33.5 336.12,-33.5 336.12,0 483.38,0 483.38,-33.5"/>
<text text-anchor="start" x="344.12" y="-20" font-family="Helvetica,sans-Serif" font-size="10.00">nixd::idioms::UndefinedVar</text>
<text text-anchor="middle" x="409.75" y="-7.25" font-family="Helvetica,sans-Serif" font-size="10.00">Exception</text>
</a>
</g>
</g>
<!-- Node7&#45;&gt;Node9 -->
<g id="edge88_Node000007_Node000009" class="edge">
<title>Node7&#45;&gt;Node9</title>
<g id="a_edge88_Node000007_Node000009"><a xlink:title=" ">
<path fill="none" stroke="#63b8ff" d="M263.53,-48.47C286.19,-43.52 312.15,-37.85 335.8,-32.69"/>
<polygon fill="#63b8ff" stroke="#63b8ff" points="262.86,-45.04 253.83,-50.59 264.35,-51.88 262.86,-45.04"/>
</a>
</g>
</g>
</g>
</svg>
