<?xml version="1.0" encoding="UTF-8" standalone="no"?>
<!DOCTYPE svg PUBLIC "-//W3C//DTD SVG 1.1//EN"
 "http://www.w3.org/Graphics/SVG/1.1/DTD/svg11.dtd">
<!-- Generated by graphviz version 12.2.1 (0)
 -->
<!-- Title: Graphical Class Hierarchy Pages: 1 -->
<svg width="217pt" height="68pt"
 viewBox="0.00 0.00 217.00 67.75" xmlns="http://www.w3.org/2000/svg" xmlns:xlink="http://www.w3.org/1999/xlink">
<g id="graph0" class="graph" transform="scale(1 1) rotate(0) translate(4 63.75)">
<title>Graphical Class Hierarchy</title>
<!-- Node0 -->
<g id="Node000000" class="node">
<title>Node0</title>
<g id="a_Node000000"><a xlink:href="classtokens_1_1Token.html" target="_top" xlink:title=" ">
<polygon fill="white" stroke="#666666" points="79,-39.75 0,-39.75 0,-19 79,-19 79,-39.75"/>
<text text-anchor="middle" x="39.5" y="-26.25" font-family="Helvetica,sans-Serif" font-size="10.00">tokens.Token</text>
</a>
</g>
</g>
<!-- Node1 -->
<g id="Node000001" class="node">
<title>Node1</title>
<g id="a_Node000001"><a xlink:href="classtokens_1_1KwToken.html" target="_top" xlink:title=" ">
<polygon fill="white" stroke="#666666" points="209,-59.75 115,-59.75 115,-39 209,-39 209,-59.75"/>
<text text-anchor="middle" x="162" y="-46.25" font-family="Helvetica,sans-Serif" font-size="10.00">tokens.KwToken</text>
</a>
</g>
</g>
<!-- Node0&#45;&gt;Node1 -->
<g id="edge67_Node000000_Node000001" class="edge">
<title>Node0&#45;&gt;Node1</title>
<g id="a_edge67_Node000000_Node000001"><a xlink:title=" ">
<path fill="none" stroke="#63b8ff" d="M90.43,-37.66C98.47,-39 106.76,-40.37 114.71,-41.69"/>
<polygon fill="#63b8ff" stroke="#63b8ff" points="91.22,-34.25 80.78,-36.06 90.08,-41.15 91.22,-34.25"/>
</a>
</g>
</g>
<!-- Node2 -->
<g id="Node000002" class="node">
<title>Node2</title>
<g id="a_Node000002"><a xlink:href="classtokens_1_1OpToken.html" target="_top" xlink:title=" ">
<polygon fill="white" stroke="#666666" points="208.25,-20.75 115.75,-20.75 115.75,0 208.25,0 208.25,-20.75"/>
<text text-anchor="middle" x="162" y="-7.25" font-family="Helvetica,sans-Serif" font-size="10.00">tokens.OpToken</text>
</a>
</g>
</g>
<!-- Node0&#45;&gt;Node2 -->
<g id="edge68_Node000000_Node000002" class="edge">
<title>Node0&#45;&gt;Node2</title>
<g id="a_edge68_Node000000_Node000002"><a xlink:title=" ">
<path fill="none" stroke="#63b8ff" d="M90.42,-21.5C98.75,-20.19 107.35,-18.83 115.56,-17.54"/>
<polygon fill="#63b8ff" stroke="#63b8ff" points="90.12,-18.01 80.79,-23.02 91.21,-24.92 90.12,-18.01"/>
</a>
</g>
</g>
</g>
</svg>
