<?xml version="1.0" encoding="UTF-8" standalone="no"?>
<!DOCTYPE svg PUBLIC "-//W3C//DTD SVG 1.1//EN"
 "http://www.w3.org/Graphics/SVG/1.1/DTD/svg11.dtd">
<!-- Generated by graphviz version 10.0.1 (0)
 -->
<!-- Title: Graphical Class Hierarchy Pages: 1 -->
<svg width="611pt" height="107pt"
 viewBox="0.00 0.00 611.25 106.75" xmlns="http://www.w3.org/2000/svg" xmlns:xlink="http://www.w3.org/1999/xlink">
<g id="graph0" class="graph" transform="scale(1 1) rotate(0) translate(4 102.75)">
<title>Graphical Class Hierarchy</title>
<!-- Node0 -->
<g id="Node000000" class="node">
<title>Node0</title>
<g id="a_Node000000"><a xlink:href="classlspserver_1_1MessageHandler.html" target="_top" xlink:title=" ">
<polygon fill="white" stroke="#666666" points="148.75,-59.75 0,-59.75 0,-39 148.75,-39 148.75,-59.75"/>
<text text-anchor="middle" x="74.38" y="-46.25" font-family="Helvetica,sans-Serif" font-size="10.00">lspserver::MessageHandler</text>
</a>
</g>
</g>
<!-- Node1 -->
<g id="Node000001" class="node">
<title>Node1</title>
<g id="a_Node000001"><a xlink:href="classlspserver_1_1LSPServer.html" target="_top" xlink:title=" ">
<polygon fill="white" stroke="#666666" points="300.5,-59.75 184.75,-59.75 184.75,-39 300.5,-39 300.5,-59.75"/>
<text text-anchor="middle" x="242.62" y="-46.25" font-family="Helvetica,sans-Serif" font-size="10.00">lspserver::LSPServer</text>
</a>
</g>
</g>
<!-- Node0&#45;&gt;Node1 -->
<g id="edge5_Node000000_Node000001" class="edge">
<title>Node0&#45;&gt;Node1</title>
<g id="a_edge5_Node000000_Node000001"><a xlink:title=" ">
<path fill="none" stroke="#63b8ff" d="M160.28,-49.38C168.43,-49.38 176.55,-49.38 184.34,-49.38"/>
<polygon fill="#63b8ff" stroke="#63b8ff" points="160.29,-45.88 150.29,-49.38 160.29,-52.88 160.29,-45.88"/>
</a>
</g>
</g>
<!-- Node2 -->
<g id="Node000002" class="node">
<title>Node2</title>
<g id="a_Node000002"><a xlink:href="classnixd_1_1Controller.html" target="_top" xlink:title=" ">
<polygon fill="white" stroke="#666666" points="434.25,-98.75 343.25,-98.75 343.25,-78 434.25,-78 434.25,-98.75"/>
<text text-anchor="middle" x="388.75" y="-85.25" font-family="Helvetica,sans-Serif" font-size="10.00">nixd::Controller</text>
</a>
</g>
</g>
<!-- Node1&#45;&gt;Node2 -->
<g id="edge6_Node000001_Node000002" class="edge">
<title>Node1&#45;&gt;Node2</title>
<g id="a_edge6_Node000001_Node000002"><a xlink:title=" ">
<path fill="none" stroke="#63b8ff" d="M294.85,-63.24C312.16,-67.92 331.24,-73.08 347.57,-77.5"/>
<polygon fill="#63b8ff" stroke="#63b8ff" points="295.8,-59.87 285.23,-60.63 293.97,-66.62 295.8,-59.87"/>
</a>
</g>
</g>
<!-- Node3 -->
<g id="Node000003" class="node">
<title>Node3</title>
<g id="a_Node000003"><a xlink:href="classnixd_1_1EvalClient.html" target="_top" xlink:title=" ">
<polygon fill="white" stroke="#666666" points="435,-59.75 342.5,-59.75 342.5,-39 435,-39 435,-59.75"/>
<text text-anchor="middle" x="388.75" y="-46.25" font-family="Helvetica,sans-Serif" font-size="10.00">nixd::EvalClient</text>
</a>
</g>
</g>
<!-- Node1&#45;&gt;Node3 -->
<g id="edge7_Node000001_Node000003" class="edge">
<title>Node1&#45;&gt;Node3</title>
<g id="a_edge7_Node000001_Node000003"><a xlink:title=" ">
<path fill="none" stroke="#63b8ff" d="M312.08,-49.38C322.33,-49.38 332.68,-49.38 342.3,-49.38"/>
<polygon fill="#63b8ff" stroke="#63b8ff" points="312.1,-45.88 302.1,-49.38 312.1,-52.88 312.1,-45.88"/>
</a>
</g>
</g>
<!-- Node5 -->
<g id="Node000005" class="node">
<title>Node5</title>
<g id="a_Node000005"><a xlink:href="classnixd_1_1EvalProvider.html" target="_top" xlink:title=" ">
<polygon fill="white" stroke="#666666" points="441,-20.75 336.5,-20.75 336.5,0 441,0 441,-20.75"/>
<text text-anchor="middle" x="388.75" y="-7.25" font-family="Helvetica,sans-Serif" font-size="10.00">nixd::EvalProvider</text>
</a>
</g>
</g>
<!-- Node1&#45;&gt;Node5 -->
<g id="edge9_Node000001_Node000005" class="edge">
<title>Node1&#45;&gt;Node5</title>
<g id="a_edge9_Node000001_Node000005"><a xlink:title=" ">
<path fill="none" stroke="#63b8ff" d="M294.85,-35.51C312.16,-30.83 331.24,-25.67 347.57,-21.25"/>
<polygon fill="#63b8ff" stroke="#63b8ff" points="293.97,-32.13 285.23,-38.12 295.8,-38.88 293.97,-32.13"/>
</a>
</g>
</g>
<!-- Node4 -->
<g id="Node000004" class="node">
<title>Node4</title>
<g id="a_Node000004"><a xlink:href="classnixd_1_1OwnedEvalClient.html" target="_top" xlink:title=" ">
<polygon fill="white" stroke="#666666" points="603.25,-59.75 477,-59.75 477,-39 603.25,-39 603.25,-59.75"/>
<text text-anchor="middle" x="540.12" y="-46.25" font-family="Helvetica,sans-Serif" font-size="10.00">nixd::OwnedEvalClient</text>
</a>
</g>
</g>
<!-- Node3&#45;&gt;Node4 -->
<g id="edge8_Node000003_Node000004" class="edge">
<title>Node3&#45;&gt;Node4</title>
<g id="a_edge8_Node000003_Node000004"><a xlink:title=" ">
<path fill="none" stroke="#63b8ff" d="M446.67,-49.38C456.5,-49.38 466.76,-49.38 476.72,-49.38"/>
<polygon fill="#63b8ff" stroke="#63b8ff" points="446.89,-45.88 436.89,-49.38 446.89,-52.88 446.89,-45.88"/>
</a>
</g>
</g>
</g>
</svg>
