<?xml version="1.0" encoding="UTF-8" standalone="no"?>
<!DOCTYPE svg PUBLIC "-//W3C//DTD SVG 1.1//EN"
 "http://www.w3.org/Graphics/SVG/1.1/DTD/svg11.dtd">
<!-- Generated by graphviz version 12.2.1 (0)
 -->
<!-- Title: Graphical Class Hierarchy Pages: 1 -->
<svg width="258pt" height="68pt"
 viewBox="0.00 0.00 258.25 67.75" xmlns="http://www.w3.org/2000/svg" xmlns:xlink="http://www.w3.org/1999/xlink">
<g id="graph0" class="graph" transform="scale(1 1) rotate(0) translate(4 63.75)">
<title>Graphical Class Hierarchy</title>
<!-- Node0 -->
<g id="Node000000" class="node">
<title>Node0</title>
<g id="a_Node000000"><a xlink:href="classnixf_1_1PartialDiagnostic.html" target="_top" xlink:title=" ">
<polygon fill="white" stroke="#666666" points="122.5,-39.75 0,-39.75 0,-19 122.5,-19 122.5,-39.75"/>
<text text-anchor="middle" x="61.25" y="-26.25" font-family="Helvetica,sans-Serif" font-size="10.00">nixf::PartialDiagnostic</text>
</a>
</g>
</g>
<!-- Node1 -->
<g id="Node000001" class="node">
<title>Node1</title>
<g id="a_Node000001"><a xlink:href="classnixf_1_1Diagnostic.html" target="_top" xlink:title=" ">
<polygon fill="white" stroke="#666666" points="250.25,-59.75 158.5,-59.75 158.5,-39 250.25,-39 250.25,-59.75"/>
<text text-anchor="middle" x="204.38" y="-46.25" font-family="Helvetica,sans-Serif" font-size="10.00">nixf::Diagnostic</text>
</a>
</g>
</g>
<!-- Node0&#45;&gt;Node1 -->
<g id="edge52_Node000000_Node000001" class="edge">
<title>Node0&#45;&gt;Node1</title>
<g id="a_edge52_Node000000_Node000001"><a xlink:title=" ">
<path fill="none" stroke="#63b8ff" d="M134.05,-39.55C142.24,-40.71 150.4,-41.87 158.1,-42.96"/>
<polygon fill="#63b8ff" stroke="#63b8ff" points="134.81,-36.12 124.42,-38.19 133.83,-43.05 134.81,-36.12"/>
</a>
</g>
</g>
<!-- Node2 -->
<g id="Node000002" class="node">
<title>Node2</title>
<g id="a_Node000002"><a xlink:href="classnixf_1_1Note.html" target="_top" xlink:title=" ">
<polygon fill="white" stroke="#666666" points="236,-20.75 172.75,-20.75 172.75,0 236,0 236,-20.75"/>
<text text-anchor="middle" x="204.38" y="-7.25" font-family="Helvetica,sans-Serif" font-size="10.00">nixf::Note</text>
</a>
</g>
</g>
<!-- Node0&#45;&gt;Node2 -->
<g id="edge53_Node000000_Node000002" class="edge">
<title>Node0&#45;&gt;Node2</title>
<g id="a_edge53_Node000000_Node000002"><a xlink:title=" ">
<path fill="none" stroke="#63b8ff" d="M134.17,-19.69C147.59,-17.89 160.95,-16.09 172.3,-14.56"/>
<polygon fill="#63b8ff" stroke="#63b8ff" points="133.86,-16.2 124.42,-21.01 134.8,-23.14 133.86,-16.2"/>
</a>
</g>
</g>
</g>
</svg>
