<?xml version="1.0" encoding="UTF-8" standalone="no"?>
<!DOCTYPE svg PUBLIC "-//W3C//DTD SVG 1.1//EN"
 "http://www.w3.org/Graphics/SVG/1.1/DTD/svg11.dtd">
<!-- Generated by graphviz version 12.2.1 (0)
 -->
<!-- Title: Graphical Class Hierarchy Pages: 1 -->
<svg width="509pt" height="313pt"
 viewBox="0.00 0.00 509.00 313.12" xmlns="http://www.w3.org/2000/svg" xmlns:xlink="http://www.w3.org/1999/xlink">
<g id="graph0" class="graph" transform="scale(1 1) rotate(0) translate(4 309.12)">
<title>Graphical Class Hierarchy</title>
<!-- Node0 -->
<g id="Node000000" class="node">
<title>Node0</title>
<g id="a_Node000000"><a xlink:title=" ">
<polygon fill="#e0e0e0" stroke="#999999" points="85,-197.12 0,-197.12 0,-176.38 85,-176.38 85,-197.12"/>
<text text-anchor="middle" x="42.5" y="-183.62" font-family="Helvetica,sans-Serif" font-size="10.00">std::exception</text>
</a>
</g>
</g>
<!-- Node1 -->
<g id="Node000001" class="node">
<title>Node1</title>
<g id="a_Node000001"><a xlink:href="structnixd_1_1CannotFindVarException.html" target="_top" xlink:title=" ">
<polygon fill="white" stroke="#666666" points="282.5,-301.12 121,-301.12 121,-280.38 282.5,-280.38 282.5,-301.12"/>
<text text-anchor="middle" x="201.75" y="-287.62" font-family="Helvetica,sans-Serif" font-size="10.00">nixd::CannotFindVarException</text>
</a>
</g>
</g>
<!-- Node0&#45;&gt;Node1 -->
<g id="edge54_Node000000_Node000001" class="edge">
<title>Node0&#45;&gt;Node1</title>
<g id="a_edge54_Node000000_Node000001"><a xlink:title=" ">
<path fill="none" stroke="#63b8ff" d="M56.67,-206.72C70.44,-226.01 93.81,-254.61 121,-270.75 127.26,-274.47 134.19,-277.49 141.28,-279.96"/>
<polygon fill="#63b8ff" stroke="#63b8ff" points="59.63,-204.85 51.07,-198.6 53.86,-208.82 59.63,-204.85"/>
</a>
</g>
</g>
<!-- Node2 -->
<g id="Node000002" class="node">
<title>Node2</title>
<g id="a_Node000002"><a xlink:href="classnixd_1_1LLVMErrorException.html" target="_top" xlink:title=" ">
<polygon fill="white" stroke="#666666" points="271.62,-262.12 131.88,-262.12 131.88,-241.38 271.62,-241.38 271.62,-262.12"/>
<text text-anchor="middle" x="201.75" y="-248.62" font-family="Helvetica,sans-Serif" font-size="10.00">nixd::LLVMErrorException</text>
</a>
</g>
</g>
<!-- Node0&#45;&gt;Node2 -->
<g id="edge55_Node000000_Node000002" class="edge">
<title>Node0&#45;&gt;Node2</title>
<g id="a_edge55_Node000000_Node000002"><a xlink:title=" ">
<path fill="none" stroke="#63b8ff" d="M70.66,-203.34C85.22,-211.75 103.68,-221.66 121,-228.75 132.33,-233.39 144.93,-237.49 156.71,-240.89"/>
<polygon fill="#63b8ff" stroke="#63b8ff" points="72.52,-200.38 62.13,-198.32 68.96,-206.41 72.52,-200.38"/>
</a>
</g>
</g>
<!-- Node5 -->
<g id="Node000005" class="node">
<title>Node5</title>
<g id="a_Node000005"><a xlink:href="structnixd_1_1idioms_1_1IdiomException.html" target="_top" xlink:title=" ">
<polygon fill="white" stroke="#666666" points="280.62,-220.12 122.88,-220.12 122.88,-199.38 280.62,-199.38 280.62,-220.12"/>
<text text-anchor="middle" x="201.75" y="-206.62" font-family="Helvetica,sans-Serif" font-size="10.00">nixd::idioms::IdiomException</text>
</a>
</g>
</g>
<!-- Node0&#45;&gt;Node5 -->
<g id="edge58_Node000000_Node000005" class="edge">
<title>Node0&#45;&gt;Node5</title>
<g id="a_edge58_Node000000_Node000005"><a xlink:title=" ">
<path fill="none" stroke="#63b8ff" d="M96.33,-194.48C106.06,-195.9 116.37,-197.41 126.59,-198.9"/>
<polygon fill="#63b8ff" stroke="#63b8ff" points="97.13,-191.06 86.72,-193.07 96.11,-197.98 97.13,-191.06"/>
</a>
</g>
</g>
<!-- Node6 -->
<g id="Node000006" class="node">
<title>Node6</title>
<g id="a_Node000006"><a xlink:href="structnixd_1_1idioms_1_1IdiomSelectorException.html" target="_top" xlink:title="Exceptions scoped in nixd::mkIdiomSelector.">
<polygon fill="white" stroke="#666666" points="276.5,-181.5 127,-181.5 127,-148 276.5,-148 276.5,-181.5"/>
<text text-anchor="start" x="135" y="-168" font-family="Helvetica,sans-Serif" font-size="10.00">nixd::idioms::IdiomSelector</text>
<text text-anchor="middle" x="201.75" y="-155.25" font-family="Helvetica,sans-Serif" font-size="10.00">Exception</text>
</a>
</g>
</g>
<!-- Node0&#45;&gt;Node6 -->
<g id="edge59_Node000000_Node000006" class="edge">
<title>Node0&#45;&gt;Node6</title>
<g id="a_edge59_Node000000_Node000006"><a xlink:title=" ">
<path fill="none" stroke="#63b8ff" d="M96.33,-179.36C106.06,-178 116.37,-176.55 126.59,-175.13"/>
<polygon fill="#63b8ff" stroke="#63b8ff" points="96.14,-175.85 86.73,-180.7 97.11,-182.78 96.14,-175.85"/>
</a>
</g>
</g>
<!-- Node10 -->
<g id="Node000010" class="node">
<title>Node10</title>
<g id="a_Node000010"><a xlink:href="structnixd_1_1idioms_1_1NoLocationForBuiltinVariable.html" target="_top" xlink:title=" ">
<polygon fill="white" stroke="#666666" points="270.12,-129.5 133.38,-129.5 133.38,-96 270.12,-96 270.12,-129.5"/>
<text text-anchor="start" x="141.38" y="-116" font-family="Helvetica,sans-Serif" font-size="10.00">nixd::idioms::NoLocation</text>
<text text-anchor="middle" x="201.75" y="-103.25" font-family="Helvetica,sans-Serif" font-size="10.00">ForBuiltinVariable</text>
</a>
</g>
</g>
<!-- Node0&#45;&gt;Node10 -->
<g id="edge63_Node000000_Node000010" class="edge">
<title>Node0&#45;&gt;Node10</title>
<g id="a_edge63_Node000000_Node000010"><a xlink:title=" ">
<path fill="none" stroke="#63b8ff" d="M67.78,-169.61C82.65,-159.66 102.34,-147.42 121,-138.75 127.87,-135.56 135.24,-132.59 142.62,-129.89"/>
<polygon fill="#63b8ff" stroke="#63b8ff" points="65.87,-166.68 59.58,-175.21 69.81,-172.46 65.87,-166.68"/>
</a>
</g>
</g>
<!-- Node11 -->
<g id="Node000011" class="node">
<title>Node11</title>
<g id="a_Node000011"><a xlink:href="structnixd_1_1idioms_1_1VLAException.html" target="_top" xlink:title=" ">
<polygon fill="white" stroke="#666666" points="276.5,-72.12 127,-72.12 127,-51.38 276.5,-51.38 276.5,-72.12"/>
<text text-anchor="middle" x="201.75" y="-58.62" font-family="Helvetica,sans-Serif" font-size="10.00">nixd::idioms::VLAException</text>
</a>
</g>
</g>
<!-- Node0&#45;&gt;Node11 -->
<g id="edge64_Node000000_Node000011" class="edge">
<title>Node0&#45;&gt;Node11</title>
<g id="a_edge64_Node000000_Node000011"><a xlink:title=" ">
<path fill="none" stroke="#63b8ff" d="M54.43,-166.02C67.41,-143.37 91.09,-107.55 121,-86.75 129.7,-80.7 139.92,-76.07 150.09,-72.54"/>
<polygon fill="#63b8ff" stroke="#63b8ff" points="51.45,-164.19 49.68,-174.63 57.58,-167.57 51.45,-164.19"/>
</a>
</g>
</g>
<!-- Node3 -->
<g id="Node000003" class="node">
<title>Node3</title>
<g id="a_Node000003"><a xlink:href="classnixd_1_1JSONParseException.html" target="_top" xlink:title=" ">
<polygon fill="white" stroke="#666666" points="480.38,-305.12 339.12,-305.12 339.12,-284.38 480.38,-284.38 480.38,-305.12"/>
<text text-anchor="middle" x="409.75" y="-291.62" font-family="Helvetica,sans-Serif" font-size="10.00">nixd::JSONParseException</text>
</a>
</g>
</g>
<!-- Node2&#45;&gt;Node3 -->
<g id="edge56_Node000002_Node000003" class="edge">
<title>Node2&#45;&gt;Node3</title>
<g id="a_edge56_Node000002_Node000003"><a xlink:title=" ">
<path fill="none" stroke="#63b8ff" d="M265.64,-264.88C294.82,-270.97 329.1,-278.12 356.78,-283.9"/>
<polygon fill="#63b8ff" stroke="#63b8ff" points="266.72,-261.53 256.21,-262.91 265.29,-268.38 266.72,-261.53"/>
</a>
</g>
</g>
<!-- Node4 -->
<g id="Node000004" class="node">
<title>Node4</title>
<g id="a_Node000004"><a xlink:href="classnixd_1_1JSONSchemaException.html" target="_top" xlink:title=" ">
<polygon fill="white" stroke="#666666" points="486.75,-266.12 332.75,-266.12 332.75,-245.38 486.75,-245.38 486.75,-266.12"/>
<text text-anchor="middle" x="409.75" y="-252.62" font-family="Helvetica,sans-Serif" font-size="10.00">nixd::JSONSchemaException</text>
</a>
</g>
</g>
<!-- Node2&#45;&gt;Node4 -->
<g id="edge57_Node000002_Node000004" class="edge">
<title>Node2&#45;&gt;Node4</title>
<g id="a_edge57_Node000002_Node000004"><a xlink:title=" ">
<path fill="none" stroke="#63b8ff" d="M283,-253.31C299.22,-253.62 316.24,-253.95 332.32,-254.27"/>
<polygon fill="#63b8ff" stroke="#63b8ff" points="283.5,-249.82 273.43,-253.12 283.36,-256.82 283.5,-249.82"/>
</a>
</g>
</g>
<!-- Node7 -->
<g id="Node000007" class="node">
<title>Node7</title>
<g id="a_Node000007"><a xlink:href="structnixd_1_1idioms_1_1DynamicNameException.html" target="_top" xlink:title="The attrpath has a dynamic name, thus it cannot be trivially transformed to &quot;static&quot; selector.">
<polygon fill="white" stroke="#666666" points="487.12,-227.5 332.38,-227.5 332.38,-194 487.12,-194 487.12,-227.5"/>
<text text-anchor="start" x="340.38" y="-214" font-family="Helvetica,sans-Serif" font-size="10.00">nixd::idioms::DynamicName</text>
<text text-anchor="middle" x="409.75" y="-201.25" font-family="Helvetica,sans-Serif" font-size="10.00">Exception</text>
</a>
</g>
</g>
<!-- Node6&#45;&gt;Node7 -->
<g id="edge60_Node000006_Node000007" class="edge">
<title>Node6&#45;&gt;Node7</title>
<g id="a_edge60_Node000006_Node000007"><a xlink:title=" ">
<path fill="none" stroke="#63b8ff" d="M287.93,-183.77C302.61,-187.05 317.78,-190.44 332.21,-193.66"/>
<polygon fill="#63b8ff" stroke="#63b8ff" points="288.83,-180.39 278.31,-181.62 287.3,-187.22 288.83,-180.39"/>
</a>
</g>
</g>
<!-- Node8 -->
<g id="Node000008" class="node">
<title>Node8</title>
<g id="a_Node000008"><a xlink:href="structnixd_1_1idioms_1_1NotAnIdiomException.html" target="_top" xlink:title="The pattern of this variable cannot be recognized by known idioms.">
<polygon fill="white" stroke="#666666" points="479.62,-175.5 339.88,-175.5 339.88,-142 479.62,-142 479.62,-175.5"/>
<text text-anchor="start" x="347.88" y="-162" font-family="Helvetica,sans-Serif" font-size="10.00">nixd::idioms::NotAnIdiom</text>
<text text-anchor="middle" x="409.75" y="-149.25" font-family="Helvetica,sans-Serif" font-size="10.00">Exception</text>
</a>
</g>
</g>
<!-- Node6&#45;&gt;Node8 -->
<g id="edge61_Node000006_Node000008" class="edge">
<title>Node6&#45;&gt;Node8</title>
<g id="a_edge61_Node000006_Node000008"><a xlink:title=" ">
<path fill="none" stroke="#63b8ff" d="M287.97,-162.27C305.11,-161.77 322.93,-161.25 339.45,-160.77"/>
<polygon fill="#63b8ff" stroke="#63b8ff" points="288.24,-158.76 278.34,-162.55 288.44,-165.76 288.24,-158.76"/>
</a>
</g>
</g>
<!-- Node9 -->
<g id="Node000009" class="node">
<title>Node9</title>
<g id="a_Node000009"><a xlink:href="structnixd_1_1idioms_1_1NotVariableSelect.html" target="_top" xlink:title=" ">
<polygon fill="white" stroke="#666666" points="479.25,-123.5 340.25,-123.5 340.25,-90 479.25,-90 479.25,-123.5"/>
<text text-anchor="start" x="348.25" y="-110" font-family="Helvetica,sans-Serif" font-size="10.00">nixd::idioms::NotVariable</text>
<text text-anchor="middle" x="409.75" y="-97.25" font-family="Helvetica,sans-Serif" font-size="10.00">Select</text>
</a>
</g>
</g>
<!-- Node6&#45;&gt;Node9 -->
<g id="edge62_Node000006_Node000009" class="edge">
<title>Node6&#45;&gt;Node9</title>
<g id="a_edge62_Node000006_Node000009"><a xlink:title=" ">
<path fill="none" stroke="#63b8ff" d="M275.07,-144.39C298.8,-137.71 324.93,-130.35 347.74,-123.93"/>
<polygon fill="#63b8ff" stroke="#63b8ff" points="274.13,-141.02 265.46,-147.09 276.03,-147.75 274.13,-141.02"/>
</a>
</g>
</g>
<!-- Node12 -->
<g id="Node000012" class="node">
<title>Node12</title>
<g id="a_Node000012"><a xlink:href="structnixd_1_1idioms_1_1NoSuchVarException.html" target="_top" xlink:title="No such variable.">
<polygon fill="white" stroke="#666666" points="501,-72.12 318.5,-72.12 318.5,-51.38 501,-51.38 501,-72.12"/>
<text text-anchor="middle" x="409.75" y="-58.62" font-family="Helvetica,sans-Serif" font-size="10.00">nixd::idioms::NoSuchVarException</text>
</a>
</g>
</g>
<!-- Node11&#45;&gt;Node12 -->
<g id="edge65_Node000011_Node000012" class="edge">
<title>Node11&#45;&gt;Node12</title>
<g id="a_edge65_Node000011_Node000012"><a xlink:title=" ">
<path fill="none" stroke="#63b8ff" d="M288.27,-61.75C298.11,-61.75 308.18,-61.75 318.09,-61.75"/>
<polygon fill="#63b8ff" stroke="#63b8ff" points="288.34,-58.25 278.34,-61.75 288.34,-65.25 288.34,-58.25"/>
</a>
</g>
</g>
<!-- Node13 -->
<g id="Node000013" class="node">
<title>Node13</title>
<g id="a_Node000013"><a xlink:href="structnixd_1_1idioms_1_1UndefinedVarException.html" target="_top" xlink:title=" ">
<polygon fill="white" stroke="#666666" points="483.38,-33.5 336.12,-33.5 336.12,0 483.38,0 483.38,-33.5"/>
<text text-anchor="start" x="344.12" y="-20" font-family="Helvetica,sans-Serif" font-size="10.00">nixd::idioms::UndefinedVar</text>
<text text-anchor="middle" x="409.75" y="-7.25" font-family="Helvetica,sans-Serif" font-size="10.00">Exception</text>
</a>
</g>
</g>
<!-- Node11&#45;&gt;Node13 -->
<g id="edge66_Node000011_Node000013" class="edge">
<title>Node11&#45;&gt;Node13</title>
<g id="a_edge66_Node000011_Node000013"><a xlink:title=" ">
<path fill="none" stroke="#63b8ff" d="M263.53,-48.47C286.19,-43.52 312.15,-37.85 335.8,-32.69"/>
<polygon fill="#63b8ff" stroke="#63b8ff" points="262.86,-45.04 253.83,-50.59 264.35,-51.88 262.86,-45.04"/>
</a>
</g>
</g>
</g>
</svg>
