<?xml version="1.0" encoding="UTF-8" standalone="no"?>
<!DOCTYPE svg PUBLIC "-//W3C//DTD SVG 1.1//EN"
 "http://www.w3.org/Graphics/SVG/1.1/DTD/svg11.dtd">
<!-- Generated by graphviz version 12.2.1 (0)
 -->
<!-- Title: lspserver::CodeActionParams Pages: 1 -->
<svg width="483pt" height="197pt"
 viewBox="0.00 0.00 482.88 196.50" xmlns="http://www.w3.org/2000/svg" xmlns:xlink="http://www.w3.org/1999/xlink">
<g id="graph0" class="graph" transform="scale(1 1) rotate(0) translate(4 192.5)">
<title>lspserver::CodeActionParams</title>
<!-- Node1 -->
<g id="Node000001" class="node">
<title>Node1</title>
<g id="a_Node000001"><a xlink:title=" ">
<polygon fill="#999999" stroke="#666666" points="326.75,-20.75 168.25,-20.75 168.25,0 326.75,0 326.75,-20.75"/>
<text text-anchor="middle" x="247.5" y="-7.25" font-family="Helvetica,sans-Serif" font-size="10.00">lspserver::CodeActionParams</text>
</a>
</g>
</g>
<!-- Node2 -->
<g id="Node000002" class="node">
<title>Node2</title>
<g id="a_Node000002"><a xlink:href="structlspserver_1_1TextDocumentIdentifier.html" target="_top" xlink:title=" ">
<polygon fill="white" stroke="#666666" points="181,-96.25 0,-96.25 0,-75.5 181,-75.5 181,-96.25"/>
<text text-anchor="middle" x="90.5" y="-82.75" font-family="Helvetica,sans-Serif" font-size="10.00">lspserver::TextDocumentIdentifier</text>
</a>
</g>
</g>
<!-- Node2&#45;&gt;Node1 -->
<g id="edge1_Node000001_Node000002" class="edge">
<title>Node2&#45;&gt;Node1</title>
<g id="a_edge1_Node000001_Node000002"><a xlink:title=" ">
<path fill="none" stroke="#9a32cd" stroke-dasharray="5,2" d="M114.28,-68.92C129.21,-59.35 149.1,-47.4 167.75,-38.75 182.49,-31.91 199.44,-25.86 213.91,-21.19"/>
<polygon fill="#9a32cd" stroke="#9a32cd" points="112.54,-65.87 106.08,-74.27 116.37,-71.74 112.54,-65.87"/>
</a>
</g>
<text text-anchor="start" x="170.75" y="-45" font-family="Helvetica,sans-Serif" font-size="10.00" fill="grey">textDocument</text>
</g>
<!-- Node3 -->
<g id="Node000003" class="node">
<title>Node3</title>
<g id="a_Node000003"><a xlink:href="structlspserver_1_1URIForFile.html" target="_top" xlink:title=" ">
<polygon fill="white" stroke="#666666" points="148.75,-188.5 32.25,-188.5 32.25,-167.75 148.75,-167.75 148.75,-188.5"/>
<text text-anchor="middle" x="90.5" y="-175" font-family="Helvetica,sans-Serif" font-size="10.00">lspserver::URIForFile</text>
</a>
</g>
</g>
<!-- Node3&#45;&gt;Node2 -->
<g id="edge2_Node000002_Node000003" class="edge">
<title>Node3&#45;&gt;Node2</title>
<g id="a_edge2_Node000002_Node000003"><a xlink:title=" ">
<path fill="none" stroke="#9a32cd" stroke-dasharray="5,2" d="M90.5,-156.02C90.5,-137.33 90.5,-110.9 90.5,-96.74"/>
<polygon fill="#9a32cd" stroke="#9a32cd" points="87,-155.95 90.5,-165.95 94,-155.95 87,-155.95"/>
</a>
</g>
<text text-anchor="start" x="93.5" y="-128.88" font-family="Helvetica,sans-Serif" font-size="10.00" fill="grey">uri</text>
</g>
<!-- Node4 -->
<g id="Node000004" class="node">
<title>Node4</title>
<g id="a_Node000004"><a xlink:href="structlspserver_1_1Range.html" target="_top" xlink:title=" ">
<polygon fill="white" stroke="#666666" points="296.38,-96.25 198.62,-96.25 198.62,-75.5 296.38,-75.5 296.38,-96.25"/>
<text text-anchor="middle" x="247.5" y="-82.75" font-family="Helvetica,sans-Serif" font-size="10.00">lspserver::Range</text>
</a>
</g>
</g>
<!-- Node4&#45;&gt;Node1 -->
<g id="edge3_Node000001_Node000004" class="edge">
<title>Node4&#45;&gt;Node1</title>
<g id="a_edge3_Node000001_Node000004"><a xlink:title=" ">
<path fill="none" stroke="#9a32cd" stroke-dasharray="5,2" d="M247.5,-63.76C247.5,-49.76 247.5,-32.05 247.5,-21.22"/>
<polygon fill="#9a32cd" stroke="#9a32cd" points="244,-63.75 247.5,-73.75 251,-63.75 244,-63.75"/>
</a>
</g>
<text text-anchor="start" x="250.5" y="-45" font-family="Helvetica,sans-Serif" font-size="10.00" fill="grey">range</text>
</g>
<!-- Node5 -->
<g id="Node000005" class="node">
<title>Node5</title>
<g id="a_Node000005"><a xlink:href="structlspserver_1_1Position.html" target="_top" xlink:title=" ">
<polygon fill="white" stroke="#666666" points="300.5,-188.5 194.5,-188.5 194.5,-167.75 300.5,-167.75 300.5,-188.5"/>
<text text-anchor="middle" x="247.5" y="-175" font-family="Helvetica,sans-Serif" font-size="10.00">lspserver::Position</text>
</a>
</g>
</g>
<!-- Node5&#45;&gt;Node4 -->
<g id="edge4_Node000004_Node000005" class="edge">
<title>Node5&#45;&gt;Node4</title>
<g id="a_edge4_Node000004_Node000005"><a xlink:title=" ">
<path fill="none" stroke="#9a32cd" stroke-dasharray="5,2" d="M247.5,-156.02C247.5,-137.33 247.5,-110.9 247.5,-96.74"/>
<polygon fill="#9a32cd" stroke="#9a32cd" points="244,-155.95 247.5,-165.95 251,-155.95 244,-155.95"/>
</a>
</g>
<text text-anchor="start" x="250.5" y="-137.25" font-family="Helvetica,sans-Serif" font-size="10.00" fill="grey">end</text>
<text text-anchor="start" x="250.5" y="-120.5" font-family="Helvetica,sans-Serif" font-size="10.00" fill="grey">start</text>
</g>
<!-- Node6 -->
<g id="Node000006" class="node">
<title>Node6</title>
<g id="a_Node000006"><a xlink:href="structlspserver_1_1CodeActionContext.html" target="_top" xlink:title=" ">
<polygon fill="white" stroke="#666666" points="474.88,-96.25 314.12,-96.25 314.12,-75.5 474.88,-75.5 474.88,-96.25"/>
<text text-anchor="middle" x="394.5" y="-82.75" font-family="Helvetica,sans-Serif" font-size="10.00">lspserver::CodeActionContext</text>
</a>
</g>
</g>
<!-- Node6&#45;&gt;Node1 -->
<g id="edge5_Node000001_Node000006" class="edge">
<title>Node6&#45;&gt;Node1</title>
<g id="a_edge5_Node000001_Node000006"><a xlink:title=" ">
<path fill="none" stroke="#9a32cd" stroke-dasharray="5,2" d="M364.97,-70.11C335.86,-55.55 292.18,-33.72 267.1,-21.18"/>
<polygon fill="#9a32cd" stroke="#9a32cd" points="363.12,-73.1 373.63,-74.44 366.25,-66.84 363.12,-73.1"/>
</a>
</g>
<text text-anchor="start" x="341.49" y="-45" font-family="Helvetica,sans-Serif" font-size="10.00" fill="grey">context</text>
</g>
</g>
</svg>
