<?xml version="1.0" encoding="UTF-8" standalone="no"?>
<!DOCTYPE svg PUBLIC "-//W3C//DTD SVG 1.1//EN"
 "http://www.w3.org/Graphics/SVG/1.1/DTD/svg11.dtd">
<!-- Generated by graphviz version 12.2.1 (0)
 -->
<!-- Title: lspserver::RenameParams Pages: 1 -->
<svg width="314pt" height="180pt"
 viewBox="0.00 0.00 313.50 179.75" xmlns="http://www.w3.org/2000/svg" xmlns:xlink="http://www.w3.org/1999/xlink">
<g id="graph0" class="graph" transform="scale(1 1) rotate(0) translate(4 175.75)">
<title>lspserver::RenameParams</title>
<!-- Node1 -->
<g id="Node000001" class="node">
<title>Node1</title>
<g id="a_Node000001"><a xlink:title=" ">
<polygon fill="#999999" stroke="#666666" points="243.25,-20.75 99.75,-20.75 99.75,0 243.25,0 243.25,-20.75"/>
<text text-anchor="middle" x="171.5" y="-7.25" font-family="Helvetica,sans-Serif" font-size="10.00">lspserver::RenameParams</text>
</a>
</g>
</g>
<!-- Node2 -->
<g id="Node000002" class="node">
<title>Node2</title>
<g id="a_Node000002"><a xlink:href="structlspserver_1_1TextDocumentIdentifier.html" target="_top" xlink:title=" ">
<polygon fill="white" stroke="#666666" points="181,-96.25 0,-96.25 0,-75.5 181,-75.5 181,-96.25"/>
<text text-anchor="middle" x="90.5" y="-82.75" font-family="Helvetica,sans-Serif" font-size="10.00">lspserver::TextDocumentIdentifier</text>
</a>
</g>
</g>
<!-- Node2&#45;&gt;Node1 -->
<g id="edge1_Node000001_Node000002" class="edge">
<title>Node2&#45;&gt;Node1</title>
<g id="a_edge1_Node000001_Node000002"><a xlink:title=" ">
<path fill="none" stroke="#9a32cd" stroke-dasharray="5,2" d="M109.19,-67.92C125.13,-53.45 147.5,-33.15 160.65,-21.22"/>
<polygon fill="#9a32cd" stroke="#9a32cd" points="107.26,-64.94 102.21,-74.25 111.97,-70.12 107.26,-64.94"/>
</a>
</g>
<text text-anchor="start" x="143.64" y="-45" font-family="Helvetica,sans-Serif" font-size="10.00" fill="grey">textDocument</text>
</g>
<!-- Node3 -->
<g id="Node000003" class="node">
<title>Node3</title>
<g id="a_Node000003"><a xlink:href="structlspserver_1_1URIForFile.html" target="_top" xlink:title=" ">
<polygon fill="white" stroke="#666666" points="148.75,-171.75 32.25,-171.75 32.25,-151 148.75,-151 148.75,-171.75"/>
<text text-anchor="middle" x="90.5" y="-158.25" font-family="Helvetica,sans-Serif" font-size="10.00">lspserver::URIForFile</text>
</a>
</g>
</g>
<!-- Node3&#45;&gt;Node2 -->
<g id="edge2_Node000002_Node000003" class="edge">
<title>Node3&#45;&gt;Node2</title>
<g id="a_edge2_Node000002_Node000003"><a xlink:title=" ">
<path fill="none" stroke="#9a32cd" stroke-dasharray="5,2" d="M90.5,-139.26C90.5,-125.26 90.5,-107.55 90.5,-96.72"/>
<polygon fill="#9a32cd" stroke="#9a32cd" points="87,-139.25 90.5,-149.25 94,-139.25 87,-139.25"/>
</a>
</g>
<text text-anchor="start" x="93.5" y="-120.5" font-family="Helvetica,sans-Serif" font-size="10.00" fill="grey">uri</text>
</g>
<!-- Node4 -->
<g id="Node000004" class="node">
<title>Node4</title>
<g id="a_Node000004"><a xlink:href="structlspserver_1_1Position.html" target="_top" xlink:title=" ">
<polygon fill="white" stroke="#666666" points="305.5,-96.25 199.5,-96.25 199.5,-75.5 305.5,-75.5 305.5,-96.25"/>
<text text-anchor="middle" x="252.5" y="-82.75" font-family="Helvetica,sans-Serif" font-size="10.00">lspserver::Position</text>
</a>
</g>
</g>
<!-- Node4&#45;&gt;Node1 -->
<g id="edge3_Node000001_Node000004" class="edge">
<title>Node4&#45;&gt;Node1</title>
<g id="a_edge3_Node000001_Node000004"><a xlink:title=" ">
<path fill="none" stroke="#9a32cd" stroke-dasharray="5,2" d="M241.65,-65.21C236.12,-56.38 228.81,-46.29 220.5,-38.75 212.71,-31.68 202.77,-25.7 193.88,-21.15"/>
<polygon fill="#9a32cd" stroke="#9a32cd" points="238.6,-66.93 246.69,-73.77 244.64,-63.38 238.6,-66.93"/>
</a>
</g>
<text text-anchor="start" x="239.44" y="-45" font-family="Helvetica,sans-Serif" font-size="10.00" fill="grey">position</text>
</g>
</g>
</svg>
