<?xml version="1.0" encoding="UTF-8" standalone="no"?>
<!DOCTYPE svg PUBLIC "-//W3C//DTD SVG 1.1//EN"
 "http://www.w3.org/Graphics/SVG/1.1/DTD/svg11.dtd">
<!-- Generated by graphviz version 12.2.1 (0)
 -->
<!-- Title: nixd::idioms::NoSuchVarException Pages: 1 -->
<svg width="191pt" height="142pt"
 viewBox="0.00 0.00 190.50 142.25" xmlns="http://www.w3.org/2000/svg" xmlns:xlink="http://www.w3.org/1999/xlink">
<g id="graph0" class="graph" transform="scale(1 1) rotate(0) translate(4 138.25)">
<title>nixd::idioms::NoSuchVarException</title>
<!-- Node1 -->
<g id="Node000001" class="node">
<title>Node1</title>
<g id="a_Node000001"><a xlink:title="No such variable.">
<polygon fill="#999999" stroke="#666666" points="182.5,-20.75 0,-20.75 0,0 182.5,0 182.5,-20.75"/>
<text text-anchor="middle" x="91.25" y="-7.25" font-family="Helvetica,sans-Serif" font-size="10.00">nixd::idioms::NoSuchVarException</text>
</a>
</g>
</g>
<!-- Node2 -->
<g id="Node000002" class="node">
<title>Node2</title>
<g id="a_Node000002"><a xlink:href="structnixd_1_1idioms_1_1VLAException.html" target="_top" xlink:title=" ">
<polygon fill="white" stroke="#666666" points="166,-77.5 16.5,-77.5 16.5,-56.75 166,-56.75 166,-77.5"/>
<text text-anchor="middle" x="91.25" y="-64" font-family="Helvetica,sans-Serif" font-size="10.00">nixd::idioms::VLAException</text>
</a>
</g>
</g>
<!-- Node2&#45;&gt;Node1 -->
<g id="edge1_Node000001_Node000002" class="edge">
<title>Node2&#45;&gt;Node1</title>
<g id="a_edge1_Node000001_Node000002"><a xlink:title=" ">
<path fill="none" stroke="#63b8ff" d="M91.25,-44.88C91.25,-36.66 91.25,-27.68 91.25,-21.08"/>
<polygon fill="#63b8ff" stroke="#63b8ff" points="87.75,-44.82 91.25,-54.82 94.75,-44.82 87.75,-44.82"/>
</a>
</g>
</g>
<!-- Node3 -->
<g id="Node000003" class="node">
<title>Node3</title>
<g id="a_Node000003"><a xlink:title=" ">
<polygon fill="white" stroke="#666666" points="133.75,-134.25 48.75,-134.25 48.75,-113.5 133.75,-113.5 133.75,-134.25"/>
<text text-anchor="middle" x="91.25" y="-120.75" font-family="Helvetica,sans-Serif" font-size="10.00">std::exception</text>
</a>
</g>
</g>
<!-- Node3&#45;&gt;Node2 -->
<g id="edge2_Node000002_Node000003" class="edge">
<title>Node3&#45;&gt;Node2</title>
<g id="a_edge2_Node000002_Node000003"><a xlink:title=" ">
<path fill="none" stroke="#63b8ff" d="M91.25,-101.63C91.25,-93.41 91.25,-84.43 91.25,-77.83"/>
<polygon fill="#63b8ff" stroke="#63b8ff" points="87.75,-101.57 91.25,-111.57 94.75,-101.57 87.75,-101.57"/>
</a>
</g>
</g>
</g>
</svg>
