<?xml version="1.0" encoding="UTF-8" standalone="no"?>
<!DOCTYPE svg PUBLIC "-//W3C//DTD SVG 1.1//EN"
 "http://www.w3.org/Graphics/SVG/1.1/DTD/svg11.dtd">
<!-- Generated by graphviz version 12.2.1 (0)
 -->
<!-- Title: lspserver::TypeHierarchyItem Pages: 1 -->
<svg width="395pt" height="206pt"
 viewBox="0.00 0.00 394.62 206.00" xmlns="http://www.w3.org/2000/svg" xmlns:xlink="http://www.w3.org/1999/xlink">
<g id="graph0" class="graph" transform="scale(1 1) rotate(0) translate(4 202)">
<title>lspserver::TypeHierarchyItem</title>
<!-- Node1 -->
<g id="Node000001" class="node">
<title>Node1</title>
<g id="a_Node000001"><a xlink:title=" ">
<polygon fill="#999999" stroke="#666666" points="262.88,-20.75 103.62,-20.75 103.62,0 262.88,0 262.88,-20.75"/>
<text text-anchor="middle" x="183.25" y="-7.25" font-family="Helvetica,sans-Serif" font-size="10.00">lspserver::TypeHierarchyItem</text>
</a>
</g>
</g>
<!-- Node2 -->
<g id="Node000002" class="node">
<title>Node2</title>
<g id="a_Node000002"><a xlink:href="structlspserver_1_1URIForFile.html" target="_top" xlink:title=" ">
<polygon fill="white" stroke="#666666" points="116.5,-109.38 0,-109.38 0,-88.62 116.5,-88.62 116.5,-109.38"/>
<text text-anchor="middle" x="58.25" y="-95.88" font-family="Helvetica,sans-Serif" font-size="10.00">lspserver::URIForFile</text>
</a>
</g>
</g>
<!-- Node2&#45;&gt;Node1 -->
<g id="edge1_Node000001_Node000002" class="edge">
<title>Node2&#45;&gt;Node1</title>
<g id="a_edge1_Node000001_Node000002"><a xlink:title=" ">
<path fill="none" stroke="#9a32cd" stroke-dasharray="5,2" d="M81.51,-81.88C107.3,-64.01 148.08,-35.75 169.33,-21.02"/>
<polygon fill="#9a32cd" stroke="#9a32cd" points="79.57,-78.96 73.35,-87.54 83.56,-84.72 79.57,-78.96"/>
</a>
</g>
<text text-anchor="middle" x="150.69" y="-48.38" font-family="Helvetica,sans-Serif" font-size="10.00" fill="grey"> uri</text>
</g>
<!-- Node3 -->
<g id="Node000003" class="node">
<title>Node3</title>
<g id="a_Node000003"><a xlink:href="structlspserver_1_1Range.html" target="_top" xlink:title=" ">
<polygon fill="white" stroke="#666666" points="232.12,-109.38 134.38,-109.38 134.38,-88.62 232.12,-88.62 232.12,-109.38"/>
<text text-anchor="middle" x="183.25" y="-95.88" font-family="Helvetica,sans-Serif" font-size="10.00">lspserver::Range</text>
</a>
</g>
</g>
<!-- Node3&#45;&gt;Node1 -->
<g id="edge2_Node000001_Node000003" class="edge">
<title>Node3&#45;&gt;Node1</title>
<g id="a_edge2_Node000001_Node000003"><a xlink:title=" ">
<path fill="none" stroke="#9a32cd" stroke-dasharray="5,2" d="M183.25,-76.91C183.25,-59.11 183.25,-34.44 183.25,-21.02"/>
<polygon fill="#9a32cd" stroke="#9a32cd" points="179.75,-76.89 183.25,-86.89 186.75,-76.89 179.75,-76.89"/>
</a>
</g>
<text text-anchor="middle" x="220.75" y="-54.75" font-family="Helvetica,sans-Serif" font-size="10.00" fill="grey"> range</text>
<text text-anchor="middle" x="220.75" y="-42" font-family="Helvetica,sans-Serif" font-size="10.00" fill="grey">selectionRange</text>
</g>
<!-- Node4 -->
<g id="Node000004" class="node">
<title>Node4</title>
<g id="a_Node000004"><a xlink:href="structlspserver_1_1Position.html" target="_top" xlink:title=" ">
<polygon fill="white" stroke="#666666" points="236.25,-198 130.25,-198 130.25,-177.25 236.25,-177.25 236.25,-198"/>
<text text-anchor="middle" x="183.25" y="-184.5" font-family="Helvetica,sans-Serif" font-size="10.00">lspserver::Position</text>
</a>
</g>
</g>
<!-- Node4&#45;&gt;Node3 -->
<g id="edge3_Node000003_Node000004" class="edge">
<title>Node4&#45;&gt;Node3</title>
<g id="a_edge3_Node000003_Node000004"><a xlink:title=" ">
<path fill="none" stroke="#9a32cd" stroke-dasharray="5,2" d="M183.25,-165.54C183.25,-147.74 183.25,-123.07 183.25,-109.64"/>
<polygon fill="#9a32cd" stroke="#9a32cd" points="179.75,-165.51 183.25,-175.51 186.75,-165.51 179.75,-165.51"/>
</a>
</g>
<text text-anchor="middle" x="194.5" y="-149.75" font-family="Helvetica,sans-Serif" font-size="10.00" fill="grey"> end</text>
<text text-anchor="middle" x="194.5" y="-137" font-family="Helvetica,sans-Serif" font-size="10.00" fill="grey">start</text>
</g>
<!-- Node5 -->
<g id="Node000005" class="node">
<title>Node5</title>
<g id="a_Node000005"><a xlink:href="structlspserver_1_1TypeHierarchyItem_1_1ResolveParams.html" target="_top" xlink:title="Used to resolve a client provided item back.">
<polygon fill="white" stroke="#666666" points="386.62,-115.75 249.88,-115.75 249.88,-82.25 386.62,-82.25 386.62,-115.75"/>
<text text-anchor="start" x="257.88" y="-102.25" font-family="Helvetica,sans-Serif" font-size="10.00">lspserver::TypeHierarchy</text>
<text text-anchor="middle" x="318.25" y="-89.5" font-family="Helvetica,sans-Serif" font-size="10.00">Item::ResolveParams</text>
</a>
</g>
</g>
<!-- Node5&#45;&gt;Node1 -->
<g id="edge4_Node000001_Node000005" class="edge">
<title>Node5&#45;&gt;Node1</title>
<g id="a_edge4_Node000001_Node000005"><a xlink:title=" ">
<path fill="none" stroke="#9a32cd" stroke-dasharray="5,2" d="M299.59,-73.27C289.61,-61.46 276.46,-47.93 262.25,-38.75 250.55,-31.19 236.51,-25.45 223.54,-21.23"/>
<polygon fill="#9a32cd" stroke="#9a32cd" points="296.6,-75.13 305.62,-80.69 302.03,-70.72 296.6,-75.13"/>
</a>
</g>
<text text-anchor="middle" x="303.17" y="-48.38" font-family="Helvetica,sans-Serif" font-size="10.00" fill="grey"> data</text>
</g>
</g>
</svg>
