<?xml version="1.0" encoding="UTF-8" standalone="no"?>
<!DOCTYPE svg PUBLIC "-//W3C//DTD SVG 1.1//EN"
 "http://www.w3.org/Graphics/SVG/1.1/DTD/svg11.dtd">
<!-- Generated by graphviz version 12.2.1 (0)
 -->
<!-- Title: lspserver::DidChangeTextDocumentParams Pages: 1 -->
<svg width="189pt" height="263pt"
 viewBox="0.00 0.00 189.00 263.00" xmlns="http://www.w3.org/2000/svg" xmlns:xlink="http://www.w3.org/1999/xlink">
<g id="graph0" class="graph" transform="scale(1 1) rotate(0) translate(4 259)">
<title>lspserver::DidChangeTextDocumentParams</title>
<!-- Node1 -->
<g id="Node000001" class="node">
<title>Node1</title>
<g id="a_Node000001"><a xlink:title=" ">
<polygon fill="#999999" stroke="#666666" points="160.75,-33.5 20.25,-33.5 20.25,0 160.75,0 160.75,-33.5"/>
<text text-anchor="start" x="28.25" y="-20" font-family="Helvetica,sans-Serif" font-size="10.00">lspserver::DidChangeText</text>
<text text-anchor="middle" x="90.5" y="-7.25" font-family="Helvetica,sans-Serif" font-size="10.00">DocumentParams</text>
</a>
</g>
</g>
<!-- Node2 -->
<g id="Node000002" class="node">
<title>Node2</title>
<g id="a_Node000002"><a xlink:href="structlspserver_1_1VersionedTextDocumentIdentifier.html" target="_top" xlink:title=" ">
<polygon fill="white" stroke="#666666" points="158.12,-121.75 22.88,-121.75 22.88,-88.25 158.12,-88.25 158.12,-121.75"/>
<text text-anchor="start" x="30.88" y="-108.25" font-family="Helvetica,sans-Serif" font-size="10.00">lspserver::VersionedText</text>
<text text-anchor="middle" x="90.5" y="-95.5" font-family="Helvetica,sans-Serif" font-size="10.00">DocumentIdentifier</text>
</a>
</g>
</g>
<!-- Node2&#45;&gt;Node1 -->
<g id="edge1_Node000001_Node000002" class="edge">
<title>Node2&#45;&gt;Node1</title>
<g id="a_edge1_Node000001_Node000002"><a xlink:title=" ">
<path fill="none" stroke="#9a32cd" stroke-dasharray="5,2" d="M90.5,-76.3C90.5,-62.3 90.5,-45.81 90.5,-33.9"/>
<polygon fill="#9a32cd" stroke="#9a32cd" points="87,-76.26 90.5,-86.26 94,-76.26 87,-76.26"/>
</a>
</g>
<text text-anchor="start" x="93.5" y="-57.75" font-family="Helvetica,sans-Serif" font-size="10.00" fill="grey">textDocument</text>
</g>
<!-- Node3 -->
<g id="Node000003" class="node">
<title>Node3</title>
<g id="a_Node000003"><a xlink:href="structlspserver_1_1TextDocumentIdentifier.html" target="_top" xlink:title=" ">
<polygon fill="white" stroke="#666666" points="181,-179.5 0,-179.5 0,-158.75 181,-158.75 181,-179.5"/>
<text text-anchor="middle" x="90.5" y="-166" font-family="Helvetica,sans-Serif" font-size="10.00">lspserver::TextDocumentIdentifier</text>
</a>
</g>
</g>
<!-- Node3&#45;&gt;Node2 -->
<g id="edge2_Node000002_Node000003" class="edge">
<title>Node3&#45;&gt;Node2</title>
<g id="a_edge2_Node000002_Node000003"><a xlink:title=" ">
<path fill="none" stroke="#63b8ff" d="M90.5,-147.17C90.5,-139.01 90.5,-129.8 90.5,-122.16"/>
<polygon fill="#63b8ff" stroke="#63b8ff" points="87,-146.9 90.5,-156.9 94,-146.9 87,-146.9"/>
</a>
</g>
</g>
<!-- Node4 -->
<g id="Node000004" class="node">
<title>Node4</title>
<g id="a_Node000004"><a xlink:href="structlspserver_1_1URIForFile.html" target="_top" xlink:title=" ">
<polygon fill="white" stroke="#666666" points="148.75,-255 32.25,-255 32.25,-234.25 148.75,-234.25 148.75,-255"/>
<text text-anchor="middle" x="90.5" y="-241.5" font-family="Helvetica,sans-Serif" font-size="10.00">lspserver::URIForFile</text>
</a>
</g>
</g>
<!-- Node4&#45;&gt;Node3 -->
<g id="edge3_Node000003_Node000004" class="edge">
<title>Node4&#45;&gt;Node3</title>
<g id="a_edge3_Node000003_Node000004"><a xlink:title=" ">
<path fill="none" stroke="#9a32cd" stroke-dasharray="5,2" d="M90.5,-222.51C90.5,-208.51 90.5,-190.8 90.5,-179.97"/>
<polygon fill="#9a32cd" stroke="#9a32cd" points="87,-222.5 90.5,-232.5 94,-222.5 87,-222.5"/>
</a>
</g>
<text text-anchor="start" x="93.5" y="-203.75" font-family="Helvetica,sans-Serif" font-size="10.00" fill="grey">uri</text>
</g>
</g>
</svg>
