<?xml version="1.0" encoding="UTF-8" standalone="no"?>
<!DOCTYPE svg PUBLIC "-//W3C//DTD SVG 1.1//EN"
 "http://www.w3.org/Graphics/SVG/1.1/DTD/svg11.dtd">
<!-- Generated by graphviz version 12.2.1 (0)
 -->
<!-- Title: lspserver::CallHierarchyItem Pages: 1 -->
<svg width="244pt" height="213pt"
 viewBox="0.00 0.00 244.25 213.25" xmlns="http://www.w3.org/2000/svg" xmlns:xlink="http://www.w3.org/1999/xlink">
<g id="graph0" class="graph" transform="scale(1 1) rotate(0) translate(4 209.25)">
<title>lspserver::CallHierarchyItem</title>
<!-- Node1 -->
<g id="Node000001" class="node">
<title>Node1</title>
<g id="a_Node000001"><a xlink:title=" ">
<polygon fill="#999999" stroke="#666666" points="157,-20.75 1.5,-20.75 1.5,0 157,0 157,-20.75"/>
<text text-anchor="middle" x="79.25" y="-7.25" font-family="Helvetica,sans-Serif" font-size="10.00">lspserver::CallHierarchyItem</text>
</a>
</g>
</g>
<!-- Node2 -->
<g id="Node000002" class="node">
<title>Node2</title>
<g id="a_Node000002"><a xlink:href="structlspserver_1_1URIForFile.html" target="_top" xlink:title=" ">
<polygon fill="white" stroke="#666666" points="116.5,-113 0,-113 0,-92.25 116.5,-92.25 116.5,-113"/>
<text text-anchor="middle" x="58.25" y="-99.5" font-family="Helvetica,sans-Serif" font-size="10.00">lspserver::URIForFile</text>
</a>
</g>
</g>
<!-- Node2&#45;&gt;Node1 -->
<g id="edge1_Node000001_Node000002" class="edge">
<title>Node2&#45;&gt;Node1</title>
<g id="a_edge1_Node000001_Node000002"><a xlink:title=" ">
<path fill="none" stroke="#9a32cd" stroke-dasharray="5,2" d="M63.1,-80.79C67.45,-62.09 73.64,-35.46 76.96,-21.24"/>
<polygon fill="#9a32cd" stroke="#9a32cd" points="59.7,-79.96 60.84,-90.49 66.52,-81.55 59.7,-79.96"/>
</a>
</g>
<text text-anchor="start" x="75.46" y="-53.38" font-family="Helvetica,sans-Serif" font-size="10.00" fill="grey">uri</text>
</g>
<!-- Node3 -->
<g id="Node000003" class="node">
<title>Node3</title>
<g id="a_Node000003"><a xlink:href="structlspserver_1_1Range.html" target="_top" xlink:title=" ">
<polygon fill="white" stroke="#666666" points="232.12,-113 134.38,-113 134.38,-92.25 232.12,-92.25 232.12,-113"/>
<text text-anchor="middle" x="183.25" y="-99.5" font-family="Helvetica,sans-Serif" font-size="10.00">lspserver::Range</text>
</a>
</g>
</g>
<!-- Node3&#45;&gt;Node1 -->
<g id="edge2_Node000001_Node000003" class="edge">
<title>Node3&#45;&gt;Node1</title>
<g id="a_edge2_Node000001_Node000003"><a xlink:title=" ">
<path fill="none" stroke="#9a32cd" stroke-dasharray="5,2" d="M163.44,-84.43C141.86,-65.71 108.11,-36.42 90.62,-21.24"/>
<polygon fill="#9a32cd" stroke="#9a32cd" points="161.13,-87.06 170.98,-90.97 165.72,-81.78 161.13,-87.06"/>
</a>
</g>
<text text-anchor="start" x="152.61" y="-61.75" font-family="Helvetica,sans-Serif" font-size="10.00" fill="grey">range</text>
<text text-anchor="start" x="152.61" y="-45" font-family="Helvetica,sans-Serif" font-size="10.00" fill="grey">selectionRange</text>
</g>
<!-- Node4 -->
<g id="Node000004" class="node">
<title>Node4</title>
<g id="a_Node000004"><a xlink:href="structlspserver_1_1Position.html" target="_top" xlink:title=" ">
<polygon fill="white" stroke="#666666" points="236.25,-205.25 130.25,-205.25 130.25,-184.5 236.25,-184.5 236.25,-205.25"/>
<text text-anchor="middle" x="183.25" y="-191.75" font-family="Helvetica,sans-Serif" font-size="10.00">lspserver::Position</text>
</a>
</g>
</g>
<!-- Node4&#45;&gt;Node3 -->
<g id="edge3_Node000003_Node000004" class="edge">
<title>Node4&#45;&gt;Node3</title>
<g id="a_edge3_Node000003_Node000004"><a xlink:title=" ">
<path fill="none" stroke="#9a32cd" stroke-dasharray="5,2" d="M183.25,-172.77C183.25,-154.08 183.25,-127.65 183.25,-113.49"/>
<polygon fill="#9a32cd" stroke="#9a32cd" points="179.75,-172.7 183.25,-182.7 186.75,-172.7 179.75,-172.7"/>
</a>
</g>
<text text-anchor="start" x="186.25" y="-154" font-family="Helvetica,sans-Serif" font-size="10.00" fill="grey">end</text>
<text text-anchor="start" x="186.25" y="-137.25" font-family="Helvetica,sans-Serif" font-size="10.00" fill="grey">start</text>
</g>
</g>
</svg>
