<?xml version="1.0" encoding="UTF-8" standalone="no"?>
<!DOCTYPE svg PUBLIC "-//W3C//DTD SVG 1.1//EN"
 "http://www.w3.org/Graphics/SVG/1.1/DTD/svg11.dtd">
<!-- Generated by graphviz version 12.2.1 (0)
 -->
<!-- Title: lspserver::DocumentLink Pages: 1 -->
<svg width="244pt" height="197pt"
 viewBox="0.00 0.00 244.25 196.50" xmlns="http://www.w3.org/2000/svg" xmlns:xlink="http://www.w3.org/1999/xlink">
<g id="graph0" class="graph" transform="scale(1 1) rotate(0) translate(4 192.5)">
<title>lspserver::DocumentLink</title>
<!-- Node1 -->
<g id="Node000001" class="node">
<title>Node1</title>
<g id="a_Node000001"><a xlink:title=" ">
<polygon fill="#999999" stroke="#666666" points="183.75,-20.75 46.25,-20.75 46.25,0 183.75,0 183.75,-20.75"/>
<text text-anchor="middle" x="115" y="-7.25" font-family="Helvetica,sans-Serif" font-size="10.00">lspserver::DocumentLink</text>
</a>
</g>
</g>
<!-- Node2 -->
<g id="Node000002" class="node">
<title>Node2</title>
<g id="a_Node000002"><a xlink:href="structlspserver_1_1Range.html" target="_top" xlink:title=" ">
<polygon fill="white" stroke="#666666" points="101.88,-96.25 4.12,-96.25 4.12,-75.5 101.88,-75.5 101.88,-96.25"/>
<text text-anchor="middle" x="53" y="-82.75" font-family="Helvetica,sans-Serif" font-size="10.00">lspserver::Range</text>
</a>
</g>
</g>
<!-- Node2&#45;&gt;Node1 -->
<g id="edge1_Node000001_Node000002" class="edge">
<title>Node2&#45;&gt;Node1</title>
<g id="a_edge1_Node000001_Node000002"><a xlink:title=" ">
<path fill="none" stroke="#9a32cd" stroke-dasharray="5,2" d="M68.33,-66.7C80.45,-52.33 96.91,-32.82 106.69,-21.22"/>
<polygon fill="#9a32cd" stroke="#9a32cd" points="65.85,-64.21 62.08,-74.11 71.2,-68.72 65.85,-64.21"/>
</a>
</g>
<text text-anchor="start" x="94.38" y="-45" font-family="Helvetica,sans-Serif" font-size="10.00" fill="grey">range</text>
</g>
<!-- Node3 -->
<g id="Node000003" class="node">
<title>Node3</title>
<g id="a_Node000003"><a xlink:href="structlspserver_1_1Position.html" target="_top" xlink:title=" ">
<polygon fill="white" stroke="#666666" points="106,-188.5 0,-188.5 0,-167.75 106,-167.75 106,-188.5"/>
<text text-anchor="middle" x="53" y="-175" font-family="Helvetica,sans-Serif" font-size="10.00">lspserver::Position</text>
</a>
</g>
</g>
<!-- Node3&#45;&gt;Node2 -->
<g id="edge2_Node000002_Node000003" class="edge">
<title>Node3&#45;&gt;Node2</title>
<g id="a_edge2_Node000002_Node000003"><a xlink:title=" ">
<path fill="none" stroke="#9a32cd" stroke-dasharray="5,2" d="M53,-156.02C53,-137.33 53,-110.9 53,-96.74"/>
<polygon fill="#9a32cd" stroke="#9a32cd" points="49.5,-155.95 53,-165.95 56.5,-155.95 49.5,-155.95"/>
</a>
</g>
<text text-anchor="start" x="56" y="-137.25" font-family="Helvetica,sans-Serif" font-size="10.00" fill="grey">end</text>
<text text-anchor="start" x="56" y="-120.5" font-family="Helvetica,sans-Serif" font-size="10.00" fill="grey">start</text>
</g>
<!-- Node4 -->
<g id="Node000004" class="node">
<title>Node4</title>
<g id="a_Node000004"><a xlink:href="structlspserver_1_1URIForFile.html" target="_top" xlink:title=" ">
<polygon fill="white" stroke="#666666" points="236.25,-96.25 119.75,-96.25 119.75,-75.5 236.25,-75.5 236.25,-96.25"/>
<text text-anchor="middle" x="178" y="-82.75" font-family="Helvetica,sans-Serif" font-size="10.00">lspserver::URIForFile</text>
</a>
</g>
</g>
<!-- Node4&#45;&gt;Node1 -->
<g id="edge3_Node000001_Node000004" class="edge">
<title>Node4&#45;&gt;Node1</title>
<g id="a_edge3_Node000001_Node000004"><a xlink:title=" ">
<path fill="none" stroke="#9a32cd" stroke-dasharray="5,2" d="M162.42,-66.7C150.11,-52.33 133.38,-32.82 123.44,-21.22"/>
<polygon fill="#9a32cd" stroke="#9a32cd" points="159.61,-68.8 168.78,-74.12 164.93,-64.25 159.61,-68.8"/>
</a>
</g>
<text text-anchor="start" x="157" y="-45" font-family="Helvetica,sans-Serif" font-size="10.00" fill="grey">target</text>
</g>
</g>
</svg>
