<?xml version="1.0" encoding="UTF-8" standalone="no"?>
<!DOCTYPE svg PUBLIC "-//W3C//DTD SVG 1.1//EN"
 "http://www.w3.org/Graphics/SVG/1.1/DTD/svg11.dtd">
<!-- Generated by graphviz version 12.2.1 (0)
 -->
<!-- Title: lspserver::TweakArgs Pages: 1 -->
<svg width="244pt" height="197pt"
 viewBox="0.00 0.00 244.25 196.50" xmlns="http://www.w3.org/2000/svg" xmlns:xlink="http://www.w3.org/1999/xlink">
<g id="graph0" class="graph" transform="scale(1 1) rotate(0) translate(4 192.5)">
<title>lspserver::TweakArgs</title>
<!-- Node1 -->
<g id="Node000001" class="node">
<title>Node1</title>
<g id="a_Node000001"><a xlink:title=" ">
<polygon fill="#999999" stroke="#666666" points="160,-20.75 40.5,-20.75 40.5,0 160,0 160,-20.75"/>
<text text-anchor="middle" x="100.25" y="-7.25" font-family="Helvetica,sans-Serif" font-size="10.00">lspserver::TweakArgs</text>
</a>
</g>
</g>
<!-- Node2 -->
<g id="Node000002" class="node">
<title>Node2</title>
<g id="a_Node000002"><a xlink:href="structlspserver_1_1URIForFile.html" target="_top" xlink:title=" ">
<polygon fill="white" stroke="#666666" points="116.5,-96.25 0,-96.25 0,-75.5 116.5,-75.5 116.5,-96.25"/>
<text text-anchor="middle" x="58.25" y="-82.75" font-family="Helvetica,sans-Serif" font-size="10.00">lspserver::URIForFile</text>
</a>
</g>
</g>
<!-- Node2&#45;&gt;Node1 -->
<g id="edge1_Node000001_Node000002" class="edge">
<title>Node2&#45;&gt;Node1</title>
<g id="a_edge1_Node000001_Node000002"><a xlink:title=" ">
<path fill="none" stroke="#9a32cd" stroke-dasharray="5,2" d="M69.35,-65.46C77.48,-51.22 88.18,-32.49 94.62,-21.22"/>
<polygon fill="#9a32cd" stroke="#9a32cd" points="66.41,-63.53 64.49,-73.95 72.49,-67.01 66.41,-63.53"/>
</a>
</g>
<text text-anchor="start" x="87.25" y="-45" font-family="Helvetica,sans-Serif" font-size="10.00" fill="grey">file</text>
</g>
<!-- Node3 -->
<g id="Node000003" class="node">
<title>Node3</title>
<g id="a_Node000003"><a xlink:href="structlspserver_1_1Range.html" target="_top" xlink:title=" ">
<polygon fill="white" stroke="#666666" points="232.12,-96.25 134.38,-96.25 134.38,-75.5 232.12,-75.5 232.12,-96.25"/>
<text text-anchor="middle" x="183.25" y="-82.75" font-family="Helvetica,sans-Serif" font-size="10.00">lspserver::Range</text>
</a>
</g>
</g>
<!-- Node3&#45;&gt;Node1 -->
<g id="edge2_Node000001_Node000003" class="edge">
<title>Node3&#45;&gt;Node1</title>
<g id="a_edge2_Node000001_Node000003"><a xlink:title=" ">
<path fill="none" stroke="#9a32cd" stroke-dasharray="5,2" d="M164.1,-67.92C147.77,-53.45 124.84,-33.15 111.37,-21.22"/>
<polygon fill="#9a32cd" stroke="#9a32cd" points="161.46,-70.25 171.27,-74.26 166.1,-65.01 161.46,-70.25"/>
</a>
</g>
<text text-anchor="start" x="154.63" y="-45" font-family="Helvetica,sans-Serif" font-size="10.00" fill="grey">selection</text>
</g>
<!-- Node4 -->
<g id="Node000004" class="node">
<title>Node4</title>
<g id="a_Node000004"><a xlink:href="structlspserver_1_1Position.html" target="_top" xlink:title=" ">
<polygon fill="white" stroke="#666666" points="236.25,-188.5 130.25,-188.5 130.25,-167.75 236.25,-167.75 236.25,-188.5"/>
<text text-anchor="middle" x="183.25" y="-175" font-family="Helvetica,sans-Serif" font-size="10.00">lspserver::Position</text>
</a>
</g>
</g>
<!-- Node4&#45;&gt;Node3 -->
<g id="edge3_Node000003_Node000004" class="edge">
<title>Node4&#45;&gt;Node3</title>
<g id="a_edge3_Node000003_Node000004"><a xlink:title=" ">
<path fill="none" stroke="#9a32cd" stroke-dasharray="5,2" d="M183.25,-156.02C183.25,-137.33 183.25,-110.9 183.25,-96.74"/>
<polygon fill="#9a32cd" stroke="#9a32cd" points="179.75,-155.95 183.25,-165.95 186.75,-155.95 179.75,-155.95"/>
</a>
</g>
<text text-anchor="start" x="186.25" y="-137.25" font-family="Helvetica,sans-Serif" font-size="10.00" fill="grey">end</text>
<text text-anchor="start" x="186.25" y="-120.5" font-family="Helvetica,sans-Serif" font-size="10.00" fill="grey">start</text>
</g>
</g>
</svg>
