<?xml version="1.0" encoding="UTF-8" standalone="no"?>
<!DOCTYPE svg PUBLIC "-//W3C//DTD SVG 1.1//EN"
 "http://www.w3.org/Graphics/SVG/1.1/DTD/svg11.dtd">
<!-- Generated by graphviz version 12.2.1 (0)
 -->
<!-- Title: lspserver::InlayHint Pages: 1 -->
<svg width="206pt" height="181pt"
 viewBox="0.00 0.00 205.50 180.50" xmlns="http://www.w3.org/2000/svg" xmlns:xlink="http://www.w3.org/1999/xlink">
<g id="graph0" class="graph" transform="scale(1 1) rotate(0) translate(4 176.5)">
<title>lspserver::InlayHint</title>
<!-- Node1 -->
<g id="Node000001" class="node">
<title>Node1</title>
<g id="a_Node000001"><a xlink:title="Inlay hint information.">
<polygon fill="#999999" stroke="#666666" points="111.25,-20.75 0,-20.75 0,0 111.25,0 111.25,-20.75"/>
<text text-anchor="middle" x="55.62" y="-7.25" font-family="Helvetica,sans-Serif" font-size="10.00">lspserver::InlayHint</text>
</a>
</g>
</g>
<!-- Node2 -->
<g id="Node000002" class="node">
<title>Node2</title>
<g id="a_Node000002"><a xlink:href="structlspserver_1_1Position.html" target="_top" xlink:title=" ">
<polygon fill="white" stroke="#666666" points="108.62,-172.5 2.62,-172.5 2.62,-151.75 108.62,-151.75 108.62,-172.5"/>
<text text-anchor="middle" x="55.62" y="-159" font-family="Helvetica,sans-Serif" font-size="10.00">lspserver::Position</text>
</a>
</g>
</g>
<!-- Node2&#45;&gt;Node1 -->
<g id="edge1_Node000001_Node000002" class="edge">
<title>Node2&#45;&gt;Node1</title>
<g id="a_edge1_Node000001_Node000002"><a xlink:title=" ">
<path fill="none" stroke="#9a32cd" stroke-dasharray="5,2" d="M52.42,-140.31C49.94,-121.74 47.17,-93.83 48.62,-69.5 49.65,-52.46 52.34,-32.75 54.07,-21.22"/>
<polygon fill="#9a32cd" stroke="#9a32cd" points="48.92,-140.6 53.81,-150 55.85,-139.61 48.92,-140.6"/>
</a>
</g>
<text text-anchor="middle" x="69.62" y="-76.75" font-family="Helvetica,sans-Serif" font-size="10.00" fill="grey"> position</text>
</g>
<!-- Node3 -->
<g id="Node000003" class="node">
<title>Node3</title>
<g id="a_Node000003"><a xlink:href="structlspserver_1_1Range.html" target="_top" xlink:title=" ">
<polygon fill="white" stroke="#666666" points="197.5,-90.25 99.75,-90.25 99.75,-69.5 197.5,-69.5 197.5,-90.25"/>
<text text-anchor="middle" x="148.62" y="-76.75" font-family="Helvetica,sans-Serif" font-size="10.00">lspserver::Range</text>
</a>
</g>
</g>
<!-- Node2&#45;&gt;Node3 -->
<g id="edge3_Node000003_Node000002" class="edge">
<title>Node2&#45;&gt;Node3</title>
<g id="a_edge3_Node000003_Node000002"><a xlink:title=" ">
<path fill="none" stroke="#9a32cd" stroke-dasharray="5,2" d="M75.5,-143.98C94.38,-127.68 122.1,-103.76 137.42,-90.55"/>
<polygon fill="#9a32cd" stroke="#9a32cd" points="73.46,-141.11 68.17,-150.3 78.03,-146.41 73.46,-141.11"/>
</a>
</g>
<text text-anchor="middle" x="127.14" y="-124.25" font-family="Helvetica,sans-Serif" font-size="10.00" fill="grey"> end</text>
<text text-anchor="middle" x="127.14" y="-111.5" font-family="Helvetica,sans-Serif" font-size="10.00" fill="grey">start</text>
</g>
<!-- Node3&#45;&gt;Node1 -->
<g id="edge2_Node000001_Node000003" class="edge">
<title>Node3&#45;&gt;Node1</title>
<g id="a_edge2_Node000001_Node000003"><a xlink:title=" ">
<path fill="none" stroke="#9a32cd" stroke-dasharray="5,2" d="M126.19,-62.59C108.42,-49.7 84.18,-32.1 69.23,-21.25"/>
<polygon fill="#9a32cd" stroke="#9a32cd" points="123.93,-65.27 134.08,-68.31 128.04,-59.61 123.93,-65.27"/>
</a>
</g>
<text text-anchor="middle" x="125.83" y="-42" font-family="Helvetica,sans-Serif" font-size="10.00" fill="grey"> range</text>
</g>
</g>
</svg>
