<?xml version="1.0" encoding="UTF-8" standalone="no"?>
<!DOCTYPE svg PUBLIC "-//W3C//DTD SVG 1.1//EN"
 "http://www.w3.org/Graphics/SVG/1.1/DTD/svg11.dtd">
<!-- Generated by graphviz version 12.2.1 (0)
 -->
<!-- Title: lspserver::TextDocumentPositionParams Pages: 1 -->
<svg width="314pt" height="181pt"
 viewBox="0.00 0.00 313.50 180.50" xmlns="http://www.w3.org/2000/svg" xmlns:xlink="http://www.w3.org/1999/xlink">
<g id="graph0" class="graph" transform="scale(1 1) rotate(0) translate(4 176.5)">
<title>lspserver::TextDocumentPositionParams</title>
<!-- Node1 -->
<g id="Node000001" class="node">
<title>Node1</title>
<g id="a_Node000001"><a xlink:title=" ">
<polygon fill="#999999" stroke="#666666" points="259.75,-33.5 83.25,-33.5 83.25,0 259.75,0 259.75,-33.5"/>
<text text-anchor="start" x="91.25" y="-20" font-family="Helvetica,sans-Serif" font-size="10.00">lspserver::TextDocumentPosition</text>
<text text-anchor="middle" x="171.5" y="-7.25" font-family="Helvetica,sans-Serif" font-size="10.00">Params</text>
</a>
</g>
</g>
<!-- Node2 -->
<g id="Node000002" class="node">
<title>Node2</title>
<g id="a_Node000002"><a xlink:href="structlspserver_1_1TextDocumentIdentifier.html" target="_top" xlink:title=" ">
<polygon fill="white" stroke="#666666" points="181,-103 0,-103 0,-82.25 181,-82.25 181,-103"/>
<text text-anchor="middle" x="90.5" y="-89.5" font-family="Helvetica,sans-Serif" font-size="10.00">lspserver::TextDocumentIdentifier</text>
</a>
</g>
</g>
<!-- Node2&#45;&gt;Node1 -->
<g id="edge1_Node000001_Node000002" class="edge">
<title>Node2&#45;&gt;Node1</title>
<g id="a_edge1_Node000001_Node000002"><a xlink:title=" ">
<path fill="none" stroke="#9a32cd" stroke-dasharray="5,2" d="M109.54,-74.26C122.93,-62.05 140.71,-45.83 153.79,-33.91"/>
<polygon fill="#9a32cd" stroke="#9a32cd" points="107.24,-71.62 102.21,-80.95 111.95,-76.79 107.24,-71.62"/>
</a>
</g>
<text text-anchor="middle" x="169.8" y="-54.75" font-family="Helvetica,sans-Serif" font-size="10.00" fill="grey"> textDocument</text>
</g>
<!-- Node3 -->
<g id="Node000003" class="node">
<title>Node3</title>
<g id="a_Node000003"><a xlink:href="structlspserver_1_1URIForFile.html" target="_top" xlink:title=" ">
<polygon fill="white" stroke="#666666" points="148.75,-172.5 32.25,-172.5 32.25,-151.75 148.75,-151.75 148.75,-172.5"/>
<text text-anchor="middle" x="90.5" y="-159" font-family="Helvetica,sans-Serif" font-size="10.00">lspserver::URIForFile</text>
</a>
</g>
</g>
<!-- Node3&#45;&gt;Node2 -->
<g id="edge2_Node000002_Node000003" class="edge">
<title>Node3&#45;&gt;Node2</title>
<g id="a_edge2_Node000002_Node000003"><a xlink:title=" ">
<path fill="none" stroke="#9a32cd" stroke-dasharray="5,2" d="M90.5,-140.32C90.5,-127.97 90.5,-112.9 90.5,-103.28"/>
<polygon fill="#9a32cd" stroke="#9a32cd" points="87,-139.94 90.5,-149.94 94,-139.94 87,-139.94"/>
</a>
</g>
<text text-anchor="middle" x="98.38" y="-124.25" font-family="Helvetica,sans-Serif" font-size="10.00" fill="grey"> uri</text>
</g>
<!-- Node4 -->
<g id="Node000004" class="node">
<title>Node4</title>
<g id="a_Node000004"><a xlink:href="structlspserver_1_1Position.html" target="_top" xlink:title=" ">
<polygon fill="white" stroke="#666666" points="305.5,-103 199.5,-103 199.5,-82.25 305.5,-82.25 305.5,-103"/>
<text text-anchor="middle" x="252.5" y="-89.5" font-family="Helvetica,sans-Serif" font-size="10.00">lspserver::Position</text>
</a>
</g>
</g>
<!-- Node4&#45;&gt;Node1 -->
<g id="edge3_Node000001_Node000004" class="edge">
<title>Node4&#45;&gt;Node1</title>
<g id="a_edge3_Node000001_Node000004"><a xlink:title=" ">
<path fill="none" stroke="#9a32cd" stroke-dasharray="5,2" d="M234.66,-74.21C227.26,-67.08 218.54,-58.81 210.5,-51.5 204.01,-45.6 196.77,-39.27 190.31,-33.7"/>
<polygon fill="#9a32cd" stroke="#9a32cd" points="231.91,-76.42 241.53,-80.87 236.78,-71.39 231.91,-76.42"/>
</a>
</g>
<text text-anchor="middle" x="244.37" y="-54.75" font-family="Helvetica,sans-Serif" font-size="10.00" fill="grey"> position</text>
</g>
</g>
</svg>
