<?xml version="1.0" encoding="UTF-8" standalone="no"?>
<!DOCTYPE svg PUBLIC "-//W3C//DTD SVG 1.1//EN"
 "http://www.w3.org/Graphics/SVG/1.1/DTD/svg11.dtd">
<!-- Generated by graphviz version 12.2.1 (0)
 -->
<!-- Title: lspserver::SymbolInformation Pages: 1 -->
<svg width="247pt" height="250pt"
 viewBox="0.00 0.00 247.38 250.00" xmlns="http://www.w3.org/2000/svg" xmlns:xlink="http://www.w3.org/1999/xlink">
<g id="graph0" class="graph" transform="scale(1 1) rotate(0) translate(4 246)">
<title>lspserver::SymbolInformation</title>
<!-- Node1 -->
<g id="Node000001" class="node">
<title>Node1</title>
<g id="a_Node000001"><a xlink:title=" ">
<polygon fill="#999999" stroke="#666666" points="160.75,-20.75 0,-20.75 0,0 160.75,0 160.75,-20.75"/>
<text text-anchor="middle" x="80.38" y="-7.25" font-family="Helvetica,sans-Serif" font-size="10.00">lspserver::SymbolInformation</text>
</a>
</g>
</g>
<!-- Node2 -->
<g id="Node000002" class="node">
<title>Node2</title>
<g id="a_Node000002"><a xlink:href="structlspserver_1_1Location.html" target="_top" xlink:title=" ">
<polygon fill="white" stroke="#666666" points="134.5,-90.25 26.25,-90.25 26.25,-69.5 134.5,-69.5 134.5,-90.25"/>
<text text-anchor="middle" x="80.38" y="-76.75" font-family="Helvetica,sans-Serif" font-size="10.00">lspserver::Location</text>
</a>
</g>
</g>
<!-- Node2&#45;&gt;Node1 -->
<g id="edge1_Node000001_Node000002" class="edge">
<title>Node2&#45;&gt;Node1</title>
<g id="a_edge1_Node000001_Node000002"><a xlink:title=" ">
<path fill="none" stroke="#9a32cd" stroke-dasharray="5,2" d="M80.38,-58.07C80.38,-45.72 80.38,-30.65 80.38,-21.03"/>
<polygon fill="#9a32cd" stroke="#9a32cd" points="76.88,-57.69 80.38,-67.69 83.88,-57.69 76.88,-57.69"/>
</a>
</g>
<text text-anchor="middle" x="101.38" y="-42" font-family="Helvetica,sans-Serif" font-size="10.00" fill="grey"> location</text>
</g>
<!-- Node3 -->
<g id="Node000003" class="node">
<title>Node3</title>
<g id="a_Node000003"><a xlink:href="structlspserver_1_1URIForFile.html" target="_top" xlink:title=" ">
<polygon fill="white" stroke="#666666" points="119.62,-159.75 3.12,-159.75 3.12,-139 119.62,-139 119.62,-159.75"/>
<text text-anchor="middle" x="61.38" y="-146.25" font-family="Helvetica,sans-Serif" font-size="10.00">lspserver::URIForFile</text>
</a>
</g>
</g>
<!-- Node3&#45;&gt;Node2 -->
<g id="edge2_Node000002_Node000003" class="edge">
<title>Node3&#45;&gt;Node2</title>
<g id="a_edge2_Node000002_Node000003"><a xlink:title=" ">
<path fill="none" stroke="#9a32cd" stroke-dasharray="5,2" d="M67.12,-127.95C70.62,-115.53 74.92,-100.25 77.66,-90.53"/>
<polygon fill="#9a32cd" stroke="#9a32cd" points="63.85,-126.67 64.51,-137.25 70.59,-128.57 63.85,-126.67"/>
</a>
</g>
<text text-anchor="middle" x="80.45" y="-111.5" font-family="Helvetica,sans-Serif" font-size="10.00" fill="grey"> uri</text>
</g>
<!-- Node4 -->
<g id="Node000004" class="node">
<title>Node4</title>
<g id="a_Node000004"><a xlink:href="structlspserver_1_1Range.html" target="_top" xlink:title=" ">
<polygon fill="white" stroke="#666666" points="235.25,-159.75 137.5,-159.75 137.5,-139 235.25,-139 235.25,-159.75"/>
<text text-anchor="middle" x="186.38" y="-146.25" font-family="Helvetica,sans-Serif" font-size="10.00">lspserver::Range</text>
</a>
</g>
</g>
<!-- Node4&#45;&gt;Node2 -->
<g id="edge3_Node000002_Node000004" class="edge">
<title>Node4&#45;&gt;Node2</title>
<g id="a_edge3_Node000002_Node000004"><a xlink:title=" ">
<path fill="none" stroke="#9a32cd" stroke-dasharray="5,2" d="M161.65,-132.63C141.32,-119.69 113.15,-101.75 95.88,-90.75"/>
<polygon fill="#9a32cd" stroke="#9a32cd" points="159.6,-135.47 169.91,-137.89 163.36,-129.57 159.6,-135.47"/>
</a>
</g>
<text text-anchor="middle" x="158.24" y="-111.5" font-family="Helvetica,sans-Serif" font-size="10.00" fill="grey"> range</text>
</g>
<!-- Node5 -->
<g id="Node000005" class="node">
<title>Node5</title>
<g id="a_Node000005"><a xlink:href="structlspserver_1_1Position.html" target="_top" xlink:title=" ">
<polygon fill="white" stroke="#666666" points="239.38,-242 133.38,-242 133.38,-221.25 239.38,-221.25 239.38,-242"/>
<text text-anchor="middle" x="186.38" y="-228.5" font-family="Helvetica,sans-Serif" font-size="10.00">lspserver::Position</text>
</a>
</g>
</g>
<!-- Node5&#45;&gt;Node4 -->
<g id="edge4_Node000004_Node000005" class="edge">
<title>Node5&#45;&gt;Node4</title>
<g id="a_edge4_Node000004_Node000005"><a xlink:title=" ">
<path fill="none" stroke="#9a32cd" stroke-dasharray="5,2" d="M186.38,-209.74C186.38,-193.59 186.38,-171.99 186.38,-159.8"/>
<polygon fill="#9a32cd" stroke="#9a32cd" points="182.88,-209.27 186.38,-219.27 189.88,-209.27 182.88,-209.27"/>
</a>
</g>
<text text-anchor="middle" x="197.62" y="-193.75" font-family="Helvetica,sans-Serif" font-size="10.00" fill="grey"> end</text>
<text text-anchor="middle" x="197.62" y="-181" font-family="Helvetica,sans-Serif" font-size="10.00" fill="grey">start</text>
</g>
</g>
</svg>
