<?xml version="1.0" encoding="UTF-8" standalone="no"?>
<!DOCTYPE svg PUBLIC "-//W3C//DTD SVG 1.1//EN"
 "http://www.w3.org/Graphics/SVG/1.1/DTD/svg11.dtd">
<!-- Generated by graphviz version 12.2.1 (0)
 -->
<!-- Title: lspserver::Diagnostic Pages: 1 -->
<svg width="127pt" height="197pt"
 viewBox="0.00 0.00 126.75 196.50" xmlns="http://www.w3.org/2000/svg" xmlns:xlink="http://www.w3.org/1999/xlink">
<g id="graph0" class="graph" transform="scale(1 1) rotate(0) translate(4 192.5)">
<title>lspserver::Diagnostic</title>
<!-- Node1 -->
<g id="Node000001" class="node">
<title>Node1</title>
<g id="a_Node000001"><a xlink:title=" ">
<polygon fill="#999999" stroke="#666666" points="118.75,-20.75 0,-20.75 0,0 118.75,0 118.75,-20.75"/>
<text text-anchor="middle" x="59.38" y="-7.25" font-family="Helvetica,sans-Serif" font-size="10.00">lspserver::Diagnostic</text>
</a>
</g>
</g>
<!-- Node2 -->
<g id="Node000002" class="node">
<title>Node2</title>
<g id="a_Node000002"><a xlink:href="structlspserver_1_1Range.html" target="_top" xlink:title=" ">
<polygon fill="white" stroke="#666666" points="108.25,-96.25 10.5,-96.25 10.5,-75.5 108.25,-75.5 108.25,-96.25"/>
<text text-anchor="middle" x="59.38" y="-82.75" font-family="Helvetica,sans-Serif" font-size="10.00">lspserver::Range</text>
</a>
</g>
</g>
<!-- Node2&#45;&gt;Node1 -->
<g id="edge1_Node000001_Node000002" class="edge">
<title>Node2&#45;&gt;Node1</title>
<g id="a_edge1_Node000001_Node000002"><a xlink:title=" ">
<path fill="none" stroke="#9a32cd" stroke-dasharray="5,2" d="M59.38,-63.76C59.38,-49.76 59.38,-32.05 59.38,-21.22"/>
<polygon fill="#9a32cd" stroke="#9a32cd" points="55.88,-63.75 59.38,-73.75 62.88,-63.75 55.88,-63.75"/>
</a>
</g>
<text text-anchor="start" x="62.38" y="-45" font-family="Helvetica,sans-Serif" font-size="10.00" fill="grey">range</text>
</g>
<!-- Node3 -->
<g id="Node000003" class="node">
<title>Node3</title>
<g id="a_Node000003"><a xlink:href="structlspserver_1_1Position.html" target="_top" xlink:title=" ">
<polygon fill="white" stroke="#666666" points="112.38,-188.5 6.38,-188.5 6.38,-167.75 112.38,-167.75 112.38,-188.5"/>
<text text-anchor="middle" x="59.38" y="-175" font-family="Helvetica,sans-Serif" font-size="10.00">lspserver::Position</text>
</a>
</g>
</g>
<!-- Node3&#45;&gt;Node2 -->
<g id="edge2_Node000002_Node000003" class="edge">
<title>Node3&#45;&gt;Node2</title>
<g id="a_edge2_Node000002_Node000003"><a xlink:title=" ">
<path fill="none" stroke="#9a32cd" stroke-dasharray="5,2" d="M59.38,-156.02C59.38,-137.33 59.38,-110.9 59.38,-96.74"/>
<polygon fill="#9a32cd" stroke="#9a32cd" points="55.88,-155.95 59.38,-165.95 62.88,-155.95 55.88,-155.95"/>
</a>
</g>
<text text-anchor="start" x="62.38" y="-137.25" font-family="Helvetica,sans-Serif" font-size="10.00" fill="grey">end</text>
<text text-anchor="start" x="62.38" y="-120.5" font-family="Helvetica,sans-Serif" font-size="10.00" fill="grey">start</text>
</g>
</g>
</svg>
