<?xml version="1.0" encoding="UTF-8" standalone="no"?>
<!DOCTYPE svg PUBLIC "-//W3C//DTD SVG 1.1//EN"
 "http://www.w3.org/Graphics/SVG/1.1/DTD/svg11.dtd">
<!-- Generated by graphviz version 12.2.1 (0)
 -->
<!-- Title: lspserver::CallHierarchyIncomingCallsParams Pages: 1 -->
<svg width="245pt" height="276pt"
 viewBox="0.00 0.00 244.75 275.50" xmlns="http://www.w3.org/2000/svg" xmlns:xlink="http://www.w3.org/1999/xlink">
<g id="graph0" class="graph" transform="scale(1 1) rotate(0) translate(4 271.5)">
<title>lspserver::CallHierarchyIncomingCallsParams</title>
<!-- Node1 -->
<g id="Node000001" class="node">
<title>Node1</title>
<g id="a_Node000001"><a xlink:title="The parameter of a callHierarchy/incomingCalls request.">
<polygon fill="#999999" stroke="#666666" points="144.25,-33.5 11.25,-33.5 11.25,0 144.25,0 144.25,-33.5"/>
<text text-anchor="start" x="19.25" y="-20" font-family="Helvetica,sans-Serif" font-size="10.00">lspserver::CallHierarchy</text>
<text text-anchor="middle" x="77.75" y="-7.25" font-family="Helvetica,sans-Serif" font-size="10.00">IncomingCallsParams</text>
</a>
</g>
</g>
<!-- Node2 -->
<g id="Node000002" class="node">
<title>Node2</title>
<g id="a_Node000002"><a xlink:href="structlspserver_1_1CallHierarchyItem.html" target="_top" xlink:title=" ">
<polygon fill="white" stroke="#666666" points="155.5,-103 0,-103 0,-82.25 155.5,-82.25 155.5,-103"/>
<text text-anchor="middle" x="77.75" y="-89.5" font-family="Helvetica,sans-Serif" font-size="10.00">lspserver::CallHierarchyItem</text>
</a>
</g>
</g>
<!-- Node2&#45;&gt;Node1 -->
<g id="edge1_Node000001_Node000002" class="edge">
<title>Node2&#45;&gt;Node1</title>
<g id="a_edge1_Node000001_Node000002"><a xlink:title=" ">
<path fill="none" stroke="#9a32cd" stroke-dasharray="5,2" d="M77.75,-70.63C77.75,-58.97 77.75,-44.69 77.75,-33.91"/>
<polygon fill="#9a32cd" stroke="#9a32cd" points="74.25,-70.45 77.75,-80.45 81.25,-70.45 74.25,-70.45"/>
</a>
</g>
<text text-anchor="middle" x="90.5" y="-54.75" font-family="Helvetica,sans-Serif" font-size="10.00" fill="grey"> item</text>
</g>
<!-- Node3 -->
<g id="Node000003" class="node">
<title>Node3</title>
<g id="a_Node000003"><a xlink:href="structlspserver_1_1URIForFile.html" target="_top" xlink:title=" ">
<polygon fill="white" stroke="#666666" points="117,-185.25 0.5,-185.25 0.5,-164.5 117,-164.5 117,-185.25"/>
<text text-anchor="middle" x="58.75" y="-171.75" font-family="Helvetica,sans-Serif" font-size="10.00">lspserver::URIForFile</text>
</a>
</g>
</g>
<!-- Node3&#45;&gt;Node2 -->
<g id="edge2_Node000002_Node000003" class="edge">
<title>Node3&#45;&gt;Node2</title>
<g id="a_edge2_Node000002_Node000003"><a xlink:title=" ">
<path fill="none" stroke="#9a32cd" stroke-dasharray="5,2" d="M63.69,-152.99C67.52,-136.84 72.63,-115.24 75.52,-103.05"/>
<polygon fill="#9a32cd" stroke="#9a32cd" points="60.33,-152.02 61.43,-162.56 67.14,-153.64 60.33,-152.02"/>
</a>
</g>
<text text-anchor="middle" x="78.94" y="-130.62" font-family="Helvetica,sans-Serif" font-size="10.00" fill="grey"> uri</text>
</g>
<!-- Node4 -->
<g id="Node000004" class="node">
<title>Node4</title>
<g id="a_Node000004"><a xlink:href="structlspserver_1_1Range.html" target="_top" xlink:title=" ">
<polygon fill="white" stroke="#666666" points="232.62,-185.25 134.88,-185.25 134.88,-164.5 232.62,-164.5 232.62,-185.25"/>
<text text-anchor="middle" x="183.75" y="-171.75" font-family="Helvetica,sans-Serif" font-size="10.00">lspserver::Range</text>
</a>
</g>
</g>
<!-- Node4&#45;&gt;Node2 -->
<g id="edge3_Node000002_Node000004" class="edge">
<title>Node4&#45;&gt;Node2</title>
<g id="a_edge3_Node000002_Node000004"><a xlink:title=" ">
<path fill="none" stroke="#9a32cd" stroke-dasharray="5,2" d="M161.69,-157.17C140.15,-140.87 108.14,-116.63 90.52,-103.3"/>
<polygon fill="#9a32cd" stroke="#9a32cd" points="159.46,-159.88 169.55,-163.12 163.69,-154.29 159.46,-159.88"/>
</a>
</g>
<text text-anchor="middle" x="183.94" y="-137" font-family="Helvetica,sans-Serif" font-size="10.00" fill="grey"> range</text>
<text text-anchor="middle" x="183.94" y="-124.25" font-family="Helvetica,sans-Serif" font-size="10.00" fill="grey">selectionRange</text>
</g>
<!-- Node5 -->
<g id="Node000005" class="node">
<title>Node5</title>
<g id="a_Node000005"><a xlink:href="structlspserver_1_1Position.html" target="_top" xlink:title=" ">
<polygon fill="white" stroke="#666666" points="236.75,-267.5 130.75,-267.5 130.75,-246.75 236.75,-246.75 236.75,-267.5"/>
<text text-anchor="middle" x="183.75" y="-254" font-family="Helvetica,sans-Serif" font-size="10.00">lspserver::Position</text>
</a>
</g>
</g>
<!-- Node5&#45;&gt;Node4 -->
<g id="edge4_Node000004_Node000005" class="edge">
<title>Node5&#45;&gt;Node4</title>
<g id="a_edge4_Node000004_Node000005"><a xlink:title=" ">
<path fill="none" stroke="#9a32cd" stroke-dasharray="5,2" d="M183.75,-235.24C183.75,-219.09 183.75,-197.49 183.75,-185.3"/>
<polygon fill="#9a32cd" stroke="#9a32cd" points="180.25,-234.77 183.75,-244.77 187.25,-234.77 180.25,-234.77"/>
</a>
</g>
<text text-anchor="middle" x="195" y="-219.25" font-family="Helvetica,sans-Serif" font-size="10.00" fill="grey"> end</text>
<text text-anchor="middle" x="195" y="-206.5" font-family="Helvetica,sans-Serif" font-size="10.00" fill="grey">start</text>
</g>
</g>
</svg>
