<?xml version="1.0" encoding="UTF-8" standalone="no"?>
<!DOCTYPE svg PUBLIC "-//W3C//DTD SVG 1.1//EN"
 "http://www.w3.org/Graphics/SVG/1.1/DTD/svg11.dtd">
<!-- Generated by graphviz version 12.2.1 (0)
 -->
<!-- Title: lspserver::SymbolInformation Pages: 1 -->
<svg width="245pt" height="272pt"
 viewBox="0.00 0.00 245.38 272.00" xmlns="http://www.w3.org/2000/svg" xmlns:xlink="http://www.w3.org/1999/xlink">
<g id="graph0" class="graph" transform="scale(1 1) rotate(0) translate(4 268)">
<title>lspserver::SymbolInformation</title>
<!-- Node1 -->
<g id="Node000001" class="node">
<title>Node1</title>
<g id="a_Node000001"><a xlink:title=" ">
<polygon fill="#999999" stroke="#666666" points="160.75,-20.75 0,-20.75 0,0 160.75,0 160.75,-20.75"/>
<text text-anchor="middle" x="80.38" y="-7.25" font-family="Helvetica,sans-Serif" font-size="10.00">lspserver::SymbolInformation</text>
</a>
</g>
</g>
<!-- Node2 -->
<g id="Node000002" class="node">
<title>Node2</title>
<g id="a_Node000002"><a xlink:href="structlspserver_1_1Location.html" target="_top" xlink:title=" ">
<polygon fill="white" stroke="#666666" points="134.5,-96.25 26.25,-96.25 26.25,-75.5 134.5,-75.5 134.5,-96.25"/>
<text text-anchor="middle" x="80.38" y="-82.75" font-family="Helvetica,sans-Serif" font-size="10.00">lspserver::Location</text>
</a>
</g>
</g>
<!-- Node2&#45;&gt;Node1 -->
<g id="edge1_Node000001_Node000002" class="edge">
<title>Node2&#45;&gt;Node1</title>
<g id="a_edge1_Node000001_Node000002"><a xlink:title=" ">
<path fill="none" stroke="#9a32cd" stroke-dasharray="5,2" d="M80.38,-63.76C80.38,-49.76 80.38,-32.05 80.38,-21.22"/>
<polygon fill="#9a32cd" stroke="#9a32cd" points="76.88,-63.75 80.38,-73.75 83.88,-63.75 76.88,-63.75"/>
</a>
</g>
<text text-anchor="start" x="83.38" y="-45" font-family="Helvetica,sans-Serif" font-size="10.00" fill="grey">location</text>
</g>
<!-- Node3 -->
<g id="Node000003" class="node">
<title>Node3</title>
<g id="a_Node000003"><a xlink:href="structlspserver_1_1URIForFile.html" target="_top" xlink:title=" ">
<polygon fill="white" stroke="#666666" points="117.62,-171.75 1.12,-171.75 1.12,-151 117.62,-151 117.62,-171.75"/>
<text text-anchor="middle" x="59.38" y="-158.25" font-family="Helvetica,sans-Serif" font-size="10.00">lspserver::URIForFile</text>
</a>
</g>
</g>
<!-- Node3&#45;&gt;Node2 -->
<g id="edge2_Node000002_Node000003" class="edge">
<title>Node3&#45;&gt;Node2</title>
<g id="a_edge2_Node000002_Node000003"><a xlink:title=" ">
<path fill="none" stroke="#9a32cd" stroke-dasharray="5,2" d="M65.16,-140.11C69.2,-125.99 74.41,-107.77 77.56,-96.72"/>
<polygon fill="#9a32cd" stroke="#9a32cd" points="61.92,-138.73 62.54,-149.31 68.65,-140.66 61.92,-138.73"/>
</a>
</g>
<text text-anchor="start" x="75.37" y="-120.5" font-family="Helvetica,sans-Serif" font-size="10.00" fill="grey">uri</text>
</g>
<!-- Node4 -->
<g id="Node000004" class="node">
<title>Node4</title>
<g id="a_Node000004"><a xlink:href="structlspserver_1_1Range.html" target="_top" xlink:title=" ">
<polygon fill="white" stroke="#666666" points="233.25,-171.75 135.5,-171.75 135.5,-151 233.25,-151 233.25,-171.75"/>
<text text-anchor="middle" x="184.38" y="-158.25" font-family="Helvetica,sans-Serif" font-size="10.00">lspserver::Range</text>
</a>
</g>
</g>
<!-- Node4&#45;&gt;Node2 -->
<g id="edge3_Node000002_Node000004" class="edge">
<title>Node4&#45;&gt;Node2</title>
<g id="a_edge3_Node000002_Node000004"><a xlink:title=" ">
<path fill="none" stroke="#9a32cd" stroke-dasharray="5,2" d="M161.51,-144.22C140.98,-129.71 111.5,-108.87 94.31,-96.72"/>
<polygon fill="#9a32cd" stroke="#9a32cd" points="159.36,-146.98 169.54,-149.89 163.4,-141.26 159.36,-146.98"/>
</a>
</g>
<text text-anchor="start" x="147.75" y="-120.5" font-family="Helvetica,sans-Serif" font-size="10.00" fill="grey">range</text>
</g>
<!-- Node5 -->
<g id="Node000005" class="node">
<title>Node5</title>
<g id="a_Node000005"><a xlink:href="structlspserver_1_1Position.html" target="_top" xlink:title=" ">
<polygon fill="white" stroke="#666666" points="237.38,-264 131.38,-264 131.38,-243.25 237.38,-243.25 237.38,-264"/>
<text text-anchor="middle" x="184.38" y="-250.5" font-family="Helvetica,sans-Serif" font-size="10.00">lspserver::Position</text>
</a>
</g>
</g>
<!-- Node5&#45;&gt;Node4 -->
<g id="edge4_Node000004_Node000005" class="edge">
<title>Node5&#45;&gt;Node4</title>
<g id="a_edge4_Node000004_Node000005"><a xlink:title=" ">
<path fill="none" stroke="#9a32cd" stroke-dasharray="5,2" d="M184.38,-231.52C184.38,-212.83 184.38,-186.4 184.38,-172.24"/>
<polygon fill="#9a32cd" stroke="#9a32cd" points="180.88,-231.45 184.38,-241.45 187.88,-231.45 180.88,-231.45"/>
</a>
</g>
<text text-anchor="start" x="187.38" y="-212.75" font-family="Helvetica,sans-Serif" font-size="10.00" fill="grey">end</text>
<text text-anchor="start" x="187.38" y="-196" font-family="Helvetica,sans-Serif" font-size="10.00" fill="grey">start</text>
</g>
</g>
</svg>
