<?xml version="1.0" encoding="UTF-8" standalone="no"?>
<!DOCTYPE svg PUBLIC "-//W3C//DTD SVG 1.1//EN"
 "http://www.w3.org/Graphics/SVG/1.1/DTD/svg11.dtd">
<!-- Generated by graphviz version 12.2.1 (0)
 -->
<!-- Title: lspserver::TextDocumentPositionParams Pages: 1 -->
<svg width="380pt" height="171pt"
 viewBox="0.00 0.00 379.75 170.50" xmlns="http://www.w3.org/2000/svg" xmlns:xlink="http://www.w3.org/1999/xlink">
<g id="graph0" class="graph" transform="scale(1 1) rotate(0) translate(4 166.5)">
<title>lspserver::TextDocumentPositionParams</title>
<!-- Node1 -->
<g id="Node000001" class="node">
<title>Node1</title>
<g id="a_Node000001"><a xlink:title=" ">
<polygon fill="#999999" stroke="#666666" points="176.5,-97.5 0,-97.5 0,-64 176.5,-64 176.5,-97.5"/>
<text text-anchor="start" x="8" y="-84" font-family="Helvetica,sans-Serif" font-size="10.00">lspserver::TextDocumentPosition</text>
<text text-anchor="middle" x="88.25" y="-71.25" font-family="Helvetica,sans-Serif" font-size="10.00">Params</text>
</a>
</g>
</g>
<!-- Node2 -->
<g id="Node000002" class="node">
<title>Node2</title>
<g id="a_Node000002"><a xlink:href="structlspserver_1_1CallHierarchyPrepareParams.html" target="_top" xlink:title="The parameter of a textDocument/prepareCallHierarchy request.">
<polygon fill="white" stroke="#666666" points="358.62,-162.5 225.62,-162.5 225.62,-129 358.62,-129 358.62,-162.5"/>
<text text-anchor="start" x="233.62" y="-149" font-family="Helvetica,sans-Serif" font-size="10.00">lspserver::CallHierarchy</text>
<text text-anchor="middle" x="292.12" y="-136.25" font-family="Helvetica,sans-Serif" font-size="10.00">PrepareParams</text>
</a>
</g>
</g>
<!-- Node1&#45;&gt;Node2 -->
<g id="edge1_Node000001_Node000002" class="edge">
<title>Node1&#45;&gt;Node2</title>
<g id="a_edge1_Node000001_Node000002"><a xlink:title=" ">
<path fill="none" stroke="#63b8ff" d="M153.75,-101.52C180.81,-110.23 211.9,-120.24 237.66,-128.53"/>
<polygon fill="#63b8ff" stroke="#63b8ff" points="154.85,-98.2 144.26,-98.46 152.71,-104.86 154.85,-98.2"/>
</a>
</g>
</g>
<!-- Node3 -->
<g id="Node000003" class="node">
<title>Node3</title>
<g id="a_Node000003"><a xlink:href="structlspserver_1_1CompletionParams.html" target="_top" xlink:title=" ">
<polygon fill="white" stroke="#666666" points="371.75,-111.12 212.5,-111.12 212.5,-90.38 371.75,-90.38 371.75,-111.12"/>
<text text-anchor="middle" x="292.12" y="-97.62" font-family="Helvetica,sans-Serif" font-size="10.00">lspserver::CompletionParams</text>
</a>
</g>
</g>
<!-- Node1&#45;&gt;Node3 -->
<g id="edge2_Node000001_Node000003" class="edge">
<title>Node1&#45;&gt;Node3</title>
<g id="a_edge2_Node000001_Node000003"><a xlink:title=" ">
<path fill="none" stroke="#63b8ff" d="M188.22,-90.55C196.23,-91.35 204.26,-92.14 212.11,-92.92"/>
<polygon fill="#63b8ff" stroke="#63b8ff" points="188.72,-87.09 178.42,-89.58 188.03,-94.05 188.72,-87.09"/>
</a>
</g>
</g>
<!-- Node4 -->
<g id="Node000004" class="node">
<title>Node4</title>
<g id="a_Node000004"><a xlink:href="structlspserver_1_1ReferenceParams.html" target="_top" xlink:title=" ">
<polygon fill="white" stroke="#666666" points="368.38,-72.12 215.88,-72.12 215.88,-51.38 368.38,-51.38 368.38,-72.12"/>
<text text-anchor="middle" x="292.12" y="-58.62" font-family="Helvetica,sans-Serif" font-size="10.00">lspserver::ReferenceParams</text>
</a>
</g>
</g>
<!-- Node1&#45;&gt;Node4 -->
<g id="edge3_Node000001_Node000004" class="edge">
<title>Node1&#45;&gt;Node4</title>
<g id="a_edge3_Node000001_Node000004"><a xlink:title=" ">
<path fill="none" stroke="#63b8ff" d="M188.13,-71.44C197.36,-70.58 206.6,-69.71 215.56,-68.86"/>
<polygon fill="#63b8ff" stroke="#63b8ff" points="188.05,-67.94 178.42,-72.36 188.71,-74.9 188.05,-67.94"/>
</a>
</g>
</g>
<!-- Node5 -->
<g id="Node000005" class="node">
<title>Node5</title>
<g id="a_Node000005"><a xlink:href="structlspserver_1_1TypeHierarchyPrepareParams.html" target="_top" xlink:title=" ">
<polygon fill="white" stroke="#666666" points="360.5,-33.5 223.75,-33.5 223.75,0 360.5,0 360.5,-33.5"/>
<text text-anchor="start" x="231.75" y="-20" font-family="Helvetica,sans-Serif" font-size="10.00">lspserver::TypeHierarchy</text>
<text text-anchor="middle" x="292.12" y="-7.25" font-family="Helvetica,sans-Serif" font-size="10.00">PrepareParams</text>
</a>
</g>
</g>
<!-- Node1&#45;&gt;Node5 -->
<g id="edge4_Node000001_Node000005" class="edge">
<title>Node1&#45;&gt;Node5</title>
<g id="a_edge4_Node000001_Node000005"><a xlink:title=" ">
<path fill="none" stroke="#63b8ff" d="M154.4,-60.1C181.08,-51.64 211.59,-41.96 237.01,-33.9"/>
<polygon fill="#63b8ff" stroke="#63b8ff" points="153.53,-56.7 145.06,-63.06 155.65,-63.37 153.53,-56.7"/>
</a>
</g>
</g>
</g>
</svg>
