<?xml version="1.0" encoding="UTF-8" standalone="no"?>
<!DOCTYPE svg PUBLIC "-//W3C//DTD SVG 1.1//EN"
 "http://www.w3.org/Graphics/SVG/1.1/DTD/svg11.dtd">
<!-- Generated by graphviz version 12.2.1 (0)
 -->
<!-- Title: lspserver::DocumentFormattingParams Pages: 1 -->
<svg width="189pt" height="193pt"
 viewBox="0.00 0.00 189.00 192.50" xmlns="http://www.w3.org/2000/svg" xmlns:xlink="http://www.w3.org/1999/xlink">
<g id="graph0" class="graph" transform="scale(1 1) rotate(0) translate(4 188.5)">
<title>lspserver::DocumentFormattingParams</title>
<!-- Node1 -->
<g id="Node000001" class="node">
<title>Node1</title>
<g id="a_Node000001"><a xlink:title=" ">
<polygon fill="#999999" stroke="#666666" points="175.75,-33.5 5.25,-33.5 5.25,0 175.75,0 175.75,-33.5"/>
<text text-anchor="start" x="13.25" y="-20" font-family="Helvetica,sans-Serif" font-size="10.00">lspserver::DocumentFormatting</text>
<text text-anchor="middle" x="90.5" y="-7.25" font-family="Helvetica,sans-Serif" font-size="10.00">Params</text>
</a>
</g>
</g>
<!-- Node2 -->
<g id="Node000002" class="node">
<title>Node2</title>
<g id="a_Node000002"><a xlink:href="structlspserver_1_1TextDocumentIdentifier.html" target="_top" xlink:title=" ">
<polygon fill="white" stroke="#666666" points="181,-109 0,-109 0,-88.25 181,-88.25 181,-109"/>
<text text-anchor="middle" x="90.5" y="-95.5" font-family="Helvetica,sans-Serif" font-size="10.00">lspserver::TextDocumentIdentifier</text>
</a>
</g>
</g>
<!-- Node2&#45;&gt;Node1 -->
<g id="edge1_Node000001_Node000002" class="edge">
<title>Node2&#45;&gt;Node1</title>
<g id="a_edge1_Node000001_Node000002"><a xlink:title=" ">
<path fill="none" stroke="#9a32cd" stroke-dasharray="5,2" d="M90.5,-76.45C90.5,-63.14 90.5,-46.24 90.5,-34"/>
<polygon fill="#9a32cd" stroke="#9a32cd" points="87,-76.32 90.5,-86.32 94,-76.32 87,-76.32"/>
</a>
</g>
<text text-anchor="start" x="93.5" y="-57.75" font-family="Helvetica,sans-Serif" font-size="10.00" fill="grey">textDocument</text>
</g>
<!-- Node3 -->
<g id="Node000003" class="node">
<title>Node3</title>
<g id="a_Node000003"><a xlink:href="structlspserver_1_1URIForFile.html" target="_top" xlink:title=" ">
<polygon fill="white" stroke="#666666" points="148.75,-184.5 32.25,-184.5 32.25,-163.75 148.75,-163.75 148.75,-184.5"/>
<text text-anchor="middle" x="90.5" y="-171" font-family="Helvetica,sans-Serif" font-size="10.00">lspserver::URIForFile</text>
</a>
</g>
</g>
<!-- Node3&#45;&gt;Node2 -->
<g id="edge2_Node000002_Node000003" class="edge">
<title>Node3&#45;&gt;Node2</title>
<g id="a_edge2_Node000002_Node000003"><a xlink:title=" ">
<path fill="none" stroke="#9a32cd" stroke-dasharray="5,2" d="M90.5,-152.01C90.5,-138.01 90.5,-120.3 90.5,-109.47"/>
<polygon fill="#9a32cd" stroke="#9a32cd" points="87,-152 90.5,-162 94,-152 87,-152"/>
</a>
</g>
<text text-anchor="start" x="93.5" y="-133.25" font-family="Helvetica,sans-Serif" font-size="10.00" fill="grey">uri</text>
</g>
</g>
</svg>
