<?xml version="1.0" encoding="UTF-8" standalone="no"?>
<!DOCTYPE svg PUBLIC "-//W3C//DTD SVG 1.1//EN"
 "http://www.w3.org/Graphics/SVG/1.1/DTD/svg11.dtd">
<!-- Generated by graphviz version 12.2.1 (0)
 -->
<!-- Title: lspserver::TypeHierarchyPrepareParams Pages: 1 -->
<svg width="314pt" height="251pt"
 viewBox="0.00 0.00 313.50 251.00" xmlns="http://www.w3.org/2000/svg" xmlns:xlink="http://www.w3.org/1999/xlink">
<g id="graph0" class="graph" transform="scale(1 1) rotate(0) translate(4 247)">
<title>lspserver::TypeHierarchyPrepareParams</title>
<!-- Node1 -->
<g id="Node000001" class="node">
<title>Node1</title>
<g id="a_Node000001"><a xlink:title=" ">
<polygon fill="#999999" stroke="#666666" points="239.88,-33.5 103.12,-33.5 103.12,0 239.88,0 239.88,-33.5"/>
<text text-anchor="start" x="111.12" y="-20" font-family="Helvetica,sans-Serif" font-size="10.00">lspserver::TypeHierarchy</text>
<text text-anchor="middle" x="171.5" y="-7.25" font-family="Helvetica,sans-Serif" font-size="10.00">PrepareParams</text>
</a>
</g>
</g>
<!-- Node2 -->
<g id="Node000002" class="node">
<title>Node2</title>
<g id="a_Node000002"><a xlink:href="structlspserver_1_1TextDocumentPositionParams.html" target="_top" xlink:title=" ">
<polygon fill="white" stroke="#666666" points="259.75,-104 83.25,-104 83.25,-70.5 259.75,-70.5 259.75,-104"/>
<text text-anchor="start" x="91.25" y="-90.5" font-family="Helvetica,sans-Serif" font-size="10.00">lspserver::TextDocumentPosition</text>
<text text-anchor="middle" x="171.5" y="-77.75" font-family="Helvetica,sans-Serif" font-size="10.00">Params</text>
</a>
</g>
</g>
<!-- Node2&#45;&gt;Node1 -->
<g id="edge1_Node000001_Node000002" class="edge">
<title>Node2&#45;&gt;Node1</title>
<g id="a_edge1_Node000001_Node000002"><a xlink:title=" ">
<path fill="none" stroke="#63b8ff" d="M171.5,-58.7C171.5,-50.27 171.5,-41.27 171.5,-33.87"/>
<polygon fill="#63b8ff" stroke="#63b8ff" points="168,-58.5 171.5,-68.5 175,-58.5 168,-58.5"/>
</a>
</g>
</g>
<!-- Node3 -->
<g id="Node000003" class="node">
<title>Node3</title>
<g id="a_Node000003"><a xlink:href="structlspserver_1_1TextDocumentIdentifier.html" target="_top" xlink:title=" ">
<polygon fill="white" stroke="#666666" points="181,-173.5 0,-173.5 0,-152.75 181,-152.75 181,-173.5"/>
<text text-anchor="middle" x="90.5" y="-160" font-family="Helvetica,sans-Serif" font-size="10.00">lspserver::TextDocumentIdentifier</text>
</a>
</g>
</g>
<!-- Node3&#45;&gt;Node2 -->
<g id="edge2_Node000002_Node000003" class="edge">
<title>Node3&#45;&gt;Node2</title>
<g id="a_edge2_Node000002_Node000003"><a xlink:title=" ">
<path fill="none" stroke="#9a32cd" stroke-dasharray="5,2" d="M109.54,-144.76C122.93,-132.55 140.71,-116.33 153.79,-104.41"/>
<polygon fill="#9a32cd" stroke="#9a32cd" points="107.24,-142.12 102.21,-151.45 111.95,-147.29 107.24,-142.12"/>
</a>
</g>
<text text-anchor="middle" x="169.8" y="-125.25" font-family="Helvetica,sans-Serif" font-size="10.00" fill="grey"> textDocument</text>
</g>
<!-- Node4 -->
<g id="Node000004" class="node">
<title>Node4</title>
<g id="a_Node000004"><a xlink:href="structlspserver_1_1URIForFile.html" target="_top" xlink:title=" ">
<polygon fill="white" stroke="#666666" points="148.75,-243 32.25,-243 32.25,-222.25 148.75,-222.25 148.75,-243"/>
<text text-anchor="middle" x="90.5" y="-229.5" font-family="Helvetica,sans-Serif" font-size="10.00">lspserver::URIForFile</text>
</a>
</g>
</g>
<!-- Node4&#45;&gt;Node3 -->
<g id="edge3_Node000003_Node000004" class="edge">
<title>Node4&#45;&gt;Node3</title>
<g id="a_edge3_Node000003_Node000004"><a xlink:title=" ">
<path fill="none" stroke="#9a32cd" stroke-dasharray="5,2" d="M90.5,-210.82C90.5,-198.47 90.5,-183.4 90.5,-173.78"/>
<polygon fill="#9a32cd" stroke="#9a32cd" points="87,-210.44 90.5,-220.44 94,-210.44 87,-210.44"/>
</a>
</g>
<text text-anchor="middle" x="98.38" y="-194.75" font-family="Helvetica,sans-Serif" font-size="10.00" fill="grey"> uri</text>
</g>
<!-- Node5 -->
<g id="Node000005" class="node">
<title>Node5</title>
<g id="a_Node000005"><a xlink:href="structlspserver_1_1Position.html" target="_top" xlink:title=" ">
<polygon fill="white" stroke="#666666" points="305.5,-173.5 199.5,-173.5 199.5,-152.75 305.5,-152.75 305.5,-173.5"/>
<text text-anchor="middle" x="252.5" y="-160" font-family="Helvetica,sans-Serif" font-size="10.00">lspserver::Position</text>
</a>
</g>
</g>
<!-- Node5&#45;&gt;Node2 -->
<g id="edge4_Node000002_Node000005" class="edge">
<title>Node5&#45;&gt;Node2</title>
<g id="a_edge4_Node000002_Node000005"><a xlink:title=" ">
<path fill="none" stroke="#9a32cd" stroke-dasharray="5,2" d="M234.66,-144.71C227.26,-137.58 218.54,-129.31 210.5,-122 204.01,-116.1 196.77,-109.77 190.31,-104.2"/>
<polygon fill="#9a32cd" stroke="#9a32cd" points="231.91,-146.92 241.53,-151.37 236.78,-141.89 231.91,-146.92"/>
</a>
</g>
<text text-anchor="middle" x="244.37" y="-125.25" font-family="Helvetica,sans-Serif" font-size="10.00" fill="grey"> position</text>
</g>
</g>
</svg>
