<?xml version="1.0" encoding="UTF-8" standalone="no"?>
<!DOCTYPE svg PUBLIC "-//W3C//DTD SVG 1.1//EN"
 "http://www.w3.org/Graphics/SVG/1.1/DTD/svg11.dtd">
<!-- Generated by graphviz version 10.0.1 (0)
 -->
<!-- Title: nixd::util::PipedProc Pages: 1 -->
<svg width="278pt" height="124pt"
 viewBox="0.00 0.00 278.25 123.75" xmlns="http://www.w3.org/2000/svg" xmlns:xlink="http://www.w3.org/1999/xlink">
<g id="graph0" class="graph" transform="scale(1 1) rotate(0) translate(4 119.75)">
<title>nixd::util::PipedProc</title>
<!-- Node1 -->
<g id="Node000001" class="node">
<title>Node1</title>
<g id="a_Node000001"><a xlink:title=" ">
<polygon fill="#999999" stroke="#666666" points="190.75,-20.75 78,-20.75 78,0 190.75,0 190.75,-20.75"/>
<text text-anchor="middle" x="134.38" y="-7.25" font-family="Helvetica,sans-Serif" font-size="10.00">nixd::util::PipedProc</text>
</a>
</g>
</g>
<!-- Node2 -->
<g id="Node000002" class="node">
<title>Node2</title>
<g id="a_Node000002"><a xlink:href="classnixd_1_1util_1_1AutoHUPPID.html" target="_top" xlink:title=" ">
<polygon fill="white" stroke="#666666" points="124.75,-115.75 0,-115.75 0,-95 124.75,-95 124.75,-115.75"/>
<text text-anchor="middle" x="62.38" y="-102.25" font-family="Helvetica,sans-Serif" font-size="10.00">nixd::util::AutoHUPPID</text>
</a>
</g>
</g>
<!-- Node2&#45;&gt;Node1 -->
<g id="edge1_Node000001_Node000002" class="edge">
<title>Node2&#45;&gt;Node1</title>
<g id="a_edge1_Node000001_Node000002"><a xlink:title=" ">
<path fill="none" stroke="#9a32cd" stroke-dasharray="5,2" d="M76.68,-85.9C91.78,-66.39 115.03,-36.37 126.87,-21.06"/>
<polygon fill="#9a32cd" stroke="#9a32cd" points="74.09,-83.53 70.74,-93.58 79.62,-87.81 74.09,-83.53"/>
</a>
</g>
<text text-anchor="middle" x="123.12" y="-54.75" font-family="Helvetica,sans-Serif" font-size="10.00" fill="grey"> PID</text>
</g>
<!-- Node3 -->
<g id="Node000003" class="node">
<title>Node3</title>
<g id="a_Node000003"><a xlink:href="classnixd_1_1util_1_1AutoCloseFD.html" target="_top" xlink:title="File Descriptor RAII wrapper.">
<polygon fill="white" stroke="#666666" points="270.25,-115.75 142.5,-115.75 142.5,-95 270.25,-95 270.25,-115.75"/>
<text text-anchor="middle" x="206.38" y="-102.25" font-family="Helvetica,sans-Serif" font-size="10.00">nixd::util::AutoCloseFD</text>
</a>
</g>
</g>
<!-- Node3&#45;&gt;Node1 -->
<g id="edge2_Node000001_Node000003" class="edge">
<title>Node3&#45;&gt;Node1</title>
<g id="a_edge2_Node000001_Node000003"><a xlink:title=" ">
<path fill="none" stroke="#9a32cd" stroke-dasharray="5,2" d="M192.07,-85.9C176.97,-66.39 153.72,-36.37 141.88,-21.06"/>
<polygon fill="#9a32cd" stroke="#9a32cd" points="189.13,-87.81 198.01,-93.58 194.66,-83.53 189.13,-87.81"/>
</a>
</g>
<text text-anchor="middle" x="200.5" y="-67.5" font-family="Helvetica,sans-Serif" font-size="10.00" fill="grey"> Stderr</text>
<text text-anchor="middle" x="200.5" y="-54.75" font-family="Helvetica,sans-Serif" font-size="10.00" fill="grey">Stdin</text>
<text text-anchor="middle" x="200.5" y="-42" font-family="Helvetica,sans-Serif" font-size="10.00" fill="grey">Stdout</text>
</g>
</g>
</svg>
