<?xml version="1.0" encoding="UTF-8" standalone="no"?>
<!DOCTYPE svg PUBLIC "-//W3C//DTD SVG 1.1//EN"
 "http://www.w3.org/Graphics/SVG/1.1/DTD/svg11.dtd">
<!-- Generated by graphviz version 12.2.1 (0)
 -->
<!-- Title: lspserver::CompletionParams Pages: 1 -->
<svg width="447pt" height="268pt"
 viewBox="0.00 0.00 447.25 268.00" xmlns="http://www.w3.org/2000/svg" xmlns:xlink="http://www.w3.org/1999/xlink">
<g id="graph0" class="graph" transform="scale(1 1) rotate(0) translate(4 264)">
<title>lspserver::CompletionParams</title>
<!-- Node1 -->
<g id="Node000001" class="node">
<title>Node1</title>
<g id="a_Node000001"><a xlink:title=" ">
<polygon fill="#999999" stroke="#666666" points="344.12,-20.75 184.88,-20.75 184.88,0 344.12,0 344.12,-20.75"/>
<text text-anchor="middle" x="264.5" y="-7.25" font-family="Helvetica,sans-Serif" font-size="10.00">lspserver::CompletionParams</text>
</a>
</g>
</g>
<!-- Node2 -->
<g id="Node000002" class="node">
<title>Node2</title>
<g id="a_Node000002"><a xlink:href="structlspserver_1_1TextDocumentPositionParams.html" target="_top" xlink:title=" ">
<polygon fill="white" stroke="#666666" points="259.75,-109 83.25,-109 83.25,-75.5 259.75,-75.5 259.75,-109"/>
<text text-anchor="start" x="91.25" y="-95.5" font-family="Helvetica,sans-Serif" font-size="10.00">lspserver::TextDocumentPosition</text>
<text text-anchor="middle" x="171.5" y="-82.75" font-family="Helvetica,sans-Serif" font-size="10.00">Params</text>
</a>
</g>
</g>
<!-- Node2&#45;&gt;Node1 -->
<g id="edge1_Node000001_Node000002" class="edge">
<title>Node2&#45;&gt;Node1</title>
<g id="a_edge1_Node000001_Node000002"><a xlink:title=" ">
<path fill="none" stroke="#63b8ff" d="M198.75,-67.85C216.81,-52.33 239.58,-32.78 253.04,-21.22"/>
<polygon fill="#63b8ff" stroke="#63b8ff" points="196.77,-64.93 191.47,-74.1 201.33,-70.24 196.77,-64.93"/>
</a>
</g>
</g>
<!-- Node3 -->
<g id="Node000003" class="node">
<title>Node3</title>
<g id="a_Node000003"><a xlink:href="structlspserver_1_1TextDocumentIdentifier.html" target="_top" xlink:title=" ">
<polygon fill="white" stroke="#666666" points="181,-184.5 0,-184.5 0,-163.75 181,-163.75 181,-184.5"/>
<text text-anchor="middle" x="90.5" y="-171" font-family="Helvetica,sans-Serif" font-size="10.00">lspserver::TextDocumentIdentifier</text>
</a>
</g>
</g>
<!-- Node3&#45;&gt;Node2 -->
<g id="edge2_Node000002_Node000003" class="edge">
<title>Node3&#45;&gt;Node2</title>
<g id="a_edge2_Node000002_Node000003"><a xlink:title=" ">
<path fill="none" stroke="#9a32cd" stroke-dasharray="5,2" d="M108.32,-155.55C122.25,-141.82 141.45,-122.88 155.02,-109.5"/>
<polygon fill="#9a32cd" stroke="#9a32cd" points="106.17,-152.75 101.51,-162.27 111.09,-157.74 106.17,-152.75"/>
</a>
</g>
<text text-anchor="start" x="138.85" y="-133.25" font-family="Helvetica,sans-Serif" font-size="10.00" fill="grey">textDocument</text>
</g>
<!-- Node4 -->
<g id="Node000004" class="node">
<title>Node4</title>
<g id="a_Node000004"><a xlink:href="structlspserver_1_1URIForFile.html" target="_top" xlink:title=" ">
<polygon fill="white" stroke="#666666" points="148.75,-260 32.25,-260 32.25,-239.25 148.75,-239.25 148.75,-260"/>
<text text-anchor="middle" x="90.5" y="-246.5" font-family="Helvetica,sans-Serif" font-size="10.00">lspserver::URIForFile</text>
</a>
</g>
</g>
<!-- Node4&#45;&gt;Node3 -->
<g id="edge3_Node000003_Node000004" class="edge">
<title>Node4&#45;&gt;Node3</title>
<g id="a_edge3_Node000003_Node000004"><a xlink:title=" ">
<path fill="none" stroke="#9a32cd" stroke-dasharray="5,2" d="M90.5,-227.51C90.5,-213.51 90.5,-195.8 90.5,-184.97"/>
<polygon fill="#9a32cd" stroke="#9a32cd" points="87,-227.5 90.5,-237.5 94,-227.5 87,-227.5"/>
</a>
</g>
<text text-anchor="start" x="93.5" y="-208.75" font-family="Helvetica,sans-Serif" font-size="10.00" fill="grey">uri</text>
</g>
<!-- Node5 -->
<g id="Node000005" class="node">
<title>Node5</title>
<g id="a_Node000005"><a xlink:href="structlspserver_1_1Position.html" target="_top" xlink:title=" ">
<polygon fill="white" stroke="#666666" points="305.5,-184.5 199.5,-184.5 199.5,-163.75 305.5,-163.75 305.5,-184.5"/>
<text text-anchor="middle" x="252.5" y="-171" font-family="Helvetica,sans-Serif" font-size="10.00">lspserver::Position</text>
</a>
</g>
</g>
<!-- Node5&#45;&gt;Node2 -->
<g id="edge4_Node000002_Node000005" class="edge">
<title>Node5&#45;&gt;Node2</title>
<g id="a_edge4_Node000002_Node000005"><a xlink:title=" ">
<path fill="none" stroke="#9a32cd" stroke-dasharray="5,2" d="M239.09,-154.36C232.44,-145.62 224.03,-135.35 215.5,-127 209.17,-120.81 201.71,-114.7 194.74,-109.43"/>
<polygon fill="#9a32cd" stroke="#9a32cd" points="236.09,-156.19 244.85,-162.16 241.72,-152.04 236.09,-156.19"/>
</a>
</g>
<text text-anchor="start" x="234.78" y="-133.25" font-family="Helvetica,sans-Serif" font-size="10.00" fill="grey">position</text>
</g>
<!-- Node6 -->
<g id="Node000006" class="node">
<title>Node6</title>
<g id="a_Node000006"><a xlink:href="structlspserver_1_1CompletionContext.html" target="_top" xlink:title=" ">
<polygon fill="white" stroke="#666666" points="439.25,-102.62 277.75,-102.62 277.75,-81.88 439.25,-81.88 439.25,-102.62"/>
<text text-anchor="middle" x="358.5" y="-89.12" font-family="Helvetica,sans-Serif" font-size="10.00">lspserver::CompletionContext</text>
</a>
</g>
</g>
<!-- Node6&#45;&gt;Node1 -->
<g id="edge5_Node000001_Node000006" class="edge">
<title>Node6&#45;&gt;Node1</title>
<g id="a_edge5_Node000001_Node000006"><a xlink:title=" ">
<path fill="none" stroke="#9a32cd" stroke-dasharray="5,2" d="M338.21,-74.01C319.25,-57.89 291.6,-34.41 276.12,-21.25"/>
<polygon fill="#9a32cd" stroke="#9a32cd" points="335.93,-76.67 345.82,-80.48 340.47,-71.33 335.93,-76.67"/>
</a>
</g>
<text text-anchor="start" x="320.13" y="-45" font-family="Helvetica,sans-Serif" font-size="10.00" fill="grey">context</text>
</g>
</g>
</svg>
