<?xml version="1.0" encoding="UTF-8" standalone="no"?>
<!DOCTYPE svg PUBLIC "-//W3C//DTD SVG 1.1//EN"
 "http://www.w3.org/Graphics/SVG/1.1/DTD/svg11.dtd">
<!-- Generated by graphviz version 12.2.1 (0)
 -->
<!-- Title: lspserver::DidChangeTextDocumentParams Pages: 1 -->
<svg width="189pt" height="251pt"
 viewBox="0.00 0.00 189.00 251.00" xmlns="http://www.w3.org/2000/svg" xmlns:xlink="http://www.w3.org/1999/xlink">
<g id="graph0" class="graph" transform="scale(1 1) rotate(0) translate(4 247)">
<title>lspserver::DidChangeTextDocumentParams</title>
<!-- Node1 -->
<g id="Node000001" class="node">
<title>Node1</title>
<g id="a_Node000001"><a xlink:title=" ">
<polygon fill="#999999" stroke="#666666" points="160.75,-33.5 20.25,-33.5 20.25,0 160.75,0 160.75,-33.5"/>
<text text-anchor="start" x="28.25" y="-20" font-family="Helvetica,sans-Serif" font-size="10.00">lspserver::DidChangeText</text>
<text text-anchor="middle" x="90.5" y="-7.25" font-family="Helvetica,sans-Serif" font-size="10.00">DocumentParams</text>
</a>
</g>
</g>
<!-- Node2 -->
<g id="Node000002" class="node">
<title>Node2</title>
<g id="a_Node000002"><a xlink:href="structlspserver_1_1VersionedTextDocumentIdentifier.html" target="_top" xlink:title=" ">
<polygon fill="white" stroke="#666666" points="158.12,-115.75 22.88,-115.75 22.88,-82.25 158.12,-82.25 158.12,-115.75"/>
<text text-anchor="start" x="30.88" y="-102.25" font-family="Helvetica,sans-Serif" font-size="10.00">lspserver::VersionedText</text>
<text text-anchor="middle" x="90.5" y="-89.5" font-family="Helvetica,sans-Serif" font-size="10.00">DocumentIdentifier</text>
</a>
</g>
</g>
<!-- Node2&#45;&gt;Node1 -->
<g id="edge1_Node000001_Node000002" class="edge">
<title>Node2&#45;&gt;Node1</title>
<g id="a_edge1_Node000001_Node000002"><a xlink:title=" ">
<path fill="none" stroke="#9a32cd" stroke-dasharray="5,2" d="M90.5,-70.38C90.5,-58.24 90.5,-44.4 90.5,-33.97"/>
<polygon fill="#9a32cd" stroke="#9a32cd" points="87,-70.25 90.5,-80.25 94,-70.25 87,-70.25"/>
</a>
</g>
<text text-anchor="middle" x="126.88" y="-54.75" font-family="Helvetica,sans-Serif" font-size="10.00" fill="grey"> textDocument</text>
</g>
<!-- Node3 -->
<g id="Node000003" class="node">
<title>Node3</title>
<g id="a_Node000003"><a xlink:href="structlspserver_1_1TextDocumentIdentifier.html" target="_top" xlink:title=" ">
<polygon fill="white" stroke="#666666" points="181,-173.5 0,-173.5 0,-152.75 181,-152.75 181,-173.5"/>
<text text-anchor="middle" x="90.5" y="-160" font-family="Helvetica,sans-Serif" font-size="10.00">lspserver::TextDocumentIdentifier</text>
</a>
</g>
</g>
<!-- Node3&#45;&gt;Node2 -->
<g id="edge2_Node000002_Node000003" class="edge">
<title>Node3&#45;&gt;Node2</title>
<g id="a_edge2_Node000002_Node000003"><a xlink:title=" ">
<path fill="none" stroke="#63b8ff" d="M90.5,-141.17C90.5,-133.01 90.5,-123.8 90.5,-116.16"/>
<polygon fill="#63b8ff" stroke="#63b8ff" points="87,-140.9 90.5,-150.9 94,-140.9 87,-140.9"/>
</a>
</g>
</g>
<!-- Node4 -->
<g id="Node000004" class="node">
<title>Node4</title>
<g id="a_Node000004"><a xlink:href="structlspserver_1_1URIForFile.html" target="_top" xlink:title=" ">
<polygon fill="white" stroke="#666666" points="148.75,-243 32.25,-243 32.25,-222.25 148.75,-222.25 148.75,-243"/>
<text text-anchor="middle" x="90.5" y="-229.5" font-family="Helvetica,sans-Serif" font-size="10.00">lspserver::URIForFile</text>
</a>
</g>
</g>
<!-- Node4&#45;&gt;Node3 -->
<g id="edge3_Node000003_Node000004" class="edge">
<title>Node4&#45;&gt;Node3</title>
<g id="a_edge3_Node000003_Node000004"><a xlink:title=" ">
<path fill="none" stroke="#9a32cd" stroke-dasharray="5,2" d="M90.5,-210.82C90.5,-198.47 90.5,-183.4 90.5,-173.78"/>
<polygon fill="#9a32cd" stroke="#9a32cd" points="87,-210.44 90.5,-220.44 94,-210.44 87,-210.44"/>
</a>
</g>
<text text-anchor="middle" x="98.38" y="-194.75" font-family="Helvetica,sans-Serif" font-size="10.00" fill="grey"> uri</text>
</g>
</g>
</svg>
