<?xml version="1.0" encoding="UTF-8" standalone="no"?>
<!DOCTYPE svg PUBLIC "-//W3C//DTD SVG 1.1//EN"
 "http://www.w3.org/Graphics/SVG/1.1/DTD/svg11.dtd">
<!-- Generated by graphviz version 12.2.1 (0)
 -->
<!-- Title: nixd::idioms::VLAException Pages: 1 -->
<svg width="356pt" height="155pt"
 viewBox="0.00 0.00 355.88 155.00" xmlns="http://www.w3.org/2000/svg" xmlns:xlink="http://www.w3.org/1999/xlink">
<g id="graph0" class="graph" transform="scale(1 1) rotate(0) translate(4 151)">
<title>nixd::idioms::VLAException</title>
<!-- Node1 -->
<g id="Node000001" class="node">
<title>Node1</title>
<g id="a_Node000001"><a xlink:title=" ">
<polygon fill="#999999" stroke="#666666" points="257,-90.25 107.5,-90.25 107.5,-69.5 257,-69.5 257,-90.25"/>
<text text-anchor="middle" x="182.25" y="-76.75" font-family="Helvetica,sans-Serif" font-size="10.00">nixd::idioms::VLAException</text>
</a>
</g>
</g>
<!-- Node3 -->
<g id="Node000003" class="node">
<title>Node3</title>
<g id="a_Node000003"><a xlink:href="structnixd_1_1idioms_1_1NoSuchVarException.html" target="_top" xlink:title="No such variable.">
<polygon fill="white" stroke="#666666" points="182.5,-27.12 0,-27.12 0,-6.38 182.5,-6.38 182.5,-27.12"/>
<text text-anchor="middle" x="91.25" y="-13.62" font-family="Helvetica,sans-Serif" font-size="10.00">nixd::idioms::NoSuchVarException</text>
</a>
</g>
</g>
<!-- Node1&#45;&gt;Node3 -->
<g id="edge2_Node000001_Node000003" class="edge">
<title>Node1&#45;&gt;Node3</title>
<g id="a_edge2_Node000001_Node000003"><a xlink:title=" ">
<path fill="none" stroke="#63b8ff" d="M158.49,-62.92C141.8,-51.71 120.02,-37.07 105.83,-27.55"/>
<polygon fill="#63b8ff" stroke="#63b8ff" points="156.12,-65.54 166.37,-68.21 160.02,-59.73 156.12,-65.54"/>
</a>
</g>
</g>
<!-- Node4 -->
<g id="Node000004" class="node">
<title>Node4</title>
<g id="a_Node000004"><a xlink:href="structnixd_1_1idioms_1_1UndefinedVarException.html" target="_top" xlink:title=" ">
<polygon fill="white" stroke="#666666" points="347.88,-33.5 200.62,-33.5 200.62,0 347.88,0 347.88,-33.5"/>
<text text-anchor="start" x="208.62" y="-20" font-family="Helvetica,sans-Serif" font-size="10.00">nixd::idioms::UndefinedVar</text>
<text text-anchor="middle" x="274.25" y="-7.25" font-family="Helvetica,sans-Serif" font-size="10.00">Exception</text>
</a>
</g>
</g>
<!-- Node1&#45;&gt;Node4 -->
<g id="edge3_Node000001_Node000004" class="edge">
<title>Node1&#45;&gt;Node4</title>
<g id="a_edge3_Node000001_Node000004"><a xlink:title=" ">
<path fill="none" stroke="#63b8ff" d="M206.53,-62.75C219.89,-53.87 236.43,-42.88 249.81,-33.98"/>
<polygon fill="#63b8ff" stroke="#63b8ff" points="204.68,-59.77 198.29,-68.22 208.56,-65.6 204.68,-59.77"/>
</a>
</g>
</g>
<!-- Node2 -->
<g id="Node000002" class="node">
<title>Node2</title>
<g id="a_Node000002"><a xlink:title=" ">
<polygon fill="white" stroke="#666666" points="224.75,-147 139.75,-147 139.75,-126.25 224.75,-126.25 224.75,-147"/>
<text text-anchor="middle" x="182.25" y="-133.5" font-family="Helvetica,sans-Serif" font-size="10.00">std::exception</text>
</a>
</g>
</g>
<!-- Node2&#45;&gt;Node1 -->
<g id="edge1_Node000001_Node000002" class="edge">
<title>Node2&#45;&gt;Node1</title>
<g id="a_edge1_Node000001_Node000002"><a xlink:title=" ">
<path fill="none" stroke="#63b8ff" d="M182.25,-114.38C182.25,-106.16 182.25,-97.18 182.25,-90.58"/>
<polygon fill="#63b8ff" stroke="#63b8ff" points="178.75,-114.32 182.25,-124.32 185.75,-114.32 178.75,-114.32"/>
</a>
</g>
</g>
</g>
</svg>
