<?xml version="1.0" encoding="UTF-8" standalone="no"?>
<!DOCTYPE svg PUBLIC "-//W3C//DTD SVG 1.1//EN"
 "http://www.w3.org/Graphics/SVG/1.1/DTD/svg11.dtd">
<!-- Generated by graphviz version 12.2.1 (0)
 -->
<!-- Title: lspserver::CallHierarchyPrepareParams Pages: 1 -->
<svg width="314pt" height="263pt"
 viewBox="0.00 0.00 313.50 263.00" xmlns="http://www.w3.org/2000/svg" xmlns:xlink="http://www.w3.org/1999/xlink">
<g id="graph0" class="graph" transform="scale(1 1) rotate(0) translate(4 259)">
<title>lspserver::CallHierarchyPrepareParams</title>
<!-- Node1 -->
<g id="Node000001" class="node">
<title>Node1</title>
<g id="a_Node000001"><a xlink:title="The parameter of a textDocument/prepareCallHierarchy request.">
<polygon fill="#999999" stroke="#666666" points="238,-33.5 105,-33.5 105,0 238,0 238,-33.5"/>
<text text-anchor="start" x="113" y="-20" font-family="Helvetica,sans-Serif" font-size="10.00">lspserver::CallHierarchy</text>
<text text-anchor="middle" x="171.5" y="-7.25" font-family="Helvetica,sans-Serif" font-size="10.00">PrepareParams</text>
</a>
</g>
</g>
<!-- Node2 -->
<g id="Node000002" class="node">
<title>Node2</title>
<g id="a_Node000002"><a xlink:href="structlspserver_1_1TextDocumentPositionParams.html" target="_top" xlink:title=" ">
<polygon fill="white" stroke="#666666" points="259.75,-104 83.25,-104 83.25,-70.5 259.75,-70.5 259.75,-104"/>
<text text-anchor="start" x="91.25" y="-90.5" font-family="Helvetica,sans-Serif" font-size="10.00">lspserver::TextDocumentPosition</text>
<text text-anchor="middle" x="171.5" y="-77.75" font-family="Helvetica,sans-Serif" font-size="10.00">Params</text>
</a>
</g>
</g>
<!-- Node2&#45;&gt;Node1 -->
<g id="edge1_Node000001_Node000002" class="edge">
<title>Node2&#45;&gt;Node1</title>
<g id="a_edge1_Node000001_Node000002"><a xlink:title=" ">
<path fill="none" stroke="#63b8ff" d="M171.5,-58.7C171.5,-50.27 171.5,-41.27 171.5,-33.87"/>
<polygon fill="#63b8ff" stroke="#63b8ff" points="168,-58.5 171.5,-68.5 175,-58.5 168,-58.5"/>
</a>
</g>
</g>
<!-- Node3 -->
<g id="Node000003" class="node">
<title>Node3</title>
<g id="a_Node000003"><a xlink:href="structlspserver_1_1TextDocumentIdentifier.html" target="_top" xlink:title=" ">
<polygon fill="white" stroke="#666666" points="181,-179.5 0,-179.5 0,-158.75 181,-158.75 181,-179.5"/>
<text text-anchor="middle" x="90.5" y="-166" font-family="Helvetica,sans-Serif" font-size="10.00">lspserver::TextDocumentIdentifier</text>
</a>
</g>
</g>
<!-- Node3&#45;&gt;Node2 -->
<g id="edge2_Node000002_Node000003" class="edge">
<title>Node3&#45;&gt;Node2</title>
<g id="a_edge2_Node000002_Node000003"><a xlink:title=" ">
<path fill="none" stroke="#9a32cd" stroke-dasharray="5,2" d="M108.32,-150.55C122.25,-136.82 141.45,-117.88 155.02,-104.5"/>
<polygon fill="#9a32cd" stroke="#9a32cd" points="106.17,-147.75 101.51,-157.27 111.09,-152.74 106.17,-147.75"/>
</a>
</g>
<text text-anchor="start" x="138.85" y="-128.25" font-family="Helvetica,sans-Serif" font-size="10.00" fill="grey">textDocument</text>
</g>
<!-- Node4 -->
<g id="Node000004" class="node">
<title>Node4</title>
<g id="a_Node000004"><a xlink:href="structlspserver_1_1URIForFile.html" target="_top" xlink:title=" ">
<polygon fill="white" stroke="#666666" points="148.75,-255 32.25,-255 32.25,-234.25 148.75,-234.25 148.75,-255"/>
<text text-anchor="middle" x="90.5" y="-241.5" font-family="Helvetica,sans-Serif" font-size="10.00">lspserver::URIForFile</text>
</a>
</g>
</g>
<!-- Node4&#45;&gt;Node3 -->
<g id="edge3_Node000003_Node000004" class="edge">
<title>Node4&#45;&gt;Node3</title>
<g id="a_edge3_Node000003_Node000004"><a xlink:title=" ">
<path fill="none" stroke="#9a32cd" stroke-dasharray="5,2" d="M90.5,-222.51C90.5,-208.51 90.5,-190.8 90.5,-179.97"/>
<polygon fill="#9a32cd" stroke="#9a32cd" points="87,-222.5 90.5,-232.5 94,-222.5 87,-222.5"/>
</a>
</g>
<text text-anchor="start" x="93.5" y="-203.75" font-family="Helvetica,sans-Serif" font-size="10.00" fill="grey">uri</text>
</g>
<!-- Node5 -->
<g id="Node000005" class="node">
<title>Node5</title>
<g id="a_Node000005"><a xlink:href="structlspserver_1_1Position.html" target="_top" xlink:title=" ">
<polygon fill="white" stroke="#666666" points="305.5,-179.5 199.5,-179.5 199.5,-158.75 305.5,-158.75 305.5,-179.5"/>
<text text-anchor="middle" x="252.5" y="-166" font-family="Helvetica,sans-Serif" font-size="10.00">lspserver::Position</text>
</a>
</g>
</g>
<!-- Node5&#45;&gt;Node2 -->
<g id="edge4_Node000002_Node000005" class="edge">
<title>Node5&#45;&gt;Node2</title>
<g id="a_edge4_Node000002_Node000005"><a xlink:title=" ">
<path fill="none" stroke="#9a32cd" stroke-dasharray="5,2" d="M239.09,-149.36C232.44,-140.62 224.03,-130.35 215.5,-122 209.17,-115.81 201.71,-109.7 194.74,-104.43"/>
<polygon fill="#9a32cd" stroke="#9a32cd" points="236.09,-151.19 244.85,-157.16 241.72,-147.04 236.09,-151.19"/>
</a>
</g>
<text text-anchor="start" x="234.78" y="-128.25" font-family="Helvetica,sans-Serif" font-size="10.00" fill="grey">position</text>
</g>
</g>
</svg>
