<?xml version="1.0" encoding="UTF-8" standalone="no"?>
<!DOCTYPE svg PUBLIC "-//W3C//DTD SVG 1.1//EN"
 "http://www.w3.org/Graphics/SVG/1.1/DTD/svg11.dtd">
<!-- Generated by graphviz version 12.2.1 (0)
 -->
<!-- Title: lspserver::ResolveTypeHierarchyItemParams Pages: 1 -->
<svg width="395pt" height="288pt"
 viewBox="0.00 0.00 394.62 288.25" xmlns="http://www.w3.org/2000/svg" xmlns:xlink="http://www.w3.org/1999/xlink">
<g id="graph0" class="graph" transform="scale(1 1) rotate(0) translate(4 284.25)">
<title>lspserver::ResolveTypeHierarchyItemParams</title>
<!-- Node1 -->
<g id="Node000001" class="node">
<title>Node1</title>
<g id="a_Node000001"><a xlink:title="Parameters for the typeHierarchy/resolve request.">
<polygon fill="#999999" stroke="#666666" points="271.12,-33.5 95.38,-33.5 95.38,0 271.12,0 271.12,-33.5"/>
<text text-anchor="start" x="103.38" y="-20" font-family="Helvetica,sans-Serif" font-size="10.00">lspserver::ResolveTypeHierarchy</text>
<text text-anchor="middle" x="183.25" y="-7.25" font-family="Helvetica,sans-Serif" font-size="10.00">ItemParams</text>
</a>
</g>
</g>
<!-- Node2 -->
<g id="Node000002" class="node">
<title>Node2</title>
<g id="a_Node000002"><a xlink:href="structlspserver_1_1TypeHierarchyItem.html" target="_top" xlink:title=" ">
<polygon fill="white" stroke="#666666" points="262.88,-103 103.62,-103 103.62,-82.25 262.88,-82.25 262.88,-103"/>
<text text-anchor="middle" x="183.25" y="-89.5" font-family="Helvetica,sans-Serif" font-size="10.00">lspserver::TypeHierarchyItem</text>
</a>
</g>
</g>
<!-- Node2&#45;&gt;Node1 -->
<g id="edge1_Node000001_Node000002" class="edge">
<title>Node2&#45;&gt;Node1</title>
<g id="a_edge1_Node000001_Node000002"><a xlink:title=" ">
<path fill="none" stroke="#9a32cd" stroke-dasharray="5,2" d="M183.25,-70.63C183.25,-58.97 183.25,-44.69 183.25,-33.91"/>
<polygon fill="#9a32cd" stroke="#9a32cd" points="179.75,-70.45 183.25,-80.45 186.75,-70.45 179.75,-70.45"/>
</a>
</g>
<text text-anchor="middle" x="196" y="-54.75" font-family="Helvetica,sans-Serif" font-size="10.00" fill="grey"> item</text>
</g>
<!-- Node3 -->
<g id="Node000003" class="node">
<title>Node3</title>
<g id="a_Node000003"><a xlink:href="structlspserver_1_1URIForFile.html" target="_top" xlink:title=" ">
<polygon fill="white" stroke="#666666" points="116.5,-191.62 0,-191.62 0,-170.88 116.5,-170.88 116.5,-191.62"/>
<text text-anchor="middle" x="58.25" y="-178.12" font-family="Helvetica,sans-Serif" font-size="10.00">lspserver::URIForFile</text>
</a>
</g>
</g>
<!-- Node3&#45;&gt;Node2 -->
<g id="edge2_Node000002_Node000003" class="edge">
<title>Node3&#45;&gt;Node2</title>
<g id="a_edge2_Node000002_Node000003"><a xlink:title=" ">
<path fill="none" stroke="#9a32cd" stroke-dasharray="5,2" d="M81.51,-164.13C107.3,-146.26 148.08,-118 169.33,-103.27"/>
<polygon fill="#9a32cd" stroke="#9a32cd" points="79.57,-161.21 73.35,-169.79 83.56,-166.97 79.57,-161.21"/>
</a>
</g>
<text text-anchor="middle" x="150.69" y="-130.62" font-family="Helvetica,sans-Serif" font-size="10.00" fill="grey"> uri</text>
</g>
<!-- Node4 -->
<g id="Node000004" class="node">
<title>Node4</title>
<g id="a_Node000004"><a xlink:href="structlspserver_1_1Range.html" target="_top" xlink:title=" ">
<polygon fill="white" stroke="#666666" points="232.12,-191.62 134.38,-191.62 134.38,-170.88 232.12,-170.88 232.12,-191.62"/>
<text text-anchor="middle" x="183.25" y="-178.12" font-family="Helvetica,sans-Serif" font-size="10.00">lspserver::Range</text>
</a>
</g>
</g>
<!-- Node4&#45;&gt;Node2 -->
<g id="edge3_Node000002_Node000004" class="edge">
<title>Node4&#45;&gt;Node2</title>
<g id="a_edge3_Node000002_Node000004"><a xlink:title=" ">
<path fill="none" stroke="#9a32cd" stroke-dasharray="5,2" d="M183.25,-159.16C183.25,-141.36 183.25,-116.69 183.25,-103.27"/>
<polygon fill="#9a32cd" stroke="#9a32cd" points="179.75,-159.14 183.25,-169.14 186.75,-159.14 179.75,-159.14"/>
</a>
</g>
<text text-anchor="middle" x="220.75" y="-137" font-family="Helvetica,sans-Serif" font-size="10.00" fill="grey"> range</text>
<text text-anchor="middle" x="220.75" y="-124.25" font-family="Helvetica,sans-Serif" font-size="10.00" fill="grey">selectionRange</text>
</g>
<!-- Node5 -->
<g id="Node000005" class="node">
<title>Node5</title>
<g id="a_Node000005"><a xlink:href="structlspserver_1_1Position.html" target="_top" xlink:title=" ">
<polygon fill="white" stroke="#666666" points="236.25,-280.25 130.25,-280.25 130.25,-259.5 236.25,-259.5 236.25,-280.25"/>
<text text-anchor="middle" x="183.25" y="-266.75" font-family="Helvetica,sans-Serif" font-size="10.00">lspserver::Position</text>
</a>
</g>
</g>
<!-- Node5&#45;&gt;Node4 -->
<g id="edge4_Node000004_Node000005" class="edge">
<title>Node5&#45;&gt;Node4</title>
<g id="a_edge4_Node000004_Node000005"><a xlink:title=" ">
<path fill="none" stroke="#9a32cd" stroke-dasharray="5,2" d="M183.25,-247.79C183.25,-229.99 183.25,-205.32 183.25,-191.89"/>
<polygon fill="#9a32cd" stroke="#9a32cd" points="179.75,-247.76 183.25,-257.76 186.75,-247.76 179.75,-247.76"/>
</a>
</g>
<text text-anchor="middle" x="194.5" y="-232" font-family="Helvetica,sans-Serif" font-size="10.00" fill="grey"> end</text>
<text text-anchor="middle" x="194.5" y="-219.25" font-family="Helvetica,sans-Serif" font-size="10.00" fill="grey">start</text>
</g>
<!-- Node6 -->
<g id="Node000006" class="node">
<title>Node6</title>
<g id="a_Node000006"><a xlink:href="structlspserver_1_1TypeHierarchyItem_1_1ResolveParams.html" target="_top" xlink:title="Used to resolve a client provided item back.">
<polygon fill="white" stroke="#666666" points="386.62,-198 249.88,-198 249.88,-164.5 386.62,-164.5 386.62,-198"/>
<text text-anchor="start" x="257.88" y="-184.5" font-family="Helvetica,sans-Serif" font-size="10.00">lspserver::TypeHierarchy</text>
<text text-anchor="middle" x="318.25" y="-171.75" font-family="Helvetica,sans-Serif" font-size="10.00">Item::ResolveParams</text>
</a>
</g>
</g>
<!-- Node6&#45;&gt;Node2 -->
<g id="edge5_Node000002_Node000006" class="edge">
<title>Node6&#45;&gt;Node2</title>
<g id="a_edge5_Node000002_Node000006"><a xlink:title=" ">
<path fill="none" stroke="#9a32cd" stroke-dasharray="5,2" d="M299.59,-155.52C289.61,-143.71 276.46,-130.18 262.25,-121 250.55,-113.44 236.51,-107.7 223.54,-103.48"/>
<polygon fill="#9a32cd" stroke="#9a32cd" points="296.6,-157.38 305.62,-162.94 302.03,-152.97 296.6,-157.38"/>
</a>
</g>
<text text-anchor="middle" x="303.17" y="-130.62" font-family="Helvetica,sans-Serif" font-size="10.00" fill="grey"> data</text>
</g>
</g>
</svg>
