<?xml version="1.0" encoding="UTF-8" standalone="no"?>
<!DOCTYPE svg PUBLIC "-//W3C//DTD SVG 1.1//EN"
 "http://www.w3.org/Graphics/SVG/1.1/DTD/svg11.dtd">
<!-- Generated by graphviz version 12.2.1 (0)
 -->
<!-- Title: lspserver::DocumentHighlight Pages: 1 -->
<svg width="170pt" height="197pt"
 viewBox="0.00 0.00 169.50 196.50" xmlns="http://www.w3.org/2000/svg" xmlns:xlink="http://www.w3.org/1999/xlink">
<g id="graph0" class="graph" transform="scale(1 1) rotate(0) translate(4 192.5)">
<title>lspserver::DocumentHighlight</title>
<!-- Node1 -->
<g id="Node000001" class="node">
<title>Node1</title>
<g id="a_Node000001"><a xlink:title=" ">
<polygon fill="#999999" stroke="#666666" points="161.5,-20.75 0,-20.75 0,0 161.5,0 161.5,-20.75"/>
<text text-anchor="middle" x="80.75" y="-7.25" font-family="Helvetica,sans-Serif" font-size="10.00">lspserver::DocumentHighlight</text>
</a>
</g>
</g>
<!-- Node2 -->
<g id="Node000002" class="node">
<title>Node2</title>
<g id="a_Node000002"><a xlink:href="structlspserver_1_1Range.html" target="_top" xlink:title=" ">
<polygon fill="white" stroke="#666666" points="129.62,-96.25 31.88,-96.25 31.88,-75.5 129.62,-75.5 129.62,-96.25"/>
<text text-anchor="middle" x="80.75" y="-82.75" font-family="Helvetica,sans-Serif" font-size="10.00">lspserver::Range</text>
</a>
</g>
</g>
<!-- Node2&#45;&gt;Node1 -->
<g id="edge1_Node000001_Node000002" class="edge">
<title>Node2&#45;&gt;Node1</title>
<g id="a_edge1_Node000001_Node000002"><a xlink:title=" ">
<path fill="none" stroke="#9a32cd" stroke-dasharray="5,2" d="M80.75,-63.76C80.75,-49.76 80.75,-32.05 80.75,-21.22"/>
<polygon fill="#9a32cd" stroke="#9a32cd" points="77.25,-63.75 80.75,-73.75 84.25,-63.75 77.25,-63.75"/>
</a>
</g>
<text text-anchor="start" x="83.75" y="-45" font-family="Helvetica,sans-Serif" font-size="10.00" fill="grey">range</text>
</g>
<!-- Node3 -->
<g id="Node000003" class="node">
<title>Node3</title>
<g id="a_Node000003"><a xlink:href="structlspserver_1_1Position.html" target="_top" xlink:title=" ">
<polygon fill="white" stroke="#666666" points="133.75,-188.5 27.75,-188.5 27.75,-167.75 133.75,-167.75 133.75,-188.5"/>
<text text-anchor="middle" x="80.75" y="-175" font-family="Helvetica,sans-Serif" font-size="10.00">lspserver::Position</text>
</a>
</g>
</g>
<!-- Node3&#45;&gt;Node2 -->
<g id="edge2_Node000002_Node000003" class="edge">
<title>Node3&#45;&gt;Node2</title>
<g id="a_edge2_Node000002_Node000003"><a xlink:title=" ">
<path fill="none" stroke="#9a32cd" stroke-dasharray="5,2" d="M80.75,-156.02C80.75,-137.33 80.75,-110.9 80.75,-96.74"/>
<polygon fill="#9a32cd" stroke="#9a32cd" points="77.25,-155.95 80.75,-165.95 84.25,-155.95 77.25,-155.95"/>
</a>
</g>
<text text-anchor="start" x="83.75" y="-137.25" font-family="Helvetica,sans-Serif" font-size="10.00" fill="grey">end</text>
<text text-anchor="start" x="83.75" y="-120.5" font-family="Helvetica,sans-Serif" font-size="10.00" fill="grey">start</text>
</g>
</g>
</svg>
