<?xml version="1.0" encoding="UTF-8" standalone="no"?>
<!DOCTYPE svg PUBLIC "-//W3C//DTD SVG 1.1//EN"
 "http://www.w3.org/Graphics/SVG/1.1/DTD/svg11.dtd">
<!-- Generated by graphviz version 12.2.1 (0)
 -->
<!-- Title: lspserver::Location Pages: 1 -->
<svg width="244pt" height="181pt"
 viewBox="0.00 0.00 244.25 180.50" xmlns="http://www.w3.org/2000/svg" xmlns:xlink="http://www.w3.org/1999/xlink">
<g id="graph0" class="graph" transform="scale(1 1) rotate(0) translate(4 176.5)">
<title>lspserver::Location</title>
<!-- Node1 -->
<g id="Node000001" class="node">
<title>Node1</title>
<g id="a_Node000001"><a xlink:title=" ">
<polygon fill="#999999" stroke="#666666" points="131.38,-20.75 23.12,-20.75 23.12,0 131.38,0 131.38,-20.75"/>
<text text-anchor="middle" x="77.25" y="-7.25" font-family="Helvetica,sans-Serif" font-size="10.00">lspserver::Location</text>
</a>
</g>
</g>
<!-- Node2 -->
<g id="Node000002" class="node">
<title>Node2</title>
<g id="a_Node000002"><a xlink:href="structlspserver_1_1URIForFile.html" target="_top" xlink:title=" ">
<polygon fill="white" stroke="#666666" points="116.5,-90.25 0,-90.25 0,-69.5 116.5,-69.5 116.5,-90.25"/>
<text text-anchor="middle" x="58.25" y="-76.75" font-family="Helvetica,sans-Serif" font-size="10.00">lspserver::URIForFile</text>
</a>
</g>
</g>
<!-- Node2&#45;&gt;Node1 -->
<g id="edge1_Node000001_Node000002" class="edge">
<title>Node2&#45;&gt;Node1</title>
<g id="a_edge1_Node000001_Node000002"><a xlink:title=" ">
<path fill="none" stroke="#9a32cd" stroke-dasharray="5,2" d="M64,-58.45C67.49,-46.03 71.8,-30.75 74.53,-21.03"/>
<polygon fill="#9a32cd" stroke="#9a32cd" points="60.72,-57.17 61.38,-67.75 67.46,-59.07 60.72,-57.17"/>
</a>
</g>
<text text-anchor="middle" x="77.33" y="-42" font-family="Helvetica,sans-Serif" font-size="10.00" fill="grey"> uri</text>
</g>
<!-- Node3 -->
<g id="Node000003" class="node">
<title>Node3</title>
<g id="a_Node000003"><a xlink:href="structlspserver_1_1Range.html" target="_top" xlink:title=" ">
<polygon fill="white" stroke="#666666" points="232.12,-90.25 134.38,-90.25 134.38,-69.5 232.12,-69.5 232.12,-90.25"/>
<text text-anchor="middle" x="183.25" y="-76.75" font-family="Helvetica,sans-Serif" font-size="10.00">lspserver::Range</text>
</a>
</g>
</g>
<!-- Node3&#45;&gt;Node1 -->
<g id="edge2_Node000001_Node000003" class="edge">
<title>Node3&#45;&gt;Node1</title>
<g id="a_edge2_Node000001_Node000003"><a xlink:title=" ">
<path fill="none" stroke="#9a32cd" stroke-dasharray="5,2" d="M158.52,-63.13C138.2,-50.19 110.03,-32.25 92.75,-21.25"/>
<polygon fill="#9a32cd" stroke="#9a32cd" points="156.47,-65.97 166.79,-68.39 160.23,-60.07 156.47,-65.97"/>
</a>
</g>
<text text-anchor="middle" x="155.12" y="-42" font-family="Helvetica,sans-Serif" font-size="10.00" fill="grey"> range</text>
</g>
<!-- Node4 -->
<g id="Node000004" class="node">
<title>Node4</title>
<g id="a_Node000004"><a xlink:href="structlspserver_1_1Position.html" target="_top" xlink:title=" ">
<polygon fill="white" stroke="#666666" points="236.25,-172.5 130.25,-172.5 130.25,-151.75 236.25,-151.75 236.25,-172.5"/>
<text text-anchor="middle" x="183.25" y="-159" font-family="Helvetica,sans-Serif" font-size="10.00">lspserver::Position</text>
</a>
</g>
</g>
<!-- Node4&#45;&gt;Node3 -->
<g id="edge3_Node000003_Node000004" class="edge">
<title>Node4&#45;&gt;Node3</title>
<g id="a_edge3_Node000003_Node000004"><a xlink:title=" ">
<path fill="none" stroke="#9a32cd" stroke-dasharray="5,2" d="M183.25,-140.24C183.25,-124.09 183.25,-102.49 183.25,-90.3"/>
<polygon fill="#9a32cd" stroke="#9a32cd" points="179.75,-139.77 183.25,-149.77 186.75,-139.77 179.75,-139.77"/>
</a>
</g>
<text text-anchor="middle" x="194.5" y="-124.25" font-family="Helvetica,sans-Serif" font-size="10.00" fill="grey"> end</text>
<text text-anchor="middle" x="194.5" y="-111.5" font-family="Helvetica,sans-Serif" font-size="10.00" fill="grey">start</text>
</g>
</g>
</svg>
