<?xml version="1.0" encoding="UTF-8" standalone="no"?>
<!DOCTYPE svg PUBLIC "-//W3C//DTD SVG 1.1//EN"
 "http://www.w3.org/Graphics/SVG/1.1/DTD/svg11.dtd">
<!-- Generated by graphviz version 12.2.1 (0)
 -->
<!-- Title: lspserver::DocumentSymbol Pages: 1 -->
<svg width="162pt" height="193pt"
 viewBox="0.00 0.00 162.00 193.25" xmlns="http://www.w3.org/2000/svg" xmlns:xlink="http://www.w3.org/1999/xlink">
<g id="graph0" class="graph" transform="scale(1 1) rotate(0) translate(4 189.25)">
<title>lspserver::DocumentSymbol</title>
<!-- Node1 -->
<g id="Node000001" class="node">
<title>Node1</title>
<g id="a_Node000001"><a xlink:title=" ">
<polygon fill="#999999" stroke="#666666" points="154,-20.75 0,-20.75 0,0 154,0 154,-20.75"/>
<text text-anchor="middle" x="77" y="-7.25" font-family="Helvetica,sans-Serif" font-size="10.00">lspserver::DocumentSymbol</text>
</a>
</g>
</g>
<!-- Node2 -->
<g id="Node000002" class="node">
<title>Node2</title>
<g id="a_Node000002"><a xlink:href="structlspserver_1_1Range.html" target="_top" xlink:title=" ">
<polygon fill="white" stroke="#666666" points="125.88,-103 28.12,-103 28.12,-82.25 125.88,-82.25 125.88,-103"/>
<text text-anchor="middle" x="77" y="-89.5" font-family="Helvetica,sans-Serif" font-size="10.00">lspserver::Range</text>
</a>
</g>
</g>
<!-- Node2&#45;&gt;Node1 -->
<g id="edge1_Node000001_Node000002" class="edge">
<title>Node2&#45;&gt;Node1</title>
<g id="a_edge1_Node000001_Node000002"><a xlink:title=" ">
<path fill="none" stroke="#9a32cd" stroke-dasharray="5,2" d="M77,-70.74C77,-54.59 77,-32.99 77,-20.8"/>
<polygon fill="#9a32cd" stroke="#9a32cd" points="73.5,-70.27 77,-80.27 80.5,-70.27 73.5,-70.27"/>
</a>
</g>
<text text-anchor="middle" x="114.5" y="-54.75" font-family="Helvetica,sans-Serif" font-size="10.00" fill="grey"> range</text>
<text text-anchor="middle" x="114.5" y="-42" font-family="Helvetica,sans-Serif" font-size="10.00" fill="grey">selectionRange</text>
</g>
<!-- Node3 -->
<g id="Node000003" class="node">
<title>Node3</title>
<g id="a_Node000003"><a xlink:href="structlspserver_1_1Position.html" target="_top" xlink:title=" ">
<polygon fill="white" stroke="#666666" points="130,-185.25 24,-185.25 24,-164.5 130,-164.5 130,-185.25"/>
<text text-anchor="middle" x="77" y="-171.75" font-family="Helvetica,sans-Serif" font-size="10.00">lspserver::Position</text>
</a>
</g>
</g>
<!-- Node3&#45;&gt;Node2 -->
<g id="edge2_Node000002_Node000003" class="edge">
<title>Node3&#45;&gt;Node2</title>
<g id="a_edge2_Node000002_Node000003"><a xlink:title=" ">
<path fill="none" stroke="#9a32cd" stroke-dasharray="5,2" d="M77,-152.99C77,-136.84 77,-115.24 77,-103.05"/>
<polygon fill="#9a32cd" stroke="#9a32cd" points="73.5,-152.52 77,-162.52 80.5,-152.52 73.5,-152.52"/>
</a>
</g>
<text text-anchor="middle" x="88.25" y="-137" font-family="Helvetica,sans-Serif" font-size="10.00" fill="grey"> end</text>
<text text-anchor="middle" x="88.25" y="-124.25" font-family="Helvetica,sans-Serif" font-size="10.00" fill="grey">start</text>
</g>
</g>
</svg>
