<?xml version="1.0" encoding="UTF-8" standalone="no"?>
<!DOCTYPE svg PUBLIC "-//W3C//DTD SVG 1.1//EN"
 "http://www.w3.org/Graphics/SVG/1.1/DTD/svg11.dtd">
<!-- Generated by graphviz version 12.2.1 (0)
 -->
<!-- Title: lspserver::SelectionRange Pages: 1 -->
<svg width="151pt" height="181pt"
 viewBox="0.00 0.00 150.75 180.50" xmlns="http://www.w3.org/2000/svg" xmlns:xlink="http://www.w3.org/1999/xlink">
<g id="graph0" class="graph" transform="scale(1 1) rotate(0) translate(4 176.5)">
<title>lspserver::SelectionRange</title>
<!-- Node1 -->
<g id="Node000001" class="node">
<title>Node1</title>
<g id="a_Node000001"><a xlink:title=" ">
<polygon fill="#999999" stroke="#666666" points="142.75,-20.75 0,-20.75 0,0 142.75,0 142.75,-20.75"/>
<text text-anchor="middle" x="71.38" y="-7.25" font-family="Helvetica,sans-Serif" font-size="10.00">lspserver::SelectionRange</text>
</a>
</g>
</g>
<!-- Node2 -->
<g id="Node000002" class="node">
<title>Node2</title>
<g id="a_Node000002"><a xlink:href="structlspserver_1_1Range.html" target="_top" xlink:title=" ">
<polygon fill="white" stroke="#666666" points="120.25,-90.25 22.5,-90.25 22.5,-69.5 120.25,-69.5 120.25,-90.25"/>
<text text-anchor="middle" x="71.38" y="-76.75" font-family="Helvetica,sans-Serif" font-size="10.00">lspserver::Range</text>
</a>
</g>
</g>
<!-- Node2&#45;&gt;Node1 -->
<g id="edge1_Node000001_Node000002" class="edge">
<title>Node2&#45;&gt;Node1</title>
<g id="a_edge1_Node000001_Node000002"><a xlink:title=" ">
<path fill="none" stroke="#9a32cd" stroke-dasharray="5,2" d="M71.38,-58.07C71.38,-45.72 71.38,-30.65 71.38,-21.03"/>
<polygon fill="#9a32cd" stroke="#9a32cd" points="67.88,-57.69 71.38,-67.69 74.88,-57.69 67.88,-57.69"/>
</a>
</g>
<text text-anchor="middle" x="86.75" y="-42" font-family="Helvetica,sans-Serif" font-size="10.00" fill="grey"> range</text>
</g>
<!-- Node3 -->
<g id="Node000003" class="node">
<title>Node3</title>
<g id="a_Node000003"><a xlink:href="structlspserver_1_1Position.html" target="_top" xlink:title=" ">
<polygon fill="white" stroke="#666666" points="124.38,-172.5 18.38,-172.5 18.38,-151.75 124.38,-151.75 124.38,-172.5"/>
<text text-anchor="middle" x="71.38" y="-159" font-family="Helvetica,sans-Serif" font-size="10.00">lspserver::Position</text>
</a>
</g>
</g>
<!-- Node3&#45;&gt;Node2 -->
<g id="edge2_Node000002_Node000003" class="edge">
<title>Node3&#45;&gt;Node2</title>
<g id="a_edge2_Node000002_Node000003"><a xlink:title=" ">
<path fill="none" stroke="#9a32cd" stroke-dasharray="5,2" d="M71.38,-140.24C71.38,-124.09 71.38,-102.49 71.38,-90.3"/>
<polygon fill="#9a32cd" stroke="#9a32cd" points="67.88,-139.77 71.38,-149.77 74.88,-139.77 67.88,-139.77"/>
</a>
</g>
<text text-anchor="middle" x="82.62" y="-124.25" font-family="Helvetica,sans-Serif" font-size="10.00" fill="grey"> end</text>
<text text-anchor="middle" x="82.62" y="-111.5" font-family="Helvetica,sans-Serif" font-size="10.00" fill="grey">start</text>
</g>
</g>
</svg>
