<?xml version="1.0" encoding="UTF-8" standalone="no"?>
<!DOCTYPE svg PUBLIC "-//W3C//DTD SVG 1.1//EN"
 "http://www.w3.org/Graphics/SVG/1.1/DTD/svg11.dtd">
<!-- Generated by graphviz version 12.2.1 (0)
 -->
<!-- Title: lspserver::VersionedTextDocumentIdentifier Pages: 1 -->
<svg width="189pt" height="169pt"
 viewBox="0.00 0.00 189.00 168.75" xmlns="http://www.w3.org/2000/svg" xmlns:xlink="http://www.w3.org/1999/xlink">
<g id="graph0" class="graph" transform="scale(1 1) rotate(0) translate(4 164.75)">
<title>lspserver::VersionedTextDocumentIdentifier</title>
<!-- Node1 -->
<g id="Node000001" class="node">
<title>Node1</title>
<g id="a_Node000001"><a xlink:title=" ">
<polygon fill="#999999" stroke="#666666" points="158.12,-33.5 22.88,-33.5 22.88,0 158.12,0 158.12,-33.5"/>
<text text-anchor="start" x="30.88" y="-20" font-family="Helvetica,sans-Serif" font-size="10.00">lspserver::VersionedText</text>
<text text-anchor="middle" x="90.5" y="-7.25" font-family="Helvetica,sans-Serif" font-size="10.00">DocumentIdentifier</text>
</a>
</g>
</g>
<!-- Node2 -->
<g id="Node000002" class="node">
<title>Node2</title>
<g id="a_Node000002"><a xlink:href="structlspserver_1_1TextDocumentIdentifier.html" target="_top" xlink:title=" ">
<polygon fill="white" stroke="#666666" points="181,-91.25 0,-91.25 0,-70.5 181,-70.5 181,-91.25"/>
<text text-anchor="middle" x="90.5" y="-77.75" font-family="Helvetica,sans-Serif" font-size="10.00">lspserver::TextDocumentIdentifier</text>
</a>
</g>
</g>
<!-- Node2&#45;&gt;Node1 -->
<g id="edge1_Node000001_Node000002" class="edge">
<title>Node2&#45;&gt;Node1</title>
<g id="a_edge1_Node000001_Node000002"><a xlink:title=" ">
<path fill="none" stroke="#63b8ff" d="M90.5,-58.92C90.5,-50.76 90.5,-41.55 90.5,-33.91"/>
<polygon fill="#63b8ff" stroke="#63b8ff" points="87,-58.65 90.5,-68.65 94,-58.65 87,-58.65"/>
</a>
</g>
</g>
<!-- Node3 -->
<g id="Node000003" class="node">
<title>Node3</title>
<g id="a_Node000003"><a xlink:href="structlspserver_1_1URIForFile.html" target="_top" xlink:title=" ">
<polygon fill="white" stroke="#666666" points="148.75,-160.75 32.25,-160.75 32.25,-140 148.75,-140 148.75,-160.75"/>
<text text-anchor="middle" x="90.5" y="-147.25" font-family="Helvetica,sans-Serif" font-size="10.00">lspserver::URIForFile</text>
</a>
</g>
</g>
<!-- Node3&#45;&gt;Node2 -->
<g id="edge2_Node000002_Node000003" class="edge">
<title>Node3&#45;&gt;Node2</title>
<g id="a_edge2_Node000002_Node000003"><a xlink:title=" ">
<path fill="none" stroke="#9a32cd" stroke-dasharray="5,2" d="M90.5,-128.57C90.5,-116.22 90.5,-101.15 90.5,-91.53"/>
<polygon fill="#9a32cd" stroke="#9a32cd" points="87,-128.19 90.5,-138.19 94,-128.19 87,-128.19"/>
</a>
</g>
<text text-anchor="middle" x="98.38" y="-112.5" font-family="Helvetica,sans-Serif" font-size="10.00" fill="grey"> uri</text>
</g>
</g>
</svg>
