<?xml version="1.0" encoding="UTF-8" standalone="no"?>
<!DOCTYPE svg PUBLIC "-//W3C//DTD SVG 1.1//EN"
 "http://www.w3.org/Graphics/SVG/1.1/DTD/svg11.dtd">
<!-- Generated by graphviz version 12.1.2 (0)
 -->
<!-- Title: nixt::detail::RB&lt; Tag, p &gt; Pages: 1 -->
<svg width="266pt" height="111pt"
 viewBox="0.00 0.00 265.50 111.00" xmlns="http://www.w3.org/2000/svg" xmlns:xlink="http://www.w3.org/1999/xlink">
<g id="graph0" class="graph" transform="scale(1 1) rotate(0) translate(4 107)">
<title>nixt::detail::RB&lt; Tag, p &gt;</title>
<!-- Node1 -->
<g id="Node000001" class="node">
<title>Node1</title>
<g id="a_Node000001"><a xlink:title=" ">
<polygon fill="#999999" stroke="#666666" points="198.62,-20.75 59.62,-20.75 59.62,0 198.62,0 198.62,-20.75"/>
<text text-anchor="middle" x="129.12" y="-7.25" font-family="Helvetica,sans-Serif" font-size="10.00">nixt::detail::RB&lt; Tag, p &gt;</text>
</a>
</g>
</g>
<!-- Node2 -->
<g id="Node000002" class="node">
<title>Node2</title>
<g id="a_Node000002"><a xlink:href="structnixt_1_1detail_1_1R.html" target="_top" xlink:title=" ">
<polygon fill="white" stroke="#666666" points="120.25,-96.62 0,-96.62 0,-75.88 120.25,-75.88 120.25,-96.62"/>
<text text-anchor="middle" x="60.12" y="-83.12" font-family="Helvetica,sans-Serif" font-size="10.00">nixt::detail::R&lt; Tag &gt;</text>
</a>
</g>
</g>
<!-- Node2&#45;&gt;Node1 -->
<g id="edge1_Node000001_Node000002" class="edge">
<title>Node2&#45;&gt;Node1</title>
<g id="a_edge1_Node000001_Node000002"><a xlink:title=" ">
<path fill="none" stroke="#63b8ff" d="M76.9,-67.29C90.59,-52.63 109.41,-32.48 120.32,-20.8"/>
<polygon fill="#63b8ff" stroke="#63b8ff" points="74.45,-64.79 70.18,-74.49 79.56,-69.57 74.45,-64.79"/>
</a>
</g>
</g>
<!-- Node3 -->
<g id="Node000003" class="node">
<title>Node3</title>
<g id="a_Node000003"><a xlink:href="structnixt_1_1detail_1_1RB_1_1F.html" target="_top" xlink:title=" ">
<polygon fill="white" stroke="#666666" points="257.5,-103 138.75,-103 138.75,-69.5 257.5,-69.5 257.5,-103"/>
<text text-anchor="start" x="146.75" y="-89.5" font-family="Helvetica,sans-Serif" font-size="10.00">nixt::detail::RB&lt; Tag,</text>
<text text-anchor="middle" x="198.12" y="-76.75" font-family="Helvetica,sans-Serif" font-size="10.00"> p &gt;::F</text>
</a>
</g>
</g>
<!-- Node3&#45;&gt;Node1 -->
<g id="edge2_Node000001_Node000003" class="edge">
<title>Node3&#45;&gt;Node1</title>
<g id="a_edge2_Node000001_Node000003"><a xlink:title=" ">
<path fill="none" stroke="#9a32cd" stroke-dasharray="5,2" d="M175.57,-61.1C162.74,-47.36 147.4,-30.94 137.96,-20.83"/>
<polygon fill="#9a32cd" stroke="#9a32cd" points="172.74,-63.2 182.12,-68.11 177.85,-58.42 172.74,-63.2"/>
</a>
</g>
<text text-anchor="middle" x="173.94" y="-42" font-family="Helvetica,sans-Serif" font-size="10.00" fill="grey"> FO</text>
</g>
</g>
</svg>
