<?xml version="1.0" encoding="UTF-8" standalone="no"?>
<!DOCTYPE svg PUBLIC "-//W3C//DTD SVG 1.1//EN"
 "http://www.w3.org/Graphics/SVG/1.1/DTD/svg11.dtd">
<!-- Generated by graphviz version 12.2.1 (0)
 -->
<!-- Title: nixd::idioms::UndefinedVarException Pages: 1 -->
<svg width="158pt" height="155pt"
 viewBox="0.00 0.00 157.50 155.00" xmlns="http://www.w3.org/2000/svg" xmlns:xlink="http://www.w3.org/1999/xlink">
<g id="graph0" class="graph" transform="scale(1 1) rotate(0) translate(4 151)">
<title>nixd::idioms::UndefinedVarException</title>
<!-- Node1 -->
<g id="Node000001" class="node">
<title>Node1</title>
<g id="a_Node000001"><a xlink:title=" ">
<polygon fill="#999999" stroke="#666666" points="148.38,-33.5 1.12,-33.5 1.12,0 148.38,0 148.38,-33.5"/>
<text text-anchor="start" x="9.12" y="-20" font-family="Helvetica,sans-Serif" font-size="10.00">nixd::idioms::UndefinedVar</text>
<text text-anchor="middle" x="74.75" y="-7.25" font-family="Helvetica,sans-Serif" font-size="10.00">Exception</text>
</a>
</g>
</g>
<!-- Node2 -->
<g id="Node000002" class="node">
<title>Node2</title>
<g id="a_Node000002"><a xlink:href="structnixd_1_1idioms_1_1VLAException.html" target="_top" xlink:title=" ">
<polygon fill="white" stroke="#666666" points="149.5,-90.25 0,-90.25 0,-69.5 149.5,-69.5 149.5,-90.25"/>
<text text-anchor="middle" x="74.75" y="-76.75" font-family="Helvetica,sans-Serif" font-size="10.00">nixd::idioms::VLAException</text>
</a>
</g>
</g>
<!-- Node2&#45;&gt;Node1 -->
<g id="edge1_Node000001_Node000002" class="edge">
<title>Node2&#45;&gt;Node1</title>
<g id="a_edge1_Node000001_Node000002"><a xlink:title=" ">
<path fill="none" stroke="#63b8ff" d="M74.75,-57.59C74.75,-49.85 74.75,-41.22 74.75,-33.98"/>
<polygon fill="#63b8ff" stroke="#63b8ff" points="71.25,-57.54 74.75,-67.54 78.25,-57.54 71.25,-57.54"/>
</a>
</g>
</g>
<!-- Node3 -->
<g id="Node000003" class="node">
<title>Node3</title>
<g id="a_Node000003"><a xlink:title=" ">
<polygon fill="white" stroke="#666666" points="117.25,-147 32.25,-147 32.25,-126.25 117.25,-126.25 117.25,-147"/>
<text text-anchor="middle" x="74.75" y="-133.5" font-family="Helvetica,sans-Serif" font-size="10.00">std::exception</text>
</a>
</g>
</g>
<!-- Node3&#45;&gt;Node2 -->
<g id="edge2_Node000002_Node000003" class="edge">
<title>Node3&#45;&gt;Node2</title>
<g id="a_edge2_Node000002_Node000003"><a xlink:title=" ">
<path fill="none" stroke="#63b8ff" d="M74.75,-114.38C74.75,-106.16 74.75,-97.18 74.75,-90.58"/>
<polygon fill="#63b8ff" stroke="#63b8ff" points="71.25,-114.32 74.75,-124.32 78.25,-114.32 71.25,-114.32"/>
</a>
</g>
</g>
</g>
</svg>
