<?xml version="1.0" encoding="UTF-8" standalone="no"?>
<!DOCTYPE svg PUBLIC "-//W3C//DTD SVG 1.1//EN"
 "http://www.w3.org/Graphics/SVG/1.1/DTD/svg11.dtd">
<!-- Generated by graphviz version 12.2.1 (0)
 -->
<!-- Title: nixd::AttrPathInfoResponse Pages: 1 -->
<svg width="260pt" height="104pt"
 viewBox="0.00 0.00 259.50 104.25" xmlns="http://www.w3.org/2000/svg" xmlns:xlink="http://www.w3.org/1999/xlink">
<g id="graph0" class="graph" transform="scale(1 1) rotate(0) translate(4 100.25)">
<title>nixd::AttrPathInfoResponse</title>
<!-- Node1 -->
<g id="Node000001" class="node">
<title>Node1</title>
<g id="a_Node000001"><a xlink:title=" ">
<polygon fill="#999999" stroke="#666666" points="188.38,-20.75 40.38,-20.75 40.38,0 188.38,0 188.38,-20.75"/>
<text text-anchor="middle" x="114.38" y="-7.25" font-family="Helvetica,sans-Serif" font-size="10.00">nixd::AttrPathInfoResponse</text>
</a>
</g>
</g>
<!-- Node2 -->
<g id="Node000002" class="node">
<title>Node2</title>
<g id="a_Node000002"><a xlink:href="structnixd_1_1ValueMeta.html" target="_top" xlink:title="General metadata of all nix::Values.">
<polygon fill="white" stroke="#666666" points="94.75,-96.25 0,-96.25 0,-75.5 94.75,-75.5 94.75,-96.25"/>
<text text-anchor="middle" x="47.38" y="-82.75" font-family="Helvetica,sans-Serif" font-size="10.00">nixd::ValueMeta</text>
</a>
</g>
</g>
<!-- Node2&#45;&gt;Node1 -->
<g id="edge1_Node000001_Node000002" class="edge">
<title>Node2&#45;&gt;Node1</title>
<g id="a_edge1_Node000001_Node000002"><a xlink:title=" ">
<path fill="none" stroke="#9a32cd" stroke-dasharray="5,2" d="M63.57,-67.11C76.7,-52.7 94.72,-32.93 105.4,-21.22"/>
<polygon fill="#9a32cd" stroke="#9a32cd" points="61.3,-64.4 57.15,-74.15 66.48,-69.12 61.3,-64.4"/>
</a>
</g>
<text text-anchor="start" x="91.85" y="-45" font-family="Helvetica,sans-Serif" font-size="10.00" fill="grey">Meta</text>
</g>
<!-- Node3 -->
<g id="Node000003" class="node">
<title>Node3</title>
<g id="a_Node000003"><a xlink:href="structnixd_1_1PackageDescription.html" target="_top" xlink:title=" ">
<polygon fill="white" stroke="#666666" points="251.5,-96.25 113.25,-96.25 113.25,-75.5 251.5,-75.5 251.5,-96.25"/>
<text text-anchor="middle" x="182.38" y="-82.75" font-family="Helvetica,sans-Serif" font-size="10.00">nixd::PackageDescription</text>
</a>
</g>
</g>
<!-- Node3&#45;&gt;Node1 -->
<g id="edge2_Node000001_Node000003" class="edge">
<title>Node3&#45;&gt;Node1</title>
<g id="a_edge2_Node000001_Node000003"><a xlink:title=" ">
<path fill="none" stroke="#9a32cd" stroke-dasharray="5,2" d="M165.94,-67.11C152.61,-52.7 134.32,-32.93 123.48,-21.22"/>
<polygon fill="#9a32cd" stroke="#9a32cd" points="163.1,-69.19 172.46,-74.16 168.24,-64.44 163.1,-69.19"/>
</a>
</g>
<text text-anchor="start" x="159.47" y="-45" font-family="Helvetica,sans-Serif" font-size="10.00" fill="grey">PackageDesc</text>
</g>
</g>
</svg>
