<?xml version="1.0" encoding="UTF-8" standalone="no"?>
<!DOCTYPE svg PUBLIC "-//W3C//DTD SVG 1.1//EN"
 "http://www.w3.org/Graphics/SVG/1.1/DTD/svg11.dtd">
<!-- Generated by graphviz version 12.2.1 (0)
 -->
<!-- Title: lspserver::DocumentRangeFormattingParams Pages: 1 -->
<svg width="309pt" height="209pt"
 viewBox="0.00 0.00 308.50 209.25" xmlns="http://www.w3.org/2000/svg" xmlns:xlink="http://www.w3.org/1999/xlink">
<g id="graph0" class="graph" transform="scale(1 1) rotate(0) translate(4 205.25)">
<title>lspserver::DocumentRangeFormattingParams</title>
<!-- Node1 -->
<g id="Node000001" class="node">
<title>Node1</title>
<g id="a_Node000001"><a xlink:title=" ">
<polygon fill="#999999" stroke="#666666" points="242.5,-33.5 94.5,-33.5 94.5,0 242.5,0 242.5,-33.5"/>
<text text-anchor="start" x="102.5" y="-20" font-family="Helvetica,sans-Serif" font-size="10.00">lspserver::DocumentRange</text>
<text text-anchor="middle" x="168.5" y="-7.25" font-family="Helvetica,sans-Serif" font-size="10.00">FormattingParams</text>
</a>
</g>
</g>
<!-- Node2 -->
<g id="Node000002" class="node">
<title>Node2</title>
<g id="a_Node000002"><a xlink:href="structlspserver_1_1TextDocumentIdentifier.html" target="_top" xlink:title=" ">
<polygon fill="white" stroke="#666666" points="181,-109 0,-109 0,-88.25 181,-88.25 181,-109"/>
<text text-anchor="middle" x="90.5" y="-95.5" font-family="Helvetica,sans-Serif" font-size="10.00">lspserver::TextDocumentIdentifier</text>
</a>
</g>
</g>
<!-- Node2&#45;&gt;Node1 -->
<g id="edge1_Node000001_Node000002" class="edge">
<title>Node2&#45;&gt;Node1</title>
<g id="a_edge1_Node000001_Node000002"><a xlink:title=" ">
<path fill="none" stroke="#9a32cd" stroke-dasharray="5,2" d="M107.38,-79.86C115.6,-71.25 125.64,-60.8 134.75,-51.5 140.43,-45.7 146.71,-39.39 152.29,-33.82"/>
<polygon fill="#9a32cd" stroke="#9a32cd" points="105,-77.28 100.64,-86.93 110.07,-82.11 105,-77.28"/>
</a>
</g>
<text text-anchor="start" x="137.75" y="-57.75" font-family="Helvetica,sans-Serif" font-size="10.00" fill="grey">textDocument</text>
</g>
<!-- Node3 -->
<g id="Node000003" class="node">
<title>Node3</title>
<g id="a_Node000003"><a xlink:href="structlspserver_1_1URIForFile.html" target="_top" xlink:title=" ">
<polygon fill="white" stroke="#666666" points="148.75,-201.25 32.25,-201.25 32.25,-180.5 148.75,-180.5 148.75,-201.25"/>
<text text-anchor="middle" x="90.5" y="-187.75" font-family="Helvetica,sans-Serif" font-size="10.00">lspserver::URIForFile</text>
</a>
</g>
</g>
<!-- Node3&#45;&gt;Node2 -->
<g id="edge2_Node000002_Node000003" class="edge">
<title>Node3&#45;&gt;Node2</title>
<g id="a_edge2_Node000002_Node000003"><a xlink:title=" ">
<path fill="none" stroke="#9a32cd" stroke-dasharray="5,2" d="M90.5,-168.77C90.5,-150.08 90.5,-123.65 90.5,-109.49"/>
<polygon fill="#9a32cd" stroke="#9a32cd" points="87,-168.7 90.5,-178.7 94,-168.7 87,-168.7"/>
</a>
</g>
<text text-anchor="start" x="93.5" y="-141.62" font-family="Helvetica,sans-Serif" font-size="10.00" fill="grey">uri</text>
</g>
<!-- Node4 -->
<g id="Node000004" class="node">
<title>Node4</title>
<g id="a_Node000004"><a xlink:href="structlspserver_1_1Range.html" target="_top" xlink:title=" ">
<polygon fill="white" stroke="#666666" points="296.38,-109 198.62,-109 198.62,-88.25 296.38,-88.25 296.38,-109"/>
<text text-anchor="middle" x="247.5" y="-95.5" font-family="Helvetica,sans-Serif" font-size="10.00">lspserver::Range</text>
</a>
</g>
</g>
<!-- Node4&#45;&gt;Node1 -->
<g id="edge3_Node000001_Node000004" class="edge">
<title>Node4&#45;&gt;Node1</title>
<g id="a_edge3_Node000001_Node000004"><a xlink:title=" ">
<path fill="none" stroke="#9a32cd" stroke-dasharray="5,2" d="M234,-78.94C227.34,-70.23 218.94,-59.94 210.5,-51.5 204.29,-45.28 196.97,-39.08 190.2,-33.72"/>
<polygon fill="#9a32cd" stroke="#9a32cd" points="231.01,-80.79 239.79,-86.72 236.62,-76.61 231.01,-80.79"/>
</a>
</g>
<text text-anchor="start" x="229.68" y="-57.75" font-family="Helvetica,sans-Serif" font-size="10.00" fill="grey">range</text>
</g>
<!-- Node5 -->
<g id="Node000005" class="node">
<title>Node5</title>
<g id="a_Node000005"><a xlink:href="structlspserver_1_1Position.html" target="_top" xlink:title=" ">
<polygon fill="white" stroke="#666666" points="300.5,-201.25 194.5,-201.25 194.5,-180.5 300.5,-180.5 300.5,-201.25"/>
<text text-anchor="middle" x="247.5" y="-187.75" font-family="Helvetica,sans-Serif" font-size="10.00">lspserver::Position</text>
</a>
</g>
</g>
<!-- Node5&#45;&gt;Node4 -->
<g id="edge4_Node000004_Node000005" class="edge">
<title>Node5&#45;&gt;Node4</title>
<g id="a_edge4_Node000004_Node000005"><a xlink:title=" ">
<path fill="none" stroke="#9a32cd" stroke-dasharray="5,2" d="M247.5,-168.77C247.5,-150.08 247.5,-123.65 247.5,-109.49"/>
<polygon fill="#9a32cd" stroke="#9a32cd" points="244,-168.7 247.5,-178.7 251,-168.7 244,-168.7"/>
</a>
</g>
<text text-anchor="start" x="250.5" y="-150" font-family="Helvetica,sans-Serif" font-size="10.00" fill="grey">end</text>
<text text-anchor="start" x="250.5" y="-133.25" font-family="Helvetica,sans-Serif" font-size="10.00" fill="grey">start</text>
</g>
</g>
</svg>
