<?xml version="1.0" encoding="UTF-8" standalone="no"?>
<!DOCTYPE svg PUBLIC "-//W3C//DTD SVG 1.1//EN"
 "http://www.w3.org/Graphics/SVG/1.1/DTD/svg11.dtd">
<!-- Generated by graphviz version 12.2.1 (0)
 -->
<!-- Title: lspserver::InitializeParams Pages: 1 -->
<svg width="317pt" height="193pt"
 viewBox="0.00 0.00 317.12 193.25" xmlns="http://www.w3.org/2000/svg" xmlns:xlink="http://www.w3.org/1999/xlink">
<g id="graph0" class="graph" transform="scale(1 1) rotate(0) translate(4 189.25)">
<title>lspserver::InitializeParams</title>
<!-- Node1 -->
<g id="Node000001" class="node">
<title>Node1</title>
<g id="a_Node000001"><a xlink:title=" ">
<polygon fill="#999999" stroke="#666666" points="190.12,-20.75 45.12,-20.75 45.12,0 190.12,0 190.12,-20.75"/>
<text text-anchor="middle" x="117.62" y="-7.25" font-family="Helvetica,sans-Serif" font-size="10.00">lspserver::InitializeParams</text>
</a>
</g>
</g>
<!-- Node2 -->
<g id="Node000002" class="node">
<title>Node2</title>
<g id="a_Node000002"><a xlink:href="structlspserver_1_1ClientCapabilities.html" target="_top" xlink:title=" ">
<polygon fill="white" stroke="#666666" points="153.25,-96.62 0,-96.62 0,-75.88 153.25,-75.88 153.25,-96.62"/>
<text text-anchor="middle" x="76.62" y="-83.12" font-family="Helvetica,sans-Serif" font-size="10.00">lspserver::ClientCapabilities</text>
</a>
</g>
</g>
<!-- Node2&#45;&gt;Node1 -->
<g id="edge1_Node000001_Node000002" class="edge">
<title>Node2&#45;&gt;Node1</title>
<g id="a_edge1_Node000001_Node000002"><a xlink:title=" ">
<path fill="none" stroke="#9a32cd" stroke-dasharray="5,2" d="M87.52,-65.61C95.57,-51.12 106.16,-32.04 112.39,-20.8"/>
<polygon fill="#9a32cd" stroke="#9a32cd" points="84.51,-63.83 82.72,-74.27 90.63,-67.22 84.51,-63.83"/>
</a>
</g>
<text text-anchor="middle" x="131.63" y="-42" font-family="Helvetica,sans-Serif" font-size="10.00" fill="grey"> capabilities</text>
</g>
<!-- Node3 -->
<g id="Node000003" class="node">
<title>Node3</title>
<g id="a_Node000003"><a xlink:href="structlspserver_1_1InitializationOptions.html" target="_top" xlink:title=" ">
<polygon fill="white" stroke="#666666" points="299.5,-103 171.75,-103 171.75,-69.5 299.5,-69.5 299.5,-103"/>
<text text-anchor="start" x="179.75" y="-89.5" font-family="Helvetica,sans-Serif" font-size="10.00">lspserver::Initialization</text>
<text text-anchor="middle" x="235.62" y="-76.75" font-family="Helvetica,sans-Serif" font-size="10.00">Options</text>
</a>
</g>
</g>
<!-- Node3&#45;&gt;Node1 -->
<g id="edge2_Node000001_Node000003" class="edge">
<title>Node3&#45;&gt;Node1</title>
<g id="a_edge2_Node000001_Node000003"><a xlink:title=" ">
<path fill="none" stroke="#9a32cd" stroke-dasharray="5,2" d="M202.89,-62.84C191.23,-55.04 177.95,-46.35 165.62,-38.75 155.82,-32.71 144.67,-26.32 135.57,-21.23"/>
<polygon fill="#9a32cd" stroke="#9a32cd" points="200.73,-65.6 210.98,-68.29 204.64,-59.8 200.73,-65.6"/>
</a>
</g>
<text text-anchor="middle" x="235.74" y="-42" font-family="Helvetica,sans-Serif" font-size="10.00" fill="grey"> initializationOptions</text>
</g>
<!-- Node4 -->
<g id="Node000004" class="node">
<title>Node4</title>
<g id="a_Node000004"><a xlink:href="structlspserver_1_1ConfigurationSettings.html" target="_top" xlink:title=" ">
<polygon fill="white" stroke="#666666" points="301.75,-185.25 169.5,-185.25 169.5,-151.75 301.75,-151.75 301.75,-185.25"/>
<text text-anchor="start" x="177.5" y="-171.75" font-family="Helvetica,sans-Serif" font-size="10.00">lspserver::Configuration</text>
<text text-anchor="middle" x="235.62" y="-159" font-family="Helvetica,sans-Serif" font-size="10.00">Settings</text>
</a>
</g>
</g>
<!-- Node4&#45;&gt;Node3 -->
<g id="edge3_Node000003_Node000004" class="edge">
<title>Node4&#45;&gt;Node3</title>
<g id="a_edge3_Node000003_Node000004"><a xlink:title=" ">
<path fill="none" stroke="#9a32cd" stroke-dasharray="5,2" d="M235.62,-139.88C235.62,-127.74 235.62,-113.9 235.62,-103.47"/>
<polygon fill="#9a32cd" stroke="#9a32cd" points="232.13,-139.75 235.63,-149.75 239.13,-139.75 232.13,-139.75"/>
</a>
</g>
<text text-anchor="middle" x="272.38" y="-124.25" font-family="Helvetica,sans-Serif" font-size="10.00" fill="grey"> ConfigSettings</text>
</g>
</g>
</svg>
