<?xml version="1.0" encoding="UTF-8" standalone="no"?>
<!DOCTYPE svg PUBLIC "-//W3C//DTD SVG 1.1//EN"
 "http://www.w3.org/Graphics/SVG/1.1/DTD/svg11.dtd">
<!-- Generated by graphviz version 12.2.1 (0)
 -->
<!-- Title: lspserver::TypeHierarchyItem Pages: 1 -->
<svg width="395pt" height="226pt"
 viewBox="0.00 0.00 394.62 226.00" xmlns="http://www.w3.org/2000/svg" xmlns:xlink="http://www.w3.org/1999/xlink">
<g id="graph0" class="graph" transform="scale(1 1) rotate(0) translate(4 222)">
<title>lspserver::TypeHierarchyItem</title>
<!-- Node1 -->
<g id="Node000001" class="node">
<title>Node1</title>
<g id="a_Node000001"><a xlink:title=" ">
<polygon fill="#999999" stroke="#666666" points="262.88,-20.75 103.62,-20.75 103.62,0 262.88,0 262.88,-20.75"/>
<text text-anchor="middle" x="183.25" y="-7.25" font-family="Helvetica,sans-Serif" font-size="10.00">lspserver::TypeHierarchyItem</text>
</a>
</g>
</g>
<!-- Node2 -->
<g id="Node000002" class="node">
<title>Node2</title>
<g id="a_Node000002"><a xlink:href="structlspserver_1_1URIForFile.html" target="_top" xlink:title=" ">
<polygon fill="white" stroke="#666666" points="116.5,-119.38 0,-119.38 0,-98.62 116.5,-98.62 116.5,-119.38"/>
<text text-anchor="middle" x="58.25" y="-105.88" font-family="Helvetica,sans-Serif" font-size="10.00">lspserver::URIForFile</text>
</a>
</g>
</g>
<!-- Node2&#45;&gt;Node1 -->
<g id="edge1_Node000001_Node000002" class="edge">
<title>Node2&#45;&gt;Node1</title>
<g id="a_edge1_Node000001_Node000002"><a xlink:title=" ">
<path fill="none" stroke="#9a32cd" stroke-dasharray="5,2" d="M79.79,-91.35C105.92,-71.15 149.13,-37.75 170.49,-21.24"/>
<polygon fill="#9a32cd" stroke="#9a32cd" points="77.66,-88.57 71.89,-97.46 81.94,-94.11 77.66,-88.57"/>
</a>
</g>
<text text-anchor="start" x="149.31" y="-53.38" font-family="Helvetica,sans-Serif" font-size="10.00" fill="grey">uri</text>
</g>
<!-- Node3 -->
<g id="Node000003" class="node">
<title>Node3</title>
<g id="a_Node000003"><a xlink:href="structlspserver_1_1Range.html" target="_top" xlink:title=" ">
<polygon fill="white" stroke="#666666" points="232.12,-119.38 134.38,-119.38 134.38,-98.62 232.12,-98.62 232.12,-119.38"/>
<text text-anchor="middle" x="183.25" y="-105.88" font-family="Helvetica,sans-Serif" font-size="10.00">lspserver::Range</text>
</a>
</g>
</g>
<!-- Node3&#45;&gt;Node1 -->
<g id="edge2_Node000001_Node000003" class="edge">
<title>Node3&#45;&gt;Node1</title>
<g id="a_edge2_Node000001_Node000003"><a xlink:title=" ">
<path fill="none" stroke="#9a32cd" stroke-dasharray="5,2" d="M183.25,-86.89C183.25,-66.52 183.25,-36.59 183.25,-21.24"/>
<polygon fill="#9a32cd" stroke="#9a32cd" points="179.75,-86.87 183.25,-96.87 186.75,-86.87 179.75,-86.87"/>
</a>
</g>
<text text-anchor="start" x="186.25" y="-61.75" font-family="Helvetica,sans-Serif" font-size="10.00" fill="grey">range</text>
<text text-anchor="start" x="186.25" y="-45" font-family="Helvetica,sans-Serif" font-size="10.00" fill="grey">selectionRange</text>
</g>
<!-- Node4 -->
<g id="Node000004" class="node">
<title>Node4</title>
<g id="a_Node000004"><a xlink:href="structlspserver_1_1Position.html" target="_top" xlink:title=" ">
<polygon fill="white" stroke="#666666" points="236.25,-218 130.25,-218 130.25,-197.25 236.25,-197.25 236.25,-218"/>
<text text-anchor="middle" x="183.25" y="-204.5" font-family="Helvetica,sans-Serif" font-size="10.00">lspserver::Position</text>
</a>
</g>
</g>
<!-- Node4&#45;&gt;Node3 -->
<g id="edge3_Node000003_Node000004" class="edge">
<title>Node4&#45;&gt;Node3</title>
<g id="a_edge3_Node000003_Node000004"><a xlink:title=" ">
<path fill="none" stroke="#9a32cd" stroke-dasharray="5,2" d="M183.25,-185.52C183.25,-165.15 183.25,-135.21 183.25,-119.87"/>
<polygon fill="#9a32cd" stroke="#9a32cd" points="179.75,-185.49 183.25,-195.49 186.75,-185.49 179.75,-185.49"/>
</a>
</g>
<text text-anchor="start" x="186.25" y="-166.75" font-family="Helvetica,sans-Serif" font-size="10.00" fill="grey">end</text>
<text text-anchor="start" x="186.25" y="-150" font-family="Helvetica,sans-Serif" font-size="10.00" fill="grey">start</text>
</g>
<!-- Node5 -->
<g id="Node000005" class="node">
<title>Node5</title>
<g id="a_Node000005"><a xlink:href="structlspserver_1_1TypeHierarchyItem_1_1ResolveParams.html" target="_top" xlink:title="Used to resolve a client provided item back.">
<polygon fill="white" stroke="#666666" points="386.62,-125.75 249.88,-125.75 249.88,-92.25 386.62,-92.25 386.62,-125.75"/>
<text text-anchor="start" x="257.88" y="-112.25" font-family="Helvetica,sans-Serif" font-size="10.00">lspserver::TypeHierarchy</text>
<text text-anchor="middle" x="318.25" y="-99.5" font-family="Helvetica,sans-Serif" font-size="10.00">Item::ResolveParams</text>
</a>
</g>
</g>
<!-- Node5&#45;&gt;Node1 -->
<g id="edge4_Node000001_Node000005" class="edge">
<title>Node5&#45;&gt;Node1</title>
<g id="a_edge4_Node000001_Node000005"><a xlink:title=" ">
<path fill="none" stroke="#9a32cd" stroke-dasharray="5,2" d="M304.92,-82C296.25,-67.43 283.69,-49.97 268.25,-38.75 257.46,-30.91 244.33,-25.25 231.65,-21.19"/>
<polygon fill="#9a32cd" stroke="#9a32cd" points="301.83,-83.65 309.78,-90.65 307.93,-80.22 301.83,-83.65"/>
</a>
</g>
<text text-anchor="start" x="302.12" y="-53.38" font-family="Helvetica,sans-Serif" font-size="10.00" fill="grey">data</text>
</g>
</g>
</svg>
