<?xml version="1.0" encoding="UTF-8" standalone="no"?>
<!DOCTYPE svg PUBLIC "-//W3C//DTD SVG 1.1//EN"
 "http://www.w3.org/Graphics/SVG/1.1/DTD/svg11.dtd">
<!-- Generated by graphviz version 12.2.1 (0)
 -->
<!-- Title: lspserver::CallHierarchyIncomingCallsParams Pages: 1 -->
<svg width="244pt" height="302pt"
 viewBox="0.00 0.00 244.25 301.50" xmlns="http://www.w3.org/2000/svg" xmlns:xlink="http://www.w3.org/1999/xlink">
<g id="graph0" class="graph" transform="scale(1 1) rotate(0) translate(4 297.5)">
<title>lspserver::CallHierarchyIncomingCallsParams</title>
<!-- Node1 -->
<g id="Node000001" class="node">
<title>Node1</title>
<g id="a_Node000001"><a xlink:title="The parameter of a callHierarchy/incomingCalls request.">
<polygon fill="#999999" stroke="#666666" points="145.75,-33.5 12.75,-33.5 12.75,0 145.75,0 145.75,-33.5"/>
<text text-anchor="start" x="20.75" y="-20" font-family="Helvetica,sans-Serif" font-size="10.00">lspserver::CallHierarchy</text>
<text text-anchor="middle" x="79.25" y="-7.25" font-family="Helvetica,sans-Serif" font-size="10.00">IncomingCallsParams</text>
</a>
</g>
</g>
<!-- Node2 -->
<g id="Node000002" class="node">
<title>Node2</title>
<g id="a_Node000002"><a xlink:href="structlspserver_1_1CallHierarchyItem.html" target="_top" xlink:title=" ">
<polygon fill="white" stroke="#666666" points="157,-109 1.5,-109 1.5,-88.25 157,-88.25 157,-109"/>
<text text-anchor="middle" x="79.25" y="-95.5" font-family="Helvetica,sans-Serif" font-size="10.00">lspserver::CallHierarchyItem</text>
</a>
</g>
</g>
<!-- Node2&#45;&gt;Node1 -->
<g id="edge1_Node000001_Node000002" class="edge">
<title>Node2&#45;&gt;Node1</title>
<g id="a_edge1_Node000001_Node000002"><a xlink:title=" ">
<path fill="none" stroke="#9a32cd" stroke-dasharray="5,2" d="M79.25,-76.45C79.25,-63.14 79.25,-46.24 79.25,-34"/>
<polygon fill="#9a32cd" stroke="#9a32cd" points="75.75,-76.32 79.25,-86.32 82.75,-76.32 75.75,-76.32"/>
</a>
</g>
<text text-anchor="start" x="82.25" y="-57.75" font-family="Helvetica,sans-Serif" font-size="10.00" fill="grey">item</text>
</g>
<!-- Node3 -->
<g id="Node000003" class="node">
<title>Node3</title>
<g id="a_Node000003"><a xlink:href="structlspserver_1_1URIForFile.html" target="_top" xlink:title=" ">
<polygon fill="white" stroke="#666666" points="116.5,-201.25 0,-201.25 0,-180.5 116.5,-180.5 116.5,-201.25"/>
<text text-anchor="middle" x="58.25" y="-187.75" font-family="Helvetica,sans-Serif" font-size="10.00">lspserver::URIForFile</text>
</a>
</g>
</g>
<!-- Node3&#45;&gt;Node2 -->
<g id="edge2_Node000002_Node000003" class="edge">
<title>Node3&#45;&gt;Node2</title>
<g id="a_edge2_Node000002_Node000003"><a xlink:title=" ">
<path fill="none" stroke="#9a32cd" stroke-dasharray="5,2" d="M63.1,-169.04C67.45,-150.34 73.64,-123.71 76.96,-109.49"/>
<polygon fill="#9a32cd" stroke="#9a32cd" points="59.7,-168.21 60.84,-178.74 66.52,-169.8 59.7,-168.21"/>
</a>
</g>
<text text-anchor="start" x="75.46" y="-141.62" font-family="Helvetica,sans-Serif" font-size="10.00" fill="grey">uri</text>
</g>
<!-- Node4 -->
<g id="Node000004" class="node">
<title>Node4</title>
<g id="a_Node000004"><a xlink:href="structlspserver_1_1Range.html" target="_top" xlink:title=" ">
<polygon fill="white" stroke="#666666" points="232.12,-201.25 134.38,-201.25 134.38,-180.5 232.12,-180.5 232.12,-201.25"/>
<text text-anchor="middle" x="183.25" y="-187.75" font-family="Helvetica,sans-Serif" font-size="10.00">lspserver::Range</text>
</a>
</g>
</g>
<!-- Node4&#45;&gt;Node2 -->
<g id="edge3_Node000002_Node000004" class="edge">
<title>Node4&#45;&gt;Node2</title>
<g id="a_edge3_Node000002_Node000004"><a xlink:title=" ">
<path fill="none" stroke="#9a32cd" stroke-dasharray="5,2" d="M163.44,-172.68C141.86,-153.96 108.11,-124.67 90.62,-109.49"/>
<polygon fill="#9a32cd" stroke="#9a32cd" points="161.13,-175.31 170.98,-179.22 165.72,-170.03 161.13,-175.31"/>
</a>
</g>
<text text-anchor="start" x="152.61" y="-150" font-family="Helvetica,sans-Serif" font-size="10.00" fill="grey">range</text>
<text text-anchor="start" x="152.61" y="-133.25" font-family="Helvetica,sans-Serif" font-size="10.00" fill="grey">selectionRange</text>
</g>
<!-- Node5 -->
<g id="Node000005" class="node">
<title>Node5</title>
<g id="a_Node000005"><a xlink:href="structlspserver_1_1Position.html" target="_top" xlink:title=" ">
<polygon fill="white" stroke="#666666" points="236.25,-293.5 130.25,-293.5 130.25,-272.75 236.25,-272.75 236.25,-293.5"/>
<text text-anchor="middle" x="183.25" y="-280" font-family="Helvetica,sans-Serif" font-size="10.00">lspserver::Position</text>
</a>
</g>
</g>
<!-- Node5&#45;&gt;Node4 -->
<g id="edge4_Node000004_Node000005" class="edge">
<title>Node5&#45;&gt;Node4</title>
<g id="a_edge4_Node000004_Node000005"><a xlink:title=" ">
<path fill="none" stroke="#9a32cd" stroke-dasharray="5,2" d="M183.25,-261.02C183.25,-242.33 183.25,-215.9 183.25,-201.74"/>
<polygon fill="#9a32cd" stroke="#9a32cd" points="179.75,-260.95 183.25,-270.95 186.75,-260.95 179.75,-260.95"/>
</a>
</g>
<text text-anchor="start" x="186.25" y="-242.25" font-family="Helvetica,sans-Serif" font-size="10.00" fill="grey">end</text>
<text text-anchor="start" x="186.25" y="-225.5" font-family="Helvetica,sans-Serif" font-size="10.00" fill="grey">start</text>
</g>
</g>
</svg>
