<?xml version="1.0" encoding="UTF-8" standalone="no"?>
<!DOCTYPE svg PUBLIC "-//W3C//DTD SVG 1.1//EN"
 "http://www.w3.org/Graphics/SVG/1.1/DTD/svg11.dtd">
<!-- Generated by graphviz version 12.1.2 (0)
 -->
<!-- Title: lspserver::Command Pages: 1 -->
<svg width="164pt" height="169pt"
 viewBox="0.00 0.00 163.50 168.75" xmlns="http://www.w3.org/2000/svg" xmlns:xlink="http://www.w3.org/1999/xlink">
<g id="graph0" class="graph" transform="scale(1 1) rotate(0) translate(4 164.75)">
<title>lspserver::Command</title>
<!-- Node1 -->
<g id="Node000001" class="node">
<title>Node1</title>
<g id="a_Node000001"><a xlink:title=" ">
<polygon fill="#999999" stroke="#666666" points="136.38,-20.75 19.13,-20.75 19.13,0 136.38,0 136.38,-20.75"/>
<text text-anchor="middle" x="77.75" y="-7.25" font-family="Helvetica,sans-Serif" font-size="10.00">lspserver::Command</text>
</a>
</g>
</g>
<!-- Node2 -->
<g id="Node000002" class="node">
<title>Node2</title>
<g id="a_Node000002"><a xlink:href="structlspserver_1_1ExecuteCommandParams.html" target="_top" xlink:title=" ">
<polygon fill="white" stroke="#666666" points="155.5,-91.25 0,-91.25 0,-57.75 155.5,-57.75 155.5,-91.25"/>
<text text-anchor="start" x="8" y="-77.75" font-family="Helvetica,sans-Serif" font-size="10.00">lspserver::ExecuteCommand</text>
<text text-anchor="middle" x="77.75" y="-65" font-family="Helvetica,sans-Serif" font-size="10.00">Params</text>
</a>
</g>
</g>
<!-- Node2&#45;&gt;Node1 -->
<g id="edge1_Node000001_Node000002" class="edge">
<title>Node2&#45;&gt;Node1</title>
<g id="a_edge1_Node000001_Node000002"><a xlink:title=" ">
<path fill="none" stroke="#63b8ff" d="M77.75,-46.23C77.75,-37.27 77.75,-27.89 77.75,-21.12"/>
<polygon fill="#63b8ff" stroke="#63b8ff" points="74.25,-45.99 77.75,-55.99 81.25,-45.99 74.25,-45.99"/>
</a>
</g>
</g>
<!-- Node3 -->
<g id="Node000003" class="node">
<title>Node3</title>
<g id="a_Node000003"><a xlink:title=" ">
<polygon fill="white" stroke="#666666" points="99.25,-160.75 56.25,-160.75 56.25,-140 99.25,-140 99.25,-160.75"/>
<text text-anchor="middle" x="77.75" y="-147.25" font-family="Helvetica,sans-Serif" font-size="10.00">Value</text>
</a>
</g>
</g>
<!-- Node3&#45;&gt;Node2 -->
<g id="edge2_Node000002_Node000003" class="edge">
<title>Node3&#45;&gt;Node2</title>
<g id="a_edge2_Node000002_Node000003"><a xlink:title=" ">
<path fill="none" stroke="#9a32cd" stroke-dasharray="5,2" d="M77.75,-128.38C77.75,-116.72 77.75,-102.44 77.75,-91.66"/>
<polygon fill="#9a32cd" stroke="#9a32cd" points="74.25,-128.2 77.75,-138.2 81.25,-128.2 74.25,-128.2"/>
</a>
</g>
<text text-anchor="middle" x="102.88" y="-112.5" font-family="Helvetica,sans-Serif" font-size="10.00" fill="grey"> argument</text>
</g>
</g>
</svg>
