<?xml version="1.0" encoding="UTF-8" standalone="no"?>
<!DOCTYPE svg PUBLIC "-//W3C//DTD SVG 1.1//EN"
 "http://www.w3.org/Graphics/SVG/1.1/DTD/svg11.dtd">
<!-- Generated by graphviz version 12.2.1 (0)
 -->
<!-- Title: nixd::Configuration Pages: 1 -->
<svg width="315pt" height="146pt"
 viewBox="0.00 0.00 315.25 145.50" xmlns="http://www.w3.org/2000/svg" xmlns:xlink="http://www.w3.org/1999/xlink">
<g id="graph0" class="graph" transform="scale(1 1) rotate(0) translate(4 141.5)">
<title>nixd::Configuration</title>
<!-- Node1 -->
<g id="Node000001" class="node">
<title>Node1</title>
<g id="a_Node000001"><a xlink:title=" ">
<polygon fill="#999999" stroke="#666666" points="307.25,-79.12 199,-79.12 199,-58.38 307.25,-58.38 307.25,-79.12"/>
<text text-anchor="middle" x="253.12" y="-65.62" font-family="Helvetica,sans-Serif" font-size="10.00">nixd::Configuration</text>
</a>
</g>
</g>
<!-- Node2 -->
<g id="Node000002" class="node">
<title>Node2</title>
<g id="a_Node000002"><a xlink:href="structnixd_1_1Configuration_1_1Formatting.html" target="_top" xlink:title=" ">
<polygon fill="white" stroke="#666666" points="108.25,-137.5 0,-137.5 0,-104 108.25,-104 108.25,-137.5"/>
<text text-anchor="start" x="8" y="-124" font-family="Helvetica,sans-Serif" font-size="10.00">nixd::Configuration</text>
<text text-anchor="middle" x="54.12" y="-111.25" font-family="Helvetica,sans-Serif" font-size="10.00">::Formatting</text>
</a>
</g>
</g>
<!-- Node2&#45;&gt;Node1 -->
<g id="edge1_Node000001_Node000002" class="edge">
<title>Node2&#45;&gt;Node1</title>
<g id="a_edge1_Node000001_Node000002"><a xlink:title=" ">
<path fill="none" stroke="#9a32cd" stroke-dasharray="5,2" d="M119.54,-103.75C149.65,-95.8 184.61,-86.57 211.06,-79.59"/>
<polygon fill="#9a32cd" stroke="#9a32cd" points="118.93,-100.29 110.16,-106.22 120.72,-107.06 118.93,-100.29"/>
</a>
</g>
<text text-anchor="middle" x="153.62" y="-104.19" font-family="Helvetica,sans-Serif" font-size="10.00" fill="grey"> formatting</text>
</g>
<!-- Node3 -->
<g id="Node000003" class="node">
<title>Node3</title>
<g id="a_Node000003"><a xlink:href="structnixd_1_1Configuration_1_1NixpkgsProvider.html" target="_top" xlink:title=" ">
<polygon fill="white" stroke="#666666" points="108.25,-85.5 0,-85.5 0,-52 108.25,-52 108.25,-85.5"/>
<text text-anchor="start" x="8" y="-72" font-family="Helvetica,sans-Serif" font-size="10.00">nixd::Configuration</text>
<text text-anchor="middle" x="54.12" y="-59.25" font-family="Helvetica,sans-Serif" font-size="10.00">::NixpkgsProvider</text>
</a>
</g>
</g>
<!-- Node3&#45;&gt;Node1 -->
<g id="edge2_Node000001_Node000003" class="edge">
<title>Node3&#45;&gt;Node1</title>
<g id="a_edge2_Node000001_Node000003"><a xlink:title=" ">
<path fill="none" stroke="#9a32cd" stroke-dasharray="5,2" d="M120.11,-68.75C145.54,-68.75 174.36,-68.75 198.56,-68.75"/>
<polygon fill="#9a32cd" stroke="#9a32cd" points="120.21,-65.25 110.21,-68.75 120.21,-72.25 120.21,-65.25"/>
</a>
</g>
<text text-anchor="middle" x="153.62" y="-72" font-family="Helvetica,sans-Serif" font-size="10.00" fill="grey"> nixpkgs</text>
</g>
<!-- Node4 -->
<g id="Node000004" class="node">
<title>Node4</title>
<g id="a_Node000004"><a xlink:href="structnixd_1_1Configuration_1_1Diagnostic.html" target="_top" xlink:title=" ">
<polygon fill="white" stroke="#666666" points="108.25,-33.5 0,-33.5 0,0 108.25,0 108.25,-33.5"/>
<text text-anchor="start" x="8" y="-20" font-family="Helvetica,sans-Serif" font-size="10.00">nixd::Configuration</text>
<text text-anchor="middle" x="54.12" y="-7.25" font-family="Helvetica,sans-Serif" font-size="10.00">::Diagnostic</text>
</a>
</g>
</g>
<!-- Node4&#45;&gt;Node1 -->
<g id="edge3_Node000001_Node000004" class="edge">
<title>Node4&#45;&gt;Node1</title>
<g id="a_edge3_Node000001_Node000004"><a xlink:title=" ">
<path fill="none" stroke="#9a32cd" stroke-dasharray="5,2" d="M119.54,-33.75C149.65,-41.7 184.61,-50.93 211.06,-57.91"/>
<polygon fill="#9a32cd" stroke="#9a32cd" points="120.72,-30.44 110.16,-31.28 118.93,-37.21 120.72,-30.44"/>
</a>
</g>
<text text-anchor="middle" x="153.62" y="-52.19" font-family="Helvetica,sans-Serif" font-size="10.00" fill="grey"> diagnostic</text>
</g>
</g>
</svg>
