<?xml version="1.0" encoding="UTF-8" standalone="no"?>
<!DOCTYPE svg PUBLIC "-//W3C//DTD SVG 1.1//EN"
 "http://www.w3.org/Graphics/SVG/1.1/DTD/svg11.dtd">
<!-- Generated by graphviz version 12.2.1 (0)
 -->
<!-- Title: lspserver::ReferenceLocation Pages: 1 -->
<svg width="244pt" height="254pt"
 viewBox="0.00 0.00 244.25 254.25" xmlns="http://www.w3.org/2000/svg" xmlns:xlink="http://www.w3.org/1999/xlink">
<g id="graph0" class="graph" transform="scale(1 1) rotate(0) translate(4 250.25)">
<title>lspserver::ReferenceLocation</title>
<!-- Node1 -->
<g id="Node000001" class="node">
<title>Node1</title>
<g id="a_Node000001"><a xlink:title=" ">
<polygon fill="#999999" stroke="#666666" points="158.12,-20.75 0.38,-20.75 0.38,0 158.12,0 158.12,-20.75"/>
<text text-anchor="middle" x="79.25" y="-7.25" font-family="Helvetica,sans-Serif" font-size="10.00">lspserver::ReferenceLocation</text>
</a>
</g>
</g>
<!-- Node2 -->
<g id="Node000002" class="node">
<title>Node2</title>
<g id="a_Node000002"><a xlink:href="structlspserver_1_1Location.html" target="_top" xlink:title=" ">
<polygon fill="white" stroke="#666666" points="133.38,-78.5 25.12,-78.5 25.12,-57.75 133.38,-57.75 133.38,-78.5"/>
<text text-anchor="middle" x="79.25" y="-65" font-family="Helvetica,sans-Serif" font-size="10.00">lspserver::Location</text>
</a>
</g>
</g>
<!-- Node2&#45;&gt;Node1 -->
<g id="edge1_Node000001_Node000002" class="edge">
<title>Node2&#45;&gt;Node1</title>
<g id="a_edge1_Node000001_Node000002"><a xlink:title=" ">
<path fill="none" stroke="#63b8ff" d="M79.25,-46.18C79.25,-37.52 79.25,-27.9 79.25,-20.97"/>
<polygon fill="#63b8ff" stroke="#63b8ff" points="75.75,-45.9 79.25,-55.9 82.75,-45.9 75.75,-45.9"/>
</a>
</g>
</g>
<!-- Node3 -->
<g id="Node000003" class="node">
<title>Node3</title>
<g id="a_Node000003"><a xlink:href="structlspserver_1_1URIForFile.html" target="_top" xlink:title=" ">
<polygon fill="white" stroke="#666666" points="116.5,-154 0,-154 0,-133.25 116.5,-133.25 116.5,-154"/>
<text text-anchor="middle" x="58.25" y="-140.5" font-family="Helvetica,sans-Serif" font-size="10.00">lspserver::URIForFile</text>
</a>
</g>
</g>
<!-- Node3&#45;&gt;Node2 -->
<g id="edge2_Node000002_Node000003" class="edge">
<title>Node3&#45;&gt;Node2</title>
<g id="a_edge2_Node000002_Node000003"><a xlink:title=" ">
<path fill="none" stroke="#9a32cd" stroke-dasharray="5,2" d="M64.04,-122.36C68.07,-108.24 73.28,-90.02 76.44,-78.97"/>
<polygon fill="#9a32cd" stroke="#9a32cd" points="60.79,-120.98 61.41,-131.56 67.52,-122.91 60.79,-120.98"/>
</a>
</g>
<text text-anchor="start" x="74.25" y="-102.75" font-family="Helvetica,sans-Serif" font-size="10.00" fill="grey">uri</text>
</g>
<!-- Node4 -->
<g id="Node000004" class="node">
<title>Node4</title>
<g id="a_Node000004"><a xlink:href="structlspserver_1_1Range.html" target="_top" xlink:title=" ">
<polygon fill="white" stroke="#666666" points="232.12,-154 134.38,-154 134.38,-133.25 232.12,-133.25 232.12,-154"/>
<text text-anchor="middle" x="183.25" y="-140.5" font-family="Helvetica,sans-Serif" font-size="10.00">lspserver::Range</text>
</a>
</g>
</g>
<!-- Node4&#45;&gt;Node2 -->
<g id="edge3_Node000002_Node000004" class="edge">
<title>Node4&#45;&gt;Node2</title>
<g id="a_edge3_Node000002_Node000004"><a xlink:title=" ">
<path fill="none" stroke="#9a32cd" stroke-dasharray="5,2" d="M160.39,-126.47C139.86,-111.96 110.38,-91.12 93.18,-78.97"/>
<polygon fill="#9a32cd" stroke="#9a32cd" points="158.23,-129.23 168.42,-132.14 162.27,-123.51 158.23,-129.23"/>
</a>
</g>
<text text-anchor="start" x="146.62" y="-102.75" font-family="Helvetica,sans-Serif" font-size="10.00" fill="grey">range</text>
</g>
<!-- Node5 -->
<g id="Node000005" class="node">
<title>Node5</title>
<g id="a_Node000005"><a xlink:href="structlspserver_1_1Position.html" target="_top" xlink:title=" ">
<polygon fill="white" stroke="#666666" points="236.25,-246.25 130.25,-246.25 130.25,-225.5 236.25,-225.5 236.25,-246.25"/>
<text text-anchor="middle" x="183.25" y="-232.75" font-family="Helvetica,sans-Serif" font-size="10.00">lspserver::Position</text>
</a>
</g>
</g>
<!-- Node5&#45;&gt;Node4 -->
<g id="edge4_Node000004_Node000005" class="edge">
<title>Node5&#45;&gt;Node4</title>
<g id="a_edge4_Node000004_Node000005"><a xlink:title=" ">
<path fill="none" stroke="#9a32cd" stroke-dasharray="5,2" d="M183.25,-213.77C183.25,-195.08 183.25,-168.65 183.25,-154.49"/>
<polygon fill="#9a32cd" stroke="#9a32cd" points="179.75,-213.7 183.25,-223.7 186.75,-213.7 179.75,-213.7"/>
</a>
</g>
<text text-anchor="start" x="186.25" y="-195" font-family="Helvetica,sans-Serif" font-size="10.00" fill="grey">end</text>
<text text-anchor="start" x="186.25" y="-178.25" font-family="Helvetica,sans-Serif" font-size="10.00" fill="grey">start</text>
</g>
</g>
</svg>
