<?xml version="1.0" encoding="UTF-8" standalone="no"?>
<!DOCTYPE svg PUBLIC "-//W3C//DTD SVG 1.1//EN"
 "http://www.w3.org/Graphics/SVG/1.1/DTD/svg11.dtd">
<!-- Generated by graphviz version 12.2.1 (0)
 -->
<!-- Title: lspserver::CallHierarchyItem Pages: 1 -->
<svg width="245pt" height="193pt"
 viewBox="0.00 0.00 244.75 193.25" xmlns="http://www.w3.org/2000/svg" xmlns:xlink="http://www.w3.org/1999/xlink">
<g id="graph0" class="graph" transform="scale(1 1) rotate(0) translate(4 189.25)">
<title>lspserver::CallHierarchyItem</title>
<!-- Node1 -->
<g id="Node000001" class="node">
<title>Node1</title>
<g id="a_Node000001"><a xlink:title=" ">
<polygon fill="#999999" stroke="#666666" points="155.5,-20.75 0,-20.75 0,0 155.5,0 155.5,-20.75"/>
<text text-anchor="middle" x="77.75" y="-7.25" font-family="Helvetica,sans-Serif" font-size="10.00">lspserver::CallHierarchyItem</text>
</a>
</g>
</g>
<!-- Node2 -->
<g id="Node000002" class="node">
<title>Node2</title>
<g id="a_Node000002"><a xlink:href="structlspserver_1_1URIForFile.html" target="_top" xlink:title=" ">
<polygon fill="white" stroke="#666666" points="117,-103 0.5,-103 0.5,-82.25 117,-82.25 117,-103"/>
<text text-anchor="middle" x="58.75" y="-89.5" font-family="Helvetica,sans-Serif" font-size="10.00">lspserver::URIForFile</text>
</a>
</g>
</g>
<!-- Node2&#45;&gt;Node1 -->
<g id="edge1_Node000001_Node000002" class="edge">
<title>Node2&#45;&gt;Node1</title>
<g id="a_edge1_Node000001_Node000002"><a xlink:title=" ">
<path fill="none" stroke="#9a32cd" stroke-dasharray="5,2" d="M63.69,-70.74C67.52,-54.59 72.63,-32.99 75.52,-20.8"/>
<polygon fill="#9a32cd" stroke="#9a32cd" points="60.33,-69.77 61.43,-80.31 67.14,-71.39 60.33,-69.77"/>
</a>
</g>
<text text-anchor="middle" x="78.94" y="-48.38" font-family="Helvetica,sans-Serif" font-size="10.00" fill="grey"> uri</text>
</g>
<!-- Node3 -->
<g id="Node000003" class="node">
<title>Node3</title>
<g id="a_Node000003"><a xlink:href="structlspserver_1_1Range.html" target="_top" xlink:title=" ">
<polygon fill="white" stroke="#666666" points="232.62,-103 134.88,-103 134.88,-82.25 232.62,-82.25 232.62,-103"/>
<text text-anchor="middle" x="183.75" y="-89.5" font-family="Helvetica,sans-Serif" font-size="10.00">lspserver::Range</text>
</a>
</g>
</g>
<!-- Node3&#45;&gt;Node1 -->
<g id="edge2_Node000001_Node000003" class="edge">
<title>Node3&#45;&gt;Node1</title>
<g id="a_edge2_Node000001_Node000003"><a xlink:title=" ">
<path fill="none" stroke="#9a32cd" stroke-dasharray="5,2" d="M161.69,-74.92C140.15,-58.62 108.14,-34.38 90.52,-21.05"/>
<polygon fill="#9a32cd" stroke="#9a32cd" points="159.46,-77.63 169.55,-80.87 163.69,-72.04 159.46,-77.63"/>
</a>
</g>
<text text-anchor="middle" x="183.94" y="-54.75" font-family="Helvetica,sans-Serif" font-size="10.00" fill="grey"> range</text>
<text text-anchor="middle" x="183.94" y="-42" font-family="Helvetica,sans-Serif" font-size="10.00" fill="grey">selectionRange</text>
</g>
<!-- Node4 -->
<g id="Node000004" class="node">
<title>Node4</title>
<g id="a_Node000004"><a xlink:href="structlspserver_1_1Position.html" target="_top" xlink:title=" ">
<polygon fill="white" stroke="#666666" points="236.75,-185.25 130.75,-185.25 130.75,-164.5 236.75,-164.5 236.75,-185.25"/>
<text text-anchor="middle" x="183.75" y="-171.75" font-family="Helvetica,sans-Serif" font-size="10.00">lspserver::Position</text>
</a>
</g>
</g>
<!-- Node4&#45;&gt;Node3 -->
<g id="edge3_Node000003_Node000004" class="edge">
<title>Node4&#45;&gt;Node3</title>
<g id="a_edge3_Node000003_Node000004"><a xlink:title=" ">
<path fill="none" stroke="#9a32cd" stroke-dasharray="5,2" d="M183.75,-152.99C183.75,-136.84 183.75,-115.24 183.75,-103.05"/>
<polygon fill="#9a32cd" stroke="#9a32cd" points="180.25,-152.52 183.75,-162.52 187.25,-152.52 180.25,-152.52"/>
</a>
</g>
<text text-anchor="middle" x="195" y="-137" font-family="Helvetica,sans-Serif" font-size="10.00" fill="grey"> end</text>
<text text-anchor="middle" x="195" y="-124.25" font-family="Helvetica,sans-Serif" font-size="10.00" fill="grey">start</text>
</g>
</g>
</svg>
