<?xml version="1.0" encoding="UTF-8" standalone="no"?>
<!DOCTYPE svg PUBLIC "-//W3C//DTD SVG 1.1//EN"
 "http://www.w3.org/Graphics/SVG/1.1/DTD/svg11.dtd">
<!-- Generated by graphviz version 12.2.1 (0)
 -->
<!-- Title: lspserver::DidOpenTextDocumentParams Pages: 1 -->
<svg width="188pt" height="181pt"
 viewBox="0.00 0.00 187.50 180.50" xmlns="http://www.w3.org/2000/svg" xmlns:xlink="http://www.w3.org/1999/xlink">
<g id="graph0" class="graph" transform="scale(1 1) rotate(0) translate(4 176.5)">
<title>lspserver::DidOpenTextDocumentParams</title>
<!-- Node1 -->
<g id="Node000001" class="node">
<title>Node1</title>
<g id="a_Node000001"><a xlink:title=" ">
<polygon fill="#999999" stroke="#666666" points="179.5,-33.5 0,-33.5 0,0 179.5,0 179.5,-33.5"/>
<text text-anchor="start" x="8" y="-20" font-family="Helvetica,sans-Serif" font-size="10.00">lspserver::DidOpenTextDocument</text>
<text text-anchor="middle" x="89.75" y="-7.25" font-family="Helvetica,sans-Serif" font-size="10.00">Params</text>
</a>
</g>
</g>
<!-- Node2 -->
<g id="Node000002" class="node">
<title>Node2</title>
<g id="a_Node000002"><a xlink:href="structlspserver_1_1TextDocumentItem.html" target="_top" xlink:title=" ">
<polygon fill="white" stroke="#666666" points="169.75,-103 9.75,-103 9.75,-82.25 169.75,-82.25 169.75,-103"/>
<text text-anchor="middle" x="89.75" y="-89.5" font-family="Helvetica,sans-Serif" font-size="10.00">lspserver::TextDocumentItem</text>
</a>
</g>
</g>
<!-- Node2&#45;&gt;Node1 -->
<g id="edge1_Node000001_Node000002" class="edge">
<title>Node2&#45;&gt;Node1</title>
<g id="a_edge1_Node000001_Node000002"><a xlink:title=" ">
<path fill="none" stroke="#9a32cd" stroke-dasharray="5,2" d="M89.75,-70.63C89.75,-58.97 89.75,-44.69 89.75,-33.91"/>
<polygon fill="#9a32cd" stroke="#9a32cd" points="86.25,-70.45 89.75,-80.45 93.25,-70.45 86.25,-70.45"/>
</a>
</g>
<text text-anchor="middle" x="126.12" y="-54.75" font-family="Helvetica,sans-Serif" font-size="10.00" fill="grey"> textDocument</text>
</g>
<!-- Node3 -->
<g id="Node000003" class="node">
<title>Node3</title>
<g id="a_Node000003"><a xlink:href="structlspserver_1_1URIForFile.html" target="_top" xlink:title=" ">
<polygon fill="white" stroke="#666666" points="148,-172.5 31.5,-172.5 31.5,-151.75 148,-151.75 148,-172.5"/>
<text text-anchor="middle" x="89.75" y="-159" font-family="Helvetica,sans-Serif" font-size="10.00">lspserver::URIForFile</text>
</a>
</g>
</g>
<!-- Node3&#45;&gt;Node2 -->
<g id="edge2_Node000002_Node000003" class="edge">
<title>Node3&#45;&gt;Node2</title>
<g id="a_edge2_Node000002_Node000003"><a xlink:title=" ">
<path fill="none" stroke="#9a32cd" stroke-dasharray="5,2" d="M89.75,-140.32C89.75,-127.97 89.75,-112.9 89.75,-103.28"/>
<polygon fill="#9a32cd" stroke="#9a32cd" points="86.25,-139.94 89.75,-149.94 93.25,-139.94 86.25,-139.94"/>
</a>
</g>
<text text-anchor="middle" x="97.62" y="-124.25" font-family="Helvetica,sans-Serif" font-size="10.00" fill="grey"> uri</text>
</g>
</g>
</svg>
