<?xml version="1.0" encoding="UTF-8" standalone="no"?>
<!DOCTYPE svg PUBLIC "-//W3C//DTD SVG 1.1//EN"
 "http://www.w3.org/Graphics/SVG/1.1/DTD/svg11.dtd">
<!-- Generated by graphviz version 12.2.1 (0)
 -->
<!-- Title: nixd::AttrPathInfoResponse Pages: 1 -->
<svg width="260pt" height="98pt"
 viewBox="0.00 0.00 259.50 98.25" xmlns="http://www.w3.org/2000/svg" xmlns:xlink="http://www.w3.org/1999/xlink">
<g id="graph0" class="graph" transform="scale(1 1) rotate(0) translate(4 94.25)">
<title>nixd::AttrPathInfoResponse</title>
<!-- Node1 -->
<g id="Node000001" class="node">
<title>Node1</title>
<g id="a_Node000001"><a xlink:title=" ">
<polygon fill="#999999" stroke="#666666" points="188.38,-20.75 40.38,-20.75 40.38,0 188.38,0 188.38,-20.75"/>
<text text-anchor="middle" x="114.38" y="-7.25" font-family="Helvetica,sans-Serif" font-size="10.00">nixd::AttrPathInfoResponse</text>
</a>
</g>
</g>
<!-- Node2 -->
<g id="Node000002" class="node">
<title>Node2</title>
<g id="a_Node000002"><a xlink:href="structnixd_1_1ValueMeta.html" target="_top" xlink:title="General metadata of all nix::Values.">
<polygon fill="white" stroke="#666666" points="94.75,-90.25 0,-90.25 0,-69.5 94.75,-69.5 94.75,-90.25"/>
<text text-anchor="middle" x="47.38" y="-76.75" font-family="Helvetica,sans-Serif" font-size="10.00">nixd::ValueMeta</text>
</a>
</g>
</g>
<!-- Node2&#45;&gt;Node1 -->
<g id="edge1_Node000001_Node000002" class="edge">
<title>Node2&#45;&gt;Node1</title>
<g id="a_edge1_Node000001_Node000002"><a xlink:title=" ">
<path fill="none" stroke="#9a32cd" stroke-dasharray="5,2" d="M65.03,-61.09C77.76,-48.27 94.45,-31.45 104.79,-21.03"/>
<polygon fill="#9a32cd" stroke="#9a32cd" points="62.6,-58.57 58.04,-68.13 67.57,-63.5 62.6,-58.57"/>
</a>
</g>
<text text-anchor="middle" x="100.75" y="-42" font-family="Helvetica,sans-Serif" font-size="10.00" fill="grey"> Meta</text>
</g>
<!-- Node3 -->
<g id="Node000003" class="node">
<title>Node3</title>
<g id="a_Node000003"><a xlink:href="structnixd_1_1PackageDescription.html" target="_top" xlink:title=" ">
<polygon fill="white" stroke="#666666" points="251.5,-90.25 113.25,-90.25 113.25,-69.5 251.5,-69.5 251.5,-90.25"/>
<text text-anchor="middle" x="182.38" y="-76.75" font-family="Helvetica,sans-Serif" font-size="10.00">nixd::PackageDescription</text>
</a>
</g>
</g>
<!-- Node3&#45;&gt;Node1 -->
<g id="edge2_Node000001_Node000003" class="edge">
<title>Node3&#45;&gt;Node1</title>
<g id="a_edge2_Node000001_Node000003"><a xlink:title=" ">
<path fill="none" stroke="#9a32cd" stroke-dasharray="5,2" d="M164.83,-61.46C151.87,-48.59 134.7,-31.55 124.1,-21.03"/>
<polygon fill="#9a32cd" stroke="#9a32cd" points="162,-63.58 171.56,-68.14 166.93,-58.61 162,-63.58"/>
</a>
</g>
<text text-anchor="middle" x="187.84" y="-42" font-family="Helvetica,sans-Serif" font-size="10.00" fill="grey"> PackageDesc</text>
</g>
</g>
</svg>
