<?xml version="1.0" encoding="UTF-8" standalone="no"?>
<!DOCTYPE svg PUBLIC "-//W3C//DTD SVG 1.1//EN"
 "http://www.w3.org/Graphics/SVG/1.1/DTD/svg11.dtd">
<!-- Generated by graphviz version 12.2.1 (0)
 -->
<!-- Title: lspserver::InitializeParams Pages: 1 -->
<svg width="320pt" height="205pt"
 viewBox="0.00 0.00 320.12 205.25" xmlns="http://www.w3.org/2000/svg" xmlns:xlink="http://www.w3.org/1999/xlink">
<g id="graph0" class="graph" transform="scale(1 1) rotate(0) translate(4 201.25)">
<title>lspserver::InitializeParams</title>
<!-- Node1 -->
<g id="Node000001" class="node">
<title>Node1</title>
<g id="a_Node000001"><a xlink:title=" ">
<polygon fill="#999999" stroke="#666666" points="191.12,-20.75 46.12,-20.75 46.12,0 191.12,0 191.12,-20.75"/>
<text text-anchor="middle" x="118.62" y="-7.25" font-family="Helvetica,sans-Serif" font-size="10.00">lspserver::InitializeParams</text>
</a>
</g>
</g>
<!-- Node2 -->
<g id="Node000002" class="node">
<title>Node2</title>
<g id="a_Node000002"><a xlink:href="structlspserver_1_1ClientCapabilities.html" target="_top" xlink:title=" ">
<polygon fill="white" stroke="#666666" points="153.25,-102.62 0,-102.62 0,-81.88 153.25,-81.88 153.25,-102.62"/>
<text text-anchor="middle" x="76.62" y="-89.12" font-family="Helvetica,sans-Serif" font-size="10.00">lspserver::ClientCapabilities</text>
</a>
</g>
</g>
<!-- Node2&#45;&gt;Node1 -->
<g id="edge1_Node000001_Node000002" class="edge">
<title>Node2&#45;&gt;Node1</title>
<g id="a_edge1_Node000001_Node000002"><a xlink:title=" ">
<path fill="none" stroke="#9a32cd" stroke-dasharray="5,2" d="M87,-71.52C95.39,-55.56 106.86,-33.75 113.43,-21.25"/>
<polygon fill="#9a32cd" stroke="#9a32cd" points="84.04,-69.64 82.48,-80.12 90.23,-72.89 84.04,-69.64"/>
</a>
</g>
<text text-anchor="start" x="106.84" y="-45" font-family="Helvetica,sans-Serif" font-size="10.00" fill="grey">capabilities</text>
</g>
<!-- Node3 -->
<g id="Node000003" class="node">
<title>Node3</title>
<g id="a_Node000003"><a xlink:href="structlspserver_1_1InitializationOptions.html" target="_top" xlink:title=" ">
<polygon fill="white" stroke="#666666" points="299.5,-109 171.75,-109 171.75,-75.5 299.5,-75.5 299.5,-109"/>
<text text-anchor="start" x="179.75" y="-95.5" font-family="Helvetica,sans-Serif" font-size="10.00">lspserver::Initialization</text>
<text text-anchor="middle" x="235.62" y="-82.75" font-family="Helvetica,sans-Serif" font-size="10.00">Options</text>
</a>
</g>
</g>
<!-- Node3&#45;&gt;Node1 -->
<g id="edge2_Node000001_Node000003" class="edge">
<title>Node3&#45;&gt;Node1</title>
<g id="a_edge2_Node000001_Node000003"><a xlink:title=" ">
<path fill="none" stroke="#9a32cd" stroke-dasharray="5,2" d="M208.48,-67.85C196.87,-58.33 182.94,-47.52 169.62,-38.75 159.89,-32.34 148.5,-26.12 138.97,-21.23"/>
<polygon fill="#9a32cd" stroke="#9a32cd" points="206.16,-70.47 216.08,-74.18 210.64,-65.09 206.16,-70.47"/>
</a>
</g>
<text text-anchor="start" x="197.06" y="-45" font-family="Helvetica,sans-Serif" font-size="10.00" fill="grey">initializationOptions</text>
</g>
<!-- Node4 -->
<g id="Node000004" class="node">
<title>Node4</title>
<g id="a_Node000004"><a xlink:href="structlspserver_1_1ConfigurationSettings.html" target="_top" xlink:title=" ">
<polygon fill="white" stroke="#666666" points="301.75,-197.25 169.5,-197.25 169.5,-163.75 301.75,-163.75 301.75,-197.25"/>
<text text-anchor="start" x="177.5" y="-183.75" font-family="Helvetica,sans-Serif" font-size="10.00">lspserver::Configuration</text>
<text text-anchor="middle" x="235.62" y="-171" font-family="Helvetica,sans-Serif" font-size="10.00">Settings</text>
</a>
</g>
</g>
<!-- Node4&#45;&gt;Node3 -->
<g id="edge3_Node000003_Node000004" class="edge">
<title>Node4&#45;&gt;Node3</title>
<g id="a_edge3_Node000003_Node000004"><a xlink:title=" ">
<path fill="none" stroke="#9a32cd" stroke-dasharray="5,2" d="M235.62,-151.8C235.62,-137.8 235.62,-121.31 235.62,-109.4"/>
<polygon fill="#9a32cd" stroke="#9a32cd" points="232.13,-151.76 235.63,-161.76 239.13,-151.76 232.13,-151.76"/>
</a>
</g>
<text text-anchor="start" x="238.62" y="-133.25" font-family="Helvetica,sans-Serif" font-size="10.00" fill="grey">ConfigSettings</text>
</g>
</g>
</svg>
