<?xml version="1.0" encoding="UTF-8" standalone="no"?>
<!DOCTYPE svg PUBLIC "-//W3C//DTD SVG 1.1//EN"
 "http://www.w3.org/Graphics/SVG/1.1/DTD/svg11.dtd">
<!-- Generated by graphviz version 12.2.1 (0)
 -->
<!-- Title: lspserver::InlayHint Pages: 1 -->
<svg width="209pt" height="197pt"
 viewBox="0.00 0.00 208.50 196.50" xmlns="http://www.w3.org/2000/svg" xmlns:xlink="http://www.w3.org/1999/xlink">
<g id="graph0" class="graph" transform="scale(1 1) rotate(0) translate(4 192.5)">
<title>lspserver::InlayHint</title>
<!-- Node1 -->
<g id="Node000001" class="node">
<title>Node1</title>
<g id="a_Node000001"><a xlink:title="Inlay hint information.">
<polygon fill="#999999" stroke="#666666" points="111.25,-20.75 0,-20.75 0,0 111.25,0 111.25,-20.75"/>
<text text-anchor="middle" x="55.62" y="-7.25" font-family="Helvetica,sans-Serif" font-size="10.00">lspserver::InlayHint</text>
</a>
</g>
</g>
<!-- Node2 -->
<g id="Node000002" class="node">
<title>Node2</title>
<g id="a_Node000002"><a xlink:href="structlspserver_1_1Position.html" target="_top" xlink:title=" ">
<polygon fill="white" stroke="#666666" points="108.62,-188.5 2.62,-188.5 2.62,-167.75 108.62,-167.75 108.62,-188.5"/>
<text text-anchor="middle" x="55.62" y="-175" font-family="Helvetica,sans-Serif" font-size="10.00">lspserver::Position</text>
</a>
</g>
</g>
<!-- Node2&#45;&gt;Node1 -->
<g id="edge1_Node000001_Node000002" class="edge">
<title>Node2&#45;&gt;Node1</title>
<g id="a_edge1_Node000001_Node000002"><a xlink:title=" ">
<path fill="none" stroke="#9a32cd" stroke-dasharray="5,2" d="M52.67,-156.18C50.14,-135.64 47.1,-103.43 48.62,-75.5 49.68,-56.04 52.54,-33.41 54.26,-20.91"/>
<polygon fill="#9a32cd" stroke="#9a32cd" points="49.17,-156.36 53.95,-165.82 56.11,-155.45 49.17,-156.36"/>
</a>
</g>
<text text-anchor="start" x="51.62" y="-82.75" font-family="Helvetica,sans-Serif" font-size="10.00" fill="grey">position</text>
</g>
<!-- Node3 -->
<g id="Node000003" class="node">
<title>Node3</title>
<g id="a_Node000003"><a xlink:href="structlspserver_1_1Range.html" target="_top" xlink:title=" ">
<polygon fill="white" stroke="#666666" points="200.5,-96.25 102.75,-96.25 102.75,-75.5 200.5,-75.5 200.5,-96.25"/>
<text text-anchor="middle" x="151.62" y="-82.75" font-family="Helvetica,sans-Serif" font-size="10.00">lspserver::Range</text>
</a>
</g>
</g>
<!-- Node2&#45;&gt;Node3 -->
<g id="edge3_Node000003_Node000002" class="edge">
<title>Node2&#45;&gt;Node3</title>
<g id="a_edge3_Node000003_Node000002"><a xlink:title=" ">
<path fill="none" stroke="#9a32cd" stroke-dasharray="5,2" d="M74.18,-159.68C94.11,-140.95 125.06,-111.85 141.13,-96.74"/>
<polygon fill="#9a32cd" stroke="#9a32cd" points="71.89,-157.03 67,-166.43 76.68,-162.13 71.89,-157.03"/>
</a>
</g>
<text text-anchor="start" x="123.57" y="-137.25" font-family="Helvetica,sans-Serif" font-size="10.00" fill="grey">end</text>
<text text-anchor="start" x="123.57" y="-120.5" font-family="Helvetica,sans-Serif" font-size="10.00" fill="grey">start</text>
</g>
<!-- Node3&#45;&gt;Node1 -->
<g id="edge2_Node000001_Node000003" class="edge">
<title>Node3&#45;&gt;Node1</title>
<g id="a_edge2_Node000001_Node000003"><a xlink:title=" ">
<path fill="none" stroke="#9a32cd" stroke-dasharray="5,2" d="M130,-68.32C111.08,-53.83 84.21,-33.26 68.48,-21.22"/>
<polygon fill="#9a32cd" stroke="#9a32cd" points="127.81,-71.05 137.87,-74.35 132.06,-65.49 127.81,-71.05"/>
</a>
</g>
<text text-anchor="start" x="118.05" y="-45" font-family="Helvetica,sans-Serif" font-size="10.00" fill="grey">range</text>
</g>
</g>
</svg>
