<?xml version="1.0" encoding="UTF-8" standalone="no"?>
<!DOCTYPE svg PUBLIC "-//W3C//DTD SVG 1.1//EN"
 "http://www.w3.org/Graphics/SVG/1.1/DTD/svg11.dtd">
<!-- Generated by graphviz version 12.2.1 (0)
 -->
<!-- Title: lspserver::DiagnosticRelatedInformation Pages: 1 -->
<svg width="245pt" height="263pt"
 viewBox="0.00 0.00 245.12 262.75" xmlns="http://www.w3.org/2000/svg" xmlns:xlink="http://www.w3.org/1999/xlink">
<g id="graph0" class="graph" transform="scale(1 1) rotate(0) translate(4 258.75)">
<title>lspserver::DiagnosticRelatedInformation</title>
<!-- Node1 -->
<g id="Node000001" class="node">
<title>Node1</title>
<g id="a_Node000001"><a xlink:title=" ">
<polygon fill="#999999" stroke="#666666" points="156.25,-33.5 0,-33.5 0,0 156.25,0 156.25,-33.5"/>
<text text-anchor="start" x="8" y="-20" font-family="Helvetica,sans-Serif" font-size="10.00">lspserver::DiagnosticRelated</text>
<text text-anchor="middle" x="78.12" y="-7.25" font-family="Helvetica,sans-Serif" font-size="10.00">Information</text>
</a>
</g>
</g>
<!-- Node2 -->
<g id="Node000002" class="node">
<title>Node2</title>
<g id="a_Node000002"><a xlink:href="structlspserver_1_1Location.html" target="_top" xlink:title=" ">
<polygon fill="white" stroke="#666666" points="132.25,-103 24,-103 24,-82.25 132.25,-82.25 132.25,-103"/>
<text text-anchor="middle" x="78.12" y="-89.5" font-family="Helvetica,sans-Serif" font-size="10.00">lspserver::Location</text>
</a>
</g>
</g>
<!-- Node2&#45;&gt;Node1 -->
<g id="edge1_Node000001_Node000002" class="edge">
<title>Node2&#45;&gt;Node1</title>
<g id="a_edge1_Node000001_Node000002"><a xlink:title=" ">
<path fill="none" stroke="#9a32cd" stroke-dasharray="5,2" d="M78.12,-70.63C78.12,-58.97 78.12,-44.69 78.12,-33.91"/>
<polygon fill="#9a32cd" stroke="#9a32cd" points="74.63,-70.45 78.13,-80.45 81.63,-70.45 74.63,-70.45"/>
</a>
</g>
<text text-anchor="middle" x="99.12" y="-54.75" font-family="Helvetica,sans-Serif" font-size="10.00" fill="grey"> location</text>
</g>
<!-- Node3 -->
<g id="Node000003" class="node">
<title>Node3</title>
<g id="a_Node000003"><a xlink:href="structlspserver_1_1URIForFile.html" target="_top" xlink:title=" ">
<polygon fill="white" stroke="#666666" points="117.38,-172.5 0.88,-172.5 0.88,-151.75 117.38,-151.75 117.38,-172.5"/>
<text text-anchor="middle" x="59.12" y="-159" font-family="Helvetica,sans-Serif" font-size="10.00">lspserver::URIForFile</text>
</a>
</g>
</g>
<!-- Node3&#45;&gt;Node2 -->
<g id="edge2_Node000002_Node000003" class="edge">
<title>Node3&#45;&gt;Node2</title>
<g id="a_edge2_Node000002_Node000003"><a xlink:title=" ">
<path fill="none" stroke="#9a32cd" stroke-dasharray="5,2" d="M64.87,-140.7C68.37,-128.28 72.67,-113 75.41,-103.28"/>
<polygon fill="#9a32cd" stroke="#9a32cd" points="61.6,-139.42 62.26,-150 68.34,-141.32 61.6,-139.42"/>
</a>
</g>
<text text-anchor="middle" x="78.2" y="-124.25" font-family="Helvetica,sans-Serif" font-size="10.00" fill="grey"> uri</text>
</g>
<!-- Node4 -->
<g id="Node000004" class="node">
<title>Node4</title>
<g id="a_Node000004"><a xlink:href="structlspserver_1_1Range.html" target="_top" xlink:title=" ">
<polygon fill="white" stroke="#666666" points="233,-172.5 135.25,-172.5 135.25,-151.75 233,-151.75 233,-172.5"/>
<text text-anchor="middle" x="184.12" y="-159" font-family="Helvetica,sans-Serif" font-size="10.00">lspserver::Range</text>
</a>
</g>
</g>
<!-- Node4&#45;&gt;Node2 -->
<g id="edge3_Node000002_Node000004" class="edge">
<title>Node4&#45;&gt;Node2</title>
<g id="a_edge3_Node000002_Node000004"><a xlink:title=" ">
<path fill="none" stroke="#9a32cd" stroke-dasharray="5,2" d="M159.4,-145.38C139.07,-132.44 110.9,-114.5 93.63,-103.5"/>
<polygon fill="#9a32cd" stroke="#9a32cd" points="157.35,-148.22 167.66,-150.64 161.11,-142.32 157.35,-148.22"/>
</a>
</g>
<text text-anchor="middle" x="155.99" y="-124.25" font-family="Helvetica,sans-Serif" font-size="10.00" fill="grey"> range</text>
</g>
<!-- Node5 -->
<g id="Node000005" class="node">
<title>Node5</title>
<g id="a_Node000005"><a xlink:href="structlspserver_1_1Position.html" target="_top" xlink:title=" ">
<polygon fill="white" stroke="#666666" points="237.12,-254.75 131.12,-254.75 131.12,-234 237.12,-234 237.12,-254.75"/>
<text text-anchor="middle" x="184.12" y="-241.25" font-family="Helvetica,sans-Serif" font-size="10.00">lspserver::Position</text>
</a>
</g>
</g>
<!-- Node5&#45;&gt;Node4 -->
<g id="edge4_Node000004_Node000005" class="edge">
<title>Node5&#45;&gt;Node4</title>
<g id="a_edge4_Node000004_Node000005"><a xlink:title=" ">
<path fill="none" stroke="#9a32cd" stroke-dasharray="5,2" d="M184.12,-222.49C184.12,-206.34 184.12,-184.74 184.12,-172.55"/>
<polygon fill="#9a32cd" stroke="#9a32cd" points="180.63,-222.02 184.13,-232.02 187.63,-222.02 180.63,-222.02"/>
</a>
</g>
<text text-anchor="middle" x="195.38" y="-206.5" font-family="Helvetica,sans-Serif" font-size="10.00" fill="grey"> end</text>
<text text-anchor="middle" x="195.38" y="-193.75" font-family="Helvetica,sans-Serif" font-size="10.00" fill="grey">start</text>
</g>
</g>
</svg>
