<?xml version="1.0" encoding="UTF-8" standalone="no"?>
<!DOCTYPE svg PUBLIC "-//W3C//DTD SVG 1.1//EN"
 "http://www.w3.org/Graphics/SVG/1.1/DTD/svg11.dtd">
<!-- Generated by graphviz version 12.2.1 (0)
 -->
<!-- Title: lspserver::Location Pages: 1 -->
<svg width="244pt" height="197pt"
 viewBox="0.00 0.00 244.25 196.50" xmlns="http://www.w3.org/2000/svg" xmlns:xlink="http://www.w3.org/1999/xlink">
<g id="graph0" class="graph" transform="scale(1 1) rotate(0) translate(4 192.5)">
<title>lspserver::Location</title>
<!-- Node1 -->
<g id="Node000001" class="node">
<title>Node1</title>
<g id="a_Node000001"><a xlink:title=" ">
<polygon fill="#999999" stroke="#666666" points="133.38,-20.75 25.12,-20.75 25.12,0 133.38,0 133.38,-20.75"/>
<text text-anchor="middle" x="79.25" y="-7.25" font-family="Helvetica,sans-Serif" font-size="10.00">lspserver::Location</text>
</a>
</g>
</g>
<!-- Node2 -->
<g id="Node000002" class="node">
<title>Node2</title>
<g id="a_Node000002"><a xlink:href="structlspserver_1_1URIForFile.html" target="_top" xlink:title=" ">
<polygon fill="white" stroke="#666666" points="116.5,-96.25 0,-96.25 0,-75.5 116.5,-75.5 116.5,-96.25"/>
<text text-anchor="middle" x="58.25" y="-82.75" font-family="Helvetica,sans-Serif" font-size="10.00">lspserver::URIForFile</text>
</a>
</g>
</g>
<!-- Node2&#45;&gt;Node1 -->
<g id="edge1_Node000001_Node000002" class="edge">
<title>Node2&#45;&gt;Node1</title>
<g id="a_edge1_Node000001_Node000002"><a xlink:title=" ">
<path fill="none" stroke="#9a32cd" stroke-dasharray="5,2" d="M64.04,-64.61C68.07,-50.49 73.28,-32.27 76.44,-21.22"/>
<polygon fill="#9a32cd" stroke="#9a32cd" points="60.79,-63.23 61.41,-73.81 67.52,-65.16 60.79,-63.23"/>
</a>
</g>
<text text-anchor="start" x="74.25" y="-45" font-family="Helvetica,sans-Serif" font-size="10.00" fill="grey">uri</text>
</g>
<!-- Node3 -->
<g id="Node000003" class="node">
<title>Node3</title>
<g id="a_Node000003"><a xlink:href="structlspserver_1_1Range.html" target="_top" xlink:title=" ">
<polygon fill="white" stroke="#666666" points="232.12,-96.25 134.38,-96.25 134.38,-75.5 232.12,-75.5 232.12,-96.25"/>
<text text-anchor="middle" x="183.25" y="-82.75" font-family="Helvetica,sans-Serif" font-size="10.00">lspserver::Range</text>
</a>
</g>
</g>
<!-- Node3&#45;&gt;Node1 -->
<g id="edge2_Node000001_Node000003" class="edge">
<title>Node3&#45;&gt;Node1</title>
<g id="a_edge2_Node000001_Node000003"><a xlink:title=" ">
<path fill="none" stroke="#9a32cd" stroke-dasharray="5,2" d="M160.39,-68.72C139.86,-54.21 110.38,-33.37 93.18,-21.22"/>
<polygon fill="#9a32cd" stroke="#9a32cd" points="158.23,-71.48 168.42,-74.39 162.27,-65.76 158.23,-71.48"/>
</a>
</g>
<text text-anchor="start" x="146.62" y="-45" font-family="Helvetica,sans-Serif" font-size="10.00" fill="grey">range</text>
</g>
<!-- Node4 -->
<g id="Node000004" class="node">
<title>Node4</title>
<g id="a_Node000004"><a xlink:href="structlspserver_1_1Position.html" target="_top" xlink:title=" ">
<polygon fill="white" stroke="#666666" points="236.25,-188.5 130.25,-188.5 130.25,-167.75 236.25,-167.75 236.25,-188.5"/>
<text text-anchor="middle" x="183.25" y="-175" font-family="Helvetica,sans-Serif" font-size="10.00">lspserver::Position</text>
</a>
</g>
</g>
<!-- Node4&#45;&gt;Node3 -->
<g id="edge3_Node000003_Node000004" class="edge">
<title>Node4&#45;&gt;Node3</title>
<g id="a_edge3_Node000003_Node000004"><a xlink:title=" ">
<path fill="none" stroke="#9a32cd" stroke-dasharray="5,2" d="M183.25,-156.02C183.25,-137.33 183.25,-110.9 183.25,-96.74"/>
<polygon fill="#9a32cd" stroke="#9a32cd" points="179.75,-155.95 183.25,-165.95 186.75,-155.95 179.75,-155.95"/>
</a>
</g>
<text text-anchor="start" x="186.25" y="-137.25" font-family="Helvetica,sans-Serif" font-size="10.00" fill="grey">end</text>
<text text-anchor="start" x="186.25" y="-120.5" font-family="Helvetica,sans-Serif" font-size="10.00" fill="grey">start</text>
</g>
</g>
</svg>
