<?xml version="1.0" encoding="UTF-8" standalone="no"?>
<!DOCTYPE svg PUBLIC "-//W3C//DTD SVG 1.1//EN"
 "http://www.w3.org/Graphics/SVG/1.1/DTD/svg11.dtd">
<!-- Generated by graphviz version 12.2.1 (0)
 -->
<!-- Title: lspserver::ReferenceParams Pages: 1 -->
<svg width="441pt" height="250pt"
 viewBox="0.00 0.00 440.88 250.00" xmlns="http://www.w3.org/2000/svg" xmlns:xlink="http://www.w3.org/1999/xlink">
<g id="graph0" class="graph" transform="scale(1 1) rotate(0) translate(4 246)">
<title>lspserver::ReferenceParams</title>
<!-- Node1 -->
<g id="Node000001" class="node">
<title>Node1</title>
<g id="a_Node000001"><a xlink:title=" ">
<polygon fill="#999999" stroke="#666666" points="339.75,-20.75 187.25,-20.75 187.25,0 339.75,0 339.75,-20.75"/>
<text text-anchor="middle" x="263.5" y="-7.25" font-family="Helvetica,sans-Serif" font-size="10.00">lspserver::ReferenceParams</text>
</a>
</g>
</g>
<!-- Node2 -->
<g id="Node000002" class="node">
<title>Node2</title>
<g id="a_Node000002"><a xlink:href="structlspserver_1_1TextDocumentPositionParams.html" target="_top" xlink:title=" ">
<polygon fill="white" stroke="#666666" points="259.75,-103 83.25,-103 83.25,-69.5 259.75,-69.5 259.75,-103"/>
<text text-anchor="start" x="91.25" y="-89.5" font-family="Helvetica,sans-Serif" font-size="10.00">lspserver::TextDocumentPosition</text>
<text text-anchor="middle" x="171.5" y="-76.75" font-family="Helvetica,sans-Serif" font-size="10.00">Params</text>
</a>
</g>
</g>
<!-- Node2&#45;&gt;Node1 -->
<g id="edge1_Node000001_Node000002" class="edge">
<title>Node2&#45;&gt;Node1</title>
<g id="a_edge1_Node000001_Node000002"><a xlink:title=" ">
<path fill="none" stroke="#63b8ff" d="M200.08,-62.3C217.36,-48.43 238.48,-31.47 251.46,-21.04"/>
<polygon fill="#63b8ff" stroke="#63b8ff" points="198.25,-59.28 192.64,-68.27 202.63,-64.74 198.25,-59.28"/>
</a>
</g>
</g>
<!-- Node3 -->
<g id="Node000003" class="node">
<title>Node3</title>
<g id="a_Node000003"><a xlink:href="structlspserver_1_1TextDocumentIdentifier.html" target="_top" xlink:title=" ">
<polygon fill="white" stroke="#666666" points="181,-172.5 0,-172.5 0,-151.75 181,-151.75 181,-172.5"/>
<text text-anchor="middle" x="90.5" y="-159" font-family="Helvetica,sans-Serif" font-size="10.00">lspserver::TextDocumentIdentifier</text>
</a>
</g>
</g>
<!-- Node3&#45;&gt;Node2 -->
<g id="edge2_Node000002_Node000003" class="edge">
<title>Node3&#45;&gt;Node2</title>
<g id="a_edge2_Node000002_Node000003"><a xlink:title=" ">
<path fill="none" stroke="#9a32cd" stroke-dasharray="5,2" d="M109.54,-143.76C122.93,-131.55 140.71,-115.33 153.79,-103.41"/>
<polygon fill="#9a32cd" stroke="#9a32cd" points="107.24,-141.12 102.21,-150.45 111.95,-146.29 107.24,-141.12"/>
</a>
</g>
<text text-anchor="middle" x="169.8" y="-124.25" font-family="Helvetica,sans-Serif" font-size="10.00" fill="grey"> textDocument</text>
</g>
<!-- Node4 -->
<g id="Node000004" class="node">
<title>Node4</title>
<g id="a_Node000004"><a xlink:href="structlspserver_1_1URIForFile.html" target="_top" xlink:title=" ">
<polygon fill="white" stroke="#666666" points="148.75,-242 32.25,-242 32.25,-221.25 148.75,-221.25 148.75,-242"/>
<text text-anchor="middle" x="90.5" y="-228.5" font-family="Helvetica,sans-Serif" font-size="10.00">lspserver::URIForFile</text>
</a>
</g>
</g>
<!-- Node4&#45;&gt;Node3 -->
<g id="edge3_Node000003_Node000004" class="edge">
<title>Node4&#45;&gt;Node3</title>
<g id="a_edge3_Node000003_Node000004"><a xlink:title=" ">
<path fill="none" stroke="#9a32cd" stroke-dasharray="5,2" d="M90.5,-209.82C90.5,-197.47 90.5,-182.4 90.5,-172.78"/>
<polygon fill="#9a32cd" stroke="#9a32cd" points="87,-209.44 90.5,-219.44 94,-209.44 87,-209.44"/>
</a>
</g>
<text text-anchor="middle" x="98.38" y="-193.75" font-family="Helvetica,sans-Serif" font-size="10.00" fill="grey"> uri</text>
</g>
<!-- Node5 -->
<g id="Node000005" class="node">
<title>Node5</title>
<g id="a_Node000005"><a xlink:href="structlspserver_1_1Position.html" target="_top" xlink:title=" ">
<polygon fill="white" stroke="#666666" points="305.5,-172.5 199.5,-172.5 199.5,-151.75 305.5,-151.75 305.5,-172.5"/>
<text text-anchor="middle" x="252.5" y="-159" font-family="Helvetica,sans-Serif" font-size="10.00">lspserver::Position</text>
</a>
</g>
</g>
<!-- Node5&#45;&gt;Node2 -->
<g id="edge4_Node000002_Node000005" class="edge">
<title>Node5&#45;&gt;Node2</title>
<g id="a_edge4_Node000002_Node000005"><a xlink:title=" ">
<path fill="none" stroke="#9a32cd" stroke-dasharray="5,2" d="M234.66,-143.71C227.26,-136.58 218.54,-128.31 210.5,-121 204.01,-115.1 196.77,-108.77 190.31,-103.2"/>
<polygon fill="#9a32cd" stroke="#9a32cd" points="231.91,-145.92 241.53,-150.37 236.78,-140.89 231.91,-145.92"/>
</a>
</g>
<text text-anchor="middle" x="244.37" y="-124.25" font-family="Helvetica,sans-Serif" font-size="10.00" fill="grey"> position</text>
</g>
<!-- Node6 -->
<g id="Node000006" class="node">
<title>Node6</title>
<g id="a_Node000006"><a xlink:href="structlspserver_1_1ReferenceContext.html" target="_top" xlink:title=" ">
<polygon fill="white" stroke="#666666" points="432.88,-96.62 278.12,-96.62 278.12,-75.88 432.88,-75.88 432.88,-96.62"/>
<text text-anchor="middle" x="355.5" y="-83.12" font-family="Helvetica,sans-Serif" font-size="10.00">lspserver::ReferenceContext</text>
</a>
</g>
</g>
<!-- Node6&#45;&gt;Node1 -->
<g id="edge5_Node000001_Node000006" class="edge">
<title>Node6&#45;&gt;Node1</title>
<g id="a_edge5_Node000001_Node000006"><a xlink:title=" ">
<path fill="none" stroke="#9a32cd" stroke-dasharray="5,2" d="M334.72,-68.57C316.47,-53.91 290.55,-33.09 275.53,-21.04"/>
<polygon fill="#9a32cd" stroke="#9a32cd" points="332.3,-71.11 342.29,-74.64 336.69,-65.65 332.3,-71.11"/>
</a>
</g>
<text text-anchor="middle" x="332.13" y="-42" font-family="Helvetica,sans-Serif" font-size="10.00" fill="grey"> context</text>
</g>
</g>
</svg>
