<?xml version="1.0" encoding="UTF-8" standalone="no"?>
<!DOCTYPE svg PUBLIC "-//W3C//DTD SVG 1.1//EN"
 "http://www.w3.org/Graphics/SVG/1.1/DTD/svg11.dtd">
<!-- Generated by graphviz version 12.2.1 (0)
 -->
<!-- Title: lspserver::TextDocumentEdit Pages: 1 -->
<svg width="189pt" height="250pt"
 viewBox="0.00 0.00 189.00 250.25" xmlns="http://www.w3.org/2000/svg" xmlns:xlink="http://www.w3.org/1999/xlink">
<g id="graph0" class="graph" transform="scale(1 1) rotate(0) translate(4 246.25)">
<title>lspserver::TextDocumentEdit</title>
<!-- Node1 -->
<g id="Node000001" class="node">
<title>Node1</title>
<g id="a_Node000001"><a xlink:title=" ">
<polygon fill="#999999" stroke="#666666" points="168.62,-20.75 12.38,-20.75 12.38,0 168.62,0 168.62,-20.75"/>
<text text-anchor="middle" x="90.5" y="-7.25" font-family="Helvetica,sans-Serif" font-size="10.00">lspserver::TextDocumentEdit</text>
</a>
</g>
</g>
<!-- Node2 -->
<g id="Node000002" class="node">
<title>Node2</title>
<g id="a_Node000002"><a xlink:href="structlspserver_1_1VersionedTextDocumentIdentifier.html" target="_top" xlink:title=" ">
<polygon fill="white" stroke="#666666" points="158.12,-109 22.88,-109 22.88,-75.5 158.12,-75.5 158.12,-109"/>
<text text-anchor="start" x="30.88" y="-95.5" font-family="Helvetica,sans-Serif" font-size="10.00">lspserver::VersionedText</text>
<text text-anchor="middle" x="90.5" y="-82.75" font-family="Helvetica,sans-Serif" font-size="10.00">DocumentIdentifier</text>
</a>
</g>
</g>
<!-- Node2&#45;&gt;Node1 -->
<g id="edge1_Node000001_Node000002" class="edge">
<title>Node2&#45;&gt;Node1</title>
<g id="a_edge1_Node000001_Node000002"><a xlink:title=" ">
<path fill="none" stroke="#9a32cd" stroke-dasharray="5,2" d="M90.5,-63.9C90.5,-49.03 90.5,-31.57 90.5,-20.99"/>
<polygon fill="#9a32cd" stroke="#9a32cd" points="87,-63.57 90.5,-73.57 94,-63.57 87,-63.57"/>
</a>
</g>
<text text-anchor="start" x="93.5" y="-45" font-family="Helvetica,sans-Serif" font-size="10.00" fill="grey">textDocument</text>
</g>
<!-- Node3 -->
<g id="Node000003" class="node">
<title>Node3</title>
<g id="a_Node000003"><a xlink:href="structlspserver_1_1TextDocumentIdentifier.html" target="_top" xlink:title=" ">
<polygon fill="white" stroke="#666666" points="181,-166.75 0,-166.75 0,-146 181,-146 181,-166.75"/>
<text text-anchor="middle" x="90.5" y="-153.25" font-family="Helvetica,sans-Serif" font-size="10.00">lspserver::TextDocumentIdentifier</text>
</a>
</g>
</g>
<!-- Node3&#45;&gt;Node2 -->
<g id="edge2_Node000002_Node000003" class="edge">
<title>Node3&#45;&gt;Node2</title>
<g id="a_edge2_Node000002_Node000003"><a xlink:title=" ">
<path fill="none" stroke="#63b8ff" d="M90.5,-134.42C90.5,-126.26 90.5,-117.05 90.5,-109.41"/>
<polygon fill="#63b8ff" stroke="#63b8ff" points="87,-134.15 90.5,-144.15 94,-134.15 87,-134.15"/>
</a>
</g>
</g>
<!-- Node4 -->
<g id="Node000004" class="node">
<title>Node4</title>
<g id="a_Node000004"><a xlink:href="structlspserver_1_1URIForFile.html" target="_top" xlink:title=" ">
<polygon fill="white" stroke="#666666" points="148.75,-242.25 32.25,-242.25 32.25,-221.5 148.75,-221.5 148.75,-242.25"/>
<text text-anchor="middle" x="90.5" y="-228.75" font-family="Helvetica,sans-Serif" font-size="10.00">lspserver::URIForFile</text>
</a>
</g>
</g>
<!-- Node4&#45;&gt;Node3 -->
<g id="edge3_Node000003_Node000004" class="edge">
<title>Node4&#45;&gt;Node3</title>
<g id="a_edge3_Node000003_Node000004"><a xlink:title=" ">
<path fill="none" stroke="#9a32cd" stroke-dasharray="5,2" d="M90.5,-209.76C90.5,-195.76 90.5,-178.05 90.5,-167.22"/>
<polygon fill="#9a32cd" stroke="#9a32cd" points="87,-209.75 90.5,-219.75 94,-209.75 87,-209.75"/>
</a>
</g>
<text text-anchor="start" x="93.5" y="-191" font-family="Helvetica,sans-Serif" font-size="10.00" fill="grey">uri</text>
</g>
</g>
</svg>
