<?xml version="1.0" encoding="UTF-8" standalone="no"?>
<!DOCTYPE svg PUBLIC "-//W3C//DTD SVG 1.1//EN"
 "http://www.w3.org/Graphics/SVG/1.1/DTD/svg11.dtd">
<!-- Generated by graphviz version 12.2.1 (0)
 -->
<!-- Title: nixd::Configuration Pages: 1 -->
<svg width="318pt" height="146pt"
 viewBox="0.00 0.00 318.25 145.50" xmlns="http://www.w3.org/2000/svg" xmlns:xlink="http://www.w3.org/1999/xlink">
<g id="graph0" class="graph" transform="scale(1 1) rotate(0) translate(4 141.5)">
<title>nixd::Configuration</title>
<!-- Node1 -->
<g id="Node000001" class="node">
<title>Node1</title>
<g id="a_Node000001"><a xlink:title=" ">
<polygon fill="#999999" stroke="#666666" points="310.25,-79.12 202,-79.12 202,-58.38 310.25,-58.38 310.25,-79.12"/>
<text text-anchor="middle" x="256.12" y="-65.62" font-family="Helvetica,sans-Serif" font-size="10.00">nixd::Configuration</text>
</a>
</g>
</g>
<!-- Node2 -->
<g id="Node000002" class="node">
<title>Node2</title>
<g id="a_Node000002"><a xlink:href="structnixd_1_1Configuration_1_1Formatting.html" target="_top" xlink:title=" ">
<polygon fill="white" stroke="#666666" points="108.25,-137.5 0,-137.5 0,-104 108.25,-104 108.25,-137.5"/>
<text text-anchor="start" x="8" y="-124" font-family="Helvetica,sans-Serif" font-size="10.00">nixd::Configuration</text>
<text text-anchor="middle" x="54.12" y="-111.25" font-family="Helvetica,sans-Serif" font-size="10.00">::Formatting</text>
</a>
</g>
</g>
<!-- Node2&#45;&gt;Node1 -->
<g id="edge1_Node000001_Node000002" class="edge">
<title>Node2&#45;&gt;Node1</title>
<g id="a_edge1_Node000001_Node000002"><a xlink:title=" ">
<path fill="none" stroke="#9a32cd" stroke-dasharray="5,2" d="M119.88,-107.39C140.47,-102.82 163.28,-97.42 184,-91.75 197.14,-88.15 211.47,-83.64 223.8,-79.56"/>
<polygon fill="#9a32cd" stroke="#9a32cd" points="119.19,-103.96 110.17,-109.52 120.69,-110.8 119.19,-103.96"/>
</a>
</g>
<text text-anchor="start" x="129.25" y="-111.89" font-family="Helvetica,sans-Serif" font-size="10.00" fill="grey">formatting</text>
</g>
<!-- Node3 -->
<g id="Node000003" class="node">
<title>Node3</title>
<g id="a_Node000003"><a xlink:href="structnixd_1_1Configuration_1_1NixpkgsProvider.html" target="_top" xlink:title=" ">
<polygon fill="white" stroke="#666666" points="108.25,-85.5 0,-85.5 0,-52 108.25,-52 108.25,-85.5"/>
<text text-anchor="start" x="8" y="-72" font-family="Helvetica,sans-Serif" font-size="10.00">nixd::Configuration</text>
<text text-anchor="middle" x="54.12" y="-59.25" font-family="Helvetica,sans-Serif" font-size="10.00">::NixpkgsProvider</text>
</a>
</g>
</g>
<!-- Node3&#45;&gt;Node1 -->
<g id="edge2_Node000001_Node000003" class="edge">
<title>Node3&#45;&gt;Node1</title>
<g id="a_edge2_Node000001_Node000003"><a xlink:title=" ">
<path fill="none" stroke="#9a32cd" stroke-dasharray="5,2" d="M120.16,-68.75C146.55,-68.75 176.66,-68.75 201.73,-68.75"/>
<polygon fill="#9a32cd" stroke="#9a32cd" points="120.23,-65.25 110.23,-68.75 120.23,-72.25 120.23,-65.25"/>
</a>
</g>
<text text-anchor="start" x="136" y="-75" font-family="Helvetica,sans-Serif" font-size="10.00" fill="grey">nixpkgs</text>
</g>
<!-- Node4 -->
<g id="Node000004" class="node">
<title>Node4</title>
<g id="a_Node000004"><a xlink:href="structnixd_1_1Configuration_1_1Diagnostic.html" target="_top" xlink:title=" ">
<polygon fill="white" stroke="#666666" points="108.25,-33.5 0,-33.5 0,0 108.25,0 108.25,-33.5"/>
<text text-anchor="start" x="8" y="-20" font-family="Helvetica,sans-Serif" font-size="10.00">nixd::Configuration</text>
<text text-anchor="middle" x="54.12" y="-7.25" font-family="Helvetica,sans-Serif" font-size="10.00">::Diagnostic</text>
</a>
</g>
</g>
<!-- Node4&#45;&gt;Node1 -->
<g id="edge3_Node000001_Node000004" class="edge">
<title>Node4&#45;&gt;Node1</title>
<g id="a_edge3_Node000001_Node000004"><a xlink:title=" ">
<path fill="none" stroke="#9a32cd" stroke-dasharray="5,2" d="M119.86,-30.3C140.46,-34.91 163.27,-40.34 184,-46 197.01,-49.55 211.18,-53.97 223.43,-57.97"/>
<polygon fill="#9a32cd" stroke="#9a32cd" points="120.68,-26.89 110.16,-28.15 119.16,-33.73 120.68,-26.89"/>
</a>
</g>
<text text-anchor="start" x="130" y="-52.25" font-family="Helvetica,sans-Serif" font-size="10.00" fill="grey">diagnostic</text>
</g>
</g>
</svg>
