<?xml version="1.0" encoding="UTF-8" standalone="no"?>
<!DOCTYPE svg PUBLIC "-//W3C//DTD SVG 1.1//EN"
 "http://www.w3.org/Graphics/SVG/1.1/DTD/svg11.dtd">
<!-- Generated by graphviz version 12.2.1 (0)
 -->
<!-- Title: lspserver::TextDocumentEdit Pages: 1 -->
<svg width="189pt" height="238pt"
 viewBox="0.00 0.00 189.00 238.25" xmlns="http://www.w3.org/2000/svg" xmlns:xlink="http://www.w3.org/1999/xlink">
<g id="graph0" class="graph" transform="scale(1 1) rotate(0) translate(4 234.25)">
<title>lspserver::TextDocumentEdit</title>
<!-- Node1 -->
<g id="Node000001" class="node">
<title>Node1</title>
<g id="a_Node000001"><a xlink:title=" ">
<polygon fill="#999999" stroke="#666666" points="168.62,-20.75 12.38,-20.75 12.38,0 168.62,0 168.62,-20.75"/>
<text text-anchor="middle" x="90.5" y="-7.25" font-family="Helvetica,sans-Serif" font-size="10.00">lspserver::TextDocumentEdit</text>
</a>
</g>
</g>
<!-- Node2 -->
<g id="Node000002" class="node">
<title>Node2</title>
<g id="a_Node000002"><a xlink:href="structlspserver_1_1VersionedTextDocumentIdentifier.html" target="_top" xlink:title=" ">
<polygon fill="white" stroke="#666666" points="158.12,-103 22.88,-103 22.88,-69.5 158.12,-69.5 158.12,-103"/>
<text text-anchor="start" x="30.88" y="-89.5" font-family="Helvetica,sans-Serif" font-size="10.00">lspserver::VersionedText</text>
<text text-anchor="middle" x="90.5" y="-76.75" font-family="Helvetica,sans-Serif" font-size="10.00">DocumentIdentifier</text>
</a>
</g>
</g>
<!-- Node2&#45;&gt;Node1 -->
<g id="edge1_Node000001_Node000002" class="edge">
<title>Node2&#45;&gt;Node1</title>
<g id="a_edge1_Node000001_Node000002"><a xlink:title=" ">
<path fill="none" stroke="#9a32cd" stroke-dasharray="5,2" d="M90.5,-57.95C90.5,-44.92 90.5,-30.18 90.5,-20.83"/>
<polygon fill="#9a32cd" stroke="#9a32cd" points="87,-57.71 90.5,-67.71 94,-57.71 87,-57.71"/>
</a>
</g>
<text text-anchor="middle" x="126.88" y="-42" font-family="Helvetica,sans-Serif" font-size="10.00" fill="grey"> textDocument</text>
</g>
<!-- Node3 -->
<g id="Node000003" class="node">
<title>Node3</title>
<g id="a_Node000003"><a xlink:href="structlspserver_1_1TextDocumentIdentifier.html" target="_top" xlink:title=" ">
<polygon fill="white" stroke="#666666" points="181,-160.75 0,-160.75 0,-140 181,-140 181,-160.75"/>
<text text-anchor="middle" x="90.5" y="-147.25" font-family="Helvetica,sans-Serif" font-size="10.00">lspserver::TextDocumentIdentifier</text>
</a>
</g>
</g>
<!-- Node3&#45;&gt;Node2 -->
<g id="edge2_Node000002_Node000003" class="edge">
<title>Node3&#45;&gt;Node2</title>
<g id="a_edge2_Node000002_Node000003"><a xlink:title=" ">
<path fill="none" stroke="#63b8ff" d="M90.5,-128.42C90.5,-120.26 90.5,-111.05 90.5,-103.41"/>
<polygon fill="#63b8ff" stroke="#63b8ff" points="87,-128.15 90.5,-138.15 94,-128.15 87,-128.15"/>
</a>
</g>
</g>
<!-- Node4 -->
<g id="Node000004" class="node">
<title>Node4</title>
<g id="a_Node000004"><a xlink:href="structlspserver_1_1URIForFile.html" target="_top" xlink:title=" ">
<polygon fill="white" stroke="#666666" points="148.75,-230.25 32.25,-230.25 32.25,-209.5 148.75,-209.5 148.75,-230.25"/>
<text text-anchor="middle" x="90.5" y="-216.75" font-family="Helvetica,sans-Serif" font-size="10.00">lspserver::URIForFile</text>
</a>
</g>
</g>
<!-- Node4&#45;&gt;Node3 -->
<g id="edge3_Node000003_Node000004" class="edge">
<title>Node4&#45;&gt;Node3</title>
<g id="a_edge3_Node000003_Node000004"><a xlink:title=" ">
<path fill="none" stroke="#9a32cd" stroke-dasharray="5,2" d="M90.5,-198.07C90.5,-185.72 90.5,-170.65 90.5,-161.03"/>
<polygon fill="#9a32cd" stroke="#9a32cd" points="87,-197.69 90.5,-207.69 94,-197.69 87,-197.69"/>
</a>
</g>
<text text-anchor="middle" x="98.38" y="-182" font-family="Helvetica,sans-Serif" font-size="10.00" fill="grey"> uri</text>
</g>
</g>
</svg>
