<?xml version="1.0" encoding="UTF-8" standalone="no"?>
<!DOCTYPE svg PUBLIC "-//W3C//DTD SVG 1.1//EN"
 "http://www.w3.org/Graphics/SVG/1.1/DTD/svg11.dtd">
<!-- Generated by graphviz version 12.2.1 (0)
 -->
<!-- Title: nixd::idioms::IdiomSelectorException Pages: 1 -->
<svg width="469pt" height="146pt"
 viewBox="0.00 0.00 469.25 145.50" xmlns="http://www.w3.org/2000/svg" xmlns:xlink="http://www.w3.org/1999/xlink">
<g id="graph0" class="graph" transform="scale(1 1) rotate(0) translate(4 141.5)">
<title>nixd::idioms::IdiomSelectorException</title>
<!-- Node1 -->
<g id="Node000001" class="node">
<title>Node1</title>
<g id="a_Node000001"><a xlink:title="Exceptions scoped in nixd::mkIdiomSelector.">
<polygon fill="#999999" stroke="#666666" points="270.5,-85.5 121,-85.5 121,-52 270.5,-52 270.5,-85.5"/>
<text text-anchor="start" x="129" y="-72" font-family="Helvetica,sans-Serif" font-size="10.00">nixd::idioms::IdiomSelector</text>
<text text-anchor="middle" x="195.75" y="-59.25" font-family="Helvetica,sans-Serif" font-size="10.00">Exception</text>
</a>
</g>
</g>
<!-- Node3 -->
<g id="Node000003" class="node">
<title>Node3</title>
<g id="a_Node000003"><a xlink:href="structnixd_1_1idioms_1_1DynamicNameException.html" target="_top" xlink:title="The attrpath has a dynamic name, thus it cannot be trivially transformed to &quot;static&quot; selector.">
<polygon fill="white" stroke="#666666" points="461.25,-137.5 306.5,-137.5 306.5,-104 461.25,-104 461.25,-137.5"/>
<text text-anchor="start" x="314.5" y="-124" font-family="Helvetica,sans-Serif" font-size="10.00">nixd::idioms::DynamicName</text>
<text text-anchor="middle" x="383.88" y="-111.25" font-family="Helvetica,sans-Serif" font-size="10.00">Exception</text>
</a>
</g>
</g>
<!-- Node1&#45;&gt;Node3 -->
<g id="edge2_Node000001_Node000003" class="edge">
<title>Node1&#45;&gt;Node3</title>
<g id="a_edge2_Node000001_Node000003"><a xlink:title=" ">
<path fill="none" stroke="#63b8ff" d="M269.55,-89.09C286.67,-93.87 304.75,-98.92 321.32,-103.55"/>
<polygon fill="#63b8ff" stroke="#63b8ff" points="270.5,-85.72 259.93,-86.4 268.62,-92.46 270.5,-85.72"/>
</a>
</g>
</g>
<!-- Node4 -->
<g id="Node000004" class="node">
<title>Node4</title>
<g id="a_Node000004"><a xlink:href="structnixd_1_1idioms_1_1NotAnIdiomException.html" target="_top" xlink:title="The pattern of this variable cannot be recognized by known idioms.">
<polygon fill="white" stroke="#666666" points="453.75,-85.5 314,-85.5 314,-52 453.75,-52 453.75,-85.5"/>
<text text-anchor="start" x="322" y="-72" font-family="Helvetica,sans-Serif" font-size="10.00">nixd::idioms::NotAnIdiom</text>
<text text-anchor="middle" x="383.88" y="-59.25" font-family="Helvetica,sans-Serif" font-size="10.00">Exception</text>
</a>
</g>
</g>
<!-- Node1&#45;&gt;Node4 -->
<g id="edge3_Node000001_Node000004" class="edge">
<title>Node1&#45;&gt;Node4</title>
<g id="a_edge3_Node000001_Node000004"><a xlink:title=" ">
<path fill="none" stroke="#63b8ff" d="M282.18,-68.75C292.69,-68.75 303.34,-68.75 313.57,-68.75"/>
<polygon fill="#63b8ff" stroke="#63b8ff" points="282.36,-65.25 272.36,-68.75 282.36,-72.25 282.36,-65.25"/>
</a>
</g>
</g>
<!-- Node5 -->
<g id="Node000005" class="node">
<title>Node5</title>
<g id="a_Node000005"><a xlink:href="structnixd_1_1idioms_1_1NotVariableSelect.html" target="_top" xlink:title=" ">
<polygon fill="white" stroke="#666666" points="453.38,-33.5 314.38,-33.5 314.38,0 453.38,0 453.38,-33.5"/>
<text text-anchor="start" x="322.38" y="-20" font-family="Helvetica,sans-Serif" font-size="10.00">nixd::idioms::NotVariable</text>
<text text-anchor="middle" x="383.88" y="-7.25" font-family="Helvetica,sans-Serif" font-size="10.00">Select</text>
</a>
</g>
</g>
<!-- Node1&#45;&gt;Node5 -->
<g id="edge4_Node000001_Node000005" class="edge">
<title>Node1&#45;&gt;Node5</title>
<g id="a_edge4_Node000001_Node000005"><a xlink:title=" ">
<path fill="none" stroke="#63b8ff" d="M269.55,-48.41C286.67,-43.63 304.75,-38.58 321.32,-33.95"/>
<polygon fill="#63b8ff" stroke="#63b8ff" points="268.62,-45.04 259.93,-51.1 270.5,-51.78 268.62,-45.04"/>
</a>
</g>
</g>
<!-- Node2 -->
<g id="Node000002" class="node">
<title>Node2</title>
<g id="a_Node000002"><a xlink:title=" ">
<polygon fill="white" stroke="#666666" points="85,-79.12 0,-79.12 0,-58.38 85,-58.38 85,-79.12"/>
<text text-anchor="middle" x="42.5" y="-65.62" font-family="Helvetica,sans-Serif" font-size="10.00">std::exception</text>
</a>
</g>
</g>
<!-- Node2&#45;&gt;Node1 -->
<g id="edge1_Node000001_Node000002" class="edge">
<title>Node2&#45;&gt;Node1</title>
<g id="a_edge1_Node000001_Node000002"><a xlink:title=" ">
<path fill="none" stroke="#63b8ff" d="M96.7,-68.75C104.46,-68.75 112.57,-68.75 120.65,-68.75"/>
<polygon fill="#63b8ff" stroke="#63b8ff" points="96.74,-65.25 86.74,-68.75 96.74,-72.25 96.74,-65.25"/>
</a>
</g>
</g>
</g>
</svg>
