<?xml version="1.0" encoding="UTF-8" standalone="no"?>
<!DOCTYPE svg PUBLIC "-//W3C//DTD SVG 1.1//EN"
 "http://www.w3.org/Graphics/SVG/1.1/DTD/svg11.dtd">
<!-- Generated by graphviz version 12.2.1 (0)
 -->
<!-- Title: lspserver::ResolveTypeHierarchyItemParams Pages: 1 -->
<svg width="395pt" height="314pt"
 viewBox="0.00 0.00 394.62 314.25" xmlns="http://www.w3.org/2000/svg" xmlns:xlink="http://www.w3.org/1999/xlink">
<g id="graph0" class="graph" transform="scale(1 1) rotate(0) translate(4 310.25)">
<title>lspserver::ResolveTypeHierarchyItemParams</title>
<!-- Node1 -->
<g id="Node000001" class="node">
<title>Node1</title>
<g id="a_Node000001"><a xlink:title="Parameters for the typeHierarchy/resolve request.">
<polygon fill="#999999" stroke="#666666" points="271.12,-33.5 95.38,-33.5 95.38,0 271.12,0 271.12,-33.5"/>
<text text-anchor="start" x="103.38" y="-20" font-family="Helvetica,sans-Serif" font-size="10.00">lspserver::ResolveTypeHierarchy</text>
<text text-anchor="middle" x="183.25" y="-7.25" font-family="Helvetica,sans-Serif" font-size="10.00">ItemParams</text>
</a>
</g>
</g>
<!-- Node2 -->
<g id="Node000002" class="node">
<title>Node2</title>
<g id="a_Node000002"><a xlink:href="structlspserver_1_1TypeHierarchyItem.html" target="_top" xlink:title=" ">
<polygon fill="white" stroke="#666666" points="262.88,-109 103.62,-109 103.62,-88.25 262.88,-88.25 262.88,-109"/>
<text text-anchor="middle" x="183.25" y="-95.5" font-family="Helvetica,sans-Serif" font-size="10.00">lspserver::TypeHierarchyItem</text>
</a>
</g>
</g>
<!-- Node2&#45;&gt;Node1 -->
<g id="edge1_Node000001_Node000002" class="edge">
<title>Node2&#45;&gt;Node1</title>
<g id="a_edge1_Node000001_Node000002"><a xlink:title=" ">
<path fill="none" stroke="#9a32cd" stroke-dasharray="5,2" d="M183.25,-76.45C183.25,-63.14 183.25,-46.24 183.25,-34"/>
<polygon fill="#9a32cd" stroke="#9a32cd" points="179.75,-76.32 183.25,-86.32 186.75,-76.32 179.75,-76.32"/>
</a>
</g>
<text text-anchor="start" x="186.25" y="-57.75" font-family="Helvetica,sans-Serif" font-size="10.00" fill="grey">item</text>
</g>
<!-- Node3 -->
<g id="Node000003" class="node">
<title>Node3</title>
<g id="a_Node000003"><a xlink:href="structlspserver_1_1URIForFile.html" target="_top" xlink:title=" ">
<polygon fill="white" stroke="#666666" points="116.5,-207.62 0,-207.62 0,-186.88 116.5,-186.88 116.5,-207.62"/>
<text text-anchor="middle" x="58.25" y="-194.12" font-family="Helvetica,sans-Serif" font-size="10.00">lspserver::URIForFile</text>
</a>
</g>
</g>
<!-- Node3&#45;&gt;Node2 -->
<g id="edge2_Node000002_Node000003" class="edge">
<title>Node3&#45;&gt;Node2</title>
<g id="a_edge2_Node000002_Node000003"><a xlink:title=" ">
<path fill="none" stroke="#9a32cd" stroke-dasharray="5,2" d="M79.79,-179.6C105.92,-159.4 149.13,-126 170.49,-109.49"/>
<polygon fill="#9a32cd" stroke="#9a32cd" points="77.66,-176.82 71.89,-185.71 81.94,-182.36 77.66,-176.82"/>
</a>
</g>
<text text-anchor="start" x="149.31" y="-141.62" font-family="Helvetica,sans-Serif" font-size="10.00" fill="grey">uri</text>
</g>
<!-- Node4 -->
<g id="Node000004" class="node">
<title>Node4</title>
<g id="a_Node000004"><a xlink:href="structlspserver_1_1Range.html" target="_top" xlink:title=" ">
<polygon fill="white" stroke="#666666" points="232.12,-207.62 134.38,-207.62 134.38,-186.88 232.12,-186.88 232.12,-207.62"/>
<text text-anchor="middle" x="183.25" y="-194.12" font-family="Helvetica,sans-Serif" font-size="10.00">lspserver::Range</text>
</a>
</g>
</g>
<!-- Node4&#45;&gt;Node2 -->
<g id="edge3_Node000002_Node000004" class="edge">
<title>Node4&#45;&gt;Node2</title>
<g id="a_edge3_Node000002_Node000004"><a xlink:title=" ">
<path fill="none" stroke="#9a32cd" stroke-dasharray="5,2" d="M183.25,-175.14C183.25,-154.77 183.25,-124.84 183.25,-109.49"/>
<polygon fill="#9a32cd" stroke="#9a32cd" points="179.75,-175.12 183.25,-185.12 186.75,-175.12 179.75,-175.12"/>
</a>
</g>
<text text-anchor="start" x="186.25" y="-150" font-family="Helvetica,sans-Serif" font-size="10.00" fill="grey">range</text>
<text text-anchor="start" x="186.25" y="-133.25" font-family="Helvetica,sans-Serif" font-size="10.00" fill="grey">selectionRange</text>
</g>
<!-- Node5 -->
<g id="Node000005" class="node">
<title>Node5</title>
<g id="a_Node000005"><a xlink:href="structlspserver_1_1Position.html" target="_top" xlink:title=" ">
<polygon fill="white" stroke="#666666" points="236.25,-306.25 130.25,-306.25 130.25,-285.5 236.25,-285.5 236.25,-306.25"/>
<text text-anchor="middle" x="183.25" y="-292.75" font-family="Helvetica,sans-Serif" font-size="10.00">lspserver::Position</text>
</a>
</g>
</g>
<!-- Node5&#45;&gt;Node4 -->
<g id="edge4_Node000004_Node000005" class="edge">
<title>Node5&#45;&gt;Node4</title>
<g id="a_edge4_Node000004_Node000005"><a xlink:title=" ">
<path fill="none" stroke="#9a32cd" stroke-dasharray="5,2" d="M183.25,-273.77C183.25,-253.4 183.25,-223.46 183.25,-208.12"/>
<polygon fill="#9a32cd" stroke="#9a32cd" points="179.75,-273.74 183.25,-283.74 186.75,-273.74 179.75,-273.74"/>
</a>
</g>
<text text-anchor="start" x="186.25" y="-255" font-family="Helvetica,sans-Serif" font-size="10.00" fill="grey">end</text>
<text text-anchor="start" x="186.25" y="-238.25" font-family="Helvetica,sans-Serif" font-size="10.00" fill="grey">start</text>
</g>
<!-- Node6 -->
<g id="Node000006" class="node">
<title>Node6</title>
<g id="a_Node000006"><a xlink:href="structlspserver_1_1TypeHierarchyItem_1_1ResolveParams.html" target="_top" xlink:title="Used to resolve a client provided item back.">
<polygon fill="white" stroke="#666666" points="386.62,-214 249.88,-214 249.88,-180.5 386.62,-180.5 386.62,-214"/>
<text text-anchor="start" x="257.88" y="-200.5" font-family="Helvetica,sans-Serif" font-size="10.00">lspserver::TypeHierarchy</text>
<text text-anchor="middle" x="318.25" y="-187.75" font-family="Helvetica,sans-Serif" font-size="10.00">Item::ResolveParams</text>
</a>
</g>
</g>
<!-- Node6&#45;&gt;Node2 -->
<g id="edge5_Node000002_Node000006" class="edge">
<title>Node6&#45;&gt;Node2</title>
<g id="a_edge5_Node000002_Node000006"><a xlink:title=" ">
<path fill="none" stroke="#9a32cd" stroke-dasharray="5,2" d="M304.92,-170.25C296.25,-155.68 283.69,-138.22 268.25,-127 257.46,-119.16 244.33,-113.5 231.65,-109.44"/>
<polygon fill="#9a32cd" stroke="#9a32cd" points="301.83,-171.9 309.78,-178.9 307.93,-168.47 301.83,-171.9"/>
</a>
</g>
<text text-anchor="start" x="302.12" y="-141.62" font-family="Helvetica,sans-Serif" font-size="10.00" fill="grey">data</text>
</g>
</g>
</svg>
