<?xml version="1.0" encoding="UTF-8" standalone="no"?>
<!DOCTYPE svg PUBLIC "-//W3C//DTD SVG 1.1//EN"
 "http://www.w3.org/Graphics/SVG/1.1/DTD/svg11.dtd">
<!-- Generated by graphviz version 12.2.1 (0)
 -->
<!-- Title: lspserver::DocumentSymbol Pages: 1 -->
<svg width="166pt" height="213pt"
 viewBox="0.00 0.00 166.00 213.25" xmlns="http://www.w3.org/2000/svg" xmlns:xlink="http://www.w3.org/1999/xlink">
<g id="graph0" class="graph" transform="scale(1 1) rotate(0) translate(4 209.25)">
<title>lspserver::DocumentSymbol</title>
<!-- Node1 -->
<g id="Node000001" class="node">
<title>Node1</title>
<g id="a_Node000001"><a xlink:title=" ">
<polygon fill="#999999" stroke="#666666" points="154,-20.75 0,-20.75 0,0 154,0 154,-20.75"/>
<text text-anchor="middle" x="77" y="-7.25" font-family="Helvetica,sans-Serif" font-size="10.00">lspserver::DocumentSymbol</text>
</a>
</g>
</g>
<!-- Node2 -->
<g id="Node000002" class="node">
<title>Node2</title>
<g id="a_Node000002"><a xlink:href="structlspserver_1_1Range.html" target="_top" xlink:title=" ">
<polygon fill="white" stroke="#666666" points="125.88,-113 28.12,-113 28.12,-92.25 125.88,-92.25 125.88,-113"/>
<text text-anchor="middle" x="77" y="-99.5" font-family="Helvetica,sans-Serif" font-size="10.00">lspserver::Range</text>
</a>
</g>
</g>
<!-- Node2&#45;&gt;Node1 -->
<g id="edge1_Node000001_Node000002" class="edge">
<title>Node2&#45;&gt;Node1</title>
<g id="a_edge1_Node000001_Node000002"><a xlink:title=" ">
<path fill="none" stroke="#9a32cd" stroke-dasharray="5,2" d="M77,-80.52C77,-61.83 77,-35.4 77,-21.24"/>
<polygon fill="#9a32cd" stroke="#9a32cd" points="73.5,-80.45 77,-90.45 80.5,-80.45 73.5,-80.45"/>
</a>
</g>
<text text-anchor="start" x="80" y="-61.75" font-family="Helvetica,sans-Serif" font-size="10.00" fill="grey">range</text>
<text text-anchor="start" x="80" y="-45" font-family="Helvetica,sans-Serif" font-size="10.00" fill="grey">selectionRange</text>
</g>
<!-- Node3 -->
<g id="Node000003" class="node">
<title>Node3</title>
<g id="a_Node000003"><a xlink:href="structlspserver_1_1Position.html" target="_top" xlink:title=" ">
<polygon fill="white" stroke="#666666" points="130,-205.25 24,-205.25 24,-184.5 130,-184.5 130,-205.25"/>
<text text-anchor="middle" x="77" y="-191.75" font-family="Helvetica,sans-Serif" font-size="10.00">lspserver::Position</text>
</a>
</g>
</g>
<!-- Node3&#45;&gt;Node2 -->
<g id="edge2_Node000002_Node000003" class="edge">
<title>Node3&#45;&gt;Node2</title>
<g id="a_edge2_Node000002_Node000003"><a xlink:title=" ">
<path fill="none" stroke="#9a32cd" stroke-dasharray="5,2" d="M77,-172.77C77,-154.08 77,-127.65 77,-113.49"/>
<polygon fill="#9a32cd" stroke="#9a32cd" points="73.5,-172.7 77,-182.7 80.5,-172.7 73.5,-172.7"/>
</a>
</g>
<text text-anchor="start" x="80" y="-154" font-family="Helvetica,sans-Serif" font-size="10.00" fill="grey">end</text>
<text text-anchor="start" x="80" y="-137.25" font-family="Helvetica,sans-Serif" font-size="10.00" fill="grey">start</text>
</g>
</g>
</svg>
