<?xml version="1.0" encoding="UTF-8" standalone="no"?>
<!DOCTYPE svg PUBLIC "-//W3C//DTD SVG 1.1//EN"
 "http://www.w3.org/Graphics/SVG/1.1/DTD/svg11.dtd">
<!-- Generated by graphviz version 12.2.1 (0)
 -->
<!-- Title: lspserver::ReferenceLocation Pages: 1 -->
<svg width="246pt" height="238pt"
 viewBox="0.00 0.00 245.88 238.25" xmlns="http://www.w3.org/2000/svg" xmlns:xlink="http://www.w3.org/1999/xlink">
<g id="graph0" class="graph" transform="scale(1 1) rotate(0) translate(4 234.25)">
<title>lspserver::ReferenceLocation</title>
<!-- Node1 -->
<g id="Node000001" class="node">
<title>Node1</title>
<g id="a_Node000001"><a xlink:title=" ">
<polygon fill="#999999" stroke="#666666" points="157.75,-20.75 0,-20.75 0,0 157.75,0 157.75,-20.75"/>
<text text-anchor="middle" x="78.88" y="-7.25" font-family="Helvetica,sans-Serif" font-size="10.00">lspserver::ReferenceLocation</text>
</a>
</g>
</g>
<!-- Node2 -->
<g id="Node000002" class="node">
<title>Node2</title>
<g id="a_Node000002"><a xlink:href="structlspserver_1_1Location.html" target="_top" xlink:title=" ">
<polygon fill="white" stroke="#666666" points="133,-78.5 24.75,-78.5 24.75,-57.75 133,-57.75 133,-78.5"/>
<text text-anchor="middle" x="78.88" y="-65" font-family="Helvetica,sans-Serif" font-size="10.00">lspserver::Location</text>
</a>
</g>
</g>
<!-- Node2&#45;&gt;Node1 -->
<g id="edge1_Node000001_Node000002" class="edge">
<title>Node2&#45;&gt;Node1</title>
<g id="a_edge1_Node000001_Node000002"><a xlink:title=" ">
<path fill="none" stroke="#63b8ff" d="M78.88,-46.18C78.88,-37.52 78.88,-27.9 78.88,-20.97"/>
<polygon fill="#63b8ff" stroke="#63b8ff" points="75.38,-45.9 78.88,-55.9 82.38,-45.9 75.38,-45.9"/>
</a>
</g>
</g>
<!-- Node3 -->
<g id="Node000003" class="node">
<title>Node3</title>
<g id="a_Node000003"><a xlink:href="structlspserver_1_1URIForFile.html" target="_top" xlink:title=" ">
<polygon fill="white" stroke="#666666" points="118.12,-148 1.62,-148 1.62,-127.25 118.12,-127.25 118.12,-148"/>
<text text-anchor="middle" x="59.88" y="-134.5" font-family="Helvetica,sans-Serif" font-size="10.00">lspserver::URIForFile</text>
</a>
</g>
</g>
<!-- Node3&#45;&gt;Node2 -->
<g id="edge2_Node000002_Node000003" class="edge">
<title>Node3&#45;&gt;Node2</title>
<g id="a_edge2_Node000002_Node000003"><a xlink:title=" ">
<path fill="none" stroke="#9a32cd" stroke-dasharray="5,2" d="M65.62,-116.2C69.12,-103.78 73.42,-88.5 76.16,-78.78"/>
<polygon fill="#9a32cd" stroke="#9a32cd" points="62.35,-114.92 63.01,-125.5 69.09,-116.82 62.35,-114.92"/>
</a>
</g>
<text text-anchor="middle" x="78.95" y="-99.75" font-family="Helvetica,sans-Serif" font-size="10.00" fill="grey"> uri</text>
</g>
<!-- Node4 -->
<g id="Node000004" class="node">
<title>Node4</title>
<g id="a_Node000004"><a xlink:href="structlspserver_1_1Range.html" target="_top" xlink:title=" ">
<polygon fill="white" stroke="#666666" points="233.75,-148 136,-148 136,-127.25 233.75,-127.25 233.75,-148"/>
<text text-anchor="middle" x="184.88" y="-134.5" font-family="Helvetica,sans-Serif" font-size="10.00">lspserver::Range</text>
</a>
</g>
</g>
<!-- Node4&#45;&gt;Node2 -->
<g id="edge3_Node000002_Node000004" class="edge">
<title>Node4&#45;&gt;Node2</title>
<g id="a_edge3_Node000002_Node000004"><a xlink:title=" ">
<path fill="none" stroke="#9a32cd" stroke-dasharray="5,2" d="M160.15,-120.88C139.82,-107.94 111.65,-90 94.38,-79"/>
<polygon fill="#9a32cd" stroke="#9a32cd" points="158.1,-123.72 168.41,-126.14 161.86,-117.82 158.1,-123.72"/>
</a>
</g>
<text text-anchor="middle" x="156.74" y="-99.75" font-family="Helvetica,sans-Serif" font-size="10.00" fill="grey"> range</text>
</g>
<!-- Node5 -->
<g id="Node000005" class="node">
<title>Node5</title>
<g id="a_Node000005"><a xlink:href="structlspserver_1_1Position.html" target="_top" xlink:title=" ">
<polygon fill="white" stroke="#666666" points="237.88,-230.25 131.88,-230.25 131.88,-209.5 237.88,-209.5 237.88,-230.25"/>
<text text-anchor="middle" x="184.88" y="-216.75" font-family="Helvetica,sans-Serif" font-size="10.00">lspserver::Position</text>
</a>
</g>
</g>
<!-- Node5&#45;&gt;Node4 -->
<g id="edge4_Node000004_Node000005" class="edge">
<title>Node5&#45;&gt;Node4</title>
<g id="a_edge4_Node000004_Node000005"><a xlink:title=" ">
<path fill="none" stroke="#9a32cd" stroke-dasharray="5,2" d="M184.88,-197.99C184.88,-181.84 184.88,-160.24 184.88,-148.05"/>
<polygon fill="#9a32cd" stroke="#9a32cd" points="181.38,-197.52 184.88,-207.52 188.38,-197.52 181.38,-197.52"/>
</a>
</g>
<text text-anchor="middle" x="196.12" y="-182" font-family="Helvetica,sans-Serif" font-size="10.00" fill="grey"> end</text>
<text text-anchor="middle" x="196.12" y="-169.25" font-family="Helvetica,sans-Serif" font-size="10.00" fill="grey">start</text>
</g>
</g>
</svg>
