<?xml version="1.0" encoding="UTF-8" standalone="no"?>
<!DOCTYPE svg PUBLIC "-//W3C//DTD SVG 1.1//EN"
 "http://www.w3.org/Graphics/SVG/1.1/DTD/svg11.dtd">
<!-- Generated by graphviz version 12.2.1 (0)
 -->
<!-- Title: lspserver::FoldingRangeParams Pages: 1 -->
<svg width="189pt" height="168pt"
 viewBox="0.00 0.00 189.00 167.75" xmlns="http://www.w3.org/2000/svg" xmlns:xlink="http://www.w3.org/1999/xlink">
<g id="graph0" class="graph" transform="scale(1 1) rotate(0) translate(4 163.75)">
<title>lspserver::FoldingRangeParams</title>
<!-- Node1 -->
<g id="Node000001" class="node">
<title>Node1</title>
<g id="a_Node000001"><a xlink:title=" ">
<polygon fill="#999999" stroke="#666666" points="175,-20.75 6,-20.75 6,0 175,0 175,-20.75"/>
<text text-anchor="middle" x="90.5" y="-7.25" font-family="Helvetica,sans-Serif" font-size="10.00">lspserver::FoldingRangeParams</text>
</a>
</g>
</g>
<!-- Node2 -->
<g id="Node000002" class="node">
<title>Node2</title>
<g id="a_Node000002"><a xlink:href="structlspserver_1_1TextDocumentIdentifier.html" target="_top" xlink:title=" ">
<polygon fill="white" stroke="#666666" points="181,-90.25 0,-90.25 0,-69.5 181,-69.5 181,-90.25"/>
<text text-anchor="middle" x="90.5" y="-76.75" font-family="Helvetica,sans-Serif" font-size="10.00">lspserver::TextDocumentIdentifier</text>
</a>
</g>
</g>
<!-- Node2&#45;&gt;Node1 -->
<g id="edge1_Node000001_Node000002" class="edge">
<title>Node2&#45;&gt;Node1</title>
<g id="a_edge1_Node000001_Node000002"><a xlink:title=" ">
<path fill="none" stroke="#9a32cd" stroke-dasharray="5,2" d="M90.5,-58.07C90.5,-45.72 90.5,-30.65 90.5,-21.03"/>
<polygon fill="#9a32cd" stroke="#9a32cd" points="87,-57.69 90.5,-67.69 94,-57.69 87,-57.69"/>
</a>
</g>
<text text-anchor="middle" x="126.88" y="-42" font-family="Helvetica,sans-Serif" font-size="10.00" fill="grey"> textDocument</text>
</g>
<!-- Node3 -->
<g id="Node000003" class="node">
<title>Node3</title>
<g id="a_Node000003"><a xlink:href="structlspserver_1_1URIForFile.html" target="_top" xlink:title=" ">
<polygon fill="white" stroke="#666666" points="148.75,-159.75 32.25,-159.75 32.25,-139 148.75,-139 148.75,-159.75"/>
<text text-anchor="middle" x="90.5" y="-146.25" font-family="Helvetica,sans-Serif" font-size="10.00">lspserver::URIForFile</text>
</a>
</g>
</g>
<!-- Node3&#45;&gt;Node2 -->
<g id="edge2_Node000002_Node000003" class="edge">
<title>Node3&#45;&gt;Node2</title>
<g id="a_edge2_Node000002_Node000003"><a xlink:title=" ">
<path fill="none" stroke="#9a32cd" stroke-dasharray="5,2" d="M90.5,-127.57C90.5,-115.22 90.5,-100.15 90.5,-90.53"/>
<polygon fill="#9a32cd" stroke="#9a32cd" points="87,-127.19 90.5,-137.19 94,-127.19 87,-127.19"/>
</a>
</g>
<text text-anchor="middle" x="98.38" y="-111.5" font-family="Helvetica,sans-Serif" font-size="10.00" fill="grey"> uri</text>
</g>
</g>
</svg>
