<?xml version="1.0" encoding="UTF-8" standalone="no"?>
<!DOCTYPE svg PUBLIC "-//W3C//DTD SVG 1.1//EN"
 "http://www.w3.org/Graphics/SVG/1.1/DTD/svg11.dtd">
<!-- Generated by graphviz version 12.2.1 (0)
 -->
<!-- Title: nixd::idioms::DynamicNameException Pages: 1 -->
<svg width="163pt" height="168pt"
 viewBox="0.00 0.00 162.75 167.75" xmlns="http://www.w3.org/2000/svg" xmlns:xlink="http://www.w3.org/1999/xlink">
<g id="graph0" class="graph" transform="scale(1 1) rotate(0) translate(4 163.75)">
<title>nixd::idioms::DynamicNameException</title>
<!-- Node1 -->
<g id="Node000001" class="node">
<title>Node1</title>
<g id="a_Node000001"><a xlink:title="The attrpath has a dynamic name, thus it cannot be trivially transformed to &quot;static&quot; selector.">
<polygon fill="#999999" stroke="#666666" points="154.75,-33.5 0,-33.5 0,0 154.75,0 154.75,-33.5"/>
<text text-anchor="start" x="8" y="-20" font-family="Helvetica,sans-Serif" font-size="10.00">nixd::idioms::DynamicName</text>
<text text-anchor="middle" x="77.38" y="-7.25" font-family="Helvetica,sans-Serif" font-size="10.00">Exception</text>
</a>
</g>
</g>
<!-- Node2 -->
<g id="Node000002" class="node">
<title>Node2</title>
<g id="a_Node000002"><a xlink:href="structnixd_1_1idioms_1_1IdiomSelectorException.html" target="_top" xlink:title="Exceptions scoped in nixd::mkIdiomSelector.">
<polygon fill="white" stroke="#666666" points="152.12,-103 2.62,-103 2.62,-69.5 152.12,-69.5 152.12,-103"/>
<text text-anchor="start" x="10.62" y="-89.5" font-family="Helvetica,sans-Serif" font-size="10.00">nixd::idioms::IdiomSelector</text>
<text text-anchor="middle" x="77.38" y="-76.75" font-family="Helvetica,sans-Serif" font-size="10.00">Exception</text>
</a>
</g>
</g>
<!-- Node2&#45;&gt;Node1 -->
<g id="edge1_Node000001_Node000002" class="edge">
<title>Node2&#45;&gt;Node1</title>
<g id="a_edge1_Node000001_Node000002"><a xlink:title=" ">
<path fill="none" stroke="#63b8ff" d="M77.38,-57.81C77.38,-49.59 77.38,-40.84 77.38,-33.63"/>
<polygon fill="#63b8ff" stroke="#63b8ff" points="73.88,-57.74 77.38,-67.74 80.88,-57.74 73.88,-57.74"/>
</a>
</g>
</g>
<!-- Node3 -->
<g id="Node000003" class="node">
<title>Node3</title>
<g id="a_Node000003"><a xlink:title=" ">
<polygon fill="white" stroke="#666666" points="119.88,-159.75 34.88,-159.75 34.88,-139 119.88,-139 119.88,-159.75"/>
<text text-anchor="middle" x="77.38" y="-146.25" font-family="Helvetica,sans-Serif" font-size="10.00">std::exception</text>
</a>
</g>
</g>
<!-- Node3&#45;&gt;Node2 -->
<g id="edge2_Node000002_Node000003" class="edge">
<title>Node3&#45;&gt;Node2</title>
<g id="a_edge2_Node000002_Node000003"><a xlink:title=" ">
<path fill="none" stroke="#63b8ff" d="M77.38,-127.09C77.38,-119.35 77.38,-110.72 77.38,-103.48"/>
<polygon fill="#63b8ff" stroke="#63b8ff" points="73.88,-127.04 77.38,-137.04 80.88,-127.04 73.88,-127.04"/>
</a>
</g>
</g>
</g>
</svg>
