<?xml version="1.0" encoding="UTF-8" standalone="no"?>
<!DOCTYPE svg PUBLIC "-//W3C//DTD SVG 1.1//EN"
 "http://www.w3.org/Graphics/SVG/1.1/DTD/svg11.dtd">
<!-- Generated by graphviz version 12.2.1 (0)
 -->
<!-- Title: lspserver::DocumentRangeFormattingParams Pages: 1 -->
<svg width="309pt" height="193pt"
 viewBox="0.00 0.00 308.50 193.25" xmlns="http://www.w3.org/2000/svg" xmlns:xlink="http://www.w3.org/1999/xlink">
<g id="graph0" class="graph" transform="scale(1 1) rotate(0) translate(4 189.25)">
<title>lspserver::DocumentRangeFormattingParams</title>
<!-- Node1 -->
<g id="Node000001" class="node">
<title>Node1</title>
<g id="a_Node000001"><a xlink:title=" ">
<polygon fill="#999999" stroke="#666666" points="242.5,-33.5 94.5,-33.5 94.5,0 242.5,0 242.5,-33.5"/>
<text text-anchor="start" x="102.5" y="-20" font-family="Helvetica,sans-Serif" font-size="10.00">lspserver::DocumentRange</text>
<text text-anchor="middle" x="168.5" y="-7.25" font-family="Helvetica,sans-Serif" font-size="10.00">FormattingParams</text>
</a>
</g>
</g>
<!-- Node2 -->
<g id="Node000002" class="node">
<title>Node2</title>
<g id="a_Node000002"><a xlink:href="structlspserver_1_1TextDocumentIdentifier.html" target="_top" xlink:title=" ">
<polygon fill="white" stroke="#666666" points="181,-103 0,-103 0,-82.25 181,-82.25 181,-103"/>
<text text-anchor="middle" x="90.5" y="-89.5" font-family="Helvetica,sans-Serif" font-size="10.00">lspserver::TextDocumentIdentifier</text>
</a>
</g>
</g>
<!-- Node2&#45;&gt;Node1 -->
<g id="edge1_Node000001_Node000002" class="edge">
<title>Node2&#45;&gt;Node1</title>
<g id="a_edge1_Node000001_Node000002"><a xlink:title=" ">
<path fill="none" stroke="#9a32cd" stroke-dasharray="5,2" d="M108.84,-74.26C121.72,-62.05 138.85,-45.83 151.44,-33.91"/>
<polygon fill="#9a32cd" stroke="#9a32cd" points="106.65,-71.51 101.8,-80.93 111.46,-76.59 106.65,-71.51"/>
</a>
</g>
<text text-anchor="middle" x="168.21" y="-54.75" font-family="Helvetica,sans-Serif" font-size="10.00" fill="grey"> textDocument</text>
</g>
<!-- Node3 -->
<g id="Node000003" class="node">
<title>Node3</title>
<g id="a_Node000003"><a xlink:href="structlspserver_1_1URIForFile.html" target="_top" xlink:title=" ">
<polygon fill="white" stroke="#666666" points="148.75,-185.25 32.25,-185.25 32.25,-164.5 148.75,-164.5 148.75,-185.25"/>
<text text-anchor="middle" x="90.5" y="-171.75" font-family="Helvetica,sans-Serif" font-size="10.00">lspserver::URIForFile</text>
</a>
</g>
</g>
<!-- Node3&#45;&gt;Node2 -->
<g id="edge2_Node000002_Node000003" class="edge">
<title>Node3&#45;&gt;Node2</title>
<g id="a_edge2_Node000002_Node000003"><a xlink:title=" ">
<path fill="none" stroke="#9a32cd" stroke-dasharray="5,2" d="M90.5,-152.99C90.5,-136.84 90.5,-115.24 90.5,-103.05"/>
<polygon fill="#9a32cd" stroke="#9a32cd" points="87,-152.52 90.5,-162.52 94,-152.52 87,-152.52"/>
</a>
</g>
<text text-anchor="middle" x="98.38" y="-130.62" font-family="Helvetica,sans-Serif" font-size="10.00" fill="grey"> uri</text>
</g>
<!-- Node4 -->
<g id="Node000004" class="node">
<title>Node4</title>
<g id="a_Node000004"><a xlink:href="structlspserver_1_1Range.html" target="_top" xlink:title=" ">
<polygon fill="white" stroke="#666666" points="296.38,-103 198.62,-103 198.62,-82.25 296.38,-82.25 296.38,-103"/>
<text text-anchor="middle" x="247.5" y="-89.5" font-family="Helvetica,sans-Serif" font-size="10.00">lspserver::Range</text>
</a>
</g>
</g>
<!-- Node4&#45;&gt;Node1 -->
<g id="edge3_Node000001_Node000004" class="edge">
<title>Node4&#45;&gt;Node1</title>
<g id="a_edge3_Node000001_Node000004"><a xlink:title=" ">
<path fill="none" stroke="#9a32cd" stroke-dasharray="5,2" d="M230.68,-73.57C223.93,-66.53 216,-58.49 208.5,-51.5 202.12,-45.55 194.9,-39.32 188.37,-33.85"/>
<polygon fill="#9a32cd" stroke="#9a32cd" points="228.01,-75.83 237.42,-80.69 233.09,-71.02 228.01,-75.83"/>
</a>
</g>
<text text-anchor="middle" x="236.01" y="-54.75" font-family="Helvetica,sans-Serif" font-size="10.00" fill="grey"> range</text>
</g>
<!-- Node5 -->
<g id="Node000005" class="node">
<title>Node5</title>
<g id="a_Node000005"><a xlink:href="structlspserver_1_1Position.html" target="_top" xlink:title=" ">
<polygon fill="white" stroke="#666666" points="300.5,-185.25 194.5,-185.25 194.5,-164.5 300.5,-164.5 300.5,-185.25"/>
<text text-anchor="middle" x="247.5" y="-171.75" font-family="Helvetica,sans-Serif" font-size="10.00">lspserver::Position</text>
</a>
</g>
</g>
<!-- Node5&#45;&gt;Node4 -->
<g id="edge4_Node000004_Node000005" class="edge">
<title>Node5&#45;&gt;Node4</title>
<g id="a_edge4_Node000004_Node000005"><a xlink:title=" ">
<path fill="none" stroke="#9a32cd" stroke-dasharray="5,2" d="M247.5,-152.99C247.5,-136.84 247.5,-115.24 247.5,-103.05"/>
<polygon fill="#9a32cd" stroke="#9a32cd" points="244,-152.52 247.5,-162.52 251,-152.52 244,-152.52"/>
</a>
</g>
<text text-anchor="middle" x="258.75" y="-137" font-family="Helvetica,sans-Serif" font-size="10.00" fill="grey"> end</text>
<text text-anchor="middle" x="258.75" y="-124.25" font-family="Helvetica,sans-Serif" font-size="10.00" fill="grey">start</text>
</g>
</g>
</svg>
