<?xml version="1.0" encoding="UTF-8" standalone="no"?>
<!DOCTYPE svg PUBLIC "-//W3C//DTD SVG 1.1//EN"
 "http://www.w3.org/Graphics/SVG/1.1/DTD/svg11.dtd">
<!-- Generated by graphviz version 12.2.1 (0)
 -->
<!-- Title: lspserver::DiagnosticRelatedInformation Pages: 1 -->
<svg width="244pt" height="285pt"
 viewBox="0.00 0.00 244.25 284.75" xmlns="http://www.w3.org/2000/svg" xmlns:xlink="http://www.w3.org/1999/xlink">
<g id="graph0" class="graph" transform="scale(1 1) rotate(0) translate(4 280.75)">
<title>lspserver::DiagnosticRelatedInformation</title>
<!-- Node1 -->
<g id="Node000001" class="node">
<title>Node1</title>
<g id="a_Node000001"><a xlink:title=" ">
<polygon fill="#999999" stroke="#666666" points="157.38,-33.5 1.12,-33.5 1.12,0 157.38,0 157.38,-33.5"/>
<text text-anchor="start" x="9.12" y="-20" font-family="Helvetica,sans-Serif" font-size="10.00">lspserver::DiagnosticRelated</text>
<text text-anchor="middle" x="79.25" y="-7.25" font-family="Helvetica,sans-Serif" font-size="10.00">Information</text>
</a>
</g>
</g>
<!-- Node2 -->
<g id="Node000002" class="node">
<title>Node2</title>
<g id="a_Node000002"><a xlink:href="structlspserver_1_1Location.html" target="_top" xlink:title=" ">
<polygon fill="white" stroke="#666666" points="133.38,-109 25.12,-109 25.12,-88.25 133.38,-88.25 133.38,-109"/>
<text text-anchor="middle" x="79.25" y="-95.5" font-family="Helvetica,sans-Serif" font-size="10.00">lspserver::Location</text>
</a>
</g>
</g>
<!-- Node2&#45;&gt;Node1 -->
<g id="edge1_Node000001_Node000002" class="edge">
<title>Node2&#45;&gt;Node1</title>
<g id="a_edge1_Node000001_Node000002"><a xlink:title=" ">
<path fill="none" stroke="#9a32cd" stroke-dasharray="5,2" d="M79.25,-76.45C79.25,-63.14 79.25,-46.24 79.25,-34"/>
<polygon fill="#9a32cd" stroke="#9a32cd" points="75.75,-76.32 79.25,-86.32 82.75,-76.32 75.75,-76.32"/>
</a>
</g>
<text text-anchor="start" x="82.25" y="-57.75" font-family="Helvetica,sans-Serif" font-size="10.00" fill="grey">location</text>
</g>
<!-- Node3 -->
<g id="Node000003" class="node">
<title>Node3</title>
<g id="a_Node000003"><a xlink:href="structlspserver_1_1URIForFile.html" target="_top" xlink:title=" ">
<polygon fill="white" stroke="#666666" points="116.5,-184.5 0,-184.5 0,-163.75 116.5,-163.75 116.5,-184.5"/>
<text text-anchor="middle" x="58.25" y="-171" font-family="Helvetica,sans-Serif" font-size="10.00">lspserver::URIForFile</text>
</a>
</g>
</g>
<!-- Node3&#45;&gt;Node2 -->
<g id="edge2_Node000002_Node000003" class="edge">
<title>Node3&#45;&gt;Node2</title>
<g id="a_edge2_Node000002_Node000003"><a xlink:title=" ">
<path fill="none" stroke="#9a32cd" stroke-dasharray="5,2" d="M64.04,-152.86C68.07,-138.74 73.28,-120.52 76.44,-109.47"/>
<polygon fill="#9a32cd" stroke="#9a32cd" points="60.79,-151.48 61.41,-162.06 67.52,-153.41 60.79,-151.48"/>
</a>
</g>
<text text-anchor="start" x="74.25" y="-133.25" font-family="Helvetica,sans-Serif" font-size="10.00" fill="grey">uri</text>
</g>
<!-- Node4 -->
<g id="Node000004" class="node">
<title>Node4</title>
<g id="a_Node000004"><a xlink:href="structlspserver_1_1Range.html" target="_top" xlink:title=" ">
<polygon fill="white" stroke="#666666" points="232.12,-184.5 134.38,-184.5 134.38,-163.75 232.12,-163.75 232.12,-184.5"/>
<text text-anchor="middle" x="183.25" y="-171" font-family="Helvetica,sans-Serif" font-size="10.00">lspserver::Range</text>
</a>
</g>
</g>
<!-- Node4&#45;&gt;Node2 -->
<g id="edge3_Node000002_Node000004" class="edge">
<title>Node4&#45;&gt;Node2</title>
<g id="a_edge3_Node000002_Node000004"><a xlink:title=" ">
<path fill="none" stroke="#9a32cd" stroke-dasharray="5,2" d="M160.39,-156.97C139.86,-142.46 110.38,-121.62 93.18,-109.47"/>
<polygon fill="#9a32cd" stroke="#9a32cd" points="158.23,-159.73 168.42,-162.64 162.27,-154.01 158.23,-159.73"/>
</a>
</g>
<text text-anchor="start" x="146.62" y="-133.25" font-family="Helvetica,sans-Serif" font-size="10.00" fill="grey">range</text>
</g>
<!-- Node5 -->
<g id="Node000005" class="node">
<title>Node5</title>
<g id="a_Node000005"><a xlink:href="structlspserver_1_1Position.html" target="_top" xlink:title=" ">
<polygon fill="white" stroke="#666666" points="236.25,-276.75 130.25,-276.75 130.25,-256 236.25,-256 236.25,-276.75"/>
<text text-anchor="middle" x="183.25" y="-263.25" font-family="Helvetica,sans-Serif" font-size="10.00">lspserver::Position</text>
</a>
</g>
</g>
<!-- Node5&#45;&gt;Node4 -->
<g id="edge4_Node000004_Node000005" class="edge">
<title>Node5&#45;&gt;Node4</title>
<g id="a_edge4_Node000004_Node000005"><a xlink:title=" ">
<path fill="none" stroke="#9a32cd" stroke-dasharray="5,2" d="M183.25,-244.27C183.25,-225.58 183.25,-199.15 183.25,-184.99"/>
<polygon fill="#9a32cd" stroke="#9a32cd" points="179.75,-244.2 183.25,-254.2 186.75,-244.2 179.75,-244.2"/>
</a>
</g>
<text text-anchor="start" x="186.25" y="-225.5" font-family="Helvetica,sans-Serif" font-size="10.00" fill="grey">end</text>
<text text-anchor="start" x="186.25" y="-208.75" font-family="Helvetica,sans-Serif" font-size="10.00" fill="grey">start</text>
</g>
</g>
</svg>
