<?xml version="1.0" encoding="UTF-8" standalone="no"?>
<!DOCTYPE svg PUBLIC "-//W3C//DTD SVG 1.1//EN"
 "http://www.w3.org/Graphics/SVG/1.1/DTD/svg11.dtd">
<!-- Generated by graphviz version 12.2.1 (0)
 -->
<!-- Title: lspserver::DocumentOnTypeFormattingParams Pages: 1 -->
<svg width="314pt" height="193pt"
 viewBox="0.00 0.00 313.50 192.50" xmlns="http://www.w3.org/2000/svg" xmlns:xlink="http://www.w3.org/1999/xlink">
<g id="graph0" class="graph" transform="scale(1 1) rotate(0) translate(4 188.5)">
<title>lspserver::DocumentOnTypeFormattingParams</title>
<!-- Node1 -->
<g id="Node000001" class="node">
<title>Node1</title>
<g id="a_Node000001"><a xlink:title=" ">
<polygon fill="#999999" stroke="#666666" points="248.12,-33.5 94.88,-33.5 94.88,0 248.12,0 248.12,-33.5"/>
<text text-anchor="start" x="102.88" y="-20" font-family="Helvetica,sans-Serif" font-size="10.00">lspserver::DocumentOnType</text>
<text text-anchor="middle" x="171.5" y="-7.25" font-family="Helvetica,sans-Serif" font-size="10.00">FormattingParams</text>
</a>
</g>
</g>
<!-- Node2 -->
<g id="Node000002" class="node">
<title>Node2</title>
<g id="a_Node000002"><a xlink:href="structlspserver_1_1TextDocumentIdentifier.html" target="_top" xlink:title=" ">
<polygon fill="white" stroke="#666666" points="181,-109 0,-109 0,-88.25 181,-88.25 181,-109"/>
<text text-anchor="middle" x="90.5" y="-95.5" font-family="Helvetica,sans-Serif" font-size="10.00">lspserver::TextDocumentIdentifier</text>
</a>
</g>
</g>
<!-- Node2&#45;&gt;Node1 -->
<g id="edge1_Node000001_Node000002" class="edge">
<title>Node2&#45;&gt;Node1</title>
<g id="a_edge1_Node000001_Node000002"><a xlink:title=" ">
<path fill="none" stroke="#9a32cd" stroke-dasharray="5,2" d="M108.32,-80.05C122.25,-66.32 141.45,-47.38 155.02,-34"/>
<polygon fill="#9a32cd" stroke="#9a32cd" points="106.17,-77.25 101.51,-86.77 111.09,-82.24 106.17,-77.25"/>
</a>
</g>
<text text-anchor="start" x="138.85" y="-57.75" font-family="Helvetica,sans-Serif" font-size="10.00" fill="grey">textDocument</text>
</g>
<!-- Node3 -->
<g id="Node000003" class="node">
<title>Node3</title>
<g id="a_Node000003"><a xlink:href="structlspserver_1_1URIForFile.html" target="_top" xlink:title=" ">
<polygon fill="white" stroke="#666666" points="148.75,-184.5 32.25,-184.5 32.25,-163.75 148.75,-163.75 148.75,-184.5"/>
<text text-anchor="middle" x="90.5" y="-171" font-family="Helvetica,sans-Serif" font-size="10.00">lspserver::URIForFile</text>
</a>
</g>
</g>
<!-- Node3&#45;&gt;Node2 -->
<g id="edge2_Node000002_Node000003" class="edge">
<title>Node3&#45;&gt;Node2</title>
<g id="a_edge2_Node000002_Node000003"><a xlink:title=" ">
<path fill="none" stroke="#9a32cd" stroke-dasharray="5,2" d="M90.5,-152.01C90.5,-138.01 90.5,-120.3 90.5,-109.47"/>
<polygon fill="#9a32cd" stroke="#9a32cd" points="87,-152 90.5,-162 94,-152 87,-152"/>
</a>
</g>
<text text-anchor="start" x="93.5" y="-133.25" font-family="Helvetica,sans-Serif" font-size="10.00" fill="grey">uri</text>
</g>
<!-- Node4 -->
<g id="Node000004" class="node">
<title>Node4</title>
<g id="a_Node000004"><a xlink:href="structlspserver_1_1Position.html" target="_top" xlink:title=" ">
<polygon fill="white" stroke="#666666" points="305.5,-109 199.5,-109 199.5,-88.25 305.5,-88.25 305.5,-109"/>
<text text-anchor="middle" x="252.5" y="-95.5" font-family="Helvetica,sans-Serif" font-size="10.00">lspserver::Position</text>
</a>
</g>
</g>
<!-- Node4&#45;&gt;Node1 -->
<g id="edge3_Node000001_Node000004" class="edge">
<title>Node4&#45;&gt;Node1</title>
<g id="a_edge3_Node000001_Node000004"><a xlink:title=" ">
<path fill="none" stroke="#9a32cd" stroke-dasharray="5,2" d="M239.09,-78.86C232.44,-70.12 224.03,-59.85 215.5,-51.5 209.17,-45.31 201.71,-39.2 194.74,-33.93"/>
<polygon fill="#9a32cd" stroke="#9a32cd" points="236.09,-80.69 244.85,-86.66 241.72,-76.54 236.09,-80.69"/>
</a>
</g>
<text text-anchor="start" x="234.78" y="-57.75" font-family="Helvetica,sans-Serif" font-size="10.00" fill="grey">position</text>
</g>
</g>
</svg>
