<?xml version="1.0" encoding="UTF-8" standalone="no"?>
<!DOCTYPE svg PUBLIC "-//W3C//DTD SVG 1.1//EN"
 "http://www.w3.org/Graphics/SVG/1.1/DTD/svg11.dtd">
<!-- Generated by graphviz version 12.2.1 (0)
 -->
<!-- Title: lspserver::CodeActionParams Pages: 1 -->
<svg width="483pt" height="181pt"
 viewBox="0.00 0.00 482.88 180.50" xmlns="http://www.w3.org/2000/svg" xmlns:xlink="http://www.w3.org/1999/xlink">
<g id="graph0" class="graph" transform="scale(1 1) rotate(0) translate(4 176.5)">
<title>lspserver::CodeActionParams</title>
<!-- Node1 -->
<g id="Node000001" class="node">
<title>Node1</title>
<g id="a_Node000001"><a xlink:title=" ">
<polygon fill="#999999" stroke="#666666" points="326.75,-20.75 168.25,-20.75 168.25,0 326.75,0 326.75,-20.75"/>
<text text-anchor="middle" x="247.5" y="-7.25" font-family="Helvetica,sans-Serif" font-size="10.00">lspserver::CodeActionParams</text>
</a>
</g>
</g>
<!-- Node2 -->
<g id="Node000002" class="node">
<title>Node2</title>
<g id="a_Node000002"><a xlink:href="structlspserver_1_1TextDocumentIdentifier.html" target="_top" xlink:title=" ">
<polygon fill="white" stroke="#666666" points="181,-90.25 0,-90.25 0,-69.5 181,-69.5 181,-90.25"/>
<text text-anchor="middle" x="90.5" y="-76.75" font-family="Helvetica,sans-Serif" font-size="10.00">lspserver::TextDocumentIdentifier</text>
</a>
</g>
</g>
<!-- Node2&#45;&gt;Node1 -->
<g id="edge1_Node000001_Node000002" class="edge">
<title>Node2&#45;&gt;Node1</title>
<g id="a_edge1_Node000001_Node000002"><a xlink:title=" ">
<path fill="none" stroke="#9a32cd" stroke-dasharray="5,2" d="M118.22,-63.98C133.5,-56.03 152.94,-46.35 170.75,-38.75 185.84,-32.31 203.02,-26.09 217.29,-21.21"/>
<polygon fill="#9a32cd" stroke="#9a32cd" points="116.93,-60.7 109.71,-68.45 120.19,-66.89 116.93,-60.7"/>
</a>
</g>
<text text-anchor="middle" x="207.12" y="-42" font-family="Helvetica,sans-Serif" font-size="10.00" fill="grey"> textDocument</text>
</g>
<!-- Node3 -->
<g id="Node000003" class="node">
<title>Node3</title>
<g id="a_Node000003"><a xlink:href="structlspserver_1_1URIForFile.html" target="_top" xlink:title=" ">
<polygon fill="white" stroke="#666666" points="148.75,-172.5 32.25,-172.5 32.25,-151.75 148.75,-151.75 148.75,-172.5"/>
<text text-anchor="middle" x="90.5" y="-159" font-family="Helvetica,sans-Serif" font-size="10.00">lspserver::URIForFile</text>
</a>
</g>
</g>
<!-- Node3&#45;&gt;Node2 -->
<g id="edge2_Node000002_Node000003" class="edge">
<title>Node3&#45;&gt;Node2</title>
<g id="a_edge2_Node000002_Node000003"><a xlink:title=" ">
<path fill="none" stroke="#9a32cd" stroke-dasharray="5,2" d="M90.5,-140.24C90.5,-124.09 90.5,-102.49 90.5,-90.3"/>
<polygon fill="#9a32cd" stroke="#9a32cd" points="87,-139.77 90.5,-149.77 94,-139.77 87,-139.77"/>
</a>
</g>
<text text-anchor="middle" x="98.38" y="-117.88" font-family="Helvetica,sans-Serif" font-size="10.00" fill="grey"> uri</text>
</g>
<!-- Node4 -->
<g id="Node000004" class="node">
<title>Node4</title>
<g id="a_Node000004"><a xlink:href="structlspserver_1_1Range.html" target="_top" xlink:title=" ">
<polygon fill="white" stroke="#666666" points="296.38,-90.25 198.62,-90.25 198.62,-69.5 296.38,-69.5 296.38,-90.25"/>
<text text-anchor="middle" x="247.5" y="-76.75" font-family="Helvetica,sans-Serif" font-size="10.00">lspserver::Range</text>
</a>
</g>
</g>
<!-- Node4&#45;&gt;Node1 -->
<g id="edge3_Node000001_Node000004" class="edge">
<title>Node4&#45;&gt;Node1</title>
<g id="a_edge3_Node000001_Node000004"><a xlink:title=" ">
<path fill="none" stroke="#9a32cd" stroke-dasharray="5,2" d="M247.5,-58.07C247.5,-45.72 247.5,-30.65 247.5,-21.03"/>
<polygon fill="#9a32cd" stroke="#9a32cd" points="244,-57.69 247.5,-67.69 251,-57.69 244,-57.69"/>
</a>
</g>
<text text-anchor="middle" x="262.88" y="-42" font-family="Helvetica,sans-Serif" font-size="10.00" fill="grey"> range</text>
</g>
<!-- Node5 -->
<g id="Node000005" class="node">
<title>Node5</title>
<g id="a_Node000005"><a xlink:href="structlspserver_1_1Position.html" target="_top" xlink:title=" ">
<polygon fill="white" stroke="#666666" points="300.5,-172.5 194.5,-172.5 194.5,-151.75 300.5,-151.75 300.5,-172.5"/>
<text text-anchor="middle" x="247.5" y="-159" font-family="Helvetica,sans-Serif" font-size="10.00">lspserver::Position</text>
</a>
</g>
</g>
<!-- Node5&#45;&gt;Node4 -->
<g id="edge4_Node000004_Node000005" class="edge">
<title>Node5&#45;&gt;Node4</title>
<g id="a_edge4_Node000004_Node000005"><a xlink:title=" ">
<path fill="none" stroke="#9a32cd" stroke-dasharray="5,2" d="M247.5,-140.24C247.5,-124.09 247.5,-102.49 247.5,-90.3"/>
<polygon fill="#9a32cd" stroke="#9a32cd" points="244,-139.77 247.5,-149.77 251,-139.77 244,-139.77"/>
</a>
</g>
<text text-anchor="middle" x="258.75" y="-124.25" font-family="Helvetica,sans-Serif" font-size="10.00" fill="grey"> end</text>
<text text-anchor="middle" x="258.75" y="-111.5" font-family="Helvetica,sans-Serif" font-size="10.00" fill="grey">start</text>
</g>
<!-- Node6 -->
<g id="Node000006" class="node">
<title>Node6</title>
<g id="a_Node000006"><a xlink:href="structlspserver_1_1CodeActionContext.html" target="_top" xlink:title=" ">
<polygon fill="white" stroke="#666666" points="474.88,-90.25 314.12,-90.25 314.12,-69.5 474.88,-69.5 474.88,-90.25"/>
<text text-anchor="middle" x="394.5" y="-76.75" font-family="Helvetica,sans-Serif" font-size="10.00">lspserver::CodeActionContext</text>
</a>
</g>
</g>
<!-- Node6&#45;&gt;Node1 -->
<g id="edge5_Node000001_Node000006" class="edge">
<title>Node6&#45;&gt;Node1</title>
<g id="a_edge5_Node000001_Node000006"><a xlink:title=" ">
<path fill="none" stroke="#9a32cd" stroke-dasharray="5,2" d="M362.92,-64.37C334.54,-51.34 293.63,-32.55 268.9,-21.2"/>
<polygon fill="#9a32cd" stroke="#9a32cd" points="361.2,-67.44 371.75,-68.43 364.12,-61.07 361.2,-67.44"/>
</a>
</g>
<text text-anchor="middle" x="354.04" y="-42" font-family="Helvetica,sans-Serif" font-size="10.00" fill="grey"> context</text>
</g>
</g>
</svg>
